  0
SECTION
  2
HEADER
  9
$ACADVER
  1
AC1009
  9
$INSBASE
 10
0.000000
 20
0.000000
 30
0.000000
  9
$EXTMIN
 10
0.000000
 20
0.000000
  9
$EXTMAX
 10
190.000000
 20
257.000000
  9
$LIMMIN
 10
0.000000
 20
0.000000
  9
$LIMMAX
 10
190.000000
 20
257.000000
  9
$TEXTSIZE
 40
0.200000
  9
$TEXTSTYLE
  7
BIGFONT
  9
$CLAYER
  8
0
  9
$ANGBASE
 50
0.000000
  9
$ANGDIR
 70
     0
  0
ENDSEC
  0
SECTION
  2
TABLES
  0
TABLE
  2
LTYPE
 70
    11
  0
LTYPE
  2
BYBLOCK
 70
    64
  3
BYBLOCK
 72
    65
 73
     0
 40
0.000000
  0
LTYPE
  2
BYLAYER
 70
    64
  3
BYLAYER
 72
    65
 73
     0
 40
0.000000
  0
LTYPE
  2
CONTINUOUS
 70
    64
  3
é¿ê¸
 72
    65
 73
     0
 40
0.000000
  0
LTYPE
  2
DASHED
 70
    64
  3
__ __ __ __ __ __ __ __ __ __ __ __ __ __ __
 72
    65
 73
     2
 40
0.750000
 49
0.500000
 49
-0.250000
  0
LTYPE
  2
HIDDEN
 70
    64
  3
_ _ _ _ _ _ _ _ _ _ _ _ _ _ _ _ _ _ _ _ _ _ _
 72
    65
 73
     2
 40
0.375000
 49
0.250000
 49
-0.125000
  0
LTYPE
  2
CENTER
 70
    64
  3
____ _ ____ _ ____ _ ____ _ ____ _ ____ _ ____
 72
    65
 73
     4
 40
2.000000
 49
1.250000
 49
-0.250000
 49
0.250000
 49
-0.250000
  0
LTYPE
  2
PHANTOM
 70
    64
  3
_____ _ _ _____ _ _ _____ _ _ _____ _ _ ____
 72
    65
 73
     6
 40
2.500000
 49
1.250000
 49
-0.250000
 49
0.250000
 49
-0.250000
 49
0.250000
 49
-0.250000
  0
LTYPE
  2
DOT
 70
    64
  3
...............................................
 72
    65
 73
     2
 40
0.250000
 49
0.000000
 49
-0.250000
  0
LTYPE
  2
DASHDOT
 70
    64
  3
__ . __ . __ . __ . __ . __ . __ . __ . __ . __
 72
    65
 73
     4
 40
1.000000
 49
0.500000
 49
-0.250000
 49
0.000000
 49
-0.250000
  0
LTYPE
  2
BORDER
 70
    64
  3
__ __ . __ __ . __ __ . __ __ . __ __ . __ __
 72
    65
 73
     6
 40
1.750000
 49
0.500000
 49
-0.250000
 49
0.500000
 49
-0.250000
 49
0.000000
 49
-0.250000
  0
LTYPE
  2
DIVIDE
 70
    64
  3
__ . . __ . . __ . . __ . . __ . . __ . . __
 72
    65
 73
     6
 40
1.250000
 49
0.500000
 49
-0.250000
 49
0.000000
 49
-0.250000
 49
0.000000
 49
-0.250000
  0
ENDTAB
  0
TABLE
  2
LAYER
  5
a2
 70
     2
  0
LAYER
  5
a5
  2
0
 70
     0
 62
     7
  6
CONTINUOUS
  0
LAYER
  5
a8
  2
B
 70
     0
 62
     7
  6
CONTINUOUS
  0
LAYER
  5
ab
  2
C
 70
     0
 62
     7
  6
CONTINUOUS
  0
LAYER
  5
ae
  2
D
 70
     0
 62
     7
  6
CONTINUOUS
  0
LAYER
  5
b1
  2
E
 70
     0
 62
     7
  6
CONTINUOUS
  0
LAYER
  5
b4
  2
F
 70
     0
 62
     7
  6
CONTINUOUS
  0
LAYER
  5
b7
  2
G
 70
     0
 62
     7
  6
CONTINUOUS
  0
LAYER
  5
ba
  2
H
 70
     0
 62
     7
  6
CONTINUOUS
  0
LAYER
  5
bd
  2
I
 70
     0
 62
     7
  6
CONTINUOUS
  0
LAYER
  5
c0
  2
J
 70
     0
 62
     7
  6
CONTINUOUS
  0
LAYER
  5
c3
  2
K
 70
     0
 62
     7
  6
CONTINUOUS
  0
LAYER
  5
c6
  2
L
 70
     0
 62
     7
  6
CONTINUOUS
  0
LAYER
  5
c9
  2
M
 70
     0
 62
     7
  6
CONTINUOUS
  0
LAYER
  5
cc
  2
N
 70
     0
 62
     7
  6
CONTINUOUS
  0
ENDTAB
  0
TABLE
  2
STYLE
 70
     2
  0
STYLE
  2
STANDARD
 70
     0
 40
0.000000
 41
0.500000
 50
0.000000
 71
     0
 42
0.300000
  3
txt
  4

  0
STYLE
  2
BIGFONT
 70
    64
 40
0.000000
 41
1.000000
 50
0.000000
 71
     0
 42
0.200000
  3

  4
bigfont
  0
ENDTAB
  0
ENDSEC
  0
SECTION
  2
BLOCKS
  0
ENDSEC
  0
SECTION
  2
ENTITIES
  0
POLYLINE
  8
0
 66
     1
 70
     1
 40
0.200000
 41
0.200000
  0
VERTEX
  8
0
 10
33.475000
 20
200.975000
  0
VERTEX
  8
0
 10
34.175000
 20
201.050000
  0
VERTEX
  8
0
 10
34.825000
 20
201.125000
  0
VERTEX
  8
0
 10
35.475000
 20
201.225000
  0
VERTEX
  8
0
 10
36.075000
 20
201.350000
  0
VERTEX
  8
0
 10
36.650000
 20
201.450000
  0
VERTEX
  8
0
 10
37.200000
 20
201.600000
  0
VERTEX
  8
0
 10
37.700000
 20
201.725000
  0
VERTEX
  8
0
 10
38.200000
 20
201.875000
  0
VERTEX
  8
0
 10
38.650000
 20
202.050000
  0
VERTEX
  8
0
 10
39.100000
 20
202.200000
  0
VERTEX
  8
0
 10
39.500000
 20
202.400000
  0
VERTEX
  8
0
 10
39.850000
 20
202.600000
  0
VERTEX
  8
0
 10
40.200000
 20
202.800000
  0
VERTEX
  8
0
 10
40.525000
 20
203.000000
  0
VERTEX
  8
0
 10
40.800000
 20
203.225000
  0
VERTEX
  8
0
 10
41.050000
 20
203.475000
  0
VERTEX
  8
0
 10
41.225000
 20
203.675000
  0
VERTEX
  8
0
 10
41.400000
 20
203.875000
  0
VERTEX
  8
0
 10
41.575000
 20
204.075000
  0
VERTEX
  8
0
 10
41.725000
 20
204.300000
  0
VERTEX
  8
0
 10
41.850000
 20
204.525000
  0
VERTEX
  8
0
 10
41.975000
 20
204.775000
  0
VERTEX
  8
0
 10
42.100000
 20
205.025000
  0
VERTEX
  8
0
 10
42.200000
 20
205.300000
  0
VERTEX
  8
0
 10
42.275000
 20
205.575000
  0
VERTEX
  8
0
 10
42.375000
 20
205.850000
  0
VERTEX
  8
0
 10
42.425000
 20
206.150000
  0
VERTEX
  8
0
 10
42.475000
 20
206.450000
  0
VERTEX
  8
0
 10
42.525000
 20
206.750000
  0
VERTEX
  8
0
 10
42.550000
 20
207.075000
  0
VERTEX
  8
0
 10
42.575000
 20
207.400000
  0
VERTEX
  8
0
 10
42.575000
 20
207.750000
  0
VERTEX
  8
0
 10
42.575000
 20
208.125000
  0
VERTEX
  8
0
 10
42.550000
 20
208.475000
  0
VERTEX
  8
0
 10
42.525000
 20
208.825000
  0
VERTEX
  8
0
 10
42.475000
 20
209.150000
  0
VERTEX
  8
0
 10
42.425000
 20
209.475000
  0
VERTEX
  8
0
 10
42.375000
 20
209.800000
  0
VERTEX
  8
0
 10
42.275000
 20
210.100000
  0
VERTEX
  8
0
 10
42.200000
 20
210.375000
  0
VERTEX
  8
0
 10
42.100000
 20
210.675000
  0
VERTEX
  8
0
 10
41.975000
 20
210.925000
  0
VERTEX
  8
0
 10
41.850000
 20
211.175000
  0
VERTEX
  8
0
 10
41.725000
 20
211.425000
  0
VERTEX
  8
0
 10
41.575000
 20
211.650000
  0
VERTEX
  8
0
 10
41.400000
 20
211.875000
  0
VERTEX
  8
0
 10
41.225000
 20
212.075000
  0
VERTEX
  8
0
 10
41.050000
 20
212.275000
  0
VERTEX
  8
0
 10
40.825000
 20
212.500000
  0
VERTEX
  8
0
 10
40.575000
 20
212.700000
  0
VERTEX
  8
0
 10
40.325000
 20
212.900000
  0
VERTEX
  8
0
 10
40.075000
 20
213.075000
  0
VERTEX
  8
0
 10
39.800000
 20
213.250000
  0
VERTEX
  8
0
 10
39.525000
 20
213.425000
  0
VERTEX
  8
0
 10
39.225000
 20
213.550000
  0
VERTEX
  8
0
 10
38.925000
 20
213.700000
  0
VERTEX
  8
0
 10
38.600000
 20
213.825000
  0
VERTEX
  8
0
 10
38.275000
 20
213.925000
  0
VERTEX
  8
0
 10
37.950000
 20
214.025000
  0
VERTEX
  8
0
 10
37.600000
 20
214.125000
  0
VERTEX
  8
0
 10
37.225000
 20
214.200000
  0
VERTEX
  8
0
 10
36.875000
 20
214.250000
  0
VERTEX
  8
0
 10
36.500000
 20
214.300000
  0
VERTEX
  8
0
 10
36.100000
 20
214.350000
  0
VERTEX
  8
0
 10
35.825000
 20
213.475000
  0
VERTEX
  8
0
 10
35.550000
 20
212.625000
  0
VERTEX
  8
0
 10
35.250000
 20
211.825000
  0
VERTEX
  8
0
 10
34.950000
 20
211.025000
  0
VERTEX
  8
0
 10
34.675000
 20
210.300000
  0
VERTEX
  8
0
 10
34.375000
 20
209.575000
  0
VERTEX
  8
0
 10
34.075000
 20
208.900000
  0
VERTEX
  8
0
 10
33.750000
 20
208.250000
  0
VERTEX
  8
0
 10
33.450000
 20
207.650000
  0
VERTEX
  8
0
 10
33.125000
 20
207.075000
  0
VERTEX
  8
0
 10
32.800000
 20
206.525000
  0
VERTEX
  8
0
 10
32.475000
 20
206.000000
  0
VERTEX
  8
0
 10
32.150000
 20
205.525000
  0
VERTEX
  8
0
 10
31.825000
 20
205.100000
  0
VERTEX
  8
0
 10
31.500000
 20
204.675000
  0
VERTEX
  8
0
 10
31.150000
 20
204.300000
  0
VERTEX
  8
0
 10
31.975000
 20
202.500000
  0
VERTEX
  8
0
 10
29.350000
 20
200.575000
  0
VERTEX
  8
0
 10
28.650000
 20
202.100000
  0
VERTEX
  8
0
 10
28.200000
 20
201.725000
  0
VERTEX
  8
0
 10
27.775000
 20
201.400000
  0
VERTEX
  8
0
 10
27.350000
 20
201.075000
  0
VERTEX
  8
0
 10
26.925000
 20
200.775000
  0
VERTEX
  8
0
 10
26.525000
 20
200.500000
  0
VERTEX
  8
0
 10
26.125000
 20
200.250000
  0
VERTEX
  8
0
 10
25.725000
 20
200.025000
  0
VERTEX
  8
0
 10
25.350000
 20
199.825000
  0
VERTEX
  8
0
 10
24.975000
 20
199.625000
  0
VERTEX
  8
0
 10
24.625000
 20
199.475000
  0
VERTEX
  8
0
 10
24.250000
 20
199.350000
  0
VERTEX
  8
0
 10
23.900000
 20
199.250000
  0
VERTEX
  8
0
 10
23.575000
 20
199.150000
  0
VERTEX
  8
0
 10
23.225000
 20
199.100000
  0
VERTEX
  8
0
 10
22.925000
 20
199.050000
  0
VERTEX
  8
0
 10
22.600000
 20
199.050000
  0
VERTEX
  8
0
 10
22.400000
 20
199.050000
  0
VERTEX
  8
0
 10
22.200000
 20
199.075000
  0
VERTEX
  8
0
 10
22.000000
 20
199.100000
  0
VERTEX
  8
0
 10
21.800000
 20
199.150000
  0
VERTEX
  8
0
 10
21.600000
 20
199.200000
  0
VERTEX
  8
0
 10
21.400000
 20
199.250000
  0
VERTEX
  8
0
 10
21.200000
 20
199.325000
  0
VERTEX
  8
0
 10
21.025000
 20
199.400000
  0
VERTEX
  8
0
 10
20.825000
 20
199.500000
  0
VERTEX
  8
0
 10
20.650000
 20
199.600000
  0
VERTEX
  8
0
 10
20.450000
 20
199.700000
  0
VERTEX
  8
0
 10
20.275000
 20
199.825000
  0
VERTEX
  8
0
 10
20.100000
 20
199.975000
  0
VERTEX
  8
0
 10
19.925000
 20
200.100000
  0
VERTEX
  8
0
 10
19.750000
 20
200.250000
  0
VERTEX
  8
0
 10
19.575000
 20
200.425000
  0
VERTEX
  8
0
 10
19.400000
 20
200.625000
  0
VERTEX
  8
0
 10
19.225000
 20
200.825000
  0
VERTEX
  8
0
 10
19.050000
 20
201.050000
  0
VERTEX
  8
0
 10
18.900000
 20
201.250000
  0
VERTEX
  8
0
 10
18.775000
 20
201.500000
  0
VERTEX
  8
0
 10
18.650000
 20
201.725000
  0
VERTEX
  8
0
 10
18.525000
 20
201.975000
  0
VERTEX
  8
0
 10
18.425000
 20
202.225000
  0
VERTEX
  8
0
 10
18.350000
 20
202.500000
  0
VERTEX
  8
0
 10
18.250000
 20
202.775000
  0
VERTEX
  8
0
 10
18.200000
 20
203.050000
  0
VERTEX
  8
0
 10
18.150000
 20
203.325000
  0
VERTEX
  8
0
 10
18.100000
 20
203.625000
  0
VERTEX
  8
0
 10
18.075000
 20
203.925000
  0
VERTEX
  8
0
 10
18.050000
 20
204.250000
  0
VERTEX
  8
0
 10
18.050000
 20
204.575000
  0
VERTEX
  8
0
 10
18.050000
 20
205.150000
  0
VERTEX
  8
0
 10
18.100000
 20
205.725000
  0
VERTEX
  8
0
 10
18.150000
 20
206.275000
  0
VERTEX
  8
0
 10
18.250000
 20
206.825000
  0
VERTEX
  8
0
 10
18.350000
 20
207.350000
  0
VERTEX
  8
0
 10
18.500000
 20
207.875000
  0
VERTEX
  8
0
 10
18.650000
 20
208.375000
  0
VERTEX
  8
0
 10
18.850000
 20
208.875000
  0
VERTEX
  8
0
 10
19.050000
 20
209.350000
  0
VERTEX
  8
0
 10
19.275000
 20
209.825000
  0
VERTEX
  8
0
 10
19.550000
 20
210.300000
  0
VERTEX
  8
0
 10
19.825000
 20
210.750000
  0
VERTEX
  8
0
 10
20.150000
 20
211.175000
  0
VERTEX
  8
0
 10
20.475000
 20
211.600000
  0
VERTEX
  8
0
 10
20.850000
 20
212.025000
  0
VERTEX
  8
0
 10
21.225000
 20
212.425000
  0
VERTEX
  8
0
 10
21.475000
 20
212.650000
  0
VERTEX
  8
0
 10
21.700000
 20
212.900000
  0
VERTEX
  8
0
 10
21.950000
 20
213.125000
  0
VERTEX
  8
0
 10
22.200000
 20
213.325000
  0
VERTEX
  8
0
 10
22.425000
 20
213.550000
  0
VERTEX
  8
0
 10
22.675000
 20
213.750000
  0
VERTEX
  8
0
 10
22.925000
 20
213.950000
  0
VERTEX
  8
0
 10
23.175000
 20
214.150000
  0
VERTEX
  8
0
 10
23.425000
 20
214.325000
  0
VERTEX
  8
0
 10
23.675000
 20
214.500000
  0
VERTEX
  8
0
 10
23.925000
 20
214.675000
  0
VERTEX
  8
0
 10
24.200000
 20
214.850000
  0
VERTEX
  8
0
 10
24.450000
 20
215.000000
  0
VERTEX
  8
0
 10
24.700000
 20
215.175000
  0
VERTEX
  8
0
 10
24.975000
 20
215.300000
  0
VERTEX
  8
0
 10
25.225000
 20
215.450000
  0
VERTEX
  8
0
 10
25.500000
 20
220.700000
  0
VERTEX
  8
0
 10
19.700000
 20
220.425000
  0
VERTEX
  8
0
 10
19.150000
 20
223.450000
  0
VERTEX
  8
0
 10
25.625000
 20
223.575000
  0
VERTEX
  8
0
 10
25.650000
 20
223.975000
  0
VERTEX
  8
0
 10
25.675000
 20
224.375000
  0
VERTEX
  8
0
 10
25.675000
 20
224.750000
  0
VERTEX
  8
0
 10
25.700000
 20
225.150000
  0
VERTEX
  8
0
 10
25.725000
 20
225.550000
  0
VERTEX
  8
0
 10
25.750000
 20
225.925000
  0
VERTEX
  8
0
 10
25.775000
 20
226.300000
  0
VERTEX
  8
0
 10
25.800000
 20
226.675000
  0
VERTEX
  8
0
 10
25.825000
 20
227.075000
  0
VERTEX
  8
0
 10
25.850000
 20
227.450000
  0
VERTEX
  8
0
 10
25.875000
 20
227.825000
  0
VERTEX
  8
0
 10
25.925000
 20
228.175000
  0
VERTEX
  8
0
 10
25.950000
 20
228.550000
  0
VERTEX
  8
0
 10
25.975000
 20
228.925000
  0
VERTEX
  8
0
 10
26.025000
 20
229.300000
  0
VERTEX
  8
0
 10
26.050000
 20
229.650000
  0
VERTEX
  8
0
 10
28.650000
 20
229.650000
  0
VERTEX
  8
0
 10
28.825000
 20
229.625000
  0
VERTEX
  8
0
 10
28.950000
 20
229.575000
  0
VERTEX
  8
0
 10
29.075000
 20
229.525000
  0
VERTEX
  8
0
 10
29.200000
 20
229.475000
  0
VERTEX
  8
0
 10
29.275000
 20
229.425000
  0
VERTEX
  8
0
 10
29.350000
 20
229.375000
  0
VERTEX
  8
0
 10
29.400000
 20
229.300000
  0
VERTEX
  8
0
 10
29.425000
 20
229.250000
  0
VERTEX
  8
0
 10
29.425000
 20
229.175000
  0
VERTEX
  8
0
 10
29.400000
 20
229.100000
  0
VERTEX
  8
0
 10
29.375000
 20
229.025000
  0
VERTEX
  8
0
 10
29.325000
 20
228.925000
  0
VERTEX
  8
0
 10
29.250000
 20
228.850000
  0
VERTEX
  8
0
 10
29.175000
 20
228.750000
  0
VERTEX
  8
0
 10
29.050000
 20
228.650000
  0
VERTEX
  8
0
 10
28.925000
 20
228.550000
  0
VERTEX
  8
0
 10
28.900000
 20
228.250000
  0
VERTEX
  8
0
 10
28.850000
 20
227.925000
  0
VERTEX
  8
0
 10
28.825000
 20
227.625000
  0
VERTEX
  8
0
 10
28.800000
 20
227.325000
  0
VERTEX
  8
0
 10
28.775000
 20
227.000000
  0
VERTEX
  8
0
 10
28.750000
 20
226.700000
  0
VERTEX
  8
0
 10
28.725000
 20
226.400000
  0
VERTEX
  8
0
 10
28.700000
 20
226.100000
  0
VERTEX
  8
0
 10
28.650000
 20
225.800000
  0
VERTEX
  8
0
 10
28.650000
 20
225.500000
  0
VERTEX
  8
0
 10
28.625000
 20
225.200000
  0
VERTEX
  8
0
 10
28.600000
 20
224.900000
  0
VERTEX
  8
0
 10
28.575000
 20
224.600000
  0
VERTEX
  8
0
 10
28.550000
 20
224.300000
  0
VERTEX
  8
0
 10
28.550000
 20
224.025000
  0
VERTEX
  8
0
 10
28.525000
 20
223.725000
  0
VERTEX
  8
0
 10
29.350000
 20
223.775000
  0
VERTEX
  8
0
 10
30.150000
 20
223.825000
  0
VERTEX
  8
0
 10
30.925000
 20
223.900000
  0
VERTEX
  8
0
 10
31.700000
 20
223.950000
  0
VERTEX
  8
0
 10
32.475000
 20
224.025000
  0
VERTEX
  8
0
 10
33.200000
 20
224.100000
  0
VERTEX
  8
0
 10
33.950000
 20
224.150000
  0
VERTEX
  8
0
 10
34.650000
 20
224.225000
  0
VERTEX
  8
0
 10
35.350000
 20
224.325000
  0
VERTEX
  8
0
 10
36.025000
 20
224.400000
  0
VERTEX
  8
0
 10
36.700000
 20
224.475000
  0
VERTEX
  8
0
 10
37.350000
 20
224.575000
  0
VERTEX
  8
0
 10
38.000000
 20
224.675000
  0
VERTEX
  8
0
 10
38.625000
 20
224.775000
  0
VERTEX
  8
0
 10
39.225000
 20
224.875000
  0
VERTEX
  8
0
 10
39.825000
 20
224.975000
  0
VERTEX
  8
0
 10
40.375000
 20
221.925000
  0
VERTEX
  8
0
 10
39.650000
 20
221.850000
  0
VERTEX
  8
0
 10
38.925000
 20
221.750000
  0
VERTEX
  8
0
 10
38.175000
 20
221.675000
  0
VERTEX
  8
0
 10
37.450000
 20
221.600000
  0
VERTEX
  8
0
 10
36.700000
 20
221.550000
  0
VERTEX
  8
0
 10
35.975000
 20
221.475000
  0
VERTEX
  8
0
 10
35.225000
 20
221.400000
  0
VERTEX
  8
0
 10
34.475000
 20
221.350000
  0
VERTEX
  8
0
 10
33.725000
 20
221.300000
  0
VERTEX
  8
0
 10
32.975000
 20
221.225000
  0
VERTEX
  8
0
 10
32.225000
 20
221.175000
  0
VERTEX
  8
0
 10
31.450000
 20
221.125000
  0
VERTEX
  8
0
 10
30.700000
 20
221.100000
  0
VERTEX
  8
0
 10
29.925000
 20
221.050000
  0
VERTEX
  8
0
 10
29.150000
 20
221.000000
  0
VERTEX
  8
0
 10
28.375000
 20
220.975000
  0
VERTEX
  8
0
 10
28.100000
 20
216.550000
  0
VERTEX
  8
0
 10
28.350000
 20
216.625000
  0
VERTEX
  8
0
 10
28.600000
 20
216.725000
  0
VERTEX
  8
0
 10
28.875000
 20
216.800000
  0
VERTEX
  8
0
 10
29.175000
 20
216.875000
  0
VERTEX
  8
0
 10
29.450000
 20
216.925000
  0
VERTEX
  8
0
 10
29.775000
 20
217.000000
  0
VERTEX
  8
0
 10
30.075000
 20
217.050000
  0
VERTEX
  8
0
 10
30.425000
 20
217.100000
  0
VERTEX
  8
0
 10
30.750000
 20
217.150000
  0
VERTEX
  8
0
 10
31.100000
 20
217.200000
  0
VERTEX
  8
0
 10
31.475000
 20
217.250000
  0
VERTEX
  8
0
 10
31.850000
 20
217.275000
  0
VERTEX
  8
0
 10
32.225000
 20
217.300000
  0
VERTEX
  8
0
 10
32.625000
 20
217.325000
  0
VERTEX
  8
0
 10
33.050000
 20
217.350000
  0
VERTEX
  8
0
 10
33.475000
 20
217.375000
  0
VERTEX
  8
0
 10
33.900000
 20
219.600000
  0
VERTEX
  8
0
 10
36.500000
 20
219.175000
  0
VERTEX
  8
0
 10
36.650000
 20
219.150000
  0
VERTEX
  8
0
 10
36.775000
 20
219.100000
  0
VERTEX
  8
0
 10
36.900000
 20
219.050000
  0
VERTEX
  8
0
 10
37.000000
 20
219.000000
  0
VERTEX
  8
0
 10
37.075000
 20
218.950000
  0
VERTEX
  8
0
 10
37.125000
 20
218.900000
  0
VERTEX
  8
0
 10
37.175000
 20
218.825000
  0
VERTEX
  8
0
 10
37.200000
 20
218.775000
  0
VERTEX
  8
0
 10
37.200000
 20
218.700000
  0
VERTEX
  8
0
 10
37.200000
 20
218.625000
  0
VERTEX
  8
0
 10
37.175000
 20
218.550000
  0
VERTEX
  8
0
 10
37.125000
 20
218.450000
  0
VERTEX
  8
0
 10
37.075000
 20
218.375000
  0
VERTEX
  8
0
 10
37.000000
 20
218.275000
  0
VERTEX
  8
0
 10
36.900000
 20
218.175000
  0
VERTEX
  8
0
 10
36.800000
 20
218.075000
  0
VERTEX
  8
0
 10
36.650000
 20
217.100000
  0
VERTEX
  8
0
 10
37.175000
 20
217.050000
  0
VERTEX
  8
0
 10
37.700000
 20
216.975000
  0
VERTEX
  8
0
 10
38.175000
 20
216.875000
  0
VERTEX
  8
0
 10
38.675000
 20
216.775000
  0
VERTEX
  8
0
 10
39.125000
 20
216.650000
  0
VERTEX
  8
0
 10
39.575000
 20
216.525000
  0
VERTEX
  8
0
 10
40.025000
 20
216.375000
  0
VERTEX
  8
0
 10
40.450000
 20
216.200000
  0
VERTEX
  8
0
 10
40.850000
 20
216.025000
  0
VERTEX
  8
0
 10
41.250000
 20
215.850000
  0
VERTEX
  8
0
 10
41.625000
 20
215.625000
  0
VERTEX
  8
0
 10
41.975000
 20
215.400000
  0
VERTEX
  8
0
 10
42.325000
 20
215.175000
  0
VERTEX
  8
0
 10
42.650000
 20
214.900000
  0
VERTEX
  8
0
 10
42.975000
 20
214.625000
  0
VERTEX
  8
0
 10
43.275000
 20
214.350000
  0
VERTEX
  8
0
 10
43.600000
 20
214.025000
  0
VERTEX
  8
0
 10
43.875000
 20
213.675000
  0
VERTEX
  8
0
 10
44.150000
 20
213.325000
  0
VERTEX
  8
0
 10
44.400000
 20
212.950000
  0
VERTEX
  8
0
 10
44.650000
 20
212.575000
  0
VERTEX
  8
0
 10
44.850000
 20
212.175000
  0
VERTEX
  8
0
 10
45.050000
 20
211.775000
  0
VERTEX
  8
0
 10
45.225000
 20
211.350000
  0
VERTEX
  8
0
 10
45.375000
 20
210.925000
  0
VERTEX
  8
0
 10
45.500000
 20
210.475000
  0
VERTEX
  8
0
 10
45.625000
 20
210.025000
  0
VERTEX
  8
0
 10
45.700000
 20
209.575000
  0
VERTEX
  8
0
 10
45.775000
 20
209.100000
  0
VERTEX
  8
0
 10
45.825000
 20
208.600000
  0
VERTEX
  8
0
 10
45.875000
 20
208.100000
  0
VERTEX
  8
0
 10
45.875000
 20
207.600000
  0
VERTEX
  8
0
 10
45.875000
 20
207.125000
  0
VERTEX
  8
0
 10
45.850000
 20
206.650000
  0
VERTEX
  8
0
 10
45.800000
 20
206.200000
  0
VERTEX
  8
0
 10
45.725000
 20
205.775000
  0
VERTEX
  8
0
 10
45.650000
 20
205.325000
  0
VERTEX
  8
0
 10
45.550000
 20
204.925000
  0
VERTEX
  8
0
 10
45.425000
 20
204.500000
  0
VERTEX
  8
0
 10
45.300000
 20
204.125000
  0
VERTEX
  8
0
 10
45.150000
 20
203.725000
  0
VERTEX
  8
0
 10
44.975000
 20
203.375000
  0
VERTEX
  8
0
 10
44.775000
 20
203.000000
  0
VERTEX
  8
0
 10
44.575000
 20
202.650000
  0
VERTEX
  8
0
 10
44.350000
 20
202.325000
  0
VERTEX
  8
0
 10
44.100000
 20
202.000000
  0
VERTEX
  8
0
 10
43.825000
 20
201.700000
  0
VERTEX
  8
0
 10
43.550000
 20
201.400000
  0
VERTEX
  8
0
 10
43.225000
 20
201.100000
  0
VERTEX
  8
0
 10
42.875000
 20
200.800000
  0
VERTEX
  8
0
 10
42.500000
 20
200.525000
  0
VERTEX
  8
0
 10
42.100000
 20
200.250000
  0
VERTEX
  8
0
 10
41.675000
 20
200.000000
  0
VERTEX
  8
0
 10
41.200000
 20
199.750000
  0
VERTEX
  8
0
 10
40.725000
 20
199.525000
  0
VERTEX
  8
0
 10
40.225000
 20
199.300000
  0
VERTEX
  8
0
 10
39.700000
 20
199.100000
  0
VERTEX
  8
0
 10
39.150000
 20
198.900000
  0
VERTEX
  8
0
 10
38.575000
 20
198.700000
  0
VERTEX
  8
0
 10
37.950000
 20
198.525000
  0
VERTEX
  8
0
 10
37.325000
 20
198.375000
  0
VERTEX
  8
0
 10
36.675000
 20
198.225000
  0
VERTEX
  8
0
 10
35.975000
 20
198.075000
  0
VERTEX
  8
0
 10
35.275000
 20
197.950000
  0
VERTEX
  8
0
 10
33.475000
 20
200.975000
  0
SEQEND
  8
0
  0
POLYLINE
  8
0
 66
     1
 70
     1
 40
0.200000
 41
0.200000
  0
VERTEX
  8
0
 10
25.625000
 20
212.550000
  0
VERTEX
  8
0
 10
25.600000
 20
212.525000
  0
VERTEX
  8
0
 10
25.550000
 20
212.525000
  0
VERTEX
  8
0
 10
25.525000
 20
212.500000
  0
VERTEX
  8
0
 10
25.500000
 20
212.475000
  0
VERTEX
  8
0
 10
25.450000
 20
212.475000
  0
VERTEX
  8
0
 10
25.425000
 20
212.450000
  0
VERTEX
  8
0
 10
25.375000
 20
212.425000
  0
VERTEX
  8
0
 10
25.350000
 20
212.400000
  0
VERTEX
  8
0
 10
25.325000
 20
212.375000
  0
VERTEX
  8
0
 10
25.275000
 20
212.375000
  0
VERTEX
  8
0
 10
25.250000
 20
212.350000
  0
VERTEX
  8
0
 10
25.200000
 20
212.325000
  0
VERTEX
  8
0
 10
25.175000
 20
212.300000
  0
VERTEX
  8
0
 10
25.125000
 20
212.275000
  0
VERTEX
  8
0
 10
25.100000
 20
212.250000
  0
VERTEX
  8
0
 10
25.075000
 20
212.225000
  0
VERTEX
  8
0
 10
25.025000
 20
212.200000
  0
VERTEX
  8
0
 10
25.000000
 20
212.175000
  0
VERTEX
  8
0
 10
24.950000
 20
212.150000
  0
VERTEX
  8
0
 10
24.925000
 20
212.125000
  0
VERTEX
  8
0
 10
24.875000
 20
212.100000
  0
VERTEX
  8
0
 10
24.850000
 20
212.075000
  0
VERTEX
  8
0
 10
24.800000
 20
212.050000
  0
VERTEX
  8
0
 10
24.775000
 20
212.025000
  0
VERTEX
  8
0
 10
24.725000
 20
212.000000
  0
VERTEX
  8
0
 10
24.700000
 20
211.975000
  0
VERTEX
  8
0
 10
24.650000
 20
211.950000
  0
VERTEX
  8
0
 10
24.625000
 20
211.925000
  0
VERTEX
  8
0
 10
24.575000
 20
211.900000
  0
VERTEX
  8
0
 10
24.550000
 20
211.875000
  0
VERTEX
  8
0
 10
24.500000
 20
211.825000
  0
VERTEX
  8
0
 10
24.475000
 20
211.800000
  0
VERTEX
  8
0
 10
24.425000
 20
211.775000
  0
VERTEX
  8
0
 10
24.375000
 20
211.750000
  0
VERTEX
  8
0
 10
24.350000
 20
211.700000
  0
VERTEX
  8
0
 10
24.300000
 20
211.675000
  0
VERTEX
  8
0
 10
24.275000
 20
211.650000
  0
VERTEX
  8
0
 10
24.225000
 20
211.625000
  0
VERTEX
  8
0
 10
24.200000
 20
211.575000
  0
VERTEX
  8
0
 10
24.150000
 20
211.550000
  0
VERTEX
  8
0
 10
24.100000
 20
211.525000
  0
VERTEX
  8
0
 10
24.075000
 20
211.475000
  0
VERTEX
  8
0
 10
24.025000
 20
211.450000
  0
VERTEX
  8
0
 10
24.000000
 20
211.400000
  0
VERTEX
  8
0
 10
23.950000
 20
211.375000
  0
VERTEX
  8
0
 10
23.900000
 20
211.350000
  0
VERTEX
  8
0
 10
23.875000
 20
211.300000
  0
VERTEX
  8
0
 10
23.825000
 20
211.275000
  0
VERTEX
  8
0
 10
23.775000
 20
211.225000
  0
VERTEX
  8
0
 10
23.750000
 20
211.200000
  0
VERTEX
  8
0
 10
23.700000
 20
211.150000
  0
VERTEX
  8
0
 10
23.650000
 20
211.125000
  0
VERTEX
  8
0
 10
23.625000
 20
211.075000
  0
VERTEX
  8
0
 10
23.575000
 20
211.050000
  0
VERTEX
  8
0
 10
23.525000
 20
211.000000
  0
VERTEX
  8
0
 10
23.500000
 20
210.950000
  0
VERTEX
  8
0
 10
23.450000
 20
210.925000
  0
VERTEX
  8
0
 10
23.400000
 20
210.875000
  0
VERTEX
  8
0
 10
23.375000
 20
210.825000
  0
VERTEX
  8
0
 10
23.325000
 20
210.800000
  0
VERTEX
  8
0
 10
23.275000
 20
210.750000
  0
VERTEX
  8
0
 10
23.225000
 20
210.700000
  0
VERTEX
  8
0
 10
23.200000
 20
210.675000
  0
VERTEX
  8
0
 10
23.150000
 20
210.625000
  0
VERTEX
  8
0
 10
23.075000
 20
210.550000
  0
VERTEX
  8
0
 10
23.000000
 20
210.475000
  0
VERTEX
  8
0
 10
22.925000
 20
210.400000
  0
VERTEX
  8
0
 10
22.850000
 20
210.300000
  0
VERTEX
  8
0
 10
22.775000
 20
210.225000
  0
VERTEX
  8
0
 10
22.700000
 20
210.150000
  0
VERTEX
  8
0
 10
22.650000
 20
210.075000
  0
VERTEX
  8
0
 10
22.575000
 20
209.975000
  0
VERTEX
  8
0
 10
22.500000
 20
209.900000
  0
VERTEX
  8
0
 10
22.425000
 20
209.825000
  0
VERTEX
  8
0
 10
22.375000
 20
209.725000
  0
VERTEX
  8
0
 10
22.300000
 20
209.650000
  0
VERTEX
  8
0
 10
22.250000
 20
209.550000
  0
VERTEX
  8
0
 10
22.175000
 20
209.475000
  0
VERTEX
  8
0
 10
22.125000
 20
209.375000
  0
VERTEX
  8
0
 10
22.075000
 20
209.300000
  0
VERTEX
  8
0
 10
22.000000
 20
209.200000
  0
VERTEX
  8
0
 10
21.950000
 20
209.125000
  0
VERTEX
  8
0
 10
21.900000
 20
209.025000
  0
VERTEX
  8
0
 10
21.850000
 20
208.925000
  0
VERTEX
  8
0
 10
21.800000
 20
208.850000
  0
VERTEX
  8
0
 10
21.750000
 20
208.750000
  0
VERTEX
  8
0
 10
21.700000
 20
208.650000
  0
VERTEX
  8
0
 10
21.650000
 20
208.550000
  0
VERTEX
  8
0
 10
21.600000
 20
208.450000
  0
VERTEX
  8
0
 10
21.550000
 20
208.375000
  0
VERTEX
  8
0
 10
21.500000
 20
208.275000
  0
VERTEX
  8
0
 10
21.450000
 20
208.175000
  0
VERTEX
  8
0
 10
21.425000
 20
208.075000
  0
VERTEX
  8
0
 10
21.375000
 20
207.975000
  0
VERTEX
  8
0
 10
21.325000
 20
207.875000
  0
VERTEX
  8
0
 10
21.300000
 20
207.775000
  0
VERTEX
  8
0
 10
21.250000
 20
207.675000
  0
VERTEX
  8
0
 10
21.225000
 20
207.575000
  0
VERTEX
  8
0
 10
21.175000
 20
207.475000
  0
VERTEX
  8
0
 10
21.150000
 20
207.350000
  0
VERTEX
  8
0
 10
21.125000
 20
207.250000
  0
VERTEX
  8
0
 10
21.075000
 20
207.150000
  0
VERTEX
  8
0
 10
21.050000
 20
207.050000
  0
VERTEX
  8
0
 10
21.025000
 20
206.950000
  0
VERTEX
  8
0
 10
21.000000
 20
206.825000
  0
VERTEX
  8
0
 10
20.975000
 20
206.725000
  0
VERTEX
  8
0
 10
20.950000
 20
206.625000
  0
VERTEX
  8
0
 10
20.925000
 20
206.500000
  0
VERTEX
  8
0
 10
20.900000
 20
206.400000
  0
VERTEX
  8
0
 10
20.875000
 20
206.275000
  0
VERTEX
  8
0
 10
20.850000
 20
206.175000
  0
VERTEX
  8
0
 10
20.825000
 20
206.050000
  0
VERTEX
  8
0
 10
20.800000
 20
205.950000
  0
VERTEX
  8
0
 10
20.800000
 20
205.825000
  0
VERTEX
  8
0
 10
20.775000
 20
205.725000
  0
VERTEX
  8
0
 10
20.750000
 20
205.600000
  0
VERTEX
  8
0
 10
20.750000
 20
205.475000
  0
VERTEX
  8
0
 10
20.725000
 20
205.375000
  0
VERTEX
  8
0
 10
20.725000
 20
205.250000
  0
VERTEX
  8
0
 10
20.725000
 20
205.125000
  0
VERTEX
  8
0
 10
20.700000
 20
205.000000
  0
VERTEX
  8
0
 10
20.700000
 20
204.900000
  0
VERTEX
  8
0
 10
20.700000
 20
204.775000
  0
VERTEX
  8
0
 10
20.675000
 20
204.650000
  0
VERTEX
  8
0
 10
20.675000
 20
204.525000
  0
VERTEX
  8
0
 10
20.675000
 20
204.400000
  0
VERTEX
  8
0
 10
20.675000
 20
204.275000
  0
VERTEX
  8
0
 10
20.675000
 20
204.150000
  0
VERTEX
  8
0
 10
20.675000
 20
204.125000
  0
VERTEX
  8
0
 10
20.675000
 20
204.075000
  0
VERTEX
  8
0
 10
20.675000
 20
204.050000
  0
VERTEX
  8
0
 10
20.675000
 20
204.025000
  0
VERTEX
  8
0
 10
20.675000
 20
203.975000
  0
VERTEX
  8
0
 10
20.675000
 20
203.950000
  0
VERTEX
  8
0
 10
20.675000
 20
203.925000
  0
VERTEX
  8
0
 10
20.700000
 20
203.875000
  0
VERTEX
  8
0
 10
20.700000
 20
203.850000
  0
VERTEX
  8
0
 10
20.700000
 20
203.825000
  0
VERTEX
  8
0
 10
20.700000
 20
203.775000
  0
VERTEX
  8
0
 10
20.700000
 20
203.750000
  0
VERTEX
  8
0
 10
20.700000
 20
203.725000
  0
VERTEX
  8
0
 10
20.725000
 20
203.675000
  0
VERTEX
  8
0
 10
20.725000
 20
203.650000
  0
VERTEX
  8
0
 10
20.725000
 20
203.625000
  0
VERTEX
  8
0
 10
20.725000
 20
203.600000
  0
VERTEX
  8
0
 10
20.750000
 20
203.550000
  0
VERTEX
  8
0
 10
20.750000
 20
203.525000
  0
VERTEX
  8
0
 10
20.750000
 20
203.500000
  0
VERTEX
  8
0
 10
20.775000
 20
203.450000
  0
VERTEX
  8
0
 10
20.775000
 20
203.425000
  0
VERTEX
  8
0
 10
20.775000
 20
203.400000
  0
VERTEX
  8
0
 10
20.800000
 20
203.375000
  0
VERTEX
  8
0
 10
20.800000
 20
203.325000
  0
VERTEX
  8
0
 10
20.800000
 20
203.300000
  0
VERTEX
  8
0
 10
20.825000
 20
203.275000
  0
VERTEX
  8
0
 10
20.825000
 20
203.250000
  0
VERTEX
  8
0
 10
20.850000
 20
203.225000
  0
VERTEX
  8
0
 10
20.850000
 20
203.175000
  0
VERTEX
  8
0
 10
20.875000
 20
203.150000
  0
VERTEX
  8
0
 10
20.875000
 20
203.125000
  0
VERTEX
  8
0
 10
20.900000
 20
203.100000
  0
VERTEX
  8
0
 10
20.900000
 20
203.050000
  0
VERTEX
  8
0
 10
20.925000
 20
203.025000
  0
VERTEX
  8
0
 10
20.925000
 20
203.000000
  0
VERTEX
  8
0
 10
20.950000
 20
202.975000
  0
VERTEX
  8
0
 10
20.975000
 20
202.950000
  0
VERTEX
  8
0
 10
20.975000
 20
202.925000
  0
VERTEX
  8
0
 10
21.000000
 20
202.875000
  0
VERTEX
  8
0
 10
21.025000
 20
202.850000
  0
VERTEX
  8
0
 10
21.025000
 20
202.825000
  0
VERTEX
  8
0
 10
21.050000
 20
202.800000
  0
VERTEX
  8
0
 10
21.075000
 20
202.775000
  0
VERTEX
  8
0
 10
21.075000
 20
202.750000
  0
VERTEX
  8
0
 10
21.100000
 20
202.700000
  0
VERTEX
  8
0
 10
21.125000
 20
202.675000
  0
VERTEX
  8
0
 10
21.150000
 20
202.650000
  0
VERTEX
  8
0
 10
21.150000
 20
202.625000
  0
VERTEX
  8
0
 10
21.175000
 20
202.600000
  0
VERTEX
  8
0
 10
21.200000
 20
202.575000
  0
VERTEX
  8
0
 10
21.225000
 20
202.550000
  0
VERTEX
  8
0
 10
21.250000
 20
202.525000
  0
VERTEX
  8
0
 10
21.250000
 20
202.500000
  0
VERTEX
  8
0
 10
21.275000
 20
202.475000
  0
VERTEX
  8
0
 10
21.300000
 20
202.425000
  0
VERTEX
  8
0
 10
21.325000
 20
202.400000
  0
VERTEX
  8
0
 10
21.350000
 20
202.375000
  0
VERTEX
  8
0
 10
21.375000
 20
202.350000
  0
VERTEX
  8
0
 10
21.400000
 20
202.325000
  0
VERTEX
  8
0
 10
21.425000
 20
202.300000
  0
VERTEX
  8
0
 10
21.450000
 20
202.275000
  0
VERTEX
  8
0
 10
21.475000
 20
202.250000
  0
VERTEX
  8
0
 10
21.500000
 20
202.225000
  0
VERTEX
  8
0
 10
21.525000
 20
202.200000
  0
VERTEX
  8
0
 10
21.550000
 20
202.175000
  0
VERTEX
  8
0
 10
21.575000
 20
202.175000
  0
VERTEX
  8
0
 10
21.600000
 20
202.150000
  0
VERTEX
  8
0
 10
21.625000
 20
202.125000
  0
VERTEX
  8
0
 10
21.650000
 20
202.125000
  0
VERTEX
  8
0
 10
21.675000
 20
202.100000
  0
VERTEX
  8
0
 10
21.700000
 20
202.100000
  0
VERTEX
  8
0
 10
21.725000
 20
202.075000
  0
VERTEX
  8
0
 10
21.750000
 20
202.075000
  0
VERTEX
  8
0
 10
21.775000
 20
202.050000
  0
VERTEX
  8
0
 10
21.800000
 20
202.050000
  0
VERTEX
  8
0
 10
21.825000
 20
202.050000
  0
VERTEX
  8
0
 10
21.850000
 20
202.050000
  0
VERTEX
  8
0
 10
21.875000
 20
202.025000
  0
VERTEX
  8
0
 10
21.900000
 20
202.025000
  0
VERTEX
  8
0
 10
21.925000
 20
202.025000
  0
VERTEX
  8
0
 10
21.950000
 20
202.025000
  0
VERTEX
  8
0
 10
21.975000
 20
202.000000
  0
VERTEX
  8
0
 10
22.000000
 20
202.000000
  0
VERTEX
  8
0
 10
22.025000
 20
202.000000
  0
VERTEX
  8
0
 10
22.050000
 20
202.000000
  0
VERTEX
  8
0
 10
22.075000
 20
202.000000
  0
VERTEX
  8
0
 10
22.100000
 20
201.975000
  0
VERTEX
  8
0
 10
22.125000
 20
201.975000
  0
VERTEX
  8
0
 10
22.150000
 20
201.975000
  0
VERTEX
  8
0
 10
22.175000
 20
201.975000
  0
VERTEX
  8
0
 10
22.200000
 20
201.975000
  0
VERTEX
  8
0
 10
22.225000
 20
201.975000
  0
VERTEX
  8
0
 10
22.250000
 20
201.975000
  0
VERTEX
  8
0
 10
22.275000
 20
201.975000
  0
VERTEX
  8
0
 10
22.300000
 20
201.950000
  0
VERTEX
  8
0
 10
22.325000
 20
201.950000
  0
VERTEX
  8
0
 10
22.350000
 20
201.950000
  0
VERTEX
  8
0
 10
22.375000
 20
201.950000
  0
VERTEX
  8
0
 10
22.400000
 20
201.950000
  0
VERTEX
  8
0
 10
22.425000
 20
201.950000
  0
VERTEX
  8
0
 10
22.450000
 20
201.950000
  0
VERTEX
  8
0
 10
22.475000
 20
201.950000
  0
VERTEX
  8
0
 10
22.500000
 20
201.950000
  0
VERTEX
  8
0
 10
22.525000
 20
201.950000
  0
VERTEX
  8
0
 10
22.550000
 20
201.950000
  0
VERTEX
  8
0
 10
22.575000
 20
201.950000
  0
VERTEX
  8
0
 10
22.600000
 20
201.950000
  0
VERTEX
  8
0
 10
22.675000
 20
201.950000
  0
VERTEX
  8
0
 10
22.725000
 20
201.950000
  0
VERTEX
  8
0
 10
22.800000
 20
201.950000
  0
VERTEX
  8
0
 10
22.850000
 20
201.950000
  0
VERTEX
  8
0
 10
22.925000
 20
201.975000
  0
VERTEX
  8
0
 10
23.000000
 20
201.975000
  0
VERTEX
  8
0
 10
23.050000
 20
201.975000
  0
VERTEX
  8
0
 10
23.125000
 20
202.000000
  0
VERTEX
  8
0
 10
23.200000
 20
202.000000
  0
VERTEX
  8
0
 10
23.250000
 20
202.025000
  0
VERTEX
  8
0
 10
23.325000
 20
202.025000
  0
VERTEX
  8
0
 10
23.400000
 20
202.050000
  0
VERTEX
  8
0
 10
23.450000
 20
202.050000
  0
VERTEX
  8
0
 10
23.525000
 20
202.075000
  0
VERTEX
  8
0
 10
23.600000
 20
202.100000
  0
VERTEX
  8
0
 10
23.675000
 20
202.125000
  0
VERTEX
  8
0
 10
23.725000
 20
202.125000
  0
VERTEX
  8
0
 10
23.800000
 20
202.150000
  0
VERTEX
  8
0
 10
23.875000
 20
202.175000
  0
VERTEX
  8
0
 10
23.950000
 20
202.200000
  0
VERTEX
  8
0
 10
24.000000
 20
202.225000
  0
VERTEX
  8
0
 10
24.075000
 20
202.250000
  0
VERTEX
  8
0
 10
24.150000
 20
202.300000
  0
VERTEX
  8
0
 10
24.225000
 20
202.325000
  0
VERTEX
  8
0
 10
24.300000
 20
202.350000
  0
VERTEX
  8
0
 10
24.375000
 20
202.375000
  0
VERTEX
  8
0
 10
24.425000
 20
202.425000
  0
VERTEX
  8
0
 10
24.500000
 20
202.450000
  0
VERTEX
  8
0
 10
24.575000
 20
202.500000
  0
VERTEX
  8
0
 10
24.650000
 20
202.525000
  0
VERTEX
  8
0
 10
24.725000
 20
202.575000
  0
VERTEX
  8
0
 10
24.800000
 20
202.600000
  0
VERTEX
  8
0
 10
24.875000
 20
202.650000
  0
VERTEX
  8
0
 10
24.950000
 20
202.700000
  0
VERTEX
  8
0
 10
25.025000
 20
202.725000
  0
VERTEX
  8
0
 10
25.100000
 20
202.775000
  0
VERTEX
  8
0
 10
25.175000
 20
202.825000
  0
VERTEX
  8
0
 10
25.250000
 20
202.875000
  0
VERTEX
  8
0
 10
25.325000
 20
202.925000
  0
VERTEX
  8
0
 10
25.400000
 20
202.975000
  0
VERTEX
  8
0
 10
25.475000
 20
203.025000
  0
VERTEX
  8
0
 10
25.550000
 20
203.075000
  0
VERTEX
  8
0
 10
25.625000
 20
203.125000
  0
VERTEX
  8
0
 10
25.700000
 20
203.200000
  0
VERTEX
  8
0
 10
25.775000
 20
203.250000
  0
VERTEX
  8
0
 10
25.850000
 20
203.300000
  0
VERTEX
  8
0
 10
25.925000
 20
203.375000
  0
VERTEX
  8
0
 10
26.000000
 20
203.425000
  0
VERTEX
  8
0
 10
26.075000
 20
203.500000
  0
VERTEX
  8
0
 10
26.150000
 20
203.550000
  0
VERTEX
  8
0
 10
26.225000
 20
203.625000
  0
VERTEX
  8
0
 10
26.300000
 20
203.675000
  0
VERTEX
  8
0
 10
26.400000
 20
203.750000
  0
VERTEX
  8
0
 10
26.475000
 20
203.825000
  0
VERTEX
  8
0
 10
26.550000
 20
203.900000
  0
VERTEX
  8
0
 10
26.625000
 20
203.950000
  0
VERTEX
  8
0
 10
26.700000
 20
204.025000
  0
VERTEX
  8
0
 10
26.800000
 20
204.100000
  0
VERTEX
  8
0
 10
26.875000
 20
204.175000
  0
VERTEX
  8
0
 10
26.950000
 20
204.250000
  0
VERTEX
  8
0
 10
27.025000
 20
204.325000
  0
VERTEX
  8
0
 10
27.100000
 20
204.425000
  0
VERTEX
  8
0
 10
27.200000
 20
204.500000
  0
VERTEX
  8
0
 10
27.275000
 20
204.575000
  0
VERTEX
  8
0
 10
27.225000
 20
204.700000
  0
VERTEX
  8
0
 10
27.200000
 20
204.825000
  0
VERTEX
  8
0
 10
27.150000
 20
204.950000
  0
VERTEX
  8
0
 10
27.100000
 20
205.100000
  0
VERTEX
  8
0
 10
27.075000
 20
205.225000
  0
VERTEX
  8
0
 10
27.025000
 20
205.350000
  0
VERTEX
  8
0
 10
26.975000
 20
205.475000
  0
VERTEX
  8
0
 10
26.950000
 20
205.600000
  0
VERTEX
  8
0
 10
26.900000
 20
205.725000
  0
VERTEX
  8
0
 10
26.875000
 20
205.850000
  0
VERTEX
  8
0
 10
26.825000
 20
205.975000
  0
VERTEX
  8
0
 10
26.800000
 20
206.125000
  0
VERTEX
  8
0
 10
26.750000
 20
206.250000
  0
VERTEX
  8
0
 10
26.725000
 20
206.375000
  0
VERTEX
  8
0
 10
26.675000
 20
206.500000
  0
VERTEX
  8
0
 10
26.650000
 20
206.625000
  0
VERTEX
  8
0
 10
26.625000
 20
206.750000
  0
VERTEX
  8
0
 10
26.575000
 20
206.875000
  0
VERTEX
  8
0
 10
26.550000
 20
207.000000
  0
VERTEX
  8
0
 10
26.525000
 20
207.125000
  0
VERTEX
  8
0
 10
26.475000
 20
207.250000
  0
VERTEX
  8
0
 10
26.450000
 20
207.375000
  0
VERTEX
  8
0
 10
26.425000
 20
207.500000
  0
VERTEX
  8
0
 10
26.400000
 20
207.625000
  0
VERTEX
  8
0
 10
26.375000
 20
207.750000
  0
VERTEX
  8
0
 10
26.325000
 20
207.875000
  0
VERTEX
  8
0
 10
26.300000
 20
208.000000
  0
VERTEX
  8
0
 10
26.275000
 20
208.125000
  0
VERTEX
  8
0
 10
26.250000
 20
208.250000
  0
VERTEX
  8
0
 10
26.225000
 20
208.400000
  0
VERTEX
  8
0
 10
26.200000
 20
208.525000
  0
VERTEX
  8
0
 10
26.175000
 20
208.625000
  0
VERTEX
  8
0
 10
26.150000
 20
208.750000
  0
VERTEX
  8
0
 10
26.125000
 20
208.875000
  0
VERTEX
  8
0
 10
26.100000
 20
209.000000
  0
VERTEX
  8
0
 10
26.075000
 20
209.125000
  0
VERTEX
  8
0
 10
26.050000
 20
209.250000
  0
VERTEX
  8
0
 10
26.025000
 20
209.375000
  0
VERTEX
  8
0
 10
26.000000
 20
209.500000
  0
VERTEX
  8
0
 10
25.975000
 20
209.625000
  0
VERTEX
  8
0
 10
25.950000
 20
209.750000
  0
VERTEX
  8
0
 10
25.950000
 20
209.875000
  0
VERTEX
  8
0
 10
25.925000
 20
210.000000
  0
VERTEX
  8
0
 10
25.900000
 20
210.125000
  0
VERTEX
  8
0
 10
25.875000
 20
210.250000
  0
VERTEX
  8
0
 10
25.850000
 20
210.375000
  0
VERTEX
  8
0
 10
25.850000
 20
210.500000
  0
VERTEX
  8
0
 10
25.825000
 20
210.625000
  0
VERTEX
  8
0
 10
25.800000
 20
210.725000
  0
VERTEX
  8
0
 10
25.800000
 20
210.850000
  0
VERTEX
  8
0
 10
25.775000
 20
210.975000
  0
VERTEX
  8
0
 10
25.775000
 20
211.100000
  0
VERTEX
  8
0
 10
25.750000
 20
211.225000
  0
VERTEX
  8
0
 10
25.725000
 20
211.350000
  0
VERTEX
  8
0
 10
25.725000
 20
211.475000
  0
VERTEX
  8
0
 10
25.700000
 20
211.600000
  0
VERTEX
  8
0
 10
25.700000
 20
211.700000
  0
VERTEX
  8
0
 10
25.675000
 20
211.825000
  0
VERTEX
  8
0
 10
25.675000
 20
211.950000
  0
VERTEX
  8
0
 10
25.650000
 20
212.075000
  0
VERTEX
  8
0
 10
25.650000
 20
212.200000
  0
VERTEX
  8
0
 10
25.650000
 20
212.300000
  0
VERTEX
  8
0
 10
25.625000
 20
212.425000
  0
VERTEX
  8
0
 10
25.625000
 20
212.550000
  0
SEQEND
  8
0
  0
POLYLINE
  8
0
 66
     1
 70
     1
 40
0.200000
 41
0.200000
  0
VERTEX
  8
0
 10
28.375000
 20
213.950000
  0
VERTEX
  8
0
 10
28.375000
 20
213.900000
  0
VERTEX
  8
0
 10
28.375000
 20
213.850000
  0
VERTEX
  8
0
 10
28.375000
 20
213.775000
  0
VERTEX
  8
0
 10
28.375000
 20
213.725000
  0
VERTEX
  8
0
 10
28.400000
 20
213.675000
  0
VERTEX
  8
0
 10
28.400000
 20
213.625000
  0
VERTEX
  8
0
 10
28.400000
 20
213.550000
  0
VERTEX
  8
0
 10
28.400000
 20
213.500000
  0
VERTEX
  8
0
 10
28.400000
 20
213.450000
  0
VERTEX
  8
0
 10
28.400000
 20
213.400000
  0
VERTEX
  8
0
 10
28.400000
 20
213.325000
  0
VERTEX
  8
0
 10
28.400000
 20
213.275000
  0
VERTEX
  8
0
 10
28.425000
 20
213.225000
  0
VERTEX
  8
0
 10
28.425000
 20
213.175000
  0
VERTEX
  8
0
 10
28.425000
 20
213.100000
  0
VERTEX
  8
0
 10
28.425000
 20
213.050000
  0
VERTEX
  8
0
 10
28.425000
 20
213.000000
  0
VERTEX
  8
0
 10
28.450000
 20
212.950000
  0
VERTEX
  8
0
 10
28.450000
 20
212.900000
  0
VERTEX
  8
0
 10
28.450000
 20
212.825000
  0
VERTEX
  8
0
 10
28.450000
 20
212.775000
  0
VERTEX
  8
0
 10
28.450000
 20
212.725000
  0
VERTEX
  8
0
 10
28.475000
 20
212.675000
  0
VERTEX
  8
0
 10
28.475000
 20
212.600000
  0
VERTEX
  8
0
 10
28.475000
 20
212.550000
  0
VERTEX
  8
0
 10
28.475000
 20
212.500000
  0
VERTEX
  8
0
 10
28.475000
 20
212.450000
  0
VERTEX
  8
0
 10
28.500000
 20
212.400000
  0
VERTEX
  8
0
 10
28.500000
 20
212.325000
  0
VERTEX
  8
0
 10
28.500000
 20
212.275000
  0
VERTEX
  8
0
 10
28.500000
 20
212.225000
  0
VERTEX
  8
0
 10
28.525000
 20
212.175000
  0
VERTEX
  8
0
 10
28.525000
 20
212.125000
  0
VERTEX
  8
0
 10
28.525000
 20
212.050000
  0
VERTEX
  8
0
 10
28.525000
 20
212.000000
  0
VERTEX
  8
0
 10
28.550000
 20
211.950000
  0
VERTEX
  8
0
 10
28.550000
 20
211.900000
  0
VERTEX
  8
0
 10
28.550000
 20
211.850000
  0
VERTEX
  8
0
 10
28.575000
 20
211.775000
  0
VERTEX
  8
0
 10
28.575000
 20
211.725000
  0
VERTEX
  8
0
 10
28.575000
 20
211.675000
  0
VERTEX
  8
0
 10
28.575000
 20
211.625000
  0
VERTEX
  8
0
 10
28.600000
 20
211.575000
  0
VERTEX
  8
0
 10
28.600000
 20
211.500000
  0
VERTEX
  8
0
 10
28.600000
 20
211.450000
  0
VERTEX
  8
0
 10
28.625000
 20
211.400000
  0
VERTEX
  8
0
 10
28.625000
 20
211.350000
  0
VERTEX
  8
0
 10
28.625000
 20
211.300000
  0
VERTEX
  8
0
 10
28.650000
 20
211.250000
  0
VERTEX
  8
0
 10
28.650000
 20
211.175000
  0
VERTEX
  8
0
 10
28.675000
 20
211.125000
  0
VERTEX
  8
0
 10
28.675000
 20
211.075000
  0
VERTEX
  8
0
 10
28.675000
 20
211.025000
  0
VERTEX
  8
0
 10
28.700000
 20
210.975000
  0
VERTEX
  8
0
 10
28.700000
 20
210.900000
  0
VERTEX
  8
0
 10
28.700000
 20
210.850000
  0
VERTEX
  8
0
 10
28.725000
 20
210.800000
  0
VERTEX
  8
0
 10
28.725000
 20
210.750000
  0
VERTEX
  8
0
 10
28.750000
 20
210.700000
  0
VERTEX
  8
0
 10
28.750000
 20
210.650000
  0
VERTEX
  8
0
 10
28.750000
 20
210.575000
  0
VERTEX
  8
0
 10
28.775000
 20
210.525000
  0
VERTEX
  8
0
 10
28.775000
 20
210.475000
  0
VERTEX
  8
0
 10
28.800000
 20
210.425000
  0
VERTEX
  8
0
 10
28.800000
 20
210.375000
  0
VERTEX
  8
0
 10
28.800000
 20
210.325000
  0
VERTEX
  8
0
 10
28.825000
 20
210.275000
  0
VERTEX
  8
0
 10
28.825000
 20
210.200000
  0
VERTEX
  8
0
 10
28.850000
 20
210.150000
  0
VERTEX
  8
0
 10
28.850000
 20
210.100000
  0
VERTEX
  8
0
 10
28.875000
 20
210.050000
  0
VERTEX
  8
0
 10
28.875000
 20
210.000000
  0
VERTEX
  8
0
 10
28.900000
 20
209.950000
  0
VERTEX
  8
0
 10
28.900000
 20
209.900000
  0
VERTEX
  8
0
 10
28.925000
 20
209.825000
  0
VERTEX
  8
0
 10
28.925000
 20
209.775000
  0
VERTEX
  8
0
 10
28.950000
 20
209.725000
  0
VERTEX
  8
0
 10
28.950000
 20
209.675000
  0
VERTEX
  8
0
 10
28.975000
 20
209.625000
  0
VERTEX
  8
0
 10
28.975000
 20
209.575000
  0
VERTEX
  8
0
 10
29.000000
 20
209.525000
  0
VERTEX
  8
0
 10
29.000000
 20
209.450000
  0
VERTEX
  8
0
 10
29.025000
 20
209.400000
  0
VERTEX
  8
0
 10
29.025000
 20
209.350000
  0
VERTEX
  8
0
 10
29.050000
 20
209.300000
  0
VERTEX
  8
0
 10
29.050000
 20
209.250000
  0
VERTEX
  8
0
 10
29.075000
 20
209.200000
  0
VERTEX
  8
0
 10
29.075000
 20
209.150000
  0
VERTEX
  8
0
 10
29.100000
 20
209.100000
  0
VERTEX
  8
0
 10
29.125000
 20
209.025000
  0
VERTEX
  8
0
 10
29.125000
 20
208.975000
  0
VERTEX
  8
0
 10
29.150000
 20
208.925000
  0
VERTEX
  8
0
 10
29.150000
 20
208.875000
  0
VERTEX
  8
0
 10
29.175000
 20
208.825000
  0
VERTEX
  8
0
 10
29.175000
 20
208.775000
  0
VERTEX
  8
0
 10
29.200000
 20
208.725000
  0
VERTEX
  8
0
 10
29.225000
 20
208.675000
  0
VERTEX
  8
0
 10
29.225000
 20
208.625000
  0
VERTEX
  8
0
 10
29.250000
 20
208.550000
  0
VERTEX
  8
0
 10
29.250000
 20
208.500000
  0
VERTEX
  8
0
 10
29.275000
 20
208.450000
  0
VERTEX
  8
0
 10
29.300000
 20
208.400000
  0
VERTEX
  8
0
 10
29.300000
 20
208.350000
  0
VERTEX
  8
0
 10
29.325000
 20
208.300000
  0
VERTEX
  8
0
 10
29.350000
 20
208.250000
  0
VERTEX
  8
0
 10
29.350000
 20
208.200000
  0
VERTEX
  8
0
 10
29.375000
 20
208.150000
  0
VERTEX
  8
0
 10
29.400000
 20
208.100000
  0
VERTEX
  8
0
 10
29.400000
 20
208.025000
  0
VERTEX
  8
0
 10
29.425000
 20
207.975000
  0
VERTEX
  8
0
 10
29.450000
 20
207.925000
  0
VERTEX
  8
0
 10
29.450000
 20
207.875000
  0
VERTEX
  8
0
 10
29.475000
 20
207.825000
  0
VERTEX
  8
0
 10
29.500000
 20
207.775000
  0
VERTEX
  8
0
 10
29.500000
 20
207.725000
  0
VERTEX
  8
0
 10
29.525000
 20
207.675000
  0
VERTEX
  8
0
 10
29.550000
 20
207.625000
  0
VERTEX
  8
0
 10
29.575000
 20
207.575000
  0
VERTEX
  8
0
 10
29.575000
 20
207.525000
  0
VERTEX
  8
0
 10
29.600000
 20
207.475000
  0
VERTEX
  8
0
 10
29.625000
 20
207.400000
  0
VERTEX
  8
0
 10
29.625000
 20
207.350000
  0
VERTEX
  8
0
 10
29.650000
 20
207.300000
  0
VERTEX
  8
0
 10
29.675000
 20
207.250000
  0
VERTEX
  8
0
 10
29.700000
 20
207.200000
  0
VERTEX
  8
0
 10
29.700000
 20
207.150000
  0
VERTEX
  8
0
 10
29.725000
 20
207.100000
  0
VERTEX
  8
0
 10
29.750000
 20
207.050000
  0
VERTEX
  8
0
 10
29.775000
 20
207.100000
  0
VERTEX
  8
0
 10
29.825000
 20
207.150000
  0
VERTEX
  8
0
 10
29.850000
 20
207.200000
  0
VERTEX
  8
0
 10
29.875000
 20
207.250000
  0
VERTEX
  8
0
 10
29.925000
 20
207.300000
  0
VERTEX
  8
0
 10
29.950000
 20
207.350000
  0
VERTEX
  8
0
 10
30.000000
 20
207.375000
  0
VERTEX
  8
0
 10
30.025000
 20
207.425000
  0
VERTEX
  8
0
 10
30.050000
 20
207.475000
  0
VERTEX
  8
0
 10
30.100000
 20
207.525000
  0
VERTEX
  8
0
 10
30.125000
 20
207.575000
  0
VERTEX
  8
0
 10
30.150000
 20
207.625000
  0
VERTEX
  8
0
 10
30.175000
 20
207.675000
  0
VERTEX
  8
0
 10
30.225000
 20
207.725000
  0
VERTEX
  8
0
 10
30.250000
 20
207.775000
  0
VERTEX
  8
0
 10
30.275000
 20
207.825000
  0
VERTEX
  8
0
 10
30.325000
 20
207.875000
  0
VERTEX
  8
0
 10
30.350000
 20
207.925000
  0
VERTEX
  8
0
 10
30.375000
 20
207.975000
  0
VERTEX
  8
0
 10
30.400000
 20
208.025000
  0
VERTEX
  8
0
 10
30.450000
 20
208.075000
  0
VERTEX
  8
0
 10
30.475000
 20
208.150000
  0
VERTEX
  8
0
 10
30.500000
 20
208.200000
  0
VERTEX
  8
0
 10
30.525000
 20
208.250000
  0
VERTEX
  8
0
 10
30.575000
 20
208.300000
  0
VERTEX
  8
0
 10
30.600000
 20
208.350000
  0
VERTEX
  8
0
 10
30.625000
 20
208.400000
  0
VERTEX
  8
0
 10
30.650000
 20
208.450000
  0
VERTEX
  8
0
 10
30.675000
 20
208.500000
  0
VERTEX
  8
0
 10
30.725000
 20
208.550000
  0
VERTEX
  8
0
 10
30.750000
 20
208.600000
  0
VERTEX
  8
0
 10
30.775000
 20
208.650000
  0
VERTEX
  8
0
 10
30.800000
 20
208.725000
  0
VERTEX
  8
0
 10
30.825000
 20
208.775000
  0
VERTEX
  8
0
 10
30.875000
 20
208.825000
  0
VERTEX
  8
0
 10
30.900000
 20
208.875000
  0
VERTEX
  8
0
 10
30.925000
 20
208.925000
  0
VERTEX
  8
0
 10
30.950000
 20
208.975000
  0
VERTEX
  8
0
 10
30.975000
 20
209.050000
  0
VERTEX
  8
0
 10
31.000000
 20
209.100000
  0
VERTEX
  8
0
 10
31.025000
 20
209.150000
  0
VERTEX
  8
0
 10
31.075000
 20
209.200000
  0
VERTEX
  8
0
 10
31.100000
 20
209.250000
  0
VERTEX
  8
0
 10
31.125000
 20
209.325000
  0
VERTEX
  8
0
 10
31.150000
 20
209.375000
  0
VERTEX
  8
0
 10
31.175000
 20
209.425000
  0
VERTEX
  8
0
 10
31.200000
 20
209.475000
  0
VERTEX
  8
0
 10
31.225000
 20
209.550000
  0
VERTEX
  8
0
 10
31.250000
 20
209.600000
  0
VERTEX
  8
0
 10
31.275000
 20
209.650000
  0
VERTEX
  8
0
 10
31.300000
 20
209.700000
  0
VERTEX
  8
0
 10
31.350000
 20
209.775000
  0
VERTEX
  8
0
 10
31.375000
 20
209.825000
  0
VERTEX
  8
0
 10
31.400000
 20
209.875000
  0
VERTEX
  8
0
 10
31.425000
 20
209.925000
  0
VERTEX
  8
0
 10
31.450000
 20
210.000000
  0
VERTEX
  8
0
 10
31.475000
 20
210.050000
  0
VERTEX
  8
0
 10
31.500000
 20
210.100000
  0
VERTEX
  8
0
 10
31.525000
 20
210.175000
  0
VERTEX
  8
0
 10
31.550000
 20
210.225000
  0
VERTEX
  8
0
 10
31.575000
 20
210.275000
  0
VERTEX
  8
0
 10
31.600000
 20
210.350000
  0
VERTEX
  8
0
 10
31.625000
 20
210.400000
  0
VERTEX
  8
0
 10
31.650000
 20
210.450000
  0
VERTEX
  8
0
 10
31.675000
 20
210.525000
  0
VERTEX
  8
0
 10
31.700000
 20
210.575000
  0
VERTEX
  8
0
 10
31.725000
 20
210.650000
  0
VERTEX
  8
0
 10
31.750000
 20
210.700000
  0
VERTEX
  8
0
 10
31.775000
 20
210.750000
  0
VERTEX
  8
0
 10
31.800000
 20
210.825000
  0
VERTEX
  8
0
 10
31.825000
 20
210.875000
  0
VERTEX
  8
0
 10
31.850000
 20
210.950000
  0
VERTEX
  8
0
 10
31.875000
 20
211.000000
  0
VERTEX
  8
0
 10
31.875000
 20
211.075000
  0
VERTEX
  8
0
 10
31.900000
 20
211.125000
  0
VERTEX
  8
0
 10
31.925000
 20
211.175000
  0
VERTEX
  8
0
 10
31.950000
 20
211.250000
  0
VERTEX
  8
0
 10
31.975000
 20
211.300000
  0
VERTEX
  8
0
 10
32.000000
 20
211.375000
  0
VERTEX
  8
0
 10
32.025000
 20
211.425000
  0
VERTEX
  8
0
 10
32.050000
 20
211.500000
  0
VERTEX
  8
0
 10
32.075000
 20
211.550000
  0
VERTEX
  8
0
 10
32.100000
 20
211.625000
  0
VERTEX
  8
0
 10
32.100000
 20
211.675000
  0
VERTEX
  8
0
 10
32.125000
 20
211.750000
  0
VERTEX
  8
0
 10
32.150000
 20
211.800000
  0
VERTEX
  8
0
 10
32.175000
 20
211.875000
  0
VERTEX
  8
0
 10
32.200000
 20
211.925000
  0
VERTEX
  8
0
 10
32.225000
 20
212.000000
  0
VERTEX
  8
0
 10
32.250000
 20
212.075000
  0
VERTEX
  8
0
 10
32.250000
 20
212.125000
  0
VERTEX
  8
0
 10
32.275000
 20
212.200000
  0
VERTEX
  8
0
 10
32.300000
 20
212.250000
  0
VERTEX
  8
0
 10
32.325000
 20
212.325000
  0
VERTEX
  8
0
 10
32.350000
 20
212.375000
  0
VERTEX
  8
0
 10
32.350000
 20
212.450000
  0
VERTEX
  8
0
 10
32.375000
 20
212.525000
  0
VERTEX
  8
0
 10
32.400000
 20
212.575000
  0
VERTEX
  8
0
 10
32.425000
 20
212.650000
  0
VERTEX
  8
0
 10
32.450000
 20
212.700000
  0
VERTEX
  8
0
 10
32.450000
 20
212.775000
  0
VERTEX
  8
0
 10
32.475000
 20
212.850000
  0
VERTEX
  8
0
 10
32.500000
 20
212.900000
  0
VERTEX
  8
0
 10
32.525000
 20
212.975000
  0
VERTEX
  8
0
 10
32.525000
 20
213.050000
  0
VERTEX
  8
0
 10
32.550000
 20
213.100000
  0
VERTEX
  8
0
 10
32.575000
 20
213.175000
  0
VERTEX
  8
0
 10
32.600000
 20
213.250000
  0
VERTEX
  8
0
 10
32.600000
 20
213.300000
  0
VERTEX
  8
0
 10
32.625000
 20
213.375000
  0
VERTEX
  8
0
 10
32.650000
 20
213.450000
  0
VERTEX
  8
0
 10
32.650000
 20
213.525000
  0
VERTEX
  8
0
 10
32.675000
 20
213.575000
  0
VERTEX
  8
0
 10
32.700000
 20
213.650000
  0
VERTEX
  8
0
 10
32.725000
 20
213.725000
  0
VERTEX
  8
0
 10
32.725000
 20
213.775000
  0
VERTEX
  8
0
 10
32.750000
 20
213.850000
  0
VERTEX
  8
0
 10
32.775000
 20
213.925000
  0
VERTEX
  8
0
 10
32.775000
 20
214.000000
  0
VERTEX
  8
0
 10
32.800000
 20
214.075000
  0
VERTEX
  8
0
 10
32.825000
 20
214.125000
  0
VERTEX
  8
0
 10
32.825000
 20
214.200000
  0
VERTEX
  8
0
 10
32.850000
 20
214.275000
  0
VERTEX
  8
0
 10
32.875000
 20
214.350000
  0
VERTEX
  8
0
 10
32.875000
 20
214.425000
  0
VERTEX
  8
0
 10
32.900000
 20
214.475000
  0
VERTEX
  8
0
 10
32.900000
 20
214.550000
  0
VERTEX
  8
0
 10
32.925000
 20
214.625000
  0
VERTEX
  8
0
 10
32.875000
 20
214.625000
  0
VERTEX
  8
0
 10
32.850000
 20
214.625000
  0
VERTEX
  8
0
 10
32.800000
 20
214.625000
  0
VERTEX
  8
0
 10
32.775000
 20
214.625000
  0
VERTEX
  8
0
 10
32.725000
 20
214.625000
  0
VERTEX
  8
0
 10
32.700000
 20
214.625000
  0
VERTEX
  8
0
 10
32.650000
 20
214.625000
  0
VERTEX
  8
0
 10
32.625000
 20
214.625000
  0
VERTEX
  8
0
 10
32.575000
 20
214.625000
  0
VERTEX
  8
0
 10
32.550000
 20
214.625000
  0
VERTEX
  8
0
 10
32.500000
 20
214.625000
  0
VERTEX
  8
0
 10
32.475000
 20
214.625000
  0
VERTEX
  8
0
 10
32.425000
 20
214.625000
  0
VERTEX
  8
0
 10
32.400000
 20
214.625000
  0
VERTEX
  8
0
 10
32.350000
 20
214.625000
  0
VERTEX
  8
0
 10
32.300000
 20
214.625000
  0
VERTEX
  8
0
 10
32.275000
 20
214.625000
  0
VERTEX
  8
0
 10
32.225000
 20
214.600000
  0
VERTEX
  8
0
 10
32.200000
 20
214.600000
  0
VERTEX
  8
0
 10
32.150000
 20
214.600000
  0
VERTEX
  8
0
 10
32.125000
 20
214.600000
  0
VERTEX
  8
0
 10
32.075000
 20
214.600000
  0
VERTEX
  8
0
 10
32.050000
 20
214.600000
  0
VERTEX
  8
0
 10
32.000000
 20
214.600000
  0
VERTEX
  8
0
 10
31.975000
 20
214.600000
  0
VERTEX
  8
0
 10
31.925000
 20
214.600000
  0
VERTEX
  8
0
 10
31.900000
 20
214.600000
  0
VERTEX
  8
0
 10
31.850000
 20
214.600000
  0
VERTEX
  8
0
 10
31.825000
 20
214.600000
  0
VERTEX
  8
0
 10
31.775000
 20
214.600000
  0
VERTEX
  8
0
 10
31.750000
 20
214.575000
  0
VERTEX
  8
0
 10
31.700000
 20
214.575000
  0
VERTEX
  8
0
 10
31.675000
 20
214.575000
  0
VERTEX
  8
0
 10
31.625000
 20
214.575000
  0
VERTEX
  8
0
 10
31.600000
 20
214.575000
  0
VERTEX
  8
0
 10
31.575000
 20
214.575000
  0
VERTEX
  8
0
 10
31.525000
 20
214.575000
  0
VERTEX
  8
0
 10
31.500000
 20
214.575000
  0
VERTEX
  8
0
 10
31.450000
 20
214.550000
  0
VERTEX
  8
0
 10
31.425000
 20
214.550000
  0
VERTEX
  8
0
 10
31.375000
 20
214.550000
  0
VERTEX
  8
0
 10
31.350000
 20
214.550000
  0
VERTEX
  8
0
 10
31.300000
 20
214.550000
  0
VERTEX
  8
0
 10
31.275000
 20
214.550000
  0
VERTEX
  8
0
 10
31.225000
 20
214.550000
  0
VERTEX
  8
0
 10
31.200000
 20
214.550000
  0
VERTEX
  8
0
 10
31.150000
 20
214.525000
  0
VERTEX
  8
0
 10
31.125000
 20
214.525000
  0
VERTEX
  8
0
 10
31.075000
 20
214.525000
  0
VERTEX
  8
0
 10
31.050000
 20
214.525000
  0
VERTEX
  8
0
 10
31.025000
 20
214.525000
  0
VERTEX
  8
0
 10
30.975000
 20
214.525000
  0
VERTEX
  8
0
 10
30.950000
 20
214.500000
  0
VERTEX
  8
0
 10
30.900000
 20
214.500000
  0
VERTEX
  8
0
 10
30.875000
 20
214.500000
  0
VERTEX
  8
0
 10
30.825000
 20
214.500000
  0
VERTEX
  8
0
 10
30.800000
 20
214.500000
  0
VERTEX
  8
0
 10
30.750000
 20
214.475000
  0
VERTEX
  8
0
 10
30.725000
 20
214.475000
  0
VERTEX
  8
0
 10
30.700000
 20
214.475000
  0
VERTEX
  8
0
 10
30.650000
 20
214.475000
  0
VERTEX
  8
0
 10
30.625000
 20
214.475000
  0
VERTEX
  8
0
 10
30.575000
 20
214.450000
  0
VERTEX
  8
0
 10
30.550000
 20
214.450000
  0
VERTEX
  8
0
 10
30.500000
 20
214.450000
  0
VERTEX
  8
0
 10
30.475000
 20
214.450000
  0
VERTEX
  8
0
 10
30.450000
 20
214.450000
  0
VERTEX
  8
0
 10
30.400000
 20
214.425000
  0
VERTEX
  8
0
 10
30.375000
 20
214.425000
  0
VERTEX
  8
0
 10
30.325000
 20
214.425000
  0
VERTEX
  8
0
 10
30.300000
 20
214.425000
  0
VERTEX
  8
0
 10
30.275000
 20
214.400000
  0
VERTEX
  8
0
 10
30.225000
 20
214.400000
  0
VERTEX
  8
0
 10
30.200000
 20
214.400000
  0
VERTEX
  8
0
 10
30.150000
 20
214.400000
  0
VERTEX
  8
0
 10
30.125000
 20
214.375000
  0
VERTEX
  8
0
 10
30.100000
 20
214.375000
  0
VERTEX
  8
0
 10
30.050000
 20
214.375000
  0
VERTEX
  8
0
 10
30.025000
 20
214.375000
  0
VERTEX
  8
0
 10
29.975000
 20
214.350000
  0
VERTEX
  8
0
 10
29.950000
 20
214.350000
  0
VERTEX
  8
0
 10
29.925000
 20
214.350000
  0
VERTEX
  8
0
 10
29.875000
 20
214.350000
  0
VERTEX
  8
0
 10
29.850000
 20
214.325000
  0
VERTEX
  8
0
 10
29.800000
 20
214.325000
  0
VERTEX
  8
0
 10
29.775000
 20
214.325000
  0
VERTEX
  8
0
 10
29.750000
 20
214.325000
  0
VERTEX
  8
0
 10
29.700000
 20
214.300000
  0
VERTEX
  8
0
 10
29.675000
 20
214.300000
  0
VERTEX
  8
0
 10
29.650000
 20
214.300000
  0
VERTEX
  8
0
 10
29.600000
 20
214.275000
  0
VERTEX
  8
0
 10
29.575000
 20
214.275000
  0
VERTEX
  8
0
 10
29.525000
 20
214.275000
  0
VERTEX
  8
0
 10
29.500000
 20
214.250000
  0
VERTEX
  8
0
 10
29.475000
 20
214.250000
  0
VERTEX
  8
0
 10
29.425000
 20
214.250000
  0
VERTEX
  8
0
 10
29.400000
 20
214.225000
  0
VERTEX
  8
0
 10
29.375000
 20
214.225000
  0
VERTEX
  8
0
 10
29.325000
 20
214.225000
  0
VERTEX
  8
0
 10
29.300000
 20
214.225000
  0
VERTEX
  8
0
 10
29.275000
 20
214.200000
  0
VERTEX
  8
0
 10
29.225000
 20
214.200000
  0
VERTEX
  8
0
 10
29.200000
 20
214.200000
  0
VERTEX
  8
0
 10
29.175000
 20
214.175000
  0
VERTEX
  8
0
 10
29.125000
 20
214.175000
  0
VERTEX
  8
0
 10
29.100000
 20
214.150000
  0
VERTEX
  8
0
 10
29.075000
 20
214.150000
  0
VERTEX
  8
0
 10
29.025000
 20
214.150000
  0
VERTEX
  8
0
 10
29.000000
 20
214.125000
  0
VERTEX
  8
0
 10
28.975000
 20
214.125000
  0
VERTEX
  8
0
 10
28.925000
 20
214.125000
  0
VERTEX
  8
0
 10
28.900000
 20
214.100000
  0
VERTEX
  8
0
 10
28.875000
 20
214.100000
  0
VERTEX
  8
0
 10
28.825000
 20
214.100000
  0
VERTEX
  8
0
 10
28.800000
 20
214.075000
  0
VERTEX
  8
0
 10
28.775000
 20
214.075000
  0
VERTEX
  8
0
 10
28.725000
 20
214.050000
  0
VERTEX
  8
0
 10
28.700000
 20
214.050000
  0
VERTEX
  8
0
 10
28.675000
 20
214.050000
  0
VERTEX
  8
0
 10
28.625000
 20
214.025000
  0
VERTEX
  8
0
 10
28.600000
 20
214.025000
  0
VERTEX
  8
0
 10
28.575000
 20
214.000000
  0
VERTEX
  8
0
 10
28.525000
 20
214.000000
  0
VERTEX
  8
0
 10
28.500000
 20
214.000000
  0
VERTEX
  8
0
 10
28.475000
 20
213.975000
  0
VERTEX
  8
0
 10
28.450000
 20
213.975000
  0
VERTEX
  8
0
 10
28.400000
 20
213.950000
  0
VERTEX
  8
0
 10
28.375000
 20
213.950000
  0
SEQEND
  8
0
  0
ENDSEC
  0
EOF
