  0
SECTION
  2
HEADER
  9
$ACADVER
  1
AC1009
  9
$INSBASE
 10
0.000000
 20
0.000000
 30
0.000000
  9
$EXTMIN
 10
0.000000
 20
0.000000
  9
$EXTMAX
 10
190.000000
 20
257.000000
  9
$LIMMIN
 10
0.000000
 20
0.000000
  9
$LIMMAX
 10
190.000000
 20
257.000000
  9
$TEXTSIZE
 40
0.200000
  9
$TEXTSTYLE
  7
BIGFONT
  9
$CLAYER
  8
0
  9
$ANGBASE
 50
0.000000
  9
$ANGDIR
 70
     0
  0
ENDSEC
  0
SECTION
  2
TABLES
  0
TABLE
  2
LTYPE
 70
    11
  0
LTYPE
  2
BYBLOCK
 70
    64
  3
BYBLOCK
 72
    65
 73
     0
 40
0.000000
  0
LTYPE
  2
BYLAYER
 70
    64
  3
BYLAYER
 72
    65
 73
     0
 40
0.000000
  0
LTYPE
  2
CONTINUOUS
 70
    64
  3
é¿ê¸
 72
    65
 73
     0
 40
0.000000
  0
LTYPE
  2
DASHED
 70
    64
  3
__ __ __ __ __ __ __ __ __ __ __ __ __ __ __
 72
    65
 73
     2
 40
0.750000
 49
0.500000
 49
-0.250000
  0
LTYPE
  2
HIDDEN
 70
    64
  3
_ _ _ _ _ _ _ _ _ _ _ _ _ _ _ _ _ _ _ _ _ _ _
 72
    65
 73
     2
 40
0.375000
 49
0.250000
 49
-0.125000
  0
LTYPE
  2
CENTER
 70
    64
  3
____ _ ____ _ ____ _ ____ _ ____ _ ____ _ ____
 72
    65
 73
     4
 40
2.000000
 49
1.250000
 49
-0.250000
 49
0.250000
 49
-0.250000
  0
LTYPE
  2
PHANTOM
 70
    64
  3
_____ _ _ _____ _ _ _____ _ _ _____ _ _ ____
 72
    65
 73
     6
 40
2.500000
 49
1.250000
 49
-0.250000
 49
0.250000
 49
-0.250000
 49
0.250000
 49
-0.250000
  0
LTYPE
  2
DOT
 70
    64
  3
...............................................
 72
    65
 73
     2
 40
0.250000
 49
0.000000
 49
-0.250000
  0
LTYPE
  2
DASHDOT
 70
    64
  3
__ . __ . __ . __ . __ . __ . __ . __ . __ . __
 72
    65
 73
     4
 40
1.000000
 49
0.500000
 49
-0.250000
 49
0.000000
 49
-0.250000
  0
LTYPE
  2
BORDER
 70
    64
  3
__ __ . __ __ . __ __ . __ __ . __ __ . __ __
 72
    65
 73
     6
 40
1.750000
 49
0.500000
 49
-0.250000
 49
0.500000
 49
-0.250000
 49
0.000000
 49
-0.250000
  0
LTYPE
  2
DIVIDE
 70
    64
  3
__ . . __ . . __ . . __ . . __ . . __ . . __
 72
    65
 73
     6
 40
1.250000
 49
0.500000
 49
-0.250000
 49
0.000000
 49
-0.250000
 49
0.000000
 49
-0.250000
  0
ENDTAB
  0
TABLE
  2
LAYER
  5
a2
 70
     2
  0
LAYER
  5
a5
  2
0
 70
     0
 62
     7
  6
CONTINUOUS
  0
LAYER
  5
a8
  2
B
 70
     0
 62
     7
  6
CONTINUOUS
  0
LAYER
  5
ab
  2
C
 70
     0
 62
     7
  6
CONTINUOUS
  0
LAYER
  5
ae
  2
D
 70
     0
 62
     7
  6
CONTINUOUS
  0
LAYER
  5
b1
  2
E
 70
     0
 62
     7
  6
CONTINUOUS
  0
LAYER
  5
b4
  2
F
 70
     0
 62
     7
  6
CONTINUOUS
  0
LAYER
  5
b7
  2
G
 70
     0
 62
     7
  6
CONTINUOUS
  0
LAYER
  5
ba
  2
H
 70
     0
 62
     7
  6
CONTINUOUS
  0
LAYER
  5
bd
  2
I
 70
     0
 62
     7
  6
CONTINUOUS
  0
LAYER
  5
c0
  2
J
 70
     0
 62
     7
  6
CONTINUOUS
  0
LAYER
  5
c3
  2
K
 70
     0
 62
     7
  6
CONTINUOUS
  0
LAYER
  5
c6
  2
L
 70
     0
 62
     7
  6
CONTINUOUS
  0
LAYER
  5
c9
  2
M
 70
     0
 62
     7
  6
CONTINUOUS
  0
LAYER
  5
cc
  2
N
 70
     0
 62
     7
  6
CONTINUOUS
  0
ENDTAB
  0
TABLE
  2
STYLE
 70
     2
  0
STYLE
  2
STANDARD
 70
     0
 40
0.000000
 41
0.500000
 50
0.000000
 71
     0
 42
0.300000
  3
txt
  4

  0
STYLE
  2
BIGFONT
 70
    64
 40
0.000000
 41
1.000000
 50
0.000000
 71
     0
 42
0.200000
  3

  4
bigfont
  0
ENDTAB
  0
ENDSEC
  0
SECTION
  2
BLOCKS
  0
ENDSEC
  0
SECTION
  2
ENTITIES
  0
POLYLINE
  8
0
 66
     1
 70
     1
 40
0.200000
 41
0.200000
  0
VERTEX
  8
0
 10
29.700000
 20
209.825000
  0
VERTEX
  8
0
 10
29.625000
 20
209.600000
  0
VERTEX
  8
0
 10
29.525000
 20
209.400000
  0
VERTEX
  8
0
 10
29.450000
 20
209.175000
  0
VERTEX
  8
0
 10
29.350000
 20
208.975000
  0
VERTEX
  8
0
 10
29.275000
 20
208.775000
  0
VERTEX
  8
0
 10
29.175000
 20
208.575000
  0
VERTEX
  8
0
 10
29.100000
 20
208.375000
  0
VERTEX
  8
0
 10
29.000000
 20
208.175000
  0
VERTEX
  8
0
 10
28.925000
 20
208.000000
  0
VERTEX
  8
0
 10
28.825000
 20
207.800000
  0
VERTEX
  8
0
 10
28.750000
 20
207.625000
  0
VERTEX
  8
0
 10
28.650000
 20
207.450000
  0
VERTEX
  8
0
 10
28.575000
 20
207.275000
  0
VERTEX
  8
0
 10
28.475000
 20
207.100000
  0
VERTEX
  8
0
 10
28.400000
 20
206.925000
  0
VERTEX
  8
0
 10
28.300000
 20
206.750000
  0
VERTEX
  8
0
 10
28.200000
 20
206.600000
  0
VERTEX
  8
0
 10
28.125000
 20
206.425000
  0
VERTEX
  8
0
 10
28.025000
 20
206.275000
  0
VERTEX
  8
0
 10
27.925000
 20
206.125000
  0
VERTEX
  8
0
 10
27.850000
 20
205.975000
  0
VERTEX
  8
0
 10
27.750000
 20
205.825000
  0
VERTEX
  8
0
 10
27.650000
 20
205.675000
  0
VERTEX
  8
0
 10
27.575000
 20
205.525000
  0
VERTEX
  8
0
 10
27.475000
 20
205.400000
  0
VERTEX
  8
0
 10
27.375000
 20
205.250000
  0
VERTEX
  8
0
 10
27.300000
 20
205.125000
  0
VERTEX
  8
0
 10
27.200000
 20
205.000000
  0
VERTEX
  8
0
 10
27.100000
 20
204.875000
  0
VERTEX
  8
0
 10
27.000000
 20
204.750000
  0
VERTEX
  8
0
 10
26.925000
 20
204.650000
  0
VERTEX
  8
0
 10
26.825000
 20
204.525000
  0
VERTEX
  8
0
 10
26.700000
 20
204.375000
  0
VERTEX
  8
0
 10
26.550000
 20
204.200000
  0
VERTEX
  8
0
 10
26.425000
 20
204.075000
  0
VERTEX
  8
0
 10
26.300000
 20
203.925000
  0
VERTEX
  8
0
 10
26.150000
 20
203.775000
  0
VERTEX
  8
0
 10
26.025000
 20
203.650000
  0
VERTEX
  8
0
 10
25.900000
 20
203.525000
  0
VERTEX
  8
0
 10
25.750000
 20
203.400000
  0
VERTEX
  8
0
 10
25.625000
 20
203.275000
  0
VERTEX
  8
0
 10
25.500000
 20
203.175000
  0
VERTEX
  8
0
 10
25.350000
 20
203.050000
  0
VERTEX
  8
0
 10
25.225000
 20
202.950000
  0
VERTEX
  8
0
 10
25.100000
 20
202.850000
  0
VERTEX
  8
0
 10
24.975000
 20
202.750000
  0
VERTEX
  8
0
 10
24.825000
 20
202.675000
  0
VERTEX
  8
0
 10
24.700000
 20
202.600000
  0
VERTEX
  8
0
 10
24.575000
 20
202.525000
  0
VERTEX
  8
0
 10
24.425000
 20
202.450000
  0
VERTEX
  8
0
 10
24.300000
 20
202.375000
  0
VERTEX
  8
0
 10
24.175000
 20
202.300000
  0
VERTEX
  8
0
 10
24.050000
 20
202.250000
  0
VERTEX
  8
0
 10
23.900000
 20
202.200000
  0
VERTEX
  8
0
 10
23.775000
 20
202.150000
  0
VERTEX
  8
0
 10
23.650000
 20
202.100000
  0
VERTEX
  8
0
 10
23.500000
 20
202.075000
  0
VERTEX
  8
0
 10
23.375000
 20
202.050000
  0
VERTEX
  8
0
 10
23.250000
 20
202.000000
  0
VERTEX
  8
0
 10
23.100000
 20
202.000000
  0
VERTEX
  8
0
 10
22.975000
 20
201.975000
  0
VERTEX
  8
0
 10
22.850000
 20
201.950000
  0
VERTEX
  8
0
 10
22.700000
 20
201.950000
  0
VERTEX
  8
0
 10
22.575000
 20
201.950000
  0
VERTEX
  8
0
 10
22.350000
 20
201.950000
  0
VERTEX
  8
0
 10
22.100000
 20
201.975000
  0
VERTEX
  8
0
 10
21.875000
 20
202.000000
  0
VERTEX
  8
0
 10
21.650000
 20
202.025000
  0
VERTEX
  8
0
 10
21.450000
 20
202.050000
  0
VERTEX
  8
0
 10
21.225000
 20
202.100000
  0
VERTEX
  8
0
 10
21.000000
 20
202.150000
  0
VERTEX
  8
0
 10
20.800000
 20
202.225000
  0
VERTEX
  8
0
 10
20.600000
 20
202.300000
  0
VERTEX
  8
0
 10
20.400000
 20
202.375000
  0
VERTEX
  8
0
 10
20.200000
 20
202.475000
  0
VERTEX
  8
0
 10
20.000000
 20
202.575000
  0
VERTEX
  8
0
 10
19.825000
 20
202.675000
  0
VERTEX
  8
0
 10
19.625000
 20
202.775000
  0
VERTEX
  8
0
 10
19.450000
 20
202.900000
  0
VERTEX
  8
0
 10
19.275000
 20
203.050000
  0
VERTEX
  8
0
 10
19.100000
 20
203.175000
  0
VERTEX
  8
0
 10
18.925000
 20
203.325000
  0
VERTEX
  8
0
 10
18.775000
 20
203.500000
  0
VERTEX
  8
0
 10
18.600000
 20
203.650000
  0
VERTEX
  8
0
 10
18.450000
 20
203.850000
  0
VERTEX
  8
0
 10
18.300000
 20
204.025000
  0
VERTEX
  8
0
 10
18.150000
 20
204.225000
  0
VERTEX
  8
0
 10
18.000000
 20
204.425000
  0
VERTEX
  8
0
 10
17.850000
 20
204.625000
  0
VERTEX
  8
0
 10
17.725000
 20
204.850000
  0
VERTEX
  8
0
 10
17.575000
 20
205.075000
  0
VERTEX
  8
0
 10
17.450000
 20
205.325000
  0
VERTEX
  8
0
 10
17.325000
 20
205.550000
  0
VERTEX
  8
0
 10
17.200000
 20
205.825000
  0
VERTEX
  8
0
 10
17.100000
 20
206.075000
  0
VERTEX
  8
0
 10
16.975000
 20
206.350000
  0
VERTEX
  8
0
 10
16.900000
 20
206.525000
  0
VERTEX
  8
0
 10
16.850000
 20
206.700000
  0
VERTEX
  8
0
 10
16.775000
 20
206.875000
  0
VERTEX
  8
0
 10
16.725000
 20
207.075000
  0
VERTEX
  8
0
 10
16.675000
 20
207.300000
  0
VERTEX
  8
0
 10
16.600000
 20
207.525000
  0
VERTEX
  8
0
 10
16.550000
 20
207.750000
  0
VERTEX
  8
0
 10
16.500000
 20
208.000000
  0
VERTEX
  8
0
 10
16.450000
 20
208.250000
  0
VERTEX
  8
0
 10
16.400000
 20
208.525000
  0
VERTEX
  8
0
 10
16.350000
 20
208.800000
  0
VERTEX
  8
0
 10
16.325000
 20
209.100000
  0
VERTEX
  8
0
 10
16.275000
 20
209.400000
  0
VERTEX
  8
0
 10
16.225000
 20
209.725000
  0
VERTEX
  8
0
 10
16.200000
 20
210.050000
  0
VERTEX
  8
0
 10
16.175000
 20
210.400000
  0
VERTEX
  8
0
 10
16.125000
 20
210.750000
  0
VERTEX
  8
0
 10
16.100000
 20
211.100000
  0
VERTEX
  8
0
 10
16.075000
 20
211.475000
  0
VERTEX
  8
0
 10
16.050000
 20
211.875000
  0
VERTEX
  8
0
 10
16.025000
 20
212.275000
  0
VERTEX
  8
0
 10
16.000000
 20
212.675000
  0
VERTEX
  8
0
 10
15.975000
 20
213.100000
  0
VERTEX
  8
0
 10
15.975000
 20
213.525000
  0
VERTEX
  8
0
 10
15.950000
 20
213.975000
  0
VERTEX
  8
0
 10
15.925000
 20
214.425000
  0
VERTEX
  8
0
 10
15.925000
 20
214.900000
  0
VERTEX
  8
0
 10
15.925000
 20
215.375000
  0
VERTEX
  8
0
 10
15.900000
 20
215.850000
  0
VERTEX
  8
0
 10
15.900000
 20
216.375000
  0
VERTEX
  8
0
 10
15.900000
 20
216.875000
  0
VERTEX
  8
0
 10
15.900000
 20
217.400000
  0
VERTEX
  8
0
 10
15.900000
 20
217.775000
  0
VERTEX
  8
0
 10
15.900000
 20
218.150000
  0
VERTEX
  8
0
 10
15.900000
 20
218.550000
  0
VERTEX
  8
0
 10
15.900000
 20
218.925000
  0
VERTEX
  8
0
 10
15.925000
 20
219.300000
  0
VERTEX
  8
0
 10
15.925000
 20
219.675000
  0
VERTEX
  8
0
 10
15.925000
 20
220.075000
  0
VERTEX
  8
0
 10
15.950000
 20
220.450000
  0
VERTEX
  8
0
 10
15.950000
 20
220.825000
  0
VERTEX
  8
0
 10
15.950000
 20
221.200000
  0
VERTEX
  8
0
 10
15.975000
 20
221.600000
  0
VERTEX
  8
0
 10
15.975000
 20
221.975000
  0
VERTEX
  8
0
 10
16.000000
 20
222.350000
  0
VERTEX
  8
0
 10
16.025000
 20
222.750000
  0
VERTEX
  8
0
 10
16.025000
 20
223.125000
  0
VERTEX
  8
0
 10
16.050000
 20
223.500000
  0
VERTEX
  8
0
 10
16.075000
 20
223.900000
  0
VERTEX
  8
0
 10
16.100000
 20
224.275000
  0
VERTEX
  8
0
 10
16.100000
 20
224.650000
  0
VERTEX
  8
0
 10
16.125000
 20
225.050000
  0
VERTEX
  8
0
 10
16.150000
 20
225.425000
  0
VERTEX
  8
0
 10
16.175000
 20
225.825000
  0
VERTEX
  8
0
 10
16.200000
 20
226.200000
  0
VERTEX
  8
0
 10
16.250000
 20
226.575000
  0
VERTEX
  8
0
 10
16.275000
 20
226.975000
  0
VERTEX
  8
0
 10
16.300000
 20
227.350000
  0
VERTEX
  8
0
 10
16.325000
 20
227.750000
  0
VERTEX
  8
0
 10
16.350000
 20
228.125000
  0
VERTEX
  8
0
 10
16.400000
 20
228.525000
  0
VERTEX
  8
0
 10
16.425000
 20
228.900000
  0
VERTEX
  8
0
 10
16.475000
 20
229.300000
  0
VERTEX
  8
0
 10
16.500000
 20
229.675000
  0
VERTEX
  8
0
 10
19.700000
 20
228.925000
  0
VERTEX
  8
0
 10
19.800000
 20
228.900000
  0
VERTEX
  8
0
 10
19.900000
 20
228.875000
  0
VERTEX
  8
0
 10
20.000000
 20
228.825000
  0
VERTEX
  8
0
 10
20.100000
 20
228.800000
  0
VERTEX
  8
0
 10
20.175000
 20
228.775000
  0
VERTEX
  8
0
 10
20.250000
 20
228.725000
  0
VERTEX
  8
0
 10
20.325000
 20
228.700000
  0
VERTEX
  8
0
 10
20.375000
 20
228.650000
  0
VERTEX
  8
0
 10
20.450000
 20
228.625000
  0
VERTEX
  8
0
 10
20.500000
 20
228.575000
  0
VERTEX
  8
0
 10
20.525000
 20
228.550000
  0
VERTEX
  8
0
 10
20.575000
 20
228.500000
  0
VERTEX
  8
0
 10
20.600000
 20
228.450000
  0
VERTEX
  8
0
 10
20.625000
 20
228.425000
  0
VERTEX
  8
0
 10
20.625000
 20
228.375000
  0
VERTEX
  8
0
 10
20.650000
 20
228.325000
  0
VERTEX
  8
0
 10
20.650000
 20
228.275000
  0
VERTEX
  8
0
 10
20.625000
 20
228.225000
  0
VERTEX
  8
0
 10
20.625000
 20
228.175000
  0
VERTEX
  8
0
 10
20.600000
 20
228.125000
  0
VERTEX
  8
0
 10
20.575000
 20
228.075000
  0
VERTEX
  8
0
 10
20.550000
 20
228.025000
  0
VERTEX
  8
0
 10
20.500000
 20
227.950000
  0
VERTEX
  8
0
 10
20.450000
 20
227.900000
  0
VERTEX
  8
0
 10
20.400000
 20
227.850000
  0
VERTEX
  8
0
 10
20.350000
 20
227.775000
  0
VERTEX
  8
0
 10
20.275000
 20
227.725000
  0
VERTEX
  8
0
 10
20.200000
 20
227.650000
  0
VERTEX
  8
0
 10
20.125000
 20
227.600000
  0
VERTEX
  8
0
 10
20.050000
 20
227.525000
  0
VERTEX
  8
0
 10
19.950000
 20
227.475000
  0
VERTEX
  8
0
 10
19.850000
 20
227.400000
  0
VERTEX
  8
0
 10
19.825000
 20
227.050000
  0
VERTEX
  8
0
 10
19.775000
 20
226.700000
  0
VERTEX
  8
0
 10
19.750000
 20
226.350000
  0
VERTEX
  8
0
 10
19.700000
 20
226.025000
  0
VERTEX
  8
0
 10
19.675000
 20
225.675000
  0
VERTEX
  8
0
 10
19.650000
 20
225.350000
  0
VERTEX
  8
0
 10
19.625000
 20
225.000000
  0
VERTEX
  8
0
 10
19.600000
 20
224.675000
  0
VERTEX
  8
0
 10
19.550000
 20
224.325000
  0
VERTEX
  8
0
 10
19.525000
 20
224.000000
  0
VERTEX
  8
0
 10
19.500000
 20
223.675000
  0
VERTEX
  8
0
 10
19.475000
 20
223.350000
  0
VERTEX
  8
0
 10
19.450000
 20
223.025000
  0
VERTEX
  8
0
 10
19.450000
 20
222.700000
  0
VERTEX
  8
0
 10
19.425000
 20
222.375000
  0
VERTEX
  8
0
 10
19.400000
 20
222.050000
  0
VERTEX
  8
0
 10
19.375000
 20
221.750000
  0
VERTEX
  8
0
 10
19.375000
 20
221.425000
  0
VERTEX
  8
0
 10
19.350000
 20
221.125000
  0
VERTEX
  8
0
 10
19.325000
 20
220.800000
  0
VERTEX
  8
0
 10
19.325000
 20
220.500000
  0
VERTEX
  8
0
 10
19.300000
 20
220.200000
  0
VERTEX
  8
0
 10
19.300000
 20
219.900000
  0
VERTEX
  8
0
 10
19.300000
 20
219.600000
  0
VERTEX
  8
0
 10
19.275000
 20
219.300000
  0
VERTEX
  8
0
 10
19.275000
 20
219.000000
  0
VERTEX
  8
0
 10
19.275000
 20
218.700000
  0
VERTEX
  8
0
 10
19.250000
 20
218.400000
  0
VERTEX
  8
0
 10
19.250000
 20
218.100000
  0
VERTEX
  8
0
 10
19.250000
 20
217.825000
  0
VERTEX
  8
0
 10
19.250000
 20
217.525000
  0
VERTEX
  8
0
 10
19.250000
 20
217.250000
  0
VERTEX
  8
0
 10
19.250000
 20
216.875000
  0
VERTEX
  8
0
 10
19.250000
 20
216.475000
  0
VERTEX
  8
0
 10
19.250000
 20
216.125000
  0
VERTEX
  8
0
 10
19.250000
 20
215.750000
  0
VERTEX
  8
0
 10
19.275000
 20
215.400000
  0
VERTEX
  8
0
 10
19.275000
 20
215.050000
  0
VERTEX
  8
0
 10
19.275000
 20
214.700000
  0
VERTEX
  8
0
 10
19.300000
 20
214.375000
  0
VERTEX
  8
0
 10
19.300000
 20
214.050000
  0
VERTEX
  8
0
 10
19.325000
 20
213.725000
  0
VERTEX
  8
0
 10
19.350000
 20
213.400000
  0
VERTEX
  8
0
 10
19.350000
 20
213.100000
  0
VERTEX
  8
0
 10
19.375000
 20
212.800000
  0
VERTEX
  8
0
 10
19.400000
 20
212.500000
  0
VERTEX
  8
0
 10
19.425000
 20
212.225000
  0
VERTEX
  8
0
 10
19.450000
 20
211.950000
  0
VERTEX
  8
0
 10
19.450000
 20
211.675000
  0
VERTEX
  8
0
 10
19.475000
 20
211.400000
  0
VERTEX
  8
0
 10
19.525000
 20
211.150000
  0
VERTEX
  8
0
 10
19.550000
 20
210.900000
  0
VERTEX
  8
0
 10
19.575000
 20
210.650000
  0
VERTEX
  8
0
 10
19.600000
 20
210.425000
  0
VERTEX
  8
0
 10
19.625000
 20
210.200000
  0
VERTEX
  8
0
 10
19.675000
 20
209.975000
  0
VERTEX
  8
0
 10
19.700000
 20
209.775000
  0
VERTEX
  8
0
 10
19.750000
 20
209.550000
  0
VERTEX
  8
0
 10
19.775000
 20
209.350000
  0
VERTEX
  8
0
 10
19.825000
 20
209.175000
  0
VERTEX
  8
0
 10
19.875000
 20
208.975000
  0
VERTEX
  8
0
 10
19.900000
 20
208.800000
  0
VERTEX
  8
0
 10
19.950000
 20
208.650000
  0
VERTEX
  8
0
 10
20.000000
 20
208.475000
  0
VERTEX
  8
0
 10
20.050000
 20
208.325000
  0
VERTEX
  8
0
 10
20.100000
 20
208.150000
  0
VERTEX
  8
0
 10
20.150000
 20
208.025000
  0
VERTEX
  8
0
 10
20.200000
 20
207.875000
  0
VERTEX
  8
0
 10
20.250000
 20
207.725000
  0
VERTEX
  8
0
 10
20.300000
 20
207.600000
  0
VERTEX
  8
0
 10
20.375000
 20
207.475000
  0
VERTEX
  8
0
 10
20.425000
 20
207.350000
  0
VERTEX
  8
0
 10
20.475000
 20
207.225000
  0
VERTEX
  8
0
 10
20.550000
 20
207.125000
  0
VERTEX
  8
0
 10
20.600000
 20
207.000000
  0
VERTEX
  8
0
 10
20.675000
 20
206.900000
  0
VERTEX
  8
0
 10
20.725000
 20
206.800000
  0
VERTEX
  8
0
 10
20.800000
 20
206.700000
  0
VERTEX
  8
0
 10
20.875000
 20
206.625000
  0
VERTEX
  8
0
 10
20.950000
 20
206.550000
  0
VERTEX
  8
0
 10
21.000000
 20
206.475000
  0
VERTEX
  8
0
 10
21.075000
 20
206.400000
  0
VERTEX
  8
0
 10
21.150000
 20
206.325000
  0
VERTEX
  8
0
 10
21.225000
 20
206.250000
  0
VERTEX
  8
0
 10
21.325000
 20
206.200000
  0
VERTEX
  8
0
 10
21.400000
 20
206.150000
  0
VERTEX
  8
0
 10
21.475000
 20
206.100000
  0
VERTEX
  8
0
 10
21.550000
 20
206.050000
  0
VERTEX
  8
0
 10
21.650000
 20
206.025000
  0
VERTEX
  8
0
 10
21.725000
 20
206.000000
  0
VERTEX
  8
0
 10
21.825000
 20
205.950000
  0
VERTEX
  8
0
 10
21.900000
 20
205.950000
  0
VERTEX
  8
0
 10
22.000000
 20
205.925000
  0
VERTEX
  8
0
 10
22.075000
 20
205.900000
  0
VERTEX
  8
0
 10
22.175000
 20
205.900000
  0
VERTEX
  8
0
 10
22.275000
 20
205.900000
  0
VERTEX
  8
0
 10
22.375000
 20
205.900000
  0
VERTEX
  8
0
 10
22.475000
 20
205.900000
  0
VERTEX
  8
0
 10
22.575000
 20
205.925000
  0
VERTEX
  8
0
 10
22.675000
 20
205.950000
  0
VERTEX
  8
0
 10
22.775000
 20
205.950000
  0
VERTEX
  8
0
 10
22.875000
 20
205.975000
  0
VERTEX
  8
0
 10
22.975000
 20
206.025000
  0
VERTEX
  8
0
 10
23.075000
 20
206.050000
  0
VERTEX
  8
0
 10
23.175000
 20
206.100000
  0
VERTEX
  8
0
 10
23.275000
 20
206.125000
  0
VERTEX
  8
0
 10
23.375000
 20
206.175000
  0
VERTEX
  8
0
 10
23.450000
 20
206.250000
  0
VERTEX
  8
0
 10
23.550000
 20
206.300000
  0
VERTEX
  8
0
 10
23.650000
 20
206.350000
  0
VERTEX
  8
0
 10
23.725000
 20
206.425000
  0
VERTEX
  8
0
 10
23.825000
 20
206.500000
  0
VERTEX
  8
0
 10
23.925000
 20
206.575000
  0
VERTEX
  8
0
 10
24.000000
 20
206.675000
  0
VERTEX
  8
0
 10
24.100000
 20
206.750000
  0
VERTEX
  8
0
 10
24.175000
 20
206.850000
  0
VERTEX
  8
0
 10
24.275000
 20
206.950000
  0
VERTEX
  8
0
 10
24.350000
 20
207.050000
  0
VERTEX
  8
0
 10
24.425000
 20
207.150000
  0
VERTEX
  8
0
 10
24.525000
 20
207.250000
  0
VERTEX
  8
0
 10
24.600000
 20
207.375000
  0
VERTEX
  8
0
 10
24.675000
 20
207.500000
  0
VERTEX
  8
0
 10
24.750000
 20
207.625000
  0
VERTEX
  8
0
 10
24.850000
 20
207.750000
  0
VERTEX
  8
0
 10
24.925000
 20
207.900000
  0
VERTEX
  8
0
 10
25.000000
 20
208.025000
  0
VERTEX
  8
0
 10
25.075000
 20
208.175000
  0
VERTEX
  8
0
 10
25.150000
 20
208.325000
  0
VERTEX
  8
0
 10
25.200000
 20
208.425000
  0
VERTEX
  8
0
 10
25.250000
 20
208.525000
  0
VERTEX
  8
0
 10
25.300000
 20
208.600000
  0
VERTEX
  8
0
 10
25.350000
 20
208.700000
  0
VERTEX
  8
0
 10
25.375000
 20
208.800000
  0
VERTEX
  8
0
 10
25.425000
 20
208.900000
  0
VERTEX
  8
0
 10
25.475000
 20
209.000000
  0
VERTEX
  8
0
 10
25.525000
 20
209.125000
  0
VERTEX
  8
0
 10
25.575000
 20
209.225000
  0
VERTEX
  8
0
 10
25.625000
 20
209.325000
  0
VERTEX
  8
0
 10
25.675000
 20
209.425000
  0
VERTEX
  8
0
 10
25.725000
 20
209.525000
  0
VERTEX
  8
0
 10
25.750000
 20
209.650000
  0
VERTEX
  8
0
 10
25.800000
 20
209.750000
  0
VERTEX
  8
0
 10
25.850000
 20
209.875000
  0
VERTEX
  8
0
 10
25.900000
 20
209.975000
  0
VERTEX
  8
0
 10
25.950000
 20
210.100000
  0
VERTEX
  8
0
 10
26.000000
 20
210.200000
  0
VERTEX
  8
0
 10
26.050000
 20
210.325000
  0
VERTEX
  8
0
 10
26.100000
 20
210.450000
  0
VERTEX
  8
0
 10
26.150000
 20
210.550000
  0
VERTEX
  8
0
 10
26.200000
 20
210.675000
  0
VERTEX
  8
0
 10
26.225000
 20
210.800000
  0
VERTEX
  8
0
 10
26.275000
 20
210.925000
  0
VERTEX
  8
0
 10
26.325000
 20
211.050000
  0
VERTEX
  8
0
 10
26.375000
 20
211.175000
  0
VERTEX
  8
0
 10
26.425000
 20
211.300000
  0
VERTEX
  8
0
 10
26.475000
 20
211.425000
  0
VERTEX
  8
0
 10
26.525000
 20
211.550000
  0
VERTEX
  8
0
 10
26.575000
 20
211.675000
  0
VERTEX
  8
0
 10
26.625000
 20
211.825000
  0
VERTEX
  8
0
 10
26.675000
 20
211.950000
  0
VERTEX
  8
0
 10
29.700000
 20
209.825000
  0
SEQEND
  8
0
  0
POLYLINE
  8
0
 66
     1
 70
     1
 40
0.200000
 41
0.200000
  0
VERTEX
  8
0
 10
38.650000
 20
227.550000
  0
VERTEX
  8
0
 10
38.750000
 20
227.450000
  0
VERTEX
  8
0
 10
38.850000
 20
227.325000
  0
VERTEX
  8
0
 10
38.975000
 20
227.225000
  0
VERTEX
  8
0
 10
39.075000
 20
227.100000
  0
VERTEX
  8
0
 10
39.175000
 20
227.000000
  0
VERTEX
  8
0
 10
39.275000
 20
226.875000
  0
VERTEX
  8
0
 10
39.375000
 20
226.750000
  0
VERTEX
  8
0
 10
39.475000
 20
226.650000
  0
VERTEX
  8
0
 10
39.575000
 20
226.525000
  0
VERTEX
  8
0
 10
39.675000
 20
226.425000
  0
VERTEX
  8
0
 10
39.775000
 20
226.300000
  0
VERTEX
  8
0
 10
39.875000
 20
226.200000
  0
VERTEX
  8
0
 10
39.975000
 20
226.075000
  0
VERTEX
  8
0
 10
40.075000
 20
225.950000
  0
VERTEX
  8
0
 10
40.175000
 20
225.850000
  0
VERTEX
  8
0
 10
40.275000
 20
225.725000
  0
VERTEX
  8
0
 10
40.350000
 20
225.600000
  0
VERTEX
  8
0
 10
40.450000
 20
225.475000
  0
VERTEX
  8
0
 10
40.550000
 20
225.375000
  0
VERTEX
  8
0
 10
40.650000
 20
225.250000
  0
VERTEX
  8
0
 10
40.725000
 20
225.125000
  0
VERTEX
  8
0
 10
40.825000
 20
225.000000
  0
VERTEX
  8
0
 10
40.925000
 20
224.900000
  0
VERTEX
  8
0
 10
41.025000
 20
224.775000
  0
VERTEX
  8
0
 10
41.100000
 20
224.650000
  0
VERTEX
  8
0
 10
41.200000
 20
224.525000
  0
VERTEX
  8
0
 10
41.275000
 20
224.400000
  0
VERTEX
  8
0
 10
41.375000
 20
224.300000
  0
VERTEX
  8
0
 10
41.450000
 20
224.175000
  0
VERTEX
  8
0
 10
41.550000
 20
224.050000
  0
VERTEX
  8
0
 10
41.625000
 20
223.925000
  0
VERTEX
  8
0
 10
41.725000
 20
223.800000
  0
VERTEX
  8
0
 10
41.800000
 20
223.675000
  0
VERTEX
  8
0
 10
41.900000
 20
223.550000
  0
VERTEX
  8
0
 10
41.975000
 20
223.425000
  0
VERTEX
  8
0
 10
42.050000
 20
223.300000
  0
VERTEX
  8
0
 10
42.150000
 20
223.175000
  0
VERTEX
  8
0
 10
42.225000
 20
223.050000
  0
VERTEX
  8
0
 10
42.300000
 20
222.925000
  0
VERTEX
  8
0
 10
42.375000
 20
222.800000
  0
VERTEX
  8
0
 10
42.475000
 20
222.675000
  0
VERTEX
  8
0
 10
42.550000
 20
222.550000
  0
VERTEX
  8
0
 10
42.625000
 20
222.425000
  0
VERTEX
  8
0
 10
42.700000
 20
222.300000
  0
VERTEX
  8
0
 10
42.775000
 20
222.175000
  0
VERTEX
  8
0
 10
42.850000
 20
222.050000
  0
VERTEX
  8
0
 10
42.925000
 20
221.900000
  0
VERTEX
  8
0
 10
43.000000
 20
221.775000
  0
VERTEX
  8
0
 10
43.075000
 20
221.650000
  0
VERTEX
  8
0
 10
43.150000
 20
221.525000
  0
VERTEX
  8
0
 10
43.225000
 20
221.400000
  0
VERTEX
  8
0
 10
43.300000
 20
221.275000
  0
VERTEX
  8
0
 10
43.375000
 20
221.125000
  0
VERTEX
  8
0
 10
43.450000
 20
221.000000
  0
VERTEX
  8
0
 10
43.525000
 20
220.875000
  0
VERTEX
  8
0
 10
43.600000
 20
220.750000
  0
VERTEX
  8
0
 10
43.650000
 20
220.600000
  0
VERTEX
  8
0
 10
43.725000
 20
220.475000
  0
VERTEX
  8
0
 10
43.800000
 20
220.350000
  0
VERTEX
  8
0
 10
43.875000
 20
220.200000
  0
VERTEX
  8
0
 10
43.925000
 20
220.075000
  0
VERTEX
  8
0
 10
44.000000
 20
219.950000
  0
VERTEX
  8
0
 10
44.075000
 20
219.800000
  0
VERTEX
  8
0
 10
44.125000
 20
219.675000
  0
VERTEX
  8
0
 10
44.200000
 20
219.525000
  0
VERTEX
  8
0
 10
44.275000
 20
219.400000
  0
VERTEX
  8
0
 10
44.325000
 20
219.275000
  0
VERTEX
  8
0
 10
44.400000
 20
219.125000
  0
VERTEX
  8
0
 10
44.450000
 20
219.000000
  0
VERTEX
  8
0
 10
44.525000
 20
218.850000
  0
VERTEX
  8
0
 10
44.575000
 20
218.725000
  0
VERTEX
  8
0
 10
44.625000
 20
218.575000
  0
VERTEX
  8
0
 10
44.700000
 20
218.450000
  0
VERTEX
  8
0
 10
44.750000
 20
218.300000
  0
VERTEX
  8
0
 10
44.800000
 20
218.175000
  0
VERTEX
  8
0
 10
44.875000
 20
218.025000
  0
VERTEX
  8
0
 10
44.925000
 20
217.875000
  0
VERTEX
  8
0
 10
44.975000
 20
217.750000
  0
VERTEX
  8
0
 10
45.050000
 20
217.600000
  0
VERTEX
  8
0
 10
45.100000
 20
217.475000
  0
VERTEX
  8
0
 10
45.150000
 20
217.325000
  0
VERTEX
  8
0
 10
45.200000
 20
217.175000
  0
VERTEX
  8
0
 10
45.250000
 20
217.050000
  0
VERTEX
  8
0
 10
45.300000
 20
216.900000
  0
VERTEX
  8
0
 10
45.350000
 20
216.750000
  0
VERTEX
  8
0
 10
45.400000
 20
216.625000
  0
VERTEX
  8
0
 10
45.450000
 20
216.475000
  0
VERTEX
  8
0
 10
45.500000
 20
216.325000
  0
VERTEX
  8
0
 10
45.550000
 20
216.175000
  0
VERTEX
  8
0
 10
45.600000
 20
216.050000
  0
VERTEX
  8
0
 10
45.650000
 20
215.900000
  0
VERTEX
  8
0
 10
45.700000
 20
215.750000
  0
VERTEX
  8
0
 10
45.750000
 20
215.600000
  0
VERTEX
  8
0
 10
45.800000
 20
215.450000
  0
VERTEX
  8
0
 10
45.850000
 20
215.300000
  0
VERTEX
  8
0
 10
45.900000
 20
215.175000
  0
VERTEX
  8
0
 10
45.925000
 20
215.025000
  0
VERTEX
  8
0
 10
45.975000
 20
214.875000
  0
VERTEX
  8
0
 10
46.025000
 20
214.725000
  0
VERTEX
  8
0
 10
46.050000
 20
214.575000
  0
VERTEX
  8
0
 10
46.100000
 20
214.425000
  0
VERTEX
  8
0
 10
46.150000
 20
214.275000
  0
VERTEX
  8
0
 10
46.175000
 20
214.125000
  0
VERTEX
  8
0
 10
46.225000
 20
213.975000
  0
VERTEX
  8
0
 10
46.250000
 20
213.825000
  0
VERTEX
  8
0
 10
46.300000
 20
213.675000
  0
VERTEX
  8
0
 10
46.350000
 20
213.525000
  0
VERTEX
  8
0
 10
46.375000
 20
213.375000
  0
VERTEX
  8
0
 10
46.400000
 20
213.225000
  0
VERTEX
  8
0
 10
46.450000
 20
213.075000
  0
VERTEX
  8
0
 10
46.475000
 20
212.925000
  0
VERTEX
  8
0
 10
46.525000
 20
212.775000
  0
VERTEX
  8
0
 10
46.550000
 20
212.625000
  0
VERTEX
  8
0
 10
46.575000
 20
212.450000
  0
VERTEX
  8
0
 10
46.625000
 20
212.300000
  0
VERTEX
  8
0
 10
46.650000
 20
212.150000
  0
VERTEX
  8
0
 10
46.675000
 20
212.000000
  0
VERTEX
  8
0
 10
46.700000
 20
211.850000
  0
VERTEX
  8
0
 10
46.725000
 20
211.700000
  0
VERTEX
  8
0
 10
46.775000
 20
211.525000
  0
VERTEX
  8
0
 10
46.800000
 20
211.375000
  0
VERTEX
  8
0
 10
46.825000
 20
211.225000
  0
VERTEX
  8
0
 10
46.850000
 20
211.075000
  0
VERTEX
  8
0
 10
46.875000
 20
210.900000
  0
VERTEX
  8
0
 10
46.900000
 20
210.750000
  0
VERTEX
  8
0
 10
46.925000
 20
210.600000
  0
VERTEX
  8
0
 10
46.950000
 20
210.425000
  0
VERTEX
  8
0
 10
46.975000
 20
210.275000
  0
VERTEX
  8
0
 10
42.875000
 20
209.225000
  0
VERTEX
  8
0
 10
42.850000
 20
209.400000
  0
VERTEX
  8
0
 10
42.825000
 20
209.550000
  0
VERTEX
  8
0
 10
42.800000
 20
209.725000
  0
VERTEX
  8
0
 10
42.750000
 20
209.875000
  0
VERTEX
  8
0
 10
42.725000
 20
210.050000
  0
VERTEX
  8
0
 10
42.700000
 20
210.200000
  0
VERTEX
  8
0
 10
42.675000
 20
210.375000
  0
VERTEX
  8
0
 10
42.625000
 20
210.525000
  0
VERTEX
  8
0
 10
42.600000
 20
210.700000
  0
VERTEX
  8
0
 10
42.575000
 20
210.850000
  0
VERTEX
  8
0
 10
42.525000
 20
211.025000
  0
VERTEX
  8
0
 10
42.500000
 20
211.175000
  0
VERTEX
  8
0
 10
42.475000
 20
211.325000
  0
VERTEX
  8
0
 10
42.425000
 20
211.500000
  0
VERTEX
  8
0
 10
42.400000
 20
211.650000
  0
VERTEX
  8
0
 10
42.375000
 20
211.800000
  0
VERTEX
  8
0
 10
42.325000
 20
211.950000
  0
VERTEX
  8
0
 10
42.300000
 20
212.125000
  0
VERTEX
  8
0
 10
42.250000
 20
212.275000
  0
VERTEX
  8
0
 10
42.225000
 20
212.425000
  0
VERTEX
  8
0
 10
42.175000
 20
212.575000
  0
VERTEX
  8
0
 10
42.150000
 20
212.725000
  0
VERTEX
  8
0
 10
42.100000
 20
212.875000
  0
VERTEX
  8
0
 10
42.075000
 20
213.050000
  0
VERTEX
  8
0
 10
42.025000
 20
213.200000
  0
VERTEX
  8
0
 10
41.975000
 20
213.350000
  0
VERTEX
  8
0
 10
41.950000
 20
213.500000
  0
VERTEX
  8
0
 10
41.900000
 20
213.650000
  0
VERTEX
  8
0
 10
41.875000
 20
213.800000
  0
VERTEX
  8
0
 10
41.825000
 20
213.950000
  0
VERTEX
  8
0
 10
41.775000
 20
214.100000
  0
VERTEX
  8
0
 10
41.725000
 20
214.225000
  0
VERTEX
  8
0
 10
41.700000
 20
214.375000
  0
VERTEX
  8
0
 10
41.650000
 20
214.525000
  0
VERTEX
  8
0
 10
41.600000
 20
214.675000
  0
VERTEX
  8
0
 10
41.550000
 20
214.825000
  0
VERTEX
  8
0
 10
41.525000
 20
214.975000
  0
VERTEX
  8
0
 10
41.475000
 20
215.100000
  0
VERTEX
  8
0
 10
41.425000
 20
215.250000
  0
VERTEX
  8
0
 10
41.375000
 20
215.400000
  0
VERTEX
  8
0
 10
41.325000
 20
215.550000
  0
VERTEX
  8
0
 10
41.275000
 20
215.675000
  0
VERTEX
  8
0
 10
41.225000
 20
215.825000
  0
VERTEX
  8
0
 10
41.175000
 20
215.975000
  0
VERTEX
  8
0
 10
41.125000
 20
216.100000
  0
VERTEX
  8
0
 10
41.075000
 20
216.250000
  0
VERTEX
  8
0
 10
41.025000
 20
216.375000
  0
VERTEX
  8
0
 10
40.975000
 20
216.525000
  0
VERTEX
  8
0
 10
40.925000
 20
216.650000
  0
VERTEX
  8
0
 10
40.875000
 20
216.800000
  0
VERTEX
  8
0
 10
40.825000
 20
216.925000
  0
VERTEX
  8
0
 10
40.775000
 20
217.075000
  0
VERTEX
  8
0
 10
40.725000
 20
217.200000
  0
VERTEX
  8
0
 10
40.675000
 20
217.350000
  0
VERTEX
  8
0
 10
40.625000
 20
217.475000
  0
VERTEX
  8
0
 10
40.575000
 20
217.600000
  0
VERTEX
  8
0
 10
40.525000
 20
217.750000
  0
VERTEX
  8
0
 10
40.450000
 20
217.875000
  0
VERTEX
  8
0
 10
40.400000
 20
218.000000
  0
VERTEX
  8
0
 10
40.350000
 20
218.150000
  0
VERTEX
  8
0
 10
40.300000
 20
218.275000
  0
VERTEX
  8
0
 10
40.225000
 20
218.400000
  0
VERTEX
  8
0
 10
40.175000
 20
218.525000
  0
VERTEX
  8
0
 10
40.125000
 20
218.650000
  0
VERTEX
  8
0
 10
40.050000
 20
218.800000
  0
VERTEX
  8
0
 10
40.000000
 20
218.925000
  0
VERTEX
  8
0
 10
39.950000
 20
219.050000
  0
VERTEX
  8
0
 10
39.875000
 20
219.175000
  0
VERTEX
  8
0
 10
39.825000
 20
219.300000
  0
VERTEX
  8
0
 10
39.750000
 20
219.425000
  0
VERTEX
  8
0
 10
39.700000
 20
219.550000
  0
VERTEX
  8
0
 10
39.650000
 20
219.675000
  0
VERTEX
  8
0
 10
39.575000
 20
219.800000
  0
VERTEX
  8
0
 10
39.525000
 20
219.925000
  0
VERTEX
  8
0
 10
39.450000
 20
220.050000
  0
VERTEX
  8
0
 10
39.400000
 20
220.175000
  0
VERTEX
  8
0
 10
39.325000
 20
220.300000
  0
VERTEX
  8
0
 10
39.250000
 20
220.400000
  0
VERTEX
  8
0
 10
39.200000
 20
220.525000
  0
VERTEX
  8
0
 10
39.125000
 20
220.650000
  0
VERTEX
  8
0
 10
39.075000
 20
220.775000
  0
VERTEX
  8
0
 10
39.000000
 20
220.900000
  0
VERTEX
  8
0
 10
38.925000
 20
221.000000
  0
VERTEX
  8
0
 10
38.875000
 20
221.125000
  0
VERTEX
  8
0
 10
38.800000
 20
221.250000
  0
VERTEX
  8
0
 10
38.725000
 20
221.350000
  0
VERTEX
  8
0
 10
38.650000
 20
221.475000
  0
VERTEX
  8
0
 10
38.600000
 20
221.600000
  0
VERTEX
  8
0
 10
38.525000
 20
221.700000
  0
VERTEX
  8
0
 10
38.450000
 20
221.825000
  0
VERTEX
  8
0
 10
38.375000
 20
221.925000
  0
VERTEX
  8
0
 10
38.300000
 20
222.050000
  0
VERTEX
  8
0
 10
38.250000
 20
222.150000
  0
VERTEX
  8
0
 10
38.175000
 20
222.275000
  0
VERTEX
  8
0
 10
38.100000
 20
222.375000
  0
VERTEX
  8
0
 10
38.025000
 20
222.500000
  0
VERTEX
  8
0
 10
37.950000
 20
222.600000
  0
VERTEX
  8
0
 10
37.875000
 20
222.725000
  0
VERTEX
  8
0
 10
37.800000
 20
222.825000
  0
VERTEX
  8
0
 10
37.725000
 20
222.925000
  0
VERTEX
  8
0
 10
37.650000
 20
223.050000
  0
VERTEX
  8
0
 10
37.575000
 20
223.150000
  0
VERTEX
  8
0
 10
37.500000
 20
223.250000
  0
VERTEX
  8
0
 10
37.425000
 20
223.375000
  0
VERTEX
  8
0
 10
37.350000
 20
223.475000
  0
VERTEX
  8
0
 10
37.275000
 20
223.575000
  0
VERTEX
  8
0
 10
37.200000
 20
223.675000
  0
VERTEX
  8
0
 10
37.125000
 20
223.775000
  0
VERTEX
  8
0
 10
37.025000
 20
223.900000
  0
VERTEX
  8
0
 10
36.950000
 20
224.000000
  0
VERTEX
  8
0
 10
36.875000
 20
224.100000
  0
VERTEX
  8
0
 10
36.800000
 20
224.200000
  0
VERTEX
  8
0
 10
36.725000
 20
224.300000
  0
VERTEX
  8
0
 10
36.625000
 20
224.400000
  0
VERTEX
  8
0
 10
36.550000
 20
224.500000
  0
VERTEX
  8
0
 10
36.475000
 20
224.600000
  0
VERTEX
  8
0
 10
36.400000
 20
224.700000
  0
VERTEX
  8
0
 10
36.300000
 20
224.800000
  0
VERTEX
  8
0
 10
36.225000
 20
224.900000
  0
VERTEX
  8
0
 10
36.150000
 20
225.000000
  0
VERTEX
  8
0
 10
36.050000
 20
225.100000
  0
VERTEX
  8
0
 10
35.975000
 20
225.175000
  0
VERTEX
  8
0
 10
35.875000
 20
225.275000
  0
VERTEX
  8
0
 10
35.800000
 20
225.375000
  0
VERTEX
  8
0
 10
35.700000
 20
225.475000
  0
VERTEX
  8
0
 10
35.625000
 20
225.575000
  0
VERTEX
  8
0
 10
35.550000
 20
225.650000
  0
VERTEX
  8
0
 10
35.450000
 20
225.750000
  0
VERTEX
  8
0
 10
38.650000
 20
227.550000
  0
SEQEND
  8
0
  0
ENDSEC
  0
EOF
