  0
SECTION
  2
HEADER
  9
$ACADVER
  1
AC1009
  9
$INSBASE
 10
0.000000
 20
0.000000
 30
0.000000
  9
$EXTMIN
 10
0.000000
 20
0.000000
  9
$EXTMAX
 10
190.000000
 20
257.000000
  9
$LIMMIN
 10
0.000000
 20
0.000000
  9
$LIMMAX
 10
190.000000
 20
257.000000
  9
$TEXTSIZE
 40
0.200000
  9
$TEXTSTYLE
  7
BIGFONT
  9
$CLAYER
  8
0
  9
$ANGBASE
 50
0.000000
  9
$ANGDIR
 70
     0
  0
ENDSEC
  0
SECTION
  2
TABLES
  0
TABLE
  2
LTYPE
 70
    11
  0
LTYPE
  2
BYBLOCK
 70
    64
  3
BYBLOCK
 72
    65
 73
     0
 40
0.000000
  0
LTYPE
  2
BYLAYER
 70
    64
  3
BYLAYER
 72
    65
 73
     0
 40
0.000000
  0
LTYPE
  2
CONTINUOUS
 70
    64
  3
é¿ê¸
 72
    65
 73
     0
 40
0.000000
  0
LTYPE
  2
DASHED
 70
    64
  3
__ __ __ __ __ __ __ __ __ __ __ __ __ __ __
 72
    65
 73
     2
 40
0.750000
 49
0.500000
 49
-0.250000
  0
LTYPE
  2
HIDDEN
 70
    64
  3
_ _ _ _ _ _ _ _ _ _ _ _ _ _ _ _ _ _ _ _ _ _ _
 72
    65
 73
     2
 40
0.375000
 49
0.250000
 49
-0.125000
  0
LTYPE
  2
CENTER
 70
    64
  3
____ _ ____ _ ____ _ ____ _ ____ _ ____ _ ____
 72
    65
 73
     4
 40
2.000000
 49
1.250000
 49
-0.250000
 49
0.250000
 49
-0.250000
  0
LTYPE
  2
PHANTOM
 70
    64
  3
_____ _ _ _____ _ _ _____ _ _ _____ _ _ ____
 72
    65
 73
     6
 40
2.500000
 49
1.250000
 49
-0.250000
 49
0.250000
 49
-0.250000
 49
0.250000
 49
-0.250000
  0
LTYPE
  2
DOT
 70
    64
  3
...............................................
 72
    65
 73
     2
 40
0.250000
 49
0.000000
 49
-0.250000
  0
LTYPE
  2
DASHDOT
 70
    64
  3
__ . __ . __ . __ . __ . __ . __ . __ . __ . __
 72
    65
 73
     4
 40
1.000000
 49
0.500000
 49
-0.250000
 49
0.000000
 49
-0.250000
  0
LTYPE
  2
BORDER
 70
    64
  3
__ __ . __ __ . __ __ . __ __ . __ __ . __ __
 72
    65
 73
     6
 40
1.750000
 49
0.500000
 49
-0.250000
 49
0.500000
 49
-0.250000
 49
0.000000
 49
-0.250000
  0
LTYPE
  2
DIVIDE
 70
    64
  3
__ . . __ . . __ . . __ . . __ . . __ . . __
 72
    65
 73
     6
 40
1.250000
 49
0.500000
 49
-0.250000
 49
0.000000
 49
-0.250000
 49
0.000000
 49
-0.250000
  0
ENDTAB
  0
TABLE
  2
LAYER
  5
a2
 70
     2
  0
LAYER
  5
a5
  2
0
 70
     0
 62
     7
  6
CONTINUOUS
  0
LAYER
  5
a8
  2
B
 70
     0
 62
     7
  6
CONTINUOUS
  0
LAYER
  5
ab
  2
C
 70
     0
 62
     7
  6
CONTINUOUS
  0
LAYER
  5
ae
  2
D
 70
     0
 62
     7
  6
CONTINUOUS
  0
LAYER
  5
b1
  2
E
 70
     0
 62
     7
  6
CONTINUOUS
  0
LAYER
  5
b4
  2
F
 70
     0
 62
     7
  6
CONTINUOUS
  0
LAYER
  5
b7
  2
G
 70
     0
 62
     7
  6
CONTINUOUS
  0
LAYER
  5
ba
  2
H
 70
     0
 62
     7
  6
CONTINUOUS
  0
LAYER
  5
bd
  2
I
 70
     0
 62
     7
  6
CONTINUOUS
  0
LAYER
  5
c0
  2
J
 70
     0
 62
     7
  6
CONTINUOUS
  0
LAYER
  5
c3
  2
K
 70
     0
 62
     7
  6
CONTINUOUS
  0
LAYER
  5
c6
  2
L
 70
     0
 62
     7
  6
CONTINUOUS
  0
LAYER
  5
c9
  2
M
 70
     0
 62
     7
  6
CONTINUOUS
  0
LAYER
  5
cc
  2
N
 70
     0
 62
     7
  6
CONTINUOUS
  0
ENDTAB
  0
TABLE
  2
STYLE
 70
     2
  0
STYLE
  2
STANDARD
 70
     0
 40
0.000000
 41
0.500000
 50
0.000000
 71
     0
 42
0.300000
  3
txt
  4

  0
STYLE
  2
BIGFONT
 70
    64
 40
0.000000
 41
1.000000
 50
0.000000
 71
     0
 42
0.200000
  3

  4
bigfont
  0
ENDTAB
  0
ENDSEC
  0
SECTION
  2
BLOCKS
  0
ENDSEC
  0
SECTION
  2
ENTITIES
  0
POLYLINE
  8
0
 66
     1
 70
     1
 40
0.200000
 41
0.200000
  0
VERTEX
  8
0
 10
36.550000
 20
192.275000
  0
VERTEX
  8
0
 10
36.975000
 20
192.375000
  0
VERTEX
  8
0
 10
37.375000
 20
192.475000
  0
VERTEX
  8
0
 10
37.800000
 20
192.575000
  0
VERTEX
  8
0
 10
38.200000
 20
192.675000
  0
VERTEX
  8
0
 10
38.600000
 20
192.800000
  0
VERTEX
  8
0
 10
39.000000
 20
192.925000
  0
VERTEX
  8
0
 10
39.375000
 20
193.050000
  0
VERTEX
  8
0
 10
39.750000
 20
193.175000
  0
VERTEX
  8
0
 10
40.125000
 20
193.300000
  0
VERTEX
  8
0
 10
40.500000
 20
193.425000
  0
VERTEX
  8
0
 10
40.850000
 20
193.575000
  0
VERTEX
  8
0
 10
41.225000
 20
193.725000
  0
VERTEX
  8
0
 10
41.575000
 20
193.875000
  0
VERTEX
  8
0
 10
41.925000
 20
194.025000
  0
VERTEX
  8
0
 10
42.250000
 20
194.175000
  0
VERTEX
  8
0
 10
42.600000
 20
194.350000
  0
VERTEX
  8
0
 10
42.925000
 20
194.500000
  0
VERTEX
  8
0
 10
43.225000
 20
194.675000
  0
VERTEX
  8
0
 10
43.550000
 20
194.850000
  0
VERTEX
  8
0
 10
43.875000
 20
195.050000
  0
VERTEX
  8
0
 10
44.175000
 20
195.225000
  0
VERTEX
  8
0
 10
44.475000
 20
195.425000
  0
VERTEX
  8
0
 10
44.750000
 20
195.600000
  0
VERTEX
  8
0
 10
45.050000
 20
195.800000
  0
VERTEX
  8
0
 10
45.325000
 20
196.025000
  0
VERTEX
  8
0
 10
45.600000
 20
196.225000
  0
VERTEX
  8
0
 10
45.875000
 20
196.450000
  0
VERTEX
  8
0
 10
46.125000
 20
196.650000
  0
VERTEX
  8
0
 10
46.400000
 20
196.875000
  0
VERTEX
  8
0
 10
46.650000
 20
197.100000
  0
VERTEX
  8
0
 10
46.875000
 20
197.350000
  0
VERTEX
  8
0
 10
47.125000
 20
197.575000
  0
VERTEX
  8
0
 10
47.325000
 20
197.775000
  0
VERTEX
  8
0
 10
47.500000
 20
197.975000
  0
VERTEX
  8
0
 10
47.700000
 20
198.175000
  0
VERTEX
  8
0
 10
47.875000
 20
198.375000
  0
VERTEX
  8
0
 10
48.025000
 20
198.575000
  0
VERTEX
  8
0
 10
48.200000
 20
198.775000
  0
VERTEX
  8
0
 10
48.350000
 20
199.000000
  0
VERTEX
  8
0
 10
48.500000
 20
199.200000
  0
VERTEX
  8
0
 10
48.650000
 20
199.425000
  0
VERTEX
  8
0
 10
48.775000
 20
199.650000
  0
VERTEX
  8
0
 10
48.925000
 20
199.850000
  0
VERTEX
  8
0
 10
49.050000
 20
200.075000
  0
VERTEX
  8
0
 10
49.175000
 20
200.300000
  0
VERTEX
  8
0
 10
49.275000
 20
200.525000
  0
VERTEX
  8
0
 10
49.375000
 20
200.775000
  0
VERTEX
  8
0
 10
49.500000
 20
201.000000
  0
VERTEX
  8
0
 10
49.575000
 20
201.225000
  0
VERTEX
  8
0
 10
49.675000
 20
201.475000
  0
VERTEX
  8
0
 10
49.750000
 20
201.700000
  0
VERTEX
  8
0
 10
49.825000
 20
201.950000
  0
VERTEX
  8
0
 10
49.900000
 20
202.200000
  0
VERTEX
  8
0
 10
49.975000
 20
202.425000
  0
VERTEX
  8
0
 10
50.025000
 20
202.675000
  0
VERTEX
  8
0
 10
50.075000
 20
202.925000
  0
VERTEX
  8
0
 10
50.125000
 20
203.175000
  0
VERTEX
  8
0
 10
50.175000
 20
203.425000
  0
VERTEX
  8
0
 10
50.200000
 20
203.700000
  0
VERTEX
  8
0
 10
50.225000
 20
203.950000
  0
VERTEX
  8
0
 10
50.250000
 20
204.200000
  0
VERTEX
  8
0
 10
50.275000
 20
204.475000
  0
VERTEX
  8
0
 10
50.275000
 20
204.725000
  0
VERTEX
  8
0
 10
50.275000
 20
205.000000
  0
VERTEX
  8
0
 10
50.275000
 20
205.175000
  0
VERTEX
  8
0
 10
50.275000
 20
205.375000
  0
VERTEX
  8
0
 10
50.250000
 20
205.550000
  0
VERTEX
  8
0
 10
50.250000
 20
205.725000
  0
VERTEX
  8
0
 10
50.225000
 20
205.900000
  0
VERTEX
  8
0
 10
50.225000
 20
206.075000
  0
VERTEX
  8
0
 10
50.200000
 20
206.250000
  0
VERTEX
  8
0
 10
50.175000
 20
206.400000
  0
VERTEX
  8
0
 10
50.150000
 20
206.575000
  0
VERTEX
  8
0
 10
50.125000
 20
206.725000
  0
VERTEX
  8
0
 10
50.075000
 20
206.900000
  0
VERTEX
  8
0
 10
50.050000
 20
207.050000
  0
VERTEX
  8
0
 10
50.000000
 20
207.200000
  0
VERTEX
  8
0
 10
49.950000
 20
207.350000
  0
VERTEX
  8
0
 10
49.900000
 20
207.500000
  0
VERTEX
  8
0
 10
49.875000
 20
207.650000
  0
VERTEX
  8
0
 10
49.800000
 20
207.800000
  0
VERTEX
  8
0
 10
49.750000
 20
207.925000
  0
VERTEX
  8
0
 10
49.700000
 20
208.075000
  0
VERTEX
  8
0
 10
49.625000
 20
208.200000
  0
VERTEX
  8
0
 10
49.575000
 20
208.350000
  0
VERTEX
  8
0
 10
49.500000
 20
208.475000
  0
VERTEX
  8
0
 10
49.425000
 20
208.600000
  0
VERTEX
  8
0
 10
49.350000
 20
208.725000
  0
VERTEX
  8
0
 10
49.275000
 20
208.850000
  0
VERTEX
  8
0
 10
49.175000
 20
208.950000
  0
VERTEX
  8
0
 10
49.100000
 20
209.075000
  0
VERTEX
  8
0
 10
49.000000
 20
209.200000
  0
VERTEX
  8
0
 10
48.925000
 20
209.300000
  0
VERTEX
  8
0
 10
48.825000
 20
209.425000
  0
VERTEX
  8
0
 10
48.725000
 20
209.525000
  0
VERTEX
  8
0
 10
48.625000
 20
209.625000
  0
VERTEX
  8
0
 10
48.525000
 20
209.725000
  0
VERTEX
  8
0
 10
48.425000
 20
209.800000
  0
VERTEX
  8
0
 10
48.325000
 20
209.900000
  0
VERTEX
  8
0
 10
48.225000
 20
209.975000
  0
VERTEX
  8
0
 10
48.125000
 20
210.050000
  0
VERTEX
  8
0
 10
48.025000
 20
210.125000
  0
VERTEX
  8
0
 10
47.925000
 20
210.200000
  0
VERTEX
  8
0
 10
47.825000
 20
210.275000
  0
VERTEX
  8
0
 10
47.725000
 20
210.350000
  0
VERTEX
  8
0
 10
47.600000
 20
210.400000
  0
VERTEX
  8
0
 10
47.500000
 20
210.450000
  0
VERTEX
  8
0
 10
47.375000
 20
210.525000
  0
VERTEX
  8
0
 10
47.275000
 20
210.575000
  0
VERTEX
  8
0
 10
47.150000
 20
210.625000
  0
VERTEX
  8
0
 10
47.050000
 20
210.675000
  0
VERTEX
  8
0
 10
46.925000
 20
210.700000
  0
VERTEX
  8
0
 10
46.800000
 20
210.750000
  0
VERTEX
  8
0
 10
46.675000
 20
210.775000
  0
VERTEX
  8
0
 10
46.550000
 20
210.825000
  0
VERTEX
  8
0
 10
46.425000
 20
210.850000
  0
VERTEX
  8
0
 10
46.300000
 20
210.875000
  0
VERTEX
  8
0
 10
46.175000
 20
210.900000
  0
VERTEX
  8
0
 10
46.050000
 20
210.925000
  0
VERTEX
  8
0
 10
45.925000
 20
210.925000
  0
VERTEX
  8
0
 10
45.800000
 20
210.950000
  0
VERTEX
  8
0
 10
45.650000
 20
210.950000
  0
VERTEX
  8
0
 10
45.525000
 20
210.975000
  0
VERTEX
  8
0
 10
45.375000
 20
210.975000
  0
VERTEX
  8
0
 10
45.250000
 20
210.975000
  0
VERTEX
  8
0
 10
45.100000
 20
210.975000
  0
VERTEX
  8
0
 10
44.975000
 20
210.950000
  0
VERTEX
  8
0
 10
44.825000
 20
210.950000
  0
VERTEX
  8
0
 10
44.525000
 20
210.925000
  0
VERTEX
  8
0
 10
44.225000
 20
210.875000
  0
VERTEX
  8
0
 10
43.925000
 20
210.850000
  0
VERTEX
  8
0
 10
43.600000
 20
210.800000
  0
VERTEX
  8
0
 10
43.275000
 20
210.750000
  0
VERTEX
  8
0
 10
42.950000
 20
210.675000
  0
VERTEX
  8
0
 10
42.600000
 20
210.625000
  0
VERTEX
  8
0
 10
42.250000
 20
210.550000
  0
VERTEX
  8
0
 10
41.900000
 20
210.500000
  0
VERTEX
  8
0
 10
41.525000
 20
210.425000
  0
VERTEX
  8
0
 10
41.175000
 20
210.350000
  0
VERTEX
  8
0
 10
40.800000
 20
210.250000
  0
VERTEX
  8
0
 10
40.400000
 20
210.175000
  0
VERTEX
  8
0
 10
40.000000
 20
210.075000
  0
VERTEX
  8
0
 10
39.600000
 20
209.975000
  0
VERTEX
  8
0
 10
39.200000
 20
209.875000
  0
VERTEX
  8
0
 10
38.775000
 20
209.775000
  0
VERTEX
  8
0
 10
38.350000
 20
209.675000
  0
VERTEX
  8
0
 10
37.925000
 20
209.550000
  0
VERTEX
  8
0
 10
37.475000
 20
209.425000
  0
VERTEX
  8
0
 10
37.025000
 20
209.300000
  0
VERTEX
  8
0
 10
36.575000
 20
209.175000
  0
VERTEX
  8
0
 10
36.125000
 20
209.050000
  0
VERTEX
  8
0
 10
35.650000
 20
208.900000
  0
VERTEX
  8
0
 10
35.175000
 20
208.775000
  0
VERTEX
  8
0
 10
34.675000
 20
208.625000
  0
VERTEX
  8
0
 10
34.175000
 20
208.475000
  0
VERTEX
  8
0
 10
33.675000
 20
208.325000
  0
VERTEX
  8
0
 10
33.175000
 20
208.150000
  0
VERTEX
  8
0
 10
32.650000
 20
208.000000
  0
VERTEX
  8
0
 10
32.125000
 20
207.825000
  0
VERTEX
  8
0
 10
31.600000
 20
207.650000
  0
VERTEX
  8
0
 10
29.775000
 20
211.950000
  0
VERTEX
  8
0
 10
30.175000
 20
212.025000
  0
VERTEX
  8
0
 10
30.550000
 20
212.100000
  0
VERTEX
  8
0
 10
30.950000
 20
212.175000
  0
VERTEX
  8
0
 10
31.325000
 20
212.250000
  0
VERTEX
  8
0
 10
31.725000
 20
212.325000
  0
VERTEX
  8
0
 10
32.100000
 20
212.400000
  0
VERTEX
  8
0
 10
32.475000
 20
212.475000
  0
VERTEX
  8
0
 10
32.850000
 20
212.550000
  0
VERTEX
  8
0
 10
33.225000
 20
212.625000
  0
VERTEX
  8
0
 10
33.625000
 20
212.700000
  0
VERTEX
  8
0
 10
34.000000
 20
212.775000
  0
VERTEX
  8
0
 10
34.375000
 20
212.850000
  0
VERTEX
  8
0
 10
34.725000
 20
212.925000
  0
VERTEX
  8
0
 10
35.100000
 20
213.000000
  0
VERTEX
  8
0
 10
35.475000
 20
213.075000
  0
VERTEX
  8
0
 10
35.850000
 20
213.150000
  0
VERTEX
  8
0
 10
36.200000
 20
213.225000
  0
VERTEX
  8
0
 10
36.575000
 20
213.300000
  0
VERTEX
  8
0
 10
36.925000
 20
213.375000
  0
VERTEX
  8
0
 10
37.300000
 20
213.450000
  0
VERTEX
  8
0
 10
37.650000
 20
213.550000
  0
VERTEX
  8
0
 10
38.025000
 20
213.625000
  0
VERTEX
  8
0
 10
38.375000
 20
213.700000
  0
VERTEX
  8
0
 10
38.725000
 20
213.775000
  0
VERTEX
  8
0
 10
39.075000
 20
213.850000
  0
VERTEX
  8
0
 10
39.425000
 20
213.950000
  0
VERTEX
  8
0
 10
39.775000
 20
214.025000
  0
VERTEX
  8
0
 10
40.125000
 20
214.100000
  0
VERTEX
  8
0
 10
40.475000
 20
214.175000
  0
VERTEX
  8
0
 10
40.825000
 20
214.250000
  0
VERTEX
  8
0
 10
41.150000
 20
214.350000
  0
VERTEX
  8
0
 10
41.500000
 20
214.425000
  0
VERTEX
  8
0
 10
41.675000
 20
214.475000
  0
VERTEX
  8
0
 10
41.850000
 20
214.500000
  0
VERTEX
  8
0
 10
42.025000
 20
214.550000
  0
VERTEX
  8
0
 10
42.175000
 20
214.575000
  0
VERTEX
  8
0
 10
42.350000
 20
214.625000
  0
VERTEX
  8
0
 10
42.500000
 20
214.650000
  0
VERTEX
  8
0
 10
42.675000
 20
214.700000
  0
VERTEX
  8
0
 10
42.825000
 20
214.725000
  0
VERTEX
  8
0
 10
42.975000
 20
214.750000
  0
VERTEX
  8
0
 10
43.125000
 20
214.775000
  0
VERTEX
  8
0
 10
43.275000
 20
214.800000
  0
VERTEX
  8
0
 10
43.425000
 20
214.825000
  0
VERTEX
  8
0
 10
43.575000
 20
214.850000
  0
VERTEX
  8
0
 10
43.725000
 20
214.875000
  0
VERTEX
  8
0
 10
43.850000
 20
214.900000
  0
VERTEX
  8
0
 10
44.000000
 20
214.925000
  0
VERTEX
  8
0
 10
44.125000
 20
214.950000
  0
VERTEX
  8
0
 10
44.250000
 20
214.975000
  0
VERTEX
  8
0
 10
44.375000
 20
215.000000
  0
VERTEX
  8
0
 10
44.500000
 20
215.000000
  0
VERTEX
  8
0
 10
44.625000
 20
215.025000
  0
VERTEX
  8
0
 10
44.750000
 20
215.025000
  0
VERTEX
  8
0
 10
44.875000
 20
215.050000
  0
VERTEX
  8
0
 10
44.975000
 20
215.050000
  0
VERTEX
  8
0
 10
45.100000
 20
215.075000
  0
VERTEX
  8
0
 10
45.200000
 20
215.075000
  0
VERTEX
  8
0
 10
45.300000
 20
215.075000
  0
VERTEX
  8
0
 10
45.400000
 20
215.100000
  0
VERTEX
  8
0
 10
45.525000
 20
215.100000
  0
VERTEX
  8
0
 10
45.600000
 20
215.100000
  0
VERTEX
  8
0
 10
45.700000
 20
215.100000
  0
VERTEX
  8
0
 10
45.800000
 20
215.100000
  0
VERTEX
  8
0
 10
46.025000
 20
215.100000
  0
VERTEX
  8
0
 10
46.250000
 20
215.100000
  0
VERTEX
  8
0
 10
46.475000
 20
215.075000
  0
VERTEX
  8
0
 10
46.700000
 20
215.075000
  0
VERTEX
  8
0
 10
46.900000
 20
215.050000
  0
VERTEX
  8
0
 10
47.125000
 20
215.025000
  0
VERTEX
  8
0
 10
47.325000
 20
215.000000
  0
VERTEX
  8
0
 10
47.550000
 20
214.950000
  0
VERTEX
  8
0
 10
47.750000
 20
214.925000
  0
VERTEX
  8
0
 10
47.950000
 20
214.875000
  0
VERTEX
  8
0
 10
48.150000
 20
214.825000
  0
VERTEX
  8
0
 10
48.350000
 20
214.775000
  0
VERTEX
  8
0
 10
48.550000
 20
214.725000
  0
VERTEX
  8
0
 10
48.725000
 20
214.650000
  0
VERTEX
  8
0
 10
48.925000
 20
214.600000
  0
VERTEX
  8
0
 10
49.125000
 20
214.525000
  0
VERTEX
  8
0
 10
49.300000
 20
214.450000
  0
VERTEX
  8
0
 10
49.475000
 20
214.375000
  0
VERTEX
  8
0
 10
49.650000
 20
214.275000
  0
VERTEX
  8
0
 10
49.825000
 20
214.200000
  0
VERTEX
  8
0
 10
50.000000
 20
214.100000
  0
VERTEX
  8
0
 10
50.175000
 20
214.000000
  0
VERTEX
  8
0
 10
50.350000
 20
213.900000
  0
VERTEX
  8
0
 10
50.525000
 20
213.800000
  0
VERTEX
  8
0
 10
50.675000
 20
213.675000
  0
VERTEX
  8
0
 10
50.850000
 20
213.575000
  0
VERTEX
  8
0
 10
51.000000
 20
213.450000
  0
VERTEX
  8
0
 10
51.150000
 20
213.325000
  0
VERTEX
  8
0
 10
51.300000
 20
213.200000
  0
VERTEX
  8
0
 10
51.450000
 20
213.050000
  0
VERTEX
  8
0
 10
51.600000
 20
212.925000
  0
VERTEX
  8
0
 10
51.750000
 20
212.775000
  0
VERTEX
  8
0
 10
51.925000
 20
212.600000
  0
VERTEX
  8
0
 10
52.075000
 20
212.450000
  0
VERTEX
  8
0
 10
52.225000
 20
212.250000
  0
VERTEX
  8
0
 10
52.375000
 20
212.075000
  0
VERTEX
  8
0
 10
52.525000
 20
211.900000
  0
VERTEX
  8
0
 10
52.650000
 20
211.700000
  0
VERTEX
  8
0
 10
52.775000
 20
211.500000
  0
VERTEX
  8
0
 10
52.925000
 20
211.325000
  0
VERTEX
  8
0
 10
53.025000
 20
211.100000
  0
VERTEX
  8
0
 10
53.150000
 20
210.900000
  0
VERTEX
  8
0
 10
53.250000
 20
210.700000
  0
VERTEX
  8
0
 10
53.375000
 20
210.475000
  0
VERTEX
  8
0
 10
53.475000
 20
210.250000
  0
VERTEX
  8
0
 10
53.575000
 20
210.025000
  0
VERTEX
  8
0
 10
53.650000
 20
209.800000
  0
VERTEX
  8
0
 10
53.750000
 20
209.550000
  0
VERTEX
  8
0
 10
53.825000
 20
209.325000
  0
VERTEX
  8
0
 10
53.900000
 20
209.075000
  0
VERTEX
  8
0
 10
53.975000
 20
208.825000
  0
VERTEX
  8
0
 10
54.025000
 20
208.575000
  0
VERTEX
  8
0
 10
54.100000
 20
208.300000
  0
VERTEX
  8
0
 10
54.150000
 20
208.050000
  0
VERTEX
  8
0
 10
54.200000
 20
207.775000
  0
VERTEX
  8
0
 10
54.225000
 20
207.500000
  0
VERTEX
  8
0
 10
54.275000
 20
207.225000
  0
VERTEX
  8
0
 10
54.300000
 20
206.950000
  0
VERTEX
  8
0
 10
54.325000
 20
206.675000
  0
VERTEX
  8
0
 10
54.350000
 20
206.375000
  0
VERTEX
  8
0
 10
54.375000
 20
206.075000
  0
VERTEX
  8
0
 10
54.400000
 20
205.775000
  0
VERTEX
  8
0
 10
54.400000
 20
205.475000
  0
VERTEX
  8
0
 10
54.400000
 20
205.175000
  0
VERTEX
  8
0
 10
54.400000
 20
204.775000
  0
VERTEX
  8
0
 10
54.375000
 20
204.375000
  0
VERTEX
  8
0
 10
54.350000
 20
203.975000
  0
VERTEX
  8
0
 10
54.325000
 20
203.600000
  0
VERTEX
  8
0
 10
54.300000
 20
203.200000
  0
VERTEX
  8
0
 10
54.250000
 20
202.825000
  0
VERTEX
  8
0
 10
54.200000
 20
202.450000
  0
VERTEX
  8
0
 10
54.125000
 20
202.075000
  0
VERTEX
  8
0
 10
54.050000
 20
201.700000
  0
VERTEX
  8
0
 10
53.975000
 20
201.325000
  0
VERTEX
  8
0
 10
53.875000
 20
200.975000
  0
VERTEX
  8
0
 10
53.775000
 20
200.625000
  0
VERTEX
  8
0
 10
53.675000
 20
200.250000
  0
VERTEX
  8
0
 10
53.550000
 20
199.900000
  0
VERTEX
  8
0
 10
53.425000
 20
199.550000
  0
VERTEX
  8
0
 10
53.300000
 20
199.225000
  0
VERTEX
  8
0
 10
53.150000
 20
198.875000
  0
VERTEX
  8
0
 10
53.000000
 20
198.550000
  0
VERTEX
  8
0
 10
52.825000
 20
198.200000
  0
VERTEX
  8
0
 10
52.675000
 20
197.875000
  0
VERTEX
  8
0
 10
52.475000
 20
197.550000
  0
VERTEX
  8
0
 10
52.300000
 20
197.225000
  0
VERTEX
  8
0
 10
52.100000
 20
196.925000
  0
VERTEX
  8
0
 10
51.900000
 20
196.600000
  0
VERTEX
  8
0
 10
51.675000
 20
196.300000
  0
VERTEX
  8
0
 10
51.475000
 20
196.000000
  0
VERTEX
  8
0
 10
51.225000
 20
195.700000
  0
VERTEX
  8
0
 10
51.000000
 20
195.400000
  0
VERTEX
  8
0
 10
50.750000
 20
195.100000
  0
VERTEX
  8
0
 10
50.500000
 20
194.825000
  0
VERTEX
  8
0
 10
50.225000
 20
194.525000
  0
VERTEX
  8
0
 10
49.950000
 20
194.250000
  0
VERTEX
  8
0
 10
49.700000
 20
194.000000
  0
VERTEX
  8
0
 10
49.450000
 20
193.775000
  0
VERTEX
  8
0
 10
49.175000
 20
193.525000
  0
VERTEX
  8
0
 10
48.925000
 20
193.300000
  0
VERTEX
  8
0
 10
48.650000
 20
193.075000
  0
VERTEX
  8
0
 10
48.350000
 20
192.850000
  0
VERTEX
  8
0
 10
48.075000
 20
192.625000
  0
VERTEX
  8
0
 10
47.800000
 20
192.400000
  0
VERTEX
  8
0
 10
47.500000
 20
192.200000
  0
VERTEX
  8
0
 10
47.200000
 20
192.000000
  0
VERTEX
  8
0
 10
46.900000
 20
191.775000
  0
VERTEX
  8
0
 10
46.575000
 20
191.575000
  0
VERTEX
  8
0
 10
46.250000
 20
191.400000
  0
VERTEX
  8
0
 10
45.950000
 20
191.200000
  0
VERTEX
  8
0
 10
45.600000
 20
191.000000
  0
VERTEX
  8
0
 10
45.275000
 20
190.825000
  0
VERTEX
  8
0
 10
44.950000
 20
190.650000
  0
VERTEX
  8
0
 10
44.600000
 20
190.475000
  0
VERTEX
  8
0
 10
44.250000
 20
190.300000
  0
VERTEX
  8
0
 10
43.900000
 20
190.125000
  0
VERTEX
  8
0
 10
43.525000
 20
189.975000
  0
VERTEX
  8
0
 10
43.175000
 20
189.825000
  0
VERTEX
  8
0
 10
42.800000
 20
189.675000
  0
VERTEX
  8
0
 10
42.425000
 20
189.525000
  0
VERTEX
  8
0
 10
42.025000
 20
189.375000
  0
VERTEX
  8
0
 10
41.650000
 20
189.225000
  0
VERTEX
  8
0
 10
41.250000
 20
189.100000
  0
VERTEX
  8
0
 10
40.850000
 20
188.950000
  0
VERTEX
  8
0
 10
40.450000
 20
188.825000
  0
VERTEX
  8
0
 10
40.025000
 20
188.700000
  0
VERTEX
  8
0
 10
39.625000
 20
188.600000
  0
VERTEX
  8
0
 10
39.200000
 20
188.475000
  0
VERTEX
  8
0
 10
36.550000
 20
192.275000
  0
SEQEND
  8
0
  0
POLYLINE
  8
0
 66
     1
 70
     1
 40
0.200000
 41
0.200000
  0
VERTEX
  8
0
 10
50.275000
 20
219.400000
  0
VERTEX
  8
0
 10
50.175000
 20
219.400000
  0
VERTEX
  8
0
 10
50.075000
 20
219.425000
  0
VERTEX
  8
0
 10
49.975000
 20
219.425000
  0
VERTEX
  8
0
 10
49.850000
 20
219.450000
  0
VERTEX
  8
0
 10
49.750000
 20
219.450000
  0
VERTEX
  8
0
 10
49.650000
 20
219.475000
  0
VERTEX
  8
0
 10
49.550000
 20
219.475000
  0
VERTEX
  8
0
 10
49.450000
 20
219.475000
  0
VERTEX
  8
0
 10
49.325000
 20
219.500000
  0
VERTEX
  8
0
 10
49.225000
 20
219.500000
  0
VERTEX
  8
0
 10
49.125000
 20
219.525000
  0
VERTEX
  8
0
 10
49.000000
 20
219.525000
  0
VERTEX
  8
0
 10
48.900000
 20
219.550000
  0
VERTEX
  8
0
 10
48.800000
 20
219.550000
  0
VERTEX
  8
0
 10
48.700000
 20
219.575000
  0
VERTEX
  8
0
 10
48.575000
 20
219.575000
  0
VERTEX
  8
0
 10
48.475000
 20
219.600000
  0
VERTEX
  8
0
 10
48.350000
 20
219.600000
  0
VERTEX
  8
0
 10
48.250000
 20
219.625000
  0
VERTEX
  8
0
 10
48.150000
 20
219.625000
  0
VERTEX
  8
0
 10
48.025000
 20
219.650000
  0
VERTEX
  8
0
 10
47.925000
 20
219.650000
  0
VERTEX
  8
0
 10
47.800000
 20
219.675000
  0
VERTEX
  8
0
 10
47.700000
 20
219.675000
  0
VERTEX
  8
0
 10
47.600000
 20
219.700000
  0
VERTEX
  8
0
 10
47.475000
 20
219.725000
  0
VERTEX
  8
0
 10
47.375000
 20
219.725000
  0
VERTEX
  8
0
 10
47.250000
 20
219.750000
  0
VERTEX
  8
0
 10
47.150000
 20
219.750000
  0
VERTEX
  8
0
 10
47.025000
 20
219.775000
  0
VERTEX
  8
0
 10
46.900000
 20
219.800000
  0
VERTEX
  8
0
 10
46.800000
 20
219.800000
  0
VERTEX
  8
0
 10
46.675000
 20
219.825000
  0
VERTEX
  8
0
 10
46.575000
 20
219.825000
  0
VERTEX
  8
0
 10
46.450000
 20
219.850000
  0
VERTEX
  8
0
 10
46.325000
 20
219.875000
  0
VERTEX
  8
0
 10
46.225000
 20
219.875000
  0
VERTEX
  8
0
 10
46.100000
 20
219.900000
  0
VERTEX
  8
0
 10
46.000000
 20
219.925000
  0
VERTEX
  8
0
 10
45.875000
 20
219.925000
  0
VERTEX
  8
0
 10
45.750000
 20
219.950000
  0
VERTEX
  8
0
 10
45.625000
 20
219.975000
  0
VERTEX
  8
0
 10
45.525000
 20
219.975000
  0
VERTEX
  8
0
 10
45.400000
 20
220.000000
  0
VERTEX
  8
0
 10
45.275000
 20
220.025000
  0
VERTEX
  8
0
 10
45.175000
 20
220.025000
  0
VERTEX
  8
0
 10
45.050000
 20
220.050000
  0
VERTEX
  8
0
 10
44.925000
 20
220.075000
  0
VERTEX
  8
0
 10
44.800000
 20
220.075000
  0
VERTEX
  8
0
 10
44.675000
 20
220.100000
  0
VERTEX
  8
0
 10
44.575000
 20
220.125000
  0
VERTEX
  8
0
 10
44.450000
 20
220.150000
  0
VERTEX
  8
0
 10
44.325000
 20
220.150000
  0
VERTEX
  8
0
 10
44.200000
 20
220.175000
  0
VERTEX
  8
0
 10
44.075000
 20
220.200000
  0
VERTEX
  8
0
 10
43.950000
 20
220.225000
  0
VERTEX
  8
0
 10
43.825000
 20
220.225000
  0
VERTEX
  8
0
 10
43.700000
 20
220.250000
  0
VERTEX
  8
0
 10
43.575000
 20
220.275000
  0
VERTEX
  8
0
 10
43.450000
 20
220.300000
  0
VERTEX
  8
0
 10
43.325000
 20
220.325000
  0
VERTEX
  8
0
 10
43.225000
 20
220.325000
  0
VERTEX
  8
0
 10
43.100000
 20
220.350000
  0
VERTEX
  8
0
 10
42.975000
 20
220.375000
  0
VERTEX
  8
0
 10
42.825000
 20
220.400000
  0
VERTEX
  8
0
 10
42.700000
 20
220.425000
  0
VERTEX
  8
0
 10
42.575000
 20
220.425000
  0
VERTEX
  8
0
 10
42.450000
 20
220.450000
  0
VERTEX
  8
0
 10
42.325000
 20
220.475000
  0
VERTEX
  8
0
 10
42.200000
 20
220.500000
  0
VERTEX
  8
0
 10
42.075000
 20
220.525000
  0
VERTEX
  8
0
 10
41.950000
 20
220.550000
  0
VERTEX
  8
0
 10
41.825000
 20
220.575000
  0
VERTEX
  8
0
 10
41.700000
 20
220.600000
  0
VERTEX
  8
0
 10
41.550000
 20
220.600000
  0
VERTEX
  8
0
 10
41.425000
 20
220.625000
  0
VERTEX
  8
0
 10
41.300000
 20
220.650000
  0
VERTEX
  8
0
 10
41.175000
 20
220.675000
  0
VERTEX
  8
0
 10
41.050000
 20
220.700000
  0
VERTEX
  8
0
 10
40.900000
 20
220.725000
  0
VERTEX
  8
0
 10
40.775000
 20
220.750000
  0
VERTEX
  8
0
 10
40.650000
 20
220.775000
  0
VERTEX
  8
0
 10
40.525000
 20
220.800000
  0
VERTEX
  8
0
 10
40.375000
 20
220.825000
  0
VERTEX
  8
0
 10
40.250000
 20
220.850000
  0
VERTEX
  8
0
 10
40.125000
 20
220.875000
  0
VERTEX
  8
0
 10
39.975000
 20
220.900000
  0
VERTEX
  8
0
 10
39.850000
 20
220.925000
  0
VERTEX
  8
0
 10
39.725000
 20
220.950000
  0
VERTEX
  8
0
 10
39.575000
 20
220.975000
  0
VERTEX
  8
0
 10
39.450000
 20
221.000000
  0
VERTEX
  8
0
 10
39.325000
 20
221.025000
  0
VERTEX
  8
0
 10
39.175000
 20
221.050000
  0
VERTEX
  8
0
 10
39.050000
 20
221.075000
  0
VERTEX
  8
0
 10
38.900000
 20
221.100000
  0
VERTEX
  8
0
 10
38.775000
 20
221.125000
  0
VERTEX
  8
0
 10
38.625000
 20
221.150000
  0
VERTEX
  8
0
 10
38.500000
 20
221.175000
  0
VERTEX
  8
0
 10
38.350000
 20
221.200000
  0
VERTEX
  8
0
 10
38.225000
 20
221.225000
  0
VERTEX
  8
0
 10
38.075000
 20
221.250000
  0
VERTEX
  8
0
 10
37.950000
 20
221.275000
  0
VERTEX
  8
0
 10
37.800000
 20
221.300000
  0
VERTEX
  8
0
 10
37.675000
 20
221.325000
  0
VERTEX
  8
0
 10
37.525000
 20
221.350000
  0
VERTEX
  8
0
 10
37.400000
 20
221.375000
  0
VERTEX
  8
0
 10
37.250000
 20
221.400000
  0
VERTEX
  8
0
 10
37.100000
 20
221.425000
  0
VERTEX
  8
0
 10
36.975000
 20
221.475000
  0
VERTEX
  8
0
 10
36.825000
 20
221.500000
  0
VERTEX
  8
0
 10
36.675000
 20
221.525000
  0
VERTEX
  8
0
 10
36.550000
 20
221.550000
  0
VERTEX
  8
0
 10
36.400000
 20
221.575000
  0
VERTEX
  8
0
 10
36.250000
 20
221.600000
  0
VERTEX
  8
0
 10
36.125000
 20
221.625000
  0
VERTEX
  8
0
 10
35.975000
 20
221.675000
  0
VERTEX
  8
0
 10
35.825000
 20
221.700000
  0
VERTEX
  8
0
 10
35.675000
 20
221.725000
  0
VERTEX
  8
0
 10
35.550000
 20
221.750000
  0
VERTEX
  8
0
 10
35.400000
 20
221.775000
  0
VERTEX
  8
0
 10
35.250000
 20
221.800000
  0
VERTEX
  8
0
 10
35.100000
 20
221.850000
  0
VERTEX
  8
0
 10
34.950000
 20
221.875000
  0
VERTEX
  8
0
 10
34.825000
 20
221.900000
  0
VERTEX
  8
0
 10
34.675000
 20
221.925000
  0
VERTEX
  8
0
 10
34.525000
 20
221.975000
  0
VERTEX
  8
0
 10
34.375000
 20
222.000000
  0
VERTEX
  8
0
 10
34.225000
 20
222.025000
  0
VERTEX
  8
0
 10
35.225000
 20
226.175000
  0
VERTEX
  8
0
 10
35.375000
 20
226.150000
  0
VERTEX
  8
0
 10
35.525000
 20
226.100000
  0
VERTEX
  8
0
 10
35.650000
 20
226.075000
  0
VERTEX
  8
0
 10
35.800000
 20
226.050000
  0
VERTEX
  8
0
 10
35.950000
 20
226.000000
  0
VERTEX
  8
0
 10
36.100000
 20
225.975000
  0
VERTEX
  8
0
 10
36.225000
 20
225.950000
  0
VERTEX
  8
0
 10
36.375000
 20
225.900000
  0
VERTEX
  8
0
 10
36.525000
 20
225.875000
  0
VERTEX
  8
0
 10
36.650000
 20
225.850000
  0
VERTEX
  8
0
 10
36.800000
 20
225.825000
  0
VERTEX
  8
0
 10
36.950000
 20
225.775000
  0
VERTEX
  8
0
 10
37.075000
 20
225.750000
  0
VERTEX
  8
0
 10
37.225000
 20
225.725000
  0
VERTEX
  8
0
 10
37.350000
 20
225.675000
  0
VERTEX
  8
0
 10
37.500000
 20
225.650000
  0
VERTEX
  8
0
 10
37.650000
 20
225.625000
  0
VERTEX
  8
0
 10
37.775000
 20
225.600000
  0
VERTEX
  8
0
 10
37.925000
 20
225.575000
  0
VERTEX
  8
0
 10
38.050000
 20
225.525000
  0
VERTEX
  8
0
 10
38.200000
 20
225.500000
  0
VERTEX
  8
0
 10
38.325000
 20
225.475000
  0
VERTEX
  8
0
 10
38.475000
 20
225.450000
  0
VERTEX
  8
0
 10
38.600000
 20
225.425000
  0
VERTEX
  8
0
 10
38.750000
 20
225.375000
  0
VERTEX
  8
0
 10
38.875000
 20
225.350000
  0
VERTEX
  8
0
 10
39.025000
 20
225.325000
  0
VERTEX
  8
0
 10
39.150000
 20
225.300000
  0
VERTEX
  8
0
 10
39.275000
 20
225.275000
  0
VERTEX
  8
0
 10
39.425000
 20
225.250000
  0
VERTEX
  8
0
 10
39.550000
 20
225.225000
  0
VERTEX
  8
0
 10
39.700000
 20
225.175000
  0
VERTEX
  8
0
 10
39.825000
 20
225.150000
  0
VERTEX
  8
0
 10
39.950000
 20
225.125000
  0
VERTEX
  8
0
 10
40.100000
 20
225.100000
  0
VERTEX
  8
0
 10
40.225000
 20
225.075000
  0
VERTEX
  8
0
 10
40.350000
 20
225.050000
  0
VERTEX
  8
0
 10
40.500000
 20
225.025000
  0
VERTEX
  8
0
 10
40.625000
 20
225.000000
  0
VERTEX
  8
0
 10
40.750000
 20
224.975000
  0
VERTEX
  8
0
 10
40.900000
 20
224.950000
  0
VERTEX
  8
0
 10
41.025000
 20
224.925000
  0
VERTEX
  8
0
 10
41.150000
 20
224.900000
  0
VERTEX
  8
0
 10
41.275000
 20
224.875000
  0
VERTEX
  8
0
 10
41.400000
 20
224.850000
  0
VERTEX
  8
0
 10
41.550000
 20
224.825000
  0
VERTEX
  8
0
 10
41.675000
 20
224.800000
  0
VERTEX
  8
0
 10
41.800000
 20
224.775000
  0
VERTEX
  8
0
 10
41.925000
 20
224.750000
  0
VERTEX
  8
0
 10
42.050000
 20
224.725000
  0
VERTEX
  8
0
 10
42.200000
 20
224.700000
  0
VERTEX
  8
0
 10
42.325000
 20
224.675000
  0
VERTEX
  8
0
 10
42.450000
 20
224.650000
  0
VERTEX
  8
0
 10
42.575000
 20
224.625000
  0
VERTEX
  8
0
 10
42.700000
 20
224.600000
  0
VERTEX
  8
0
 10
42.825000
 20
224.575000
  0
VERTEX
  8
0
 10
42.950000
 20
224.550000
  0
VERTEX
  8
0
 10
43.075000
 20
224.525000
  0
VERTEX
  8
0
 10
43.200000
 20
224.500000
  0
VERTEX
  8
0
 10
43.325000
 20
224.475000
  0
VERTEX
  8
0
 10
43.450000
 20
224.450000
  0
VERTEX
  8
0
 10
43.575000
 20
224.425000
  0
VERTEX
  8
0
 10
43.700000
 20
224.400000
  0
VERTEX
  8
0
 10
43.825000
 20
224.375000
  0
VERTEX
  8
0
 10
43.950000
 20
224.375000
  0
VERTEX
  8
0
 10
44.075000
 20
224.350000
  0
VERTEX
  8
0
 10
44.200000
 20
224.325000
  0
VERTEX
  8
0
 10
44.325000
 20
224.300000
  0
VERTEX
  8
0
 10
44.450000
 20
224.275000
  0
VERTEX
  8
0
 10
44.575000
 20
224.250000
  0
VERTEX
  8
0
 10
44.700000
 20
224.250000
  0
VERTEX
  8
0
 10
44.800000
 20
224.225000
  0
VERTEX
  8
0
 10
44.925000
 20
224.200000
  0
VERTEX
  8
0
 10
45.050000
 20
224.175000
  0
VERTEX
  8
0
 10
45.175000
 20
224.150000
  0
VERTEX
  8
0
 10
45.300000
 20
224.125000
  0
VERTEX
  8
0
 10
45.425000
 20
224.125000
  0
VERTEX
  8
0
 10
45.525000
 20
224.100000
  0
VERTEX
  8
0
 10
45.650000
 20
224.075000
  0
VERTEX
  8
0
 10
45.775000
 20
224.050000
  0
VERTEX
  8
0
 10
45.900000
 20
224.050000
  0
VERTEX
  8
0
 10
46.000000
 20
224.025000
  0
VERTEX
  8
0
 10
46.125000
 20
224.000000
  0
VERTEX
  8
0
 10
46.250000
 20
223.975000
  0
VERTEX
  8
0
 10
46.350000
 20
223.975000
  0
VERTEX
  8
0
 10
46.475000
 20
223.950000
  0
VERTEX
  8
0
 10
46.600000
 20
223.925000
  0
VERTEX
  8
0
 10
46.700000
 20
223.925000
  0
VERTEX
  8
0
 10
46.825000
 20
223.900000
  0
VERTEX
  8
0
 10
46.950000
 20
223.875000
  0
VERTEX
  8
0
 10
47.050000
 20
223.850000
  0
VERTEX
  8
0
 10
47.175000
 20
223.850000
  0
VERTEX
  8
0
 10
47.300000
 20
223.825000
  0
VERTEX
  8
0
 10
47.400000
 20
223.800000
  0
VERTEX
  8
0
 10
47.525000
 20
223.800000
  0
VERTEX
  8
0
 10
47.625000
 20
223.775000
  0
VERTEX
  8
0
 10
47.750000
 20
223.750000
  0
VERTEX
  8
0
 10
47.850000
 20
223.750000
  0
VERTEX
  8
0
 10
47.975000
 20
223.725000
  0
VERTEX
  8
0
 10
48.075000
 20
223.725000
  0
VERTEX
  8
0
 10
48.200000
 20
223.700000
  0
VERTEX
  8
0
 10
48.300000
 20
223.675000
  0
VERTEX
  8
0
 10
48.425000
 20
223.675000
  0
VERTEX
  8
0
 10
48.525000
 20
223.650000
  0
VERTEX
  8
0
 10
48.650000
 20
223.650000
  0
VERTEX
  8
0
 10
48.750000
 20
223.625000
  0
VERTEX
  8
0
 10
48.850000
 20
223.600000
  0
VERTEX
  8
0
 10
48.975000
 20
223.600000
  0
VERTEX
  8
0
 10
49.075000
 20
223.575000
  0
VERTEX
  8
0
 10
49.200000
 20
223.575000
  0
VERTEX
  8
0
 10
49.300000
 20
223.550000
  0
VERTEX
  8
0
 10
49.400000
 20
223.550000
  0
VERTEX
  8
0
 10
49.525000
 20
223.525000
  0
VERTEX
  8
0
 10
49.625000
 20
223.525000
  0
VERTEX
  8
0
 10
49.725000
 20
223.500000
  0
VERTEX
  8
0
 10
49.850000
 20
223.500000
  0
VERTEX
  8
0
 10
49.950000
 20
223.475000
  0
VERTEX
  8
0
 10
50.050000
 20
223.475000
  0
VERTEX
  8
0
 10
50.150000
 20
223.450000
  0
VERTEX
  8
0
 10
50.275000
 20
223.450000
  0
VERTEX
  8
0
 10
50.375000
 20
223.425000
  0
VERTEX
  8
0
 10
50.475000
 20
223.425000
  0
VERTEX
  8
0
 10
50.575000
 20
223.400000
  0
VERTEX
  8
0
 10
50.675000
 20
223.400000
  0
VERTEX
  8
0
 10
50.800000
 20
223.375000
  0
VERTEX
  8
0
 10
50.900000
 20
223.375000
  0
VERTEX
  8
0
 10
51.000000
 20
223.350000
  0
VERTEX
  8
0
 10
51.100000
 20
223.350000
  0
VERTEX
  8
0
 10
50.275000
 20
219.400000
  0
SEQEND
  8
0
  0
ENDSEC
  0
EOF
