  0
SECTION
  2
HEADER
  9
$ACADVER
  1
AC1009
  9
$INSBASE
 10
0.000000
 20
0.000000
 30
0.000000
  9
$EXTMIN
 10
0.000000
 20
0.000000
  9
$EXTMAX
 10
190.000000
 20
257.000000
  9
$LIMMIN
 10
0.000000
 20
0.000000
  9
$LIMMAX
 10
190.000000
 20
257.000000
  9
$TEXTSIZE
 40
0.200000
  9
$TEXTSTYLE
  7
BIGFONT
  9
$CLAYER
  8
0
  9
$ANGBASE
 50
0.000000
  9
$ANGDIR
 70
     0
  0
ENDSEC
  0
SECTION
  2
TABLES
  0
TABLE
  2
LTYPE
 70
    11
  0
LTYPE
  2
BYBLOCK
 70
    64
  3
BYBLOCK
 72
    65
 73
     0
 40
0.000000
  0
LTYPE
  2
BYLAYER
 70
    64
  3
BYLAYER
 72
    65
 73
     0
 40
0.000000
  0
LTYPE
  2
CONTINUOUS
 70
    64
  3
é¿ê¸
 72
    65
 73
     0
 40
0.000000
  0
LTYPE
  2
DASHED
 70
    64
  3
__ __ __ __ __ __ __ __ __ __ __ __ __ __ __
 72
    65
 73
     2
 40
0.750000
 49
0.500000
 49
-0.250000
  0
LTYPE
  2
HIDDEN
 70
    64
  3
_ _ _ _ _ _ _ _ _ _ _ _ _ _ _ _ _ _ _ _ _ _ _
 72
    65
 73
     2
 40
0.375000
 49
0.250000
 49
-0.125000
  0
LTYPE
  2
CENTER
 70
    64
  3
____ _ ____ _ ____ _ ____ _ ____ _ ____ _ ____
 72
    65
 73
     4
 40
2.000000
 49
1.250000
 49
-0.250000
 49
0.250000
 49
-0.250000
  0
LTYPE
  2
PHANTOM
 70
    64
  3
_____ _ _ _____ _ _ _____ _ _ _____ _ _ ____
 72
    65
 73
     6
 40
2.500000
 49
1.250000
 49
-0.250000
 49
0.250000
 49
-0.250000
 49
0.250000
 49
-0.250000
  0
LTYPE
  2
DOT
 70
    64
  3
...............................................
 72
    65
 73
     2
 40
0.250000
 49
0.000000
 49
-0.250000
  0
LTYPE
  2
DASHDOT
 70
    64
  3
__ . __ . __ . __ . __ . __ . __ . __ . __ . __
 72
    65
 73
     4
 40
1.000000
 49
0.500000
 49
-0.250000
 49
0.000000
 49
-0.250000
  0
LTYPE
  2
BORDER
 70
    64
  3
__ __ . __ __ . __ __ . __ __ . __ __ . __ __
 72
    65
 73
     6
 40
1.750000
 49
0.500000
 49
-0.250000
 49
0.500000
 49
-0.250000
 49
0.000000
 49
-0.250000
  0
LTYPE
  2
DIVIDE
 70
    64
  3
__ . . __ . . __ . . __ . . __ . . __ . . __
 72
    65
 73
     6
 40
1.250000
 49
0.500000
 49
-0.250000
 49
0.000000
 49
-0.250000
 49
0.000000
 49
-0.250000
  0
ENDTAB
  0
TABLE
  2
LAYER
  5
a2
 70
     2
  0
LAYER
  5
a5
  2
0
 70
     0
 62
     7
  6
CONTINUOUS
  0
LAYER
  5
a8
  2
B
 70
     0
 62
     7
  6
CONTINUOUS
  0
LAYER
  5
ab
  2
C
 70
     0
 62
     7
  6
CONTINUOUS
  0
LAYER
  5
ae
  2
D
 70
     0
 62
     7
  6
CONTINUOUS
  0
LAYER
  5
b1
  2
E
 70
     0
 62
     7
  6
CONTINUOUS
  0
LAYER
  5
b4
  2
F
 70
     0
 62
     7
  6
CONTINUOUS
  0
LAYER
  5
b7
  2
G
 70
     0
 62
     7
  6
CONTINUOUS
  0
LAYER
  5
ba
  2
H
 70
     0
 62
     7
  6
CONTINUOUS
  0
LAYER
  5
bd
  2
I
 70
     0
 62
     7
  6
CONTINUOUS
  0
LAYER
  5
c0
  2
J
 70
     0
 62
     7
  6
CONTINUOUS
  0
LAYER
  5
c3
  2
K
 70
     0
 62
     7
  6
CONTINUOUS
  0
LAYER
  5
c6
  2
L
 70
     0
 62
     7
  6
CONTINUOUS
  0
LAYER
  5
c9
  2
M
 70
     0
 62
     7
  6
CONTINUOUS
  0
LAYER
  5
cc
  2
N
 70
     0
 62
     7
  6
CONTINUOUS
  0
ENDTAB
  0
TABLE
  2
STYLE
 70
     2
  0
STYLE
  2
STANDARD
 70
     0
 40
0.000000
 41
0.500000
 50
0.000000
 71
     0
 42
0.300000
  3
txt
  4

  0
STYLE
  2
BIGFONT
 70
    64
 40
0.000000
 41
1.000000
 50
0.000000
 71
     0
 42
0.200000
  3

  4
bigfont
  0
ENDTAB
  0
ENDSEC
  0
SECTION
  2
BLOCKS
  0
ENDSEC
  0
SECTION
  2
ENTITIES
  0
POLYLINE
  8
0
 66
     1
 70
     1
 40
0.200000
 41
0.200000
  0
VERTEX
  8
0
 10
21.150000
 20
219.850000
  0
VERTEX
  8
0
 10
22.125000
 20
219.925000
  0
VERTEX
  8
0
 10
23.100000
 20
219.975000
  0
VERTEX
  8
0
 10
24.025000
 20
220.050000
  0
VERTEX
  8
0
 10
24.950000
 20
220.125000
  0
VERTEX
  8
0
 10
25.850000
 20
220.175000
  0
VERTEX
  8
0
 10
26.725000
 20
220.250000
  0
VERTEX
  8
0
 10
27.575000
 20
220.300000
  0
VERTEX
  8
0
 10
28.400000
 20
220.375000
  0
VERTEX
  8
0
 10
29.200000
 20
220.425000
  0
VERTEX
  8
0
 10
30.000000
 20
220.500000
  0
VERTEX
  8
0
 10
30.750000
 20
220.550000
  0
VERTEX
  8
0
 10
31.500000
 20
220.625000
  0
VERTEX
  8
0
 10
32.200000
 20
220.675000
  0
VERTEX
  8
0
 10
32.900000
 20
220.725000
  0
VERTEX
  8
0
 10
33.575000
 20
220.775000
  0
VERTEX
  8
0
 10
34.225000
 20
220.850000
  0
VERTEX
  8
0
 10
34.850000
 20
220.900000
  0
VERTEX
  8
0
 10
35.450000
 20
220.950000
  0
VERTEX
  8
0
 10
36.025000
 20
221.000000
  0
VERTEX
  8
0
 10
36.600000
 20
221.075000
  0
VERTEX
  8
0
 10
37.125000
 20
221.125000
  0
VERTEX
  8
0
 10
37.650000
 20
221.175000
  0
VERTEX
  8
0
 10
38.125000
 20
221.225000
  0
VERTEX
  8
0
 10
38.600000
 20
221.275000
  0
VERTEX
  8
0
 10
39.050000
 20
221.325000
  0
VERTEX
  8
0
 10
39.475000
 20
221.375000
  0
VERTEX
  8
0
 10
39.875000
 20
221.425000
  0
VERTEX
  8
0
 10
40.250000
 20
221.475000
  0
VERTEX
  8
0
 10
40.600000
 20
221.525000
  0
VERTEX
  8
0
 10
40.950000
 20
221.550000
  0
VERTEX
  8
0
 10
41.250000
 20
221.600000
  0
VERTEX
  8
0
 10
41.550000
 20
221.650000
  0
VERTEX
  8
0
 10
43.000000
 20
222.375000
  0
VERTEX
  8
0
 10
46.050000
 20
219.325000
  0
VERTEX
  8
0
 10
45.625000
 20
219.025000
  0
VERTEX
  8
0
 10
45.200000
 20
218.725000
  0
VERTEX
  8
0
 10
44.800000
 20
218.425000
  0
VERTEX
  8
0
 10
44.375000
 20
218.125000
  0
VERTEX
  8
0
 10
43.975000
 20
217.800000
  0
VERTEX
  8
0
 10
43.575000
 20
217.500000
  0
VERTEX
  8
0
 10
43.175000
 20
217.200000
  0
VERTEX
  8
0
 10
42.775000
 20
216.900000
  0
VERTEX
  8
0
 10
42.375000
 20
216.600000
  0
VERTEX
  8
0
 10
42.000000
 20
216.275000
  0
VERTEX
  8
0
 10
41.625000
 20
215.975000
  0
VERTEX
  8
0
 10
41.225000
 20
215.675000
  0
VERTEX
  8
0
 10
40.875000
 20
215.375000
  0
VERTEX
  8
0
 10
40.500000
 20
215.050000
  0
VERTEX
  8
0
 10
40.125000
 20
214.750000
  0
VERTEX
  8
0
 10
39.775000
 20
214.450000
  0
VERTEX
  8
0
 10
39.400000
 20
214.150000
  0
VERTEX
  8
0
 10
39.050000
 20
213.825000
  0
VERTEX
  8
0
 10
38.700000
 20
213.525000
  0
VERTEX
  8
0
 10
38.375000
 20
213.225000
  0
VERTEX
  8
0
 10
38.025000
 20
212.900000
  0
VERTEX
  8
0
 10
37.700000
 20
212.600000
  0
VERTEX
  8
0
 10
37.375000
 20
212.275000
  0
VERTEX
  8
0
 10
37.025000
 20
211.975000
  0
VERTEX
  8
0
 10
36.725000
 20
211.675000
  0
VERTEX
  8
0
 10
36.400000
 20
211.350000
  0
VERTEX
  8
0
 10
36.075000
 20
211.050000
  0
VERTEX
  8
0
 10
35.775000
 20
210.725000
  0
VERTEX
  8
0
 10
35.475000
 20
210.425000
  0
VERTEX
  8
0
 10
35.175000
 20
210.100000
  0
VERTEX
  8
0
 10
34.875000
 20
209.800000
  0
VERTEX
  8
0
 10
34.575000
 20
209.475000
  0
VERTEX
  8
0
 10
34.800000
 20
209.500000
  0
VERTEX
  8
0
 10
35.025000
 20
209.525000
  0
VERTEX
  8
0
 10
35.225000
 20
209.575000
  0
VERTEX
  8
0
 10
35.425000
 20
209.600000
  0
VERTEX
  8
0
 10
35.650000
 20
209.625000
  0
VERTEX
  8
0
 10
35.825000
 20
209.650000
  0
VERTEX
  8
0
 10
36.025000
 20
209.675000
  0
VERTEX
  8
0
 10
36.225000
 20
209.675000
  0
VERTEX
  8
0
 10
36.400000
 20
209.700000
  0
VERTEX
  8
0
 10
36.575000
 20
209.725000
  0
VERTEX
  8
0
 10
36.750000
 20
209.725000
  0
VERTEX
  8
0
 10
36.925000
 20
209.750000
  0
VERTEX
  8
0
 10
37.075000
 20
209.750000
  0
VERTEX
  8
0
 10
37.225000
 20
209.775000
  0
VERTEX
  8
0
 10
37.400000
 20
209.775000
  0
VERTEX
  8
0
 10
37.550000
 20
209.775000
  0
VERTEX
  8
0
 10
37.675000
 20
209.800000
  0
VERTEX
  8
0
 10
37.825000
 20
209.800000
  0
VERTEX
  8
0
 10
37.950000
 20
209.800000
  0
VERTEX
  8
0
 10
38.075000
 20
209.800000
  0
VERTEX
  8
0
 10
38.200000
 20
209.800000
  0
VERTEX
  8
0
 10
38.325000
 20
209.800000
  0
VERTEX
  8
0
 10
38.425000
 20
209.775000
  0
VERTEX
  8
0
 10
38.550000
 20
209.775000
  0
VERTEX
  8
0
 10
38.650000
 20
209.775000
  0
VERTEX
  8
0
 10
38.750000
 20
209.750000
  0
VERTEX
  8
0
 10
38.825000
 20
209.750000
  0
VERTEX
  8
0
 10
38.925000
 20
209.725000
  0
VERTEX
  8
0
 10
39.000000
 20
209.700000
  0
VERTEX
  8
0
 10
39.075000
 20
209.700000
  0
VERTEX
  8
0
 10
39.150000
 20
209.675000
  0
VERTEX
  8
0
 10
39.225000
 20
209.650000
  0
VERTEX
  8
0
 10
39.350000
 20
209.600000
  0
VERTEX
  8
0
 10
39.475000
 20
209.550000
  0
VERTEX
  8
0
 10
39.575000
 20
209.500000
  0
VERTEX
  8
0
 10
39.700000
 20
209.450000
  0
VERTEX
  8
0
 10
39.800000
 20
209.375000
  0
VERTEX
  8
0
 10
39.900000
 20
209.325000
  0
VERTEX
  8
0
 10
40.000000
 20
209.250000
  0
VERTEX
  8
0
 10
40.100000
 20
209.200000
  0
VERTEX
  8
0
 10
40.175000
 20
209.125000
  0
VERTEX
  8
0
 10
40.275000
 20
209.050000
  0
VERTEX
  8
0
 10
40.350000
 20
208.975000
  0
VERTEX
  8
0
 10
40.425000
 20
208.875000
  0
VERTEX
  8
0
 10
40.500000
 20
208.800000
  0
VERTEX
  8
0
 10
40.575000
 20
208.725000
  0
VERTEX
  8
0
 10
40.650000
 20
208.625000
  0
VERTEX
  8
0
 10
40.700000
 20
208.525000
  0
VERTEX
  8
0
 10
40.775000
 20
208.425000
  0
VERTEX
  8
0
 10
40.825000
 20
208.325000
  0
VERTEX
  8
0
 10
40.875000
 20
208.225000
  0
VERTEX
  8
0
 10
40.925000
 20
208.125000
  0
VERTEX
  8
0
 10
40.975000
 20
208.000000
  0
VERTEX
  8
0
 10
41.000000
 20
207.900000
  0
VERTEX
  8
0
 10
41.050000
 20
207.775000
  0
VERTEX
  8
0
 10
41.075000
 20
207.675000
  0
VERTEX
  8
0
 10
41.100000
 20
207.550000
  0
VERTEX
  8
0
 10
41.125000
 20
207.425000
  0
VERTEX
  8
0
 10
41.150000
 20
207.300000
  0
VERTEX
  8
0
 10
41.175000
 20
207.150000
  0
VERTEX
  8
0
 10
41.175000
 20
207.025000
  0
VERTEX
  8
0
 10
41.200000
 20
206.875000
  0
VERTEX
  8
0
 10
41.200000
 20
206.750000
  0
VERTEX
  8
0
 10
41.200000
 20
206.600000
  0
VERTEX
  8
0
 10
41.200000
 20
200.525000
  0
VERTEX
  8
0
 10
41.200000
 20
200.400000
  0
VERTEX
  8
0
 10
41.200000
 20
200.250000
  0
VERTEX
  8
0
 10
41.225000
 20
200.150000
  0
VERTEX
  8
0
 10
41.225000
 20
200.025000
  0
VERTEX
  8
0
 10
41.250000
 20
199.900000
  0
VERTEX
  8
0
 10
41.275000
 20
199.800000
  0
VERTEX
  8
0
 10
41.300000
 20
199.700000
  0
VERTEX
  8
0
 10
41.325000
 20
199.575000
  0
VERTEX
  8
0
 10
41.375000
 20
199.500000
  0
VERTEX
  8
0
 10
41.400000
 20
199.400000
  0
VERTEX
  8
0
 10
41.450000
 20
199.300000
  0
VERTEX
  8
0
 10
41.500000
 20
199.225000
  0
VERTEX
  8
0
 10
41.550000
 20
199.150000
  0
VERTEX
  8
0
 10
41.625000
 20
199.075000
  0
VERTEX
  8
0
 10
41.675000
 20
199.000000
  0
VERTEX
  8
0
 10
41.750000
 20
198.950000
  0
VERTEX
  8
0
 10
41.800000
 20
198.900000
  0
VERTEX
  8
0
 10
41.875000
 20
198.825000
  0
VERTEX
  8
0
 10
41.950000
 20
198.775000
  0
VERTEX
  8
0
 10
42.050000
 20
198.750000
  0
VERTEX
  8
0
 10
42.125000
 20
198.700000
  0
VERTEX
  8
0
 10
42.225000
 20
198.650000
  0
VERTEX
  8
0
 10
42.325000
 20
198.625000
  0
VERTEX
  8
0
 10
42.425000
 20
198.600000
  0
VERTEX
  8
0
 10
42.525000
 20
198.575000
  0
VERTEX
  8
0
 10
42.625000
 20
198.550000
  0
VERTEX
  8
0
 10
42.725000
 20
198.550000
  0
VERTEX
  8
0
 10
42.850000
 20
198.550000
  0
VERTEX
  8
0
 10
42.975000
 20
198.525000
  0
VERTEX
  8
0
 10
43.100000
 20
198.525000
  0
VERTEX
  8
0
 10
43.225000
 20
198.550000
  0
VERTEX
  8
0
 10
43.350000
 20
198.550000
  0
VERTEX
  8
0
 10
53.750000
 20
198.550000
  0
VERTEX
  8
0
 10
53.025000
 20
194.600000
  0
VERTEX
  8
0
 10
44.075000
 20
194.600000
  0
VERTEX
  8
0
 10
43.675000
 20
194.600000
  0
VERTEX
  8
0
 10
43.300000
 20
194.625000
  0
VERTEX
  8
0
 10
42.925000
 20
194.650000
  0
VERTEX
  8
0
 10
42.575000
 20
194.675000
  0
VERTEX
  8
0
 10
42.225000
 20
194.725000
  0
VERTEX
  8
0
 10
41.875000
 20
194.800000
  0
VERTEX
  8
0
 10
41.550000
 20
194.875000
  0
VERTEX
  8
0
 10
41.250000
 20
194.950000
  0
VERTEX
  8
0
 10
40.950000
 20
195.050000
  0
VERTEX
  8
0
 10
40.675000
 20
195.150000
  0
VERTEX
  8
0
 10
40.400000
 20
195.250000
  0
VERTEX
  8
0
 10
40.150000
 20
195.375000
  0
VERTEX
  8
0
 10
39.900000
 20
195.525000
  0
VERTEX
  8
0
 10
39.675000
 20
195.650000
  0
VERTEX
  8
0
 10
39.450000
 20
195.825000
  0
VERTEX
  8
0
 10
39.250000
 20
195.975000
  0
VERTEX
  8
0
 10
39.050000
 20
196.175000
  0
VERTEX
  8
0
 10
38.850000
 20
196.350000
  0
VERTEX
  8
0
 10
38.700000
 20
196.550000
  0
VERTEX
  8
0
 10
38.525000
 20
196.775000
  0
VERTEX
  8
0
 10
38.375000
 20
197.000000
  0
VERTEX
  8
0
 10
38.250000
 20
197.225000
  0
VERTEX
  8
0
 10
38.125000
 20
197.475000
  0
VERTEX
  8
0
 10
38.025000
 20
197.725000
  0
VERTEX
  8
0
 10
37.925000
 20
197.975000
  0
VERTEX
  8
0
 10
37.850000
 20
198.275000
  0
VERTEX
  8
0
 10
37.775000
 20
198.550000
  0
VERTEX
  8
0
 10
37.725000
 20
198.850000
  0
VERTEX
  8
0
 10
37.675000
 20
199.150000
  0
VERTEX
  8
0
 10
37.650000
 20
199.475000
  0
VERTEX
  8
0
 10
37.625000
 20
199.800000
  0
VERTEX
  8
0
 10
37.625000
 20
200.150000
  0
VERTEX
  8
0
 10
37.625000
 20
204.625000
  0
VERTEX
  8
0
 10
37.625000
 20
204.750000
  0
VERTEX
  8
0
 10
37.625000
 20
204.900000
  0
VERTEX
  8
0
 10
37.600000
 20
205.025000
  0
VERTEX
  8
0
 10
37.575000
 20
205.125000
  0
VERTEX
  8
0
 10
37.550000
 20
205.250000
  0
VERTEX
  8
0
 10
37.525000
 20
205.350000
  0
VERTEX
  8
0
 10
37.500000
 20
205.475000
  0
VERTEX
  8
0
 10
37.450000
 20
205.575000
  0
VERTEX
  8
0
 10
37.400000
 20
205.675000
  0
VERTEX
  8
0
 10
37.350000
 20
205.775000
  0
VERTEX
  8
0
 10
37.300000
 20
205.850000
  0
VERTEX
  8
0
 10
37.250000
 20
205.950000
  0
VERTEX
  8
0
 10
37.175000
 20
206.025000
  0
VERTEX
  8
0
 10
37.100000
 20
206.100000
  0
VERTEX
  8
0
 10
37.025000
 20
206.175000
  0
VERTEX
  8
0
 10
36.950000
 20
206.250000
  0
VERTEX
  8
0
 10
36.875000
 20
206.300000
  0
VERTEX
  8
0
 10
36.775000
 20
206.375000
  0
VERTEX
  8
0
 10
36.675000
 20
206.425000
  0
VERTEX
  8
0
 10
36.575000
 20
206.475000
  0
VERTEX
  8
0
 10
36.450000
 20
206.525000
  0
VERTEX
  8
0
 10
36.350000
 20
206.575000
  0
VERTEX
  8
0
 10
36.225000
 20
206.600000
  0
VERTEX
  8
0
 10
36.100000
 20
206.650000
  0
VERTEX
  8
0
 10
35.975000
 20
206.675000
  0
VERTEX
  8
0
 10
35.850000
 20
206.700000
  0
VERTEX
  8
0
 10
35.700000
 20
206.725000
  0
VERTEX
  8
0
 10
35.550000
 20
206.750000
  0
VERTEX
  8
0
 10
35.400000
 20
206.750000
  0
VERTEX
  8
0
 10
35.250000
 20
206.775000
  0
VERTEX
  8
0
 10
35.100000
 20
206.775000
  0
VERTEX
  8
0
 10
34.925000
 20
206.775000
  0
VERTEX
  8
0
 10
34.775000
 20
206.775000
  0
VERTEX
  8
0
 10
34.625000
 20
206.775000
  0
VERTEX
  8
0
 10
34.500000
 20
206.750000
  0
VERTEX
  8
0
 10
34.350000
 20
206.750000
  0
VERTEX
  8
0
 10
34.200000
 20
206.725000
  0
VERTEX
  8
0
 10
34.050000
 20
206.700000
  0
VERTEX
  8
0
 10
33.900000
 20
206.675000
  0
VERTEX
  8
0
 10
33.775000
 20
206.650000
  0
VERTEX
  8
0
 10
33.625000
 20
206.600000
  0
VERTEX
  8
0
 10
33.475000
 20
206.575000
  0
VERTEX
  8
0
 10
33.325000
 20
206.525000
  0
VERTEX
  8
0
 10
33.175000
 20
206.475000
  0
VERTEX
  8
0
 10
33.025000
 20
206.425000
  0
VERTEX
  8
0
 10
32.900000
 20
206.375000
  0
VERTEX
  8
0
 10
32.750000
 20
206.300000
  0
VERTEX
  8
0
 10
32.600000
 20
206.250000
  0
VERTEX
  8
0
 10
32.450000
 20
206.175000
  0
VERTEX
  8
0
 10
32.300000
 20
206.100000
  0
VERTEX
  8
0
 10
32.175000
 20
206.025000
  0
VERTEX
  8
0
 10
32.025000
 20
205.950000
  0
VERTEX
  8
0
 10
31.875000
 20
205.850000
  0
VERTEX
  8
0
 10
31.725000
 20
205.775000
  0
VERTEX
  8
0
 10
31.575000
 20
205.675000
  0
VERTEX
  8
0
 10
31.450000
 20
205.575000
  0
VERTEX
  8
0
 10
31.300000
 20
205.475000
  0
VERTEX
  8
0
 10
31.150000
 20
205.350000
  0
VERTEX
  8
0
 10
31.000000
 20
205.250000
  0
VERTEX
  8
0
 10
30.850000
 20
205.125000
  0
VERTEX
  8
0
 10
30.700000
 20
205.025000
  0
VERTEX
  8
0
 10
30.575000
 20
204.900000
  0
VERTEX
  8
0
 10
30.425000
 20
204.750000
  0
VERTEX
  8
0
 10
30.275000
 20
204.625000
  0
VERTEX
  8
0
 10
29.975000
 20
204.350000
  0
VERTEX
  8
0
 10
29.700000
 20
204.100000
  0
VERTEX
  8
0
 10
29.400000
 20
203.825000
  0
VERTEX
  8
0
 10
29.125000
 20
203.550000
  0
VERTEX
  8
0
 10
28.825000
 20
203.275000
  0
VERTEX
  8
0
 10
28.550000
 20
203.000000
  0
VERTEX
  8
0
 10
28.275000
 20
202.725000
  0
VERTEX
  8
0
 10
27.975000
 20
202.450000
  0
VERTEX
  8
0
 10
27.700000
 20
202.150000
  0
VERTEX
  8
0
 10
27.425000
 20
201.875000
  0
VERTEX
  8
0
 10
27.150000
 20
201.600000
  0
VERTEX
  8
0
 10
26.850000
 20
201.325000
  0
VERTEX
  8
0
 10
26.575000
 20
201.025000
  0
VERTEX
  8
0
 10
26.300000
 20
200.750000
  0
VERTEX
  8
0
 10
26.025000
 20
200.450000
  0
VERTEX
  8
0
 10
25.750000
 20
200.150000
  0
VERTEX
  8
0
 10
25.475000
 20
199.875000
  0
VERTEX
  8
0
 10
25.200000
 20
199.575000
  0
VERTEX
  8
0
 10
24.950000
 20
199.275000
  0
VERTEX
  8
0
 10
24.675000
 20
199.000000
  0
VERTEX
  8
0
 10
24.400000
 20
198.700000
  0
VERTEX
  8
0
 10
24.125000
 20
198.400000
  0
VERTEX
  8
0
 10
23.850000
 20
198.100000
  0
VERTEX
  8
0
 10
23.600000
 20
197.800000
  0
VERTEX
  8
0
 10
23.325000
 20
197.500000
  0
VERTEX
  8
0
 10
23.075000
 20
197.175000
  0
VERTEX
  8
0
 10
22.800000
 20
196.875000
  0
VERTEX
  8
0
 10
22.550000
 20
196.575000
  0
VERTEX
  8
0
 10
22.275000
 20
196.250000
  0
VERTEX
  8
0
 10
22.025000
 20
195.950000
  0
VERTEX
  8
0
 10
21.750000
 20
195.650000
  0
VERTEX
  8
0
 10
21.500000
 20
195.325000
  0
VERTEX
  8
0
 10
18.275000
 20
197.475000
  0
VERTEX
  8
0
 10
18.825000
 20
198.100000
  0
VERTEX
  8
0
 10
19.350000
 20
198.725000
  0
VERTEX
  8
0
 10
19.900000
 20
199.350000
  0
VERTEX
  8
0
 10
20.475000
 20
199.975000
  0
VERTEX
  8
0
 10
21.025000
 20
200.625000
  0
VERTEX
  8
0
 10
21.600000
 20
201.250000
  0
VERTEX
  8
0
 10
22.175000
 20
201.875000
  0
VERTEX
  8
0
 10
22.750000
 20
202.500000
  0
VERTEX
  8
0
 10
23.350000
 20
203.150000
  0
VERTEX
  8
0
 10
23.950000
 20
203.775000
  0
VERTEX
  8
0
 10
24.550000
 20
204.400000
  0
VERTEX
  8
0
 10
25.150000
 20
205.050000
  0
VERTEX
  8
0
 10
25.750000
 20
205.675000
  0
VERTEX
  8
0
 10
26.375000
 20
206.325000
  0
VERTEX
  8
0
 10
27.000000
 20
206.950000
  0
VERTEX
  8
0
 10
27.625000
 20
207.600000
  0
VERTEX
  8
0
 10
28.275000
 20
208.225000
  0
VERTEX
  8
0
 10
28.900000
 20
208.875000
  0
VERTEX
  8
0
 10
29.550000
 20
209.525000
  0
VERTEX
  8
0
 10
30.200000
 20
210.150000
  0
VERTEX
  8
0
 10
30.875000
 20
210.800000
  0
VERTEX
  8
0
 10
31.525000
 20
211.450000
  0
VERTEX
  8
0
 10
32.200000
 20
212.075000
  0
VERTEX
  8
0
 10
32.875000
 20
212.725000
  0
VERTEX
  8
0
 10
33.575000
 20
213.375000
  0
VERTEX
  8
0
 10
34.250000
 20
214.025000
  0
VERTEX
  8
0
 10
34.950000
 20
214.650000
  0
VERTEX
  8
0
 10
35.650000
 20
215.300000
  0
VERTEX
  8
0
 10
36.375000
 20
215.950000
  0
VERTEX
  8
0
 10
37.075000
 20
216.600000
  0
VERTEX
  8
0
 10
37.800000
 20
217.250000
  0
VERTEX
  8
0
 10
38.525000
 20
217.900000
  0
VERTEX
  8
0
 10
22.400000
 20
215.925000
  0
VERTEX
  8
0
 10
21.150000
 20
219.850000
  0
SEQEND
  8
0
  0
POLYLINE
  8
0
 66
     1
 70
     1
 40
0.200000
 41
0.200000
  0
VERTEX
  8
0
 10
42.625000
 20
226.475000
  0
VERTEX
  8
0
 10
42.500000
 20
226.475000
  0
VERTEX
  8
0
 10
42.375000
 20
226.475000
  0
VERTEX
  8
0
 10
42.250000
 20
226.475000
  0
VERTEX
  8
0
 10
42.125000
 20
226.475000
  0
VERTEX
  8
0
 10
42.000000
 20
226.500000
  0
VERTEX
  8
0
 10
41.875000
 20
226.500000
  0
VERTEX
  8
0
 10
41.750000
 20
226.500000
  0
VERTEX
  8
0
 10
41.625000
 20
226.500000
  0
VERTEX
  8
0
 10
41.500000
 20
226.500000
  0
VERTEX
  8
0
 10
41.350000
 20
226.500000
  0
VERTEX
  8
0
 10
41.225000
 20
226.525000
  0
VERTEX
  8
0
 10
41.100000
 20
226.525000
  0
VERTEX
  8
0
 10
40.975000
 20
226.525000
  0
VERTEX
  8
0
 10
40.850000
 20
226.525000
  0
VERTEX
  8
0
 10
40.725000
 20
226.525000
  0
VERTEX
  8
0
 10
40.600000
 20
226.525000
  0
VERTEX
  8
0
 10
40.475000
 20
226.550000
  0
VERTEX
  8
0
 10
40.350000
 20
226.550000
  0
VERTEX
  8
0
 10
40.225000
 20
226.550000
  0
VERTEX
  8
0
 10
40.100000
 20
226.550000
  0
VERTEX
  8
0
 10
39.975000
 20
226.550000
  0
VERTEX
  8
0
 10
39.850000
 20
226.550000
  0
VERTEX
  8
0
 10
39.700000
 20
226.575000
  0
VERTEX
  8
0
 10
39.575000
 20
226.575000
  0
VERTEX
  8
0
 10
39.450000
 20
226.575000
  0
VERTEX
  8
0
 10
39.325000
 20
226.575000
  0
VERTEX
  8
0
 10
39.200000
 20
226.575000
  0
VERTEX
  8
0
 10
39.075000
 20
226.600000
  0
VERTEX
  8
0
 10
38.950000
 20
226.600000
  0
VERTEX
  8
0
 10
38.825000
 20
226.600000
  0
VERTEX
  8
0
 10
38.700000
 20
226.600000
  0
VERTEX
  8
0
 10
38.550000
 20
226.625000
  0
VERTEX
  8
0
 10
38.425000
 20
226.625000
  0
VERTEX
  8
0
 10
38.300000
 20
226.625000
  0
VERTEX
  8
0
 10
38.175000
 20
226.625000
  0
VERTEX
  8
0
 10
38.050000
 20
226.650000
  0
VERTEX
  8
0
 10
37.925000
 20
226.650000
  0
VERTEX
  8
0
 10
37.800000
 20
226.650000
  0
VERTEX
  8
0
 10
37.675000
 20
226.650000
  0
VERTEX
  8
0
 10
37.525000
 20
226.675000
  0
VERTEX
  8
0
 10
37.400000
 20
226.675000
  0
VERTEX
  8
0
 10
37.275000
 20
226.675000
  0
VERTEX
  8
0
 10
37.150000
 20
226.675000
  0
VERTEX
  8
0
 10
37.025000
 20
226.700000
  0
VERTEX
  8
0
 10
36.900000
 20
226.700000
  0
VERTEX
  8
0
 10
36.750000
 20
226.700000
  0
VERTEX
  8
0
 10
36.625000
 20
226.700000
  0
VERTEX
  8
0
 10
36.500000
 20
226.725000
  0
VERTEX
  8
0
 10
36.375000
 20
226.725000
  0
VERTEX
  8
0
 10
36.250000
 20
226.725000
  0
VERTEX
  8
0
 10
36.125000
 20
226.750000
  0
VERTEX
  8
0
 10
36.000000
 20
226.750000
  0
VERTEX
  8
0
 10
35.850000
 20
226.750000
  0
VERTEX
  8
0
 10
35.725000
 20
226.775000
  0
VERTEX
  8
0
 10
35.600000
 20
226.775000
  0
VERTEX
  8
0
 10
35.475000
 20
226.775000
  0
VERTEX
  8
0
 10
35.350000
 20
226.775000
  0
VERTEX
  8
0
 10
35.200000
 20
226.800000
  0
VERTEX
  8
0
 10
35.075000
 20
226.800000
  0
VERTEX
  8
0
 10
34.950000
 20
226.800000
  0
VERTEX
  8
0
 10
34.825000
 20
226.825000
  0
VERTEX
  8
0
 10
34.700000
 20
226.825000
  0
VERTEX
  8
0
 10
34.550000
 20
226.825000
  0
VERTEX
  8
0
 10
34.425000
 20
226.850000
  0
VERTEX
  8
0
 10
34.300000
 20
226.850000
  0
VERTEX
  8
0
 10
34.175000
 20
226.850000
  0
VERTEX
  8
0
 10
34.050000
 20
226.875000
  0
VERTEX
  8
0
 10
33.900000
 20
226.875000
  0
VERTEX
  8
0
 10
33.775000
 20
226.875000
  0
VERTEX
  8
0
 10
33.650000
 20
226.900000
  0
VERTEX
  8
0
 10
33.525000
 20
226.900000
  0
VERTEX
  8
0
 10
33.400000
 20
226.925000
  0
VERTEX
  8
0
 10
33.250000
 20
226.925000
  0
VERTEX
  8
0
 10
33.125000
 20
226.925000
  0
VERTEX
  8
0
 10
33.000000
 20
226.950000
  0
VERTEX
  8
0
 10
32.875000
 20
226.950000
  0
VERTEX
  8
0
 10
32.725000
 20
226.950000
  0
VERTEX
  8
0
 10
32.600000
 20
226.975000
  0
VERTEX
  8
0
 10
32.475000
 20
226.975000
  0
VERTEX
  8
0
 10
32.350000
 20
227.000000
  0
VERTEX
  8
0
 10
32.200000
 20
227.000000
  0
VERTEX
  8
0
 10
32.075000
 20
227.000000
  0
VERTEX
  8
0
 10
31.950000
 20
227.025000
  0
VERTEX
  8
0
 10
31.825000
 20
227.025000
  0
VERTEX
  8
0
 10
31.675000
 20
227.050000
  0
VERTEX
  8
0
 10
31.550000
 20
227.050000
  0
VERTEX
  8
0
 10
31.425000
 20
227.050000
  0
VERTEX
  8
0
 10
31.300000
 20
227.075000
  0
VERTEX
  8
0
 10
31.150000
 20
227.075000
  0
VERTEX
  8
0
 10
31.025000
 20
227.100000
  0
VERTEX
  8
0
 10
30.900000
 20
227.100000
  0
VERTEX
  8
0
 10
30.775000
 20
227.125000
  0
VERTEX
  8
0
 10
30.625000
 20
227.125000
  0
VERTEX
  8
0
 10
30.500000
 20
227.125000
  0
VERTEX
  8
0
 10
30.375000
 20
227.150000
  0
VERTEX
  8
0
 10
30.225000
 20
227.150000
  0
VERTEX
  8
0
 10
30.100000
 20
227.175000
  0
VERTEX
  8
0
 10
29.975000
 20
227.175000
  0
VERTEX
  8
0
 10
29.850000
 20
227.200000
  0
VERTEX
  8
0
 10
29.700000
 20
227.200000
  0
VERTEX
  8
0
 10
29.575000
 20
227.225000
  0
VERTEX
  8
0
 10
29.450000
 20
227.225000
  0
VERTEX
  8
0
 10
29.300000
 20
227.225000
  0
VERTEX
  8
0
 10
29.175000
 20
227.250000
  0
VERTEX
  8
0
 10
29.050000
 20
227.250000
  0
VERTEX
  8
0
 10
28.900000
 20
227.275000
  0
VERTEX
  8
0
 10
28.775000
 20
227.275000
  0
VERTEX
  8
0
 10
28.650000
 20
227.300000
  0
VERTEX
  8
0
 10
28.525000
 20
227.300000
  0
VERTEX
  8
0
 10
28.375000
 20
227.325000
  0
VERTEX
  8
0
 10
28.250000
 20
227.325000
  0
VERTEX
  8
0
 10
28.125000
 20
227.350000
  0
VERTEX
  8
0
 10
27.975000
 20
227.350000
  0
VERTEX
  8
0
 10
27.850000
 20
227.375000
  0
VERTEX
  8
0
 10
27.725000
 20
227.375000
  0
VERTEX
  8
0
 10
27.575000
 20
227.400000
  0
VERTEX
  8
0
 10
27.450000
 20
227.400000
  0
VERTEX
  8
0
 10
27.325000
 20
227.425000
  0
VERTEX
  8
0
 10
27.175000
 20
227.425000
  0
VERTEX
  8
0
 10
27.050000
 20
227.450000
  0
VERTEX
  8
0
 10
26.925000
 20
227.450000
  0
VERTEX
  8
0
 10
26.775000
 20
227.475000
  0
VERTEX
  8
0
 10
26.650000
 20
227.475000
  0
VERTEX
  8
0
 10
26.500000
 20
227.500000
  0
VERTEX
  8
0
 10
26.375000
 20
227.500000
  0
VERTEX
  8
0
 10
26.250000
 20
227.525000
  0
VERTEX
  8
0
 10
26.100000
 20
227.525000
  0
VERTEX
  8
0
 10
25.975000
 20
227.550000
  0
VERTEX
  8
0
 10
26.525000
 20
231.675000
  0
VERTEX
  8
0
 10
26.625000
 20
231.650000
  0
VERTEX
  8
0
 10
26.750000
 20
231.625000
  0
VERTEX
  8
0
 10
26.850000
 20
231.600000
  0
VERTEX
  8
0
 10
26.950000
 20
231.575000
  0
VERTEX
  8
0
 10
27.050000
 20
231.575000
  0
VERTEX
  8
0
 10
27.175000
 20
231.550000
  0
VERTEX
  8
0
 10
27.275000
 20
231.525000
  0
VERTEX
  8
0
 10
27.375000
 20
231.500000
  0
VERTEX
  8
0
 10
27.500000
 20
231.475000
  0
VERTEX
  8
0
 10
27.600000
 20
231.450000
  0
VERTEX
  8
0
 10
27.725000
 20
231.450000
  0
VERTEX
  8
0
 10
27.825000
 20
231.425000
  0
VERTEX
  8
0
 10
27.925000
 20
231.400000
  0
VERTEX
  8
0
 10
28.050000
 20
231.375000
  0
VERTEX
  8
0
 10
28.150000
 20
231.350000
  0
VERTEX
  8
0
 10
28.275000
 20
231.350000
  0
VERTEX
  8
0
 10
28.375000
 20
231.325000
  0
VERTEX
  8
0
 10
28.500000
 20
231.300000
  0
VERTEX
  8
0
 10
28.600000
 20
231.275000
  0
VERTEX
  8
0
 10
28.725000
 20
231.275000
  0
VERTEX
  8
0
 10
28.825000
 20
231.250000
  0
VERTEX
  8
0
 10
28.950000
 20
231.225000
  0
VERTEX
  8
0
 10
29.075000
 20
231.200000
  0
VERTEX
  8
0
 10
29.175000
 20
231.200000
  0
VERTEX
  8
0
 10
29.300000
 20
231.175000
  0
VERTEX
  8
0
 10
29.400000
 20
231.150000
  0
VERTEX
  8
0
 10
29.525000
 20
231.125000
  0
VERTEX
  8
0
 10
29.650000
 20
231.125000
  0
VERTEX
  8
0
 10
29.750000
 20
231.100000
  0
VERTEX
  8
0
 10
29.875000
 20
231.075000
  0
VERTEX
  8
0
 10
30.000000
 20
231.075000
  0
VERTEX
  8
0
 10
30.100000
 20
231.050000
  0
VERTEX
  8
0
 10
30.225000
 20
231.025000
  0
VERTEX
  8
0
 10
30.350000
 20
231.025000
  0
VERTEX
  8
0
 10
30.475000
 20
231.000000
  0
VERTEX
  8
0
 10
30.575000
 20
230.975000
  0
VERTEX
  8
0
 10
30.700000
 20
230.975000
  0
VERTEX
  8
0
 10
30.825000
 20
230.950000
  0
VERTEX
  8
0
 10
30.950000
 20
230.950000
  0
VERTEX
  8
0
 10
31.075000
 20
230.925000
  0
VERTEX
  8
0
 10
31.200000
 20
230.900000
  0
VERTEX
  8
0
 10
31.300000
 20
230.900000
  0
VERTEX
  8
0
 10
31.425000
 20
230.875000
  0
VERTEX
  8
0
 10
31.550000
 20
230.875000
  0
VERTEX
  8
0
 10
31.675000
 20
230.850000
  0
VERTEX
  8
0
 10
31.800000
 20
230.825000
  0
VERTEX
  8
0
 10
31.925000
 20
230.825000
  0
VERTEX
  8
0
 10
32.050000
 20
230.800000
  0
VERTEX
  8
0
 10
32.175000
 20
230.800000
  0
VERTEX
  8
0
 10
32.300000
 20
230.775000
  0
VERTEX
  8
0
 10
32.425000
 20
230.775000
  0
VERTEX
  8
0
 10
32.550000
 20
230.750000
  0
VERTEX
  8
0
 10
32.675000
 20
230.750000
  0
VERTEX
  8
0
 10
32.800000
 20
230.725000
  0
VERTEX
  8
0
 10
32.925000
 20
230.725000
  0
VERTEX
  8
0
 10
33.050000
 20
230.700000
  0
VERTEX
  8
0
 10
33.175000
 20
230.700000
  0
VERTEX
  8
0
 10
33.300000
 20
230.675000
  0
VERTEX
  8
0
 10
33.425000
 20
230.675000
  0
VERTEX
  8
0
 10
33.575000
 20
230.650000
  0
VERTEX
  8
0
 10
33.700000
 20
230.650000
  0
VERTEX
  8
0
 10
33.825000
 20
230.625000
  0
VERTEX
  8
0
 10
33.950000
 20
230.625000
  0
VERTEX
  8
0
 10
34.075000
 20
230.600000
  0
VERTEX
  8
0
 10
34.200000
 20
230.600000
  0
VERTEX
  8
0
 10
34.350000
 20
230.575000
  0
VERTEX
  8
0
 10
34.475000
 20
230.575000
  0
VERTEX
  8
0
 10
34.600000
 20
230.575000
  0
VERTEX
  8
0
 10
34.725000
 20
230.550000
  0
VERTEX
  8
0
 10
34.875000
 20
230.550000
  0
VERTEX
  8
0
 10
35.000000
 20
230.525000
  0
VERTEX
  8
0
 10
35.125000
 20
230.525000
  0
VERTEX
  8
0
 10
35.275000
 20
230.525000
  0
VERTEX
  8
0
 10
35.400000
 20
230.500000
  0
VERTEX
  8
0
 10
35.525000
 20
230.500000
  0
VERTEX
  8
0
 10
35.675000
 20
230.475000
  0
VERTEX
  8
0
 10
35.800000
 20
230.475000
  0
VERTEX
  8
0
 10
35.950000
 20
230.475000
  0
VERTEX
  8
0
 10
36.075000
 20
230.450000
  0
VERTEX
  8
0
 10
36.200000
 20
230.450000
  0
VERTEX
  8
0
 10
36.350000
 20
230.450000
  0
VERTEX
  8
0
 10
36.475000
 20
230.425000
  0
VERTEX
  8
0
 10
36.625000
 20
230.425000
  0
VERTEX
  8
0
 10
36.750000
 20
230.425000
  0
VERTEX
  8
0
 10
36.900000
 20
230.400000
  0
VERTEX
  8
0
 10
37.025000
 20
230.400000
  0
VERTEX
  8
0
 10
37.175000
 20
230.400000
  0
VERTEX
  8
0
 10
37.300000
 20
230.400000
  0
VERTEX
  8
0
 10
37.450000
 20
230.375000
  0
VERTEX
  8
0
 10
37.600000
 20
230.375000
  0
VERTEX
  8
0
 10
37.725000
 20
230.375000
  0
VERTEX
  8
0
 10
37.875000
 20
230.375000
  0
VERTEX
  8
0
 10
38.000000
 20
230.350000
  0
VERTEX
  8
0
 10
38.150000
 20
230.350000
  0
VERTEX
  8
0
 10
38.300000
 20
230.350000
  0
VERTEX
  8
0
 10
38.425000
 20
230.350000
  0
VERTEX
  8
0
 10
38.575000
 20
230.325000
  0
VERTEX
  8
0
 10
38.725000
 20
230.325000
  0
VERTEX
  8
0
 10
38.875000
 20
230.325000
  0
VERTEX
  8
0
 10
39.000000
 20
230.325000
  0
VERTEX
  8
0
 10
39.150000
 20
230.325000
  0
VERTEX
  8
0
 10
39.300000
 20
230.300000
  0
VERTEX
  8
0
 10
39.450000
 20
230.300000
  0
VERTEX
  8
0
 10
39.575000
 20
230.300000
  0
VERTEX
  8
0
 10
39.725000
 20
230.300000
  0
VERTEX
  8
0
 10
39.875000
 20
230.300000
  0
VERTEX
  8
0
 10
40.025000
 20
230.300000
  0
VERTEX
  8
0
 10
40.175000
 20
230.275000
  0
VERTEX
  8
0
 10
40.325000
 20
230.275000
  0
VERTEX
  8
0
 10
40.450000
 20
230.275000
  0
VERTEX
  8
0
 10
40.600000
 20
230.275000
  0
VERTEX
  8
0
 10
40.750000
 20
230.275000
  0
VERTEX
  8
0
 10
40.900000
 20
230.275000
  0
VERTEX
  8
0
 10
41.050000
 20
230.275000
  0
VERTEX
  8
0
 10
41.200000
 20
230.275000
  0
VERTEX
  8
0
 10
41.350000
 20
230.275000
  0
VERTEX
  8
0
 10
41.500000
 20
230.250000
  0
VERTEX
  8
0
 10
41.650000
 20
230.250000
  0
VERTEX
  8
0
 10
41.800000
 20
230.250000
  0
VERTEX
  8
0
 10
41.950000
 20
230.250000
  0
VERTEX
  8
0
 10
42.100000
 20
230.250000
  0
VERTEX
  8
0
 10
42.250000
 20
230.250000
  0
VERTEX
  8
0
 10
42.400000
 20
230.250000
  0
VERTEX
  8
0
 10
42.550000
 20
230.250000
  0
VERTEX
  8
0
 10
42.725000
 20
230.250000
  0
VERTEX
  8
0
 10
42.875000
 20
230.250000
  0
VERTEX
  8
0
 10
43.025000
 20
230.250000
  0
VERTEX
  8
0
 10
43.175000
 20
230.250000
  0
VERTEX
  8
0
 10
42.625000
 20
226.475000
  0
SEQEND
  8
0
  0
ENDSEC
  0
EOF
