  0
SECTION
  2
HEADER
  9
$ACADVER
  1
AC1009
  9
$INSBASE
 10
0.000000
 20
0.000000
 30
0.000000
  9
$EXTMIN
 10
0.000000
 20
0.000000
  9
$EXTMAX
 10
190.000000
 20
257.000000
  9
$LIMMIN
 10
0.000000
 20
0.000000
  9
$LIMMAX
 10
190.000000
 20
257.000000
  9
$TEXTSIZE
 40
0.200000
  9
$TEXTSTYLE
  7
BIGFONT
  9
$CLAYER
  8
0
  9
$ANGBASE
 50
0.000000
  9
$ANGDIR
 70
     0
  0
ENDSEC
  0
SECTION
  2
TABLES
  0
TABLE
  2
LTYPE
 70
    11
  0
LTYPE
  2
BYBLOCK
 70
    64
  3
BYBLOCK
 72
    65
 73
     0
 40
0.000000
  0
LTYPE
  2
BYLAYER
 70
    64
  3
BYLAYER
 72
    65
 73
     0
 40
0.000000
  0
LTYPE
  2
CONTINUOUS
 70
    64
  3
é¿ê¸
 72
    65
 73
     0
 40
0.000000
  0
LTYPE
  2
DASHED
 70
    64
  3
__ __ __ __ __ __ __ __ __ __ __ __ __ __ __
 72
    65
 73
     2
 40
0.750000
 49
0.500000
 49
-0.250000
  0
LTYPE
  2
HIDDEN
 70
    64
  3
_ _ _ _ _ _ _ _ _ _ _ _ _ _ _ _ _ _ _ _ _ _ _
 72
    65
 73
     2
 40
0.375000
 49
0.250000
 49
-0.125000
  0
LTYPE
  2
CENTER
 70
    64
  3
____ _ ____ _ ____ _ ____ _ ____ _ ____ _ ____
 72
    65
 73
     4
 40
2.000000
 49
1.250000
 49
-0.250000
 49
0.250000
 49
-0.250000
  0
LTYPE
  2
PHANTOM
 70
    64
  3
_____ _ _ _____ _ _ _____ _ _ _____ _ _ ____
 72
    65
 73
     6
 40
2.500000
 49
1.250000
 49
-0.250000
 49
0.250000
 49
-0.250000
 49
0.250000
 49
-0.250000
  0
LTYPE
  2
DOT
 70
    64
  3
...............................................
 72
    65
 73
     2
 40
0.250000
 49
0.000000
 49
-0.250000
  0
LTYPE
  2
DASHDOT
 70
    64
  3
__ . __ . __ . __ . __ . __ . __ . __ . __ . __
 72
    65
 73
     4
 40
1.000000
 49
0.500000
 49
-0.250000
 49
0.000000
 49
-0.250000
  0
LTYPE
  2
BORDER
 70
    64
  3
__ __ . __ __ . __ __ . __ __ . __ __ . __ __
 72
    65
 73
     6
 40
1.750000
 49
0.500000
 49
-0.250000
 49
0.500000
 49
-0.250000
 49
0.000000
 49
-0.250000
  0
LTYPE
  2
DIVIDE
 70
    64
  3
__ . . __ . . __ . . __ . . __ . . __ . . __
 72
    65
 73
     6
 40
1.250000
 49
0.500000
 49
-0.250000
 49
0.000000
 49
-0.250000
 49
0.000000
 49
-0.250000
  0
ENDTAB
  0
TABLE
  2
LAYER
  5
a2
 70
     2
  0
LAYER
  5
a5
  2
0
 70
     0
 62
     7
  6
CONTINUOUS
  0
LAYER
  5
a8
  2
B
 70
     0
 62
     7
  6
CONTINUOUS
  0
LAYER
  5
ab
  2
C
 70
     0
 62
     7
  6
CONTINUOUS
  0
LAYER
  5
ae
  2
D
 70
     0
 62
     7
  6
CONTINUOUS
  0
LAYER
  5
b1
  2
E
 70
     0
 62
     7
  6
CONTINUOUS
  0
LAYER
  5
b4
  2
F
 70
     0
 62
     7
  6
CONTINUOUS
  0
LAYER
  5
b7
  2
G
 70
     0
 62
     7
  6
CONTINUOUS
  0
LAYER
  5
ba
  2
H
 70
     0
 62
     7
  6
CONTINUOUS
  0
LAYER
  5
bd
  2
I
 70
     0
 62
     7
  6
CONTINUOUS
  0
LAYER
  5
c0
  2
J
 70
     0
 62
     7
  6
CONTINUOUS
  0
LAYER
  5
c3
  2
K
 70
     0
 62
     7
  6
CONTINUOUS
  0
LAYER
  5
c6
  2
L
 70
     0
 62
     7
  6
CONTINUOUS
  0
LAYER
  5
c9
  2
M
 70
     0
 62
     7
  6
CONTINUOUS
  0
LAYER
  5
cc
  2
N
 70
     0
 62
     7
  6
CONTINUOUS
  0
ENDTAB
  0
TABLE
  2
STYLE
 70
     2
  0
STYLE
  2
STANDARD
 70
     0
 40
0.000000
 41
0.500000
 50
0.000000
 71
     0
 42
0.300000
  3
txt
  4

  0
STYLE
  2
BIGFONT
 70
    64
 40
0.000000
 41
1.000000
 50
0.000000
 71
     0
 42
0.200000
  3

  4
bigfont
  0
ENDTAB
  0
ENDSEC
  0
SECTION
  2
BLOCKS
  0
ENDSEC
  0
SECTION
  2
ENTITIES
  0
POLYLINE
  8
0
 66
     1
 70
     1
 40
0.200000
 41
0.200000
  0
VERTEX
  8
0
 10
36.975000
 20
224.725000
  0
VERTEX
  8
0
 10
37.600000
 20
224.900000
  0
VERTEX
  8
0
 10
38.200000
 20
225.050000
  0
VERTEX
  8
0
 10
38.800000
 20
225.175000
  0
VERTEX
  8
0
 10
39.375000
 20
225.325000
  0
VERTEX
  8
0
 10
39.950000
 20
225.425000
  0
VERTEX
  8
0
 10
40.500000
 20
225.550000
  0
VERTEX
  8
0
 10
41.050000
 20
225.650000
  0
VERTEX
  8
0
 10
41.575000
 20
225.725000
  0
VERTEX
  8
0
 10
42.075000
 20
225.825000
  0
VERTEX
  8
0
 10
42.575000
 20
225.875000
  0
VERTEX
  8
0
 10
43.050000
 20
225.950000
  0
VERTEX
  8
0
 10
43.525000
 20
226.000000
  0
VERTEX
  8
0
 10
44.000000
 20
226.025000
  0
VERTEX
  8
0
 10
44.425000
 20
226.050000
  0
VERTEX
  8
0
 10
44.850000
 20
226.075000
  0
VERTEX
  8
0
 10
45.275000
 20
226.075000
  0
VERTEX
  8
0
 10
46.275000
 20
226.050000
  0
VERTEX
  8
0
 10
47.225000
 20
226.000000
  0
VERTEX
  8
0
 10
48.175000
 20
225.925000
  0
VERTEX
  8
0
 10
49.075000
 20
225.825000
  0
VERTEX
  8
0
 10
49.950000
 20
225.675000
  0
VERTEX
  8
0
 10
50.775000
 20
225.500000
  0
VERTEX
  8
0
 10
51.575000
 20
225.300000
  0
VERTEX
  8
0
 10
52.375000
 20
225.050000
  0
VERTEX
  8
0
 10
53.100000
 20
224.800000
  0
VERTEX
  8
0
 10
53.825000
 20
224.500000
  0
VERTEX
  8
0
 10
54.500000
 20
224.150000
  0
VERTEX
  8
0
 10
55.150000
 20
223.800000
  0
VERTEX
  8
0
 10
55.775000
 20
223.400000
  0
VERTEX
  8
0
 10
56.350000
 20
222.975000
  0
VERTEX
  8
0
 10
56.900000
 20
222.525000
  0
VERTEX
  8
0
 10
57.425000
 20
222.025000
  0
VERTEX
  8
0
 10
57.825000
 20
221.600000
  0
VERTEX
  8
0
 10
58.200000
 20
221.175000
  0
VERTEX
  8
0
 10
58.550000
 20
220.725000
  0
VERTEX
  8
0
 10
58.875000
 20
220.275000
  0
VERTEX
  8
0
 10
59.150000
 20
219.825000
  0
VERTEX
  8
0
 10
59.425000
 20
219.350000
  0
VERTEX
  8
0
 10
59.675000
 20
218.850000
  0
VERTEX
  8
0
 10
59.900000
 20
218.350000
  0
VERTEX
  8
0
 10
60.075000
 20
217.850000
  0
VERTEX
  8
0
 10
60.250000
 20
217.325000
  0
VERTEX
  8
0
 10
60.375000
 20
216.775000
  0
VERTEX
  8
0
 10
60.500000
 20
216.225000
  0
VERTEX
  8
0
 10
60.575000
 20
215.675000
  0
VERTEX
  8
0
 10
60.650000
 20
215.100000
  0
VERTEX
  8
0
 10
60.675000
 20
214.525000
  0
VERTEX
  8
0
 10
60.700000
 20
213.925000
  0
VERTEX
  8
0
 10
60.700000
 20
213.375000
  0
VERTEX
  8
0
 10
60.675000
 20
212.850000
  0
VERTEX
  8
0
 10
60.625000
 20
212.325000
  0
VERTEX
  8
0
 10
60.550000
 20
211.825000
  0
VERTEX
  8
0
 10
60.475000
 20
211.350000
  0
VERTEX
  8
0
 10
60.375000
 20
210.875000
  0
VERTEX
  8
0
 10
60.250000
 20
210.425000
  0
VERTEX
  8
0
 10
60.125000
 20
210.000000
  0
VERTEX
  8
0
 10
59.975000
 20
209.600000
  0
VERTEX
  8
0
 10
59.800000
 20
209.200000
  0
VERTEX
  8
0
 10
59.600000
 20
208.825000
  0
VERTEX
  8
0
 10
59.400000
 20
208.450000
  0
VERTEX
  8
0
 10
59.175000
 20
208.100000
  0
VERTEX
  8
0
 10
58.925000
 20
207.775000
  0
VERTEX
  8
0
 10
58.675000
 20
207.475000
  0
VERTEX
  8
0
 10
58.400000
 20
207.175000
  0
VERTEX
  8
0
 10
58.025000
 20
206.825000
  0
VERTEX
  8
0
 10
57.650000
 20
206.500000
  0
VERTEX
  8
0
 10
57.275000
 20
206.175000
  0
VERTEX
  8
0
 10
56.875000
 20
205.900000
  0
VERTEX
  8
0
 10
56.450000
 20
205.650000
  0
VERTEX
  8
0
 10
56.025000
 20
205.400000
  0
VERTEX
  8
0
 10
55.600000
 20
205.175000
  0
VERTEX
  8
0
 10
55.175000
 20
205.000000
  0
VERTEX
  8
0
 10
54.700000
 20
204.825000
  0
VERTEX
  8
0
 10
54.250000
 20
204.675000
  0
VERTEX
  8
0
 10
53.775000
 20
204.550000
  0
VERTEX
  8
0
 10
53.300000
 20
204.450000
  0
VERTEX
  8
0
 10
52.800000
 20
204.375000
  0
VERTEX
  8
0
 10
52.300000
 20
204.325000
  0
VERTEX
  8
0
 10
51.775000
 20
204.275000
  0
VERTEX
  8
0
 10
51.250000
 20
204.275000
  0
VERTEX
  8
0
 10
50.725000
 20
204.275000
  0
VERTEX
  8
0
 10
50.225000
 20
204.300000
  0
VERTEX
  8
0
 10
49.725000
 20
204.350000
  0
VERTEX
  8
0
 10
49.275000
 20
204.400000
  0
VERTEX
  8
0
 10
48.800000
 20
204.475000
  0
VERTEX
  8
0
 10
48.375000
 20
204.575000
  0
VERTEX
  8
0
 10
47.950000
 20
204.675000
  0
VERTEX
  8
0
 10
47.550000
 20
204.800000
  0
VERTEX
  8
0
 10
47.150000
 20
204.950000
  0
VERTEX
  8
0
 10
46.775000
 20
205.100000
  0
VERTEX
  8
0
 10
46.425000
 20
205.275000
  0
VERTEX
  8
0
 10
46.075000
 20
205.475000
  0
VERTEX
  8
0
 10
45.775000
 20
205.675000
  0
VERTEX
  8
0
 10
45.450000
 20
205.900000
  0
VERTEX
  8
0
 10
45.175000
 20
206.150000
  0
VERTEX
  8
0
 10
44.900000
 20
206.400000
  0
VERTEX
  8
0
 10
44.650000
 20
206.650000
  0
VERTEX
  8
0
 10
44.425000
 20
206.875000
  0
VERTEX
  8
0
 10
44.200000
 20
207.125000
  0
VERTEX
  8
0
 10
43.975000
 20
207.375000
  0
VERTEX
  8
0
 10
43.750000
 20
207.625000
  0
VERTEX
  8
0
 10
43.550000
 20
207.875000
  0
VERTEX
  8
0
 10
43.350000
 20
208.125000
  0
VERTEX
  8
0
 10
43.150000
 20
208.375000
  0
VERTEX
  8
0
 10
42.975000
 20
208.625000
  0
VERTEX
  8
0
 10
42.775000
 20
208.875000
  0
VERTEX
  8
0
 10
42.600000
 20
209.125000
  0
VERTEX
  8
0
 10
42.425000
 20
209.400000
  0
VERTEX
  8
0
 10
42.250000
 20
209.650000
  0
VERTEX
  8
0
 10
42.100000
 20
209.925000
  0
VERTEX
  8
0
 10
41.950000
 20
210.175000
  0
VERTEX
  8
0
 10
41.800000
 20
210.450000
  0
VERTEX
  8
0
 10
45.275000
 20
212.750000
  0
VERTEX
  8
0
 10
45.375000
 20
212.525000
  0
VERTEX
  8
0
 10
45.475000
 20
212.325000
  0
VERTEX
  8
0
 10
45.600000
 20
212.100000
  0
VERTEX
  8
0
 10
45.725000
 20
211.900000
  0
VERTEX
  8
0
 10
45.850000
 20
211.675000
  0
VERTEX
  8
0
 10
45.975000
 20
211.475000
  0
VERTEX
  8
0
 10
46.100000
 20
211.275000
  0
VERTEX
  8
0
 10
46.250000
 20
211.075000
  0
VERTEX
  8
0
 10
46.400000
 20
210.850000
  0
VERTEX
  8
0
 10
46.550000
 20
210.650000
  0
VERTEX
  8
0
 10
46.700000
 20
210.450000
  0
VERTEX
  8
0
 10
46.875000
 20
210.250000
  0
VERTEX
  8
0
 10
47.050000
 20
210.050000
  0
VERTEX
  8
0
 10
47.225000
 20
209.875000
  0
VERTEX
  8
0
 10
47.400000
 20
209.675000
  0
VERTEX
  8
0
 10
47.600000
 20
209.475000
  0
VERTEX
  8
0
 10
47.775000
 20
209.300000
  0
VERTEX
  8
0
 10
47.950000
 20
209.150000
  0
VERTEX
  8
0
 10
48.150000
 20
209.025000
  0
VERTEX
  8
0
 10
48.325000
 20
208.875000
  0
VERTEX
  8
0
 10
48.550000
 20
208.775000
  0
VERTEX
  8
0
 10
48.750000
 20
208.650000
  0
VERTEX
  8
0
 10
48.975000
 20
208.550000
  0
VERTEX
  8
0
 10
49.200000
 20
208.450000
  0
VERTEX
  8
0
 10
49.425000
 20
208.375000
  0
VERTEX
  8
0
 10
49.650000
 20
208.325000
  0
VERTEX
  8
0
 10
49.900000
 20
208.250000
  0
VERTEX
  8
0
 10
50.175000
 20
208.200000
  0
VERTEX
  8
0
 10
50.425000
 20
208.175000
  0
VERTEX
  8
0
 10
50.700000
 20
208.150000
  0
VERTEX
  8
0
 10
50.975000
 20
208.125000
  0
VERTEX
  8
0
 10
51.250000
 20
208.125000
  0
VERTEX
  8
0
 10
51.550000
 20
208.125000
  0
VERTEX
  8
0
 10
51.825000
 20
208.150000
  0
VERTEX
  8
0
 10
52.100000
 20
208.175000
  0
VERTEX
  8
0
 10
52.375000
 20
208.225000
  0
VERTEX
  8
0
 10
52.650000
 20
208.300000
  0
VERTEX
  8
0
 10
52.900000
 20
208.375000
  0
VERTEX
  8
0
 10
53.175000
 20
208.450000
  0
VERTEX
  8
0
 10
53.425000
 20
208.550000
  0
VERTEX
  8
0
 10
53.675000
 20
208.675000
  0
VERTEX
  8
0
 10
53.925000
 20
208.800000
  0
VERTEX
  8
0
 10
54.175000
 20
208.950000
  0
VERTEX
  8
0
 10
54.400000
 20
209.100000
  0
VERTEX
  8
0
 10
54.625000
 20
209.275000
  0
VERTEX
  8
0
 10
54.850000
 20
209.450000
  0
VERTEX
  8
0
 10
55.075000
 20
209.650000
  0
VERTEX
  8
0
 10
55.300000
 20
209.875000
  0
VERTEX
  8
0
 10
55.475000
 20
210.050000
  0
VERTEX
  8
0
 10
55.625000
 20
210.225000
  0
VERTEX
  8
0
 10
55.750000
 20
210.425000
  0
VERTEX
  8
0
 10
55.900000
 20
210.650000
  0
VERTEX
  8
0
 10
56.000000
 20
210.875000
  0
VERTEX
  8
0
 10
56.125000
 20
211.100000
  0
VERTEX
  8
0
 10
56.225000
 20
211.350000
  0
VERTEX
  8
0
 10
56.325000
 20
211.600000
  0
VERTEX
  8
0
 10
56.400000
 20
211.875000
  0
VERTEX
  8
0
 10
56.450000
 20
212.150000
  0
VERTEX
  8
0
 10
56.525000
 20
212.450000
  0
VERTEX
  8
0
 10
56.575000
 20
212.750000
  0
VERTEX
  8
0
 10
56.600000
 20
213.075000
  0
VERTEX
  8
0
 10
56.625000
 20
213.400000
  0
VERTEX
  8
0
 10
56.650000
 20
213.750000
  0
VERTEX
  8
0
 10
56.650000
 20
214.100000
  0
VERTEX
  8
0
 10
56.650000
 20
214.475000
  0
VERTEX
  8
0
 10
56.600000
 20
214.875000
  0
VERTEX
  8
0
 10
56.550000
 20
215.250000
  0
VERTEX
  8
0
 10
56.475000
 20
215.625000
  0
VERTEX
  8
0
 10
56.375000
 20
216.000000
  0
VERTEX
  8
0
 10
56.275000
 20
216.375000
  0
VERTEX
  8
0
 10
56.125000
 20
216.750000
  0
VERTEX
  8
0
 10
55.975000
 20
217.100000
  0
VERTEX
  8
0
 10
55.800000
 20
217.475000
  0
VERTEX
  8
0
 10
55.600000
 20
217.825000
  0
VERTEX
  8
0
 10
55.375000
 20
218.175000
  0
VERTEX
  8
0
 10
55.125000
 20
218.525000
  0
VERTEX
  8
0
 10
54.875000
 20
218.875000
  0
VERTEX
  8
0
 10
54.575000
 20
219.225000
  0
VERTEX
  8
0
 10
54.275000
 20
219.550000
  0
VERTEX
  8
0
 10
53.950000
 20
219.900000
  0
VERTEX
  8
0
 10
53.625000
 20
220.200000
  0
VERTEX
  8
0
 10
53.275000
 20
220.500000
  0
VERTEX
  8
0
 10
52.900000
 20
220.750000
  0
VERTEX
  8
0
 10
52.500000
 20
221.000000
  0
VERTEX
  8
0
 10
52.075000
 20
221.225000
  0
VERTEX
  8
0
 10
51.625000
 20
221.425000
  0
VERTEX
  8
0
 10
51.175000
 20
221.600000
  0
VERTEX
  8
0
 10
50.675000
 20
221.775000
  0
VERTEX
  8
0
 10
50.150000
 20
221.925000
  0
VERTEX
  8
0
 10
49.600000
 20
222.050000
  0
VERTEX
  8
0
 10
49.050000
 20
222.150000
  0
VERTEX
  8
0
 10
48.450000
 20
222.250000
  0
VERTEX
  8
0
 10
47.825000
 20
222.325000
  0
VERTEX
  8
0
 10
47.200000
 20
222.350000
  0
VERTEX
  8
0
 10
46.525000
 20
222.400000
  0
VERTEX
  8
0
 10
45.850000
 20
222.400000
  0
VERTEX
  8
0
 10
45.325000
 20
222.400000
  0
VERTEX
  8
0
 10
44.775000
 20
222.375000
  0
VERTEX
  8
0
 10
44.250000
 20
222.350000
  0
VERTEX
  8
0
 10
43.700000
 20
222.300000
  0
VERTEX
  8
0
 10
43.175000
 20
222.250000
  0
VERTEX
  8
0
 10
42.625000
 20
222.175000
  0
VERTEX
  8
0
 10
42.075000
 20
222.100000
  0
VERTEX
  8
0
 10
41.525000
 20
222.000000
  0
VERTEX
  8
0
 10
40.950000
 20
221.900000
  0
VERTEX
  8
0
 10
40.400000
 20
221.800000
  0
VERTEX
  8
0
 10
39.850000
 20
221.675000
  0
VERTEX
  8
0
 10
39.275000
 20
221.525000
  0
VERTEX
  8
0
 10
38.700000
 20
221.375000
  0
VERTEX
  8
0
 10
38.125000
 20
221.200000
  0
VERTEX
  8
0
 10
37.550000
 20
221.025000
  0
VERTEX
  8
0
 10
36.975000
 20
220.850000
  0
VERTEX
  8
0
 10
36.975000
 20
210.625000
  0
VERTEX
  8
0
 10
36.975000
 20
210.175000
  0
VERTEX
  8
0
 10
36.950000
 20
209.750000
  0
VERTEX
  8
0
 10
36.900000
 20
209.325000
  0
VERTEX
  8
0
 10
36.850000
 20
208.900000
  0
VERTEX
  8
0
 10
36.775000
 20
208.500000
  0
VERTEX
  8
0
 10
36.675000
 20
208.100000
  0
VERTEX
  8
0
 10
36.575000
 20
207.725000
  0
VERTEX
  8
0
 10
36.450000
 20
207.350000
  0
VERTEX
  8
0
 10
36.300000
 20
207.000000
  0
VERTEX
  8
0
 10
36.150000
 20
206.675000
  0
VERTEX
  8
0
 10
35.975000
 20
206.325000
  0
VERTEX
  8
0
 10
35.775000
 20
206.000000
  0
VERTEX
  8
0
 10
35.575000
 20
205.700000
  0
VERTEX
  8
0
 10
35.350000
 20
205.400000
  0
VERTEX
  8
0
 10
35.100000
 20
205.125000
  0
VERTEX
  8
0
 10
34.850000
 20
204.850000
  0
VERTEX
  8
0
 10
34.575000
 20
204.600000
  0
VERTEX
  8
0
 10
34.300000
 20
204.350000
  0
VERTEX
  8
0
 10
34.025000
 20
204.125000
  0
VERTEX
  8
0
 10
33.725000
 20
203.925000
  0
VERTEX
  8
0
 10
33.425000
 20
203.725000
  0
VERTEX
  8
0
 10
33.100000
 20
203.550000
  0
VERTEX
  8
0
 10
32.775000
 20
203.400000
  0
VERTEX
  8
0
 10
32.450000
 20
203.250000
  0
VERTEX
  8
0
 10
32.100000
 20
203.125000
  0
VERTEX
  8
0
 10
31.750000
 20
203.025000
  0
VERTEX
  8
0
 10
31.400000
 20
202.925000
  0
VERTEX
  8
0
 10
31.025000
 20
202.850000
  0
VERTEX
  8
0
 10
30.650000
 20
202.800000
  0
VERTEX
  8
0
 10
30.250000
 20
202.750000
  0
VERTEX
  8
0
 10
29.850000
 20
202.725000
  0
VERTEX
  8
0
 10
29.450000
 20
202.725000
  0
VERTEX
  8
0
 10
29.150000
 20
202.725000
  0
VERTEX
  8
0
 10
28.825000
 20
202.750000
  0
VERTEX
  8
0
 10
28.525000
 20
202.800000
  0
VERTEX
  8
0
 10
28.225000
 20
202.850000
  0
VERTEX
  8
0
 10
27.925000
 20
202.925000
  0
VERTEX
  8
0
 10
27.625000
 20
203.025000
  0
VERTEX
  8
0
 10
27.350000
 20
203.125000
  0
VERTEX
  8
0
 10
27.050000
 20
203.250000
  0
VERTEX
  8
0
 10
26.775000
 20
203.400000
  0
VERTEX
  8
0
 10
26.475000
 20
203.550000
  0
VERTEX
  8
0
 10
26.200000
 20
203.725000
  0
VERTEX
  8
0
 10
25.925000
 20
203.925000
  0
VERTEX
  8
0
 10
25.650000
 20
204.125000
  0
VERTEX
  8
0
 10
25.375000
 20
204.350000
  0
VERTEX
  8
0
 10
25.100000
 20
204.600000
  0
VERTEX
  8
0
 10
24.825000
 20
204.850000
  0
VERTEX
  8
0
 10
24.600000
 20
205.100000
  0
VERTEX
  8
0
 10
24.375000
 20
205.350000
  0
VERTEX
  8
0
 10
24.175000
 20
205.600000
  0
VERTEX
  8
0
 10
23.975000
 20
205.875000
  0
VERTEX
  8
0
 10
23.825000
 20
206.150000
  0
VERTEX
  8
0
 10
23.650000
 20
206.425000
  0
VERTEX
  8
0
 10
23.525000
 20
206.725000
  0
VERTEX
  8
0
 10
23.375000
 20
207.025000
  0
VERTEX
  8
0
 10
23.275000
 20
207.325000
  0
VERTEX
  8
0
 10
23.175000
 20
207.650000
  0
VERTEX
  8
0
 10
23.100000
 20
207.950000
  0
VERTEX
  8
0
 10
23.025000
 20
208.300000
  0
VERTEX
  8
0
 10
22.975000
 20
208.625000
  0
VERTEX
  8
0
 10
22.925000
 20
208.975000
  0
VERTEX
  8
0
 10
22.900000
 20
209.325000
  0
VERTEX
  8
0
 10
22.900000
 20
209.675000
  0
VERTEX
  8
0
 10
22.925000
 20
210.350000
  0
VERTEX
  8
0
 10
22.950000
 20
211.000000
  0
VERTEX
  8
0
 10
23.025000
 20
211.625000
  0
VERTEX
  8
0
 10
23.125000
 20
212.250000
  0
VERTEX
  8
0
 10
23.250000
 20
212.850000
  0
VERTEX
  8
0
 10
23.375000
 20
213.450000
  0
VERTEX
  8
0
 10
23.550000
 20
214.025000
  0
VERTEX
  8
0
 10
23.775000
 20
214.600000
  0
VERTEX
  8
0
 10
24.000000
 20
215.125000
  0
VERTEX
  8
0
 10
24.250000
 20
215.675000
  0
VERTEX
  8
0
 10
24.550000
 20
216.175000
  0
VERTEX
  8
0
 10
24.850000
 20
216.700000
  0
VERTEX
  8
0
 10
25.200000
 20
217.175000
  0
VERTEX
  8
0
 10
25.550000
 20
217.650000
  0
VERTEX
  8
0
 10
25.950000
 20
218.100000
  0
VERTEX
  8
0
 10
26.375000
 20
218.550000
  0
VERTEX
  8
0
 10
26.725000
 20
218.875000
  0
VERTEX
  8
0
 10
27.075000
 20
219.225000
  0
VERTEX
  8
0
 10
27.425000
 20
219.550000
  0
VERTEX
  8
0
 10
27.800000
 20
219.875000
  0
VERTEX
  8
0
 10
28.200000
 20
220.175000
  0
VERTEX
  8
0
 10
28.600000
 20
220.500000
  0
VERTEX
  8
0
 10
29.000000
 20
220.800000
  0
VERTEX
  8
0
 10
29.425000
 20
221.100000
  0
VERTEX
  8
0
 10
29.850000
 20
221.400000
  0
VERTEX
  8
0
 10
30.275000
 20
221.700000
  0
VERTEX
  8
0
 10
30.725000
 20
221.975000
  0
VERTEX
  8
0
 10
31.175000
 20
222.275000
  0
VERTEX
  8
0
 10
31.650000
 20
222.550000
  0
VERTEX
  8
0
 10
32.125000
 20
222.825000
  0
VERTEX
  8
0
 10
32.625000
 20
223.100000
  0
VERTEX
  8
0
 10
33.125000
 20
223.375000
  0
VERTEX
  8
0
 10
33.125000
 20
231.650000
  0
VERTEX
  8
0
 10
32.525000
 20
231.575000
  0
VERTEX
  8
0
 10
31.925000
 20
231.525000
  0
VERTEX
  8
0
 10
31.350000
 20
231.450000
  0
VERTEX
  8
0
 10
30.750000
 20
231.400000
  0
VERTEX
  8
0
 10
30.175000
 20
231.350000
  0
VERTEX
  8
0
 10
29.600000
 20
231.300000
  0
VERTEX
  8
0
 10
29.050000
 20
231.250000
  0
VERTEX
  8
0
 10
28.500000
 20
231.225000
  0
VERTEX
  8
0
 10
27.950000
 20
231.200000
  0
VERTEX
  8
0
 10
27.400000
 20
231.150000
  0
VERTEX
  8
0
 10
26.850000
 20
231.125000
  0
VERTEX
  8
0
 10
26.325000
 20
231.100000
  0
VERTEX
  8
0
 10
25.800000
 20
231.100000
  0
VERTEX
  8
0
 10
25.275000
 20
231.075000
  0
VERTEX
  8
0
 10
24.750000
 20
231.075000
  0
VERTEX
  8
0
 10
24.250000
 20
231.075000
  0
VERTEX
  8
0
 10
23.675000
 20
235.125000
  0
VERTEX
  8
0
 10
24.175000
 20
235.100000
  0
VERTEX
  8
0
 10
24.700000
 20
235.100000
  0
VERTEX
  8
0
 10
25.250000
 20
235.075000
  0
VERTEX
  8
0
 10
25.775000
 20
235.075000
  0
VERTEX
  8
0
 10
26.350000
 20
235.075000
  0
VERTEX
  8
0
 10
26.900000
 20
235.100000
  0
VERTEX
  8
0
 10
27.475000
 20
235.100000
  0
VERTEX
  8
0
 10
28.075000
 20
235.125000
  0
VERTEX
  8
0
 10
28.650000
 20
235.150000
  0
VERTEX
  8
0
 10
29.275000
 20
235.200000
  0
VERTEX
  8
0
 10
29.875000
 20
235.225000
  0
VERTEX
  8
0
 10
30.500000
 20
235.275000
  0
VERTEX
  8
0
 10
31.150000
 20
235.325000
  0
VERTEX
  8
0
 10
31.800000
 20
235.400000
  0
VERTEX
  8
0
 10
32.450000
 20
235.450000
  0
VERTEX
  8
0
 10
33.125000
 20
235.525000
  0
VERTEX
  8
0
 10
33.125000
 20
245.150000
  0
VERTEX
  8
0
 10
36.975000
 20
245.150000
  0
VERTEX
  8
0
 10
37.150000
 20
245.100000
  0
VERTEX
  8
0
 10
37.300000
 20
245.050000
  0
VERTEX
  8
0
 10
37.450000
 20
244.975000
  0
VERTEX
  8
0
 10
37.550000
 20
244.925000
  0
VERTEX
  8
0
 10
37.625000
 20
244.850000
  0
VERTEX
  8
0
 10
37.700000
 20
244.750000
  0
VERTEX
  8
0
 10
37.725000
 20
244.675000
  0
VERTEX
  8
0
 10
37.750000
 20
244.575000
  0
VERTEX
  8
0
 10
37.725000
 20
244.475000
  0
VERTEX
  8
0
 10
37.700000
 20
244.375000
  0
VERTEX
  8
0
 10
37.625000
 20
244.275000
  0
VERTEX
  8
0
 10
37.550000
 20
244.150000
  0
VERTEX
  8
0
 10
37.450000
 20
244.025000
  0
VERTEX
  8
0
 10
37.300000
 20
243.900000
  0
VERTEX
  8
0
 10
37.150000
 20
243.775000
  0
VERTEX
  8
0
 10
36.975000
 20
243.625000
  0
VERTEX
  8
0
 10
36.975000
 20
236.100000
  0
VERTEX
  8
0
 10
37.500000
 20
236.200000
  0
VERTEX
  8
0
 10
38.025000
 20
236.300000
  0
VERTEX
  8
0
 10
38.550000
 20
236.400000
  0
VERTEX
  8
0
 10
39.050000
 20
236.525000
  0
VERTEX
  8
0
 10
39.550000
 20
236.650000
  0
VERTEX
  8
0
 10
40.050000
 20
236.775000
  0
VERTEX
  8
0
 10
40.550000
 20
236.900000
  0
VERTEX
  8
0
 10
41.025000
 20
237.050000
  0
VERTEX
  8
0
 10
41.525000
 20
237.200000
  0
VERTEX
  8
0
 10
41.975000
 20
237.350000
  0
VERTEX
  8
0
 10
42.450000
 20
237.525000
  0
VERTEX
  8
0
 10
42.925000
 20
237.675000
  0
VERTEX
  8
0
 10
43.375000
 20
237.850000
  0
VERTEX
  8
0
 10
43.825000
 20
238.025000
  0
VERTEX
  8
0
 10
44.250000
 20
238.200000
  0
VERTEX
  8
0
 10
44.700000
 20
238.400000
  0
VERTEX
  8
0
 10
45.675000
 20
234.175000
  0
VERTEX
  8
0
 10
45.200000
 20
234.025000
  0
VERTEX
  8
0
 10
44.725000
 20
233.900000
  0
VERTEX
  8
0
 10
44.250000
 20
233.750000
  0
VERTEX
  8
0
 10
43.750000
 20
233.625000
  0
VERTEX
  8
0
 10
43.250000
 20
233.475000
  0
VERTEX
  8
0
 10
42.725000
 20
233.350000
  0
VERTEX
  8
0
 10
42.200000
 20
233.225000
  0
VERTEX
  8
0
 10
41.675000
 20
233.100000
  0
VERTEX
  8
0
 10
41.125000
 20
233.000000
  0
VERTEX
  8
0
 10
40.550000
 20
232.875000
  0
VERTEX
  8
0
 10
39.975000
 20
232.750000
  0
VERTEX
  8
0
 10
39.400000
 20
232.650000
  0
VERTEX
  8
0
 10
38.800000
 20
232.550000
  0
VERTEX
  8
0
 10
38.200000
 20
232.450000
  0
VERTEX
  8
0
 10
37.600000
 20
232.350000
  0
VERTEX
  8
0
 10
36.975000
 20
232.250000
  0
VERTEX
  8
0
 10
36.975000
 20
224.725000
  0
SEQEND
  8
0
  0
POLYLINE
  8
0
 66
     1
 70
     1
 40
0.200000
 41
0.200000
  0
VERTEX
  8
0
 10
33.125000
 20
219.325000
  0
VERTEX
  8
0
 10
33.050000
 20
219.275000
  0
VERTEX
  8
0
 10
32.950000
 20
219.200000
  0
VERTEX
  8
0
 10
32.875000
 20
219.150000
  0
VERTEX
  8
0
 10
32.800000
 20
219.075000
  0
VERTEX
  8
0
 10
32.700000
 20
219.025000
  0
VERTEX
  8
0
 10
32.625000
 20
218.975000
  0
VERTEX
  8
0
 10
32.550000
 20
218.900000
  0
VERTEX
  8
0
 10
32.475000
 20
218.850000
  0
VERTEX
  8
0
 10
32.400000
 20
218.800000
  0
VERTEX
  8
0
 10
32.325000
 20
218.725000
  0
VERTEX
  8
0
 10
32.225000
 20
218.675000
  0
VERTEX
  8
0
 10
32.150000
 20
218.625000
  0
VERTEX
  8
0
 10
32.075000
 20
218.550000
  0
VERTEX
  8
0
 10
32.000000
 20
218.500000
  0
VERTEX
  8
0
 10
31.925000
 20
218.450000
  0
VERTEX
  8
0
 10
31.850000
 20
218.375000
  0
VERTEX
  8
0
 10
31.775000
 20
218.325000
  0
VERTEX
  8
0
 10
31.725000
 20
218.275000
  0
VERTEX
  8
0
 10
31.650000
 20
218.225000
  0
VERTEX
  8
0
 10
31.575000
 20
218.175000
  0
VERTEX
  8
0
 10
31.500000
 20
218.100000
  0
VERTEX
  8
0
 10
31.425000
 20
218.050000
  0
VERTEX
  8
0
 10
31.350000
 20
218.000000
  0
VERTEX
  8
0
 10
31.300000
 20
217.950000
  0
VERTEX
  8
0
 10
31.225000
 20
217.900000
  0
VERTEX
  8
0
 10
31.150000
 20
217.850000
  0
VERTEX
  8
0
 10
31.075000
 20
217.775000
  0
VERTEX
  8
0
 10
31.025000
 20
217.725000
  0
VERTEX
  8
0
 10
30.950000
 20
217.675000
  0
VERTEX
  8
0
 10
30.900000
 20
217.625000
  0
VERTEX
  8
0
 10
30.825000
 20
217.575000
  0
VERTEX
  8
0
 10
30.775000
 20
217.525000
  0
VERTEX
  8
0
 10
30.700000
 20
217.475000
  0
VERTEX
  8
0
 10
30.625000
 20
217.425000
  0
VERTEX
  8
0
 10
30.575000
 20
217.375000
  0
VERTEX
  8
0
 10
30.525000
 20
217.325000
  0
VERTEX
  8
0
 10
30.450000
 20
217.275000
  0
VERTEX
  8
0
 10
30.400000
 20
217.225000
  0
VERTEX
  8
0
 10
30.325000
 20
217.175000
  0
VERTEX
  8
0
 10
30.275000
 20
217.125000
  0
VERTEX
  8
0
 10
30.225000
 20
217.075000
  0
VERTEX
  8
0
 10
30.175000
 20
217.025000
  0
VERTEX
  8
0
 10
30.100000
 20
216.975000
  0
VERTEX
  8
0
 10
30.050000
 20
216.925000
  0
VERTEX
  8
0
 10
30.000000
 20
216.875000
  0
VERTEX
  8
0
 10
29.950000
 20
216.825000
  0
VERTEX
  8
0
 10
29.875000
 20
216.775000
  0
VERTEX
  8
0
 10
29.825000
 20
216.725000
  0
VERTEX
  8
0
 10
29.775000
 20
216.700000
  0
VERTEX
  8
0
 10
29.725000
 20
216.650000
  0
VERTEX
  8
0
 10
29.675000
 20
216.600000
  0
VERTEX
  8
0
 10
29.625000
 20
216.550000
  0
VERTEX
  8
0
 10
29.575000
 20
216.500000
  0
VERTEX
  8
0
 10
29.525000
 20
216.450000
  0
VERTEX
  8
0
 10
29.475000
 20
216.425000
  0
VERTEX
  8
0
 10
29.425000
 20
216.375000
  0
VERTEX
  8
0
 10
29.375000
 20
216.325000
  0
VERTEX
  8
0
 10
29.350000
 20
216.275000
  0
VERTEX
  8
0
 10
29.300000
 20
216.250000
  0
VERTEX
  8
0
 10
29.250000
 20
216.200000
  0
VERTEX
  8
0
 10
29.200000
 20
216.150000
  0
VERTEX
  8
0
 10
29.150000
 20
216.100000
  0
VERTEX
  8
0
 10
29.125000
 20
216.075000
  0
VERTEX
  8
0
 10
29.075000
 20
216.025000
  0
VERTEX
  8
0
 10
29.000000
 20
215.950000
  0
VERTEX
  8
0
 10
28.925000
 20
215.875000
  0
VERTEX
  8
0
 10
28.850000
 20
215.800000
  0
VERTEX
  8
0
 10
28.775000
 20
215.700000
  0
VERTEX
  8
0
 10
28.700000
 20
215.625000
  0
VERTEX
  8
0
 10
28.625000
 20
215.550000
  0
VERTEX
  8
0
 10
28.550000
 20
215.475000
  0
VERTEX
  8
0
 10
28.475000
 20
215.400000
  0
VERTEX
  8
0
 10
28.425000
 20
215.300000
  0
VERTEX
  8
0
 10
28.350000
 20
215.225000
  0
VERTEX
  8
0
 10
28.275000
 20
215.150000
  0
VERTEX
  8
0
 10
28.225000
 20
215.050000
  0
VERTEX
  8
0
 10
28.150000
 20
214.975000
  0
VERTEX
  8
0
 10
28.100000
 20
214.900000
  0
VERTEX
  8
0
 10
28.025000
 20
214.800000
  0
VERTEX
  8
0
 10
27.975000
 20
214.725000
  0
VERTEX
  8
0
 10
27.925000
 20
214.625000
  0
VERTEX
  8
0
 10
27.875000
 20
214.550000
  0
VERTEX
  8
0
 10
27.800000
 20
214.475000
  0
VERTEX
  8
0
 10
27.750000
 20
214.375000
  0
VERTEX
  8
0
 10
27.700000
 20
214.300000
  0
VERTEX
  8
0
 10
27.650000
 20
214.200000
  0
VERTEX
  8
0
 10
27.600000
 20
214.100000
  0
VERTEX
  8
0
 10
27.550000
 20
214.025000
  0
VERTEX
  8
0
 10
27.500000
 20
213.925000
  0
VERTEX
  8
0
 10
27.450000
 20
213.850000
  0
VERTEX
  8
0
 10
27.400000
 20
213.750000
  0
VERTEX
  8
0
 10
27.375000
 20
213.650000
  0
VERTEX
  8
0
 10
27.325000
 20
213.575000
  0
VERTEX
  8
0
 10
27.275000
 20
213.475000
  0
VERTEX
  8
0
 10
27.225000
 20
213.375000
  0
VERTEX
  8
0
 10
27.200000
 20
213.300000
  0
VERTEX
  8
0
 10
27.150000
 20
213.200000
  0
VERTEX
  8
0
 10
27.125000
 20
213.100000
  0
VERTEX
  8
0
 10
27.075000
 20
213.000000
  0
VERTEX
  8
0
 10
27.050000
 20
212.925000
  0
VERTEX
  8
0
 10
27.025000
 20
212.825000
  0
VERTEX
  8
0
 10
26.975000
 20
212.725000
  0
VERTEX
  8
0
 10
26.950000
 20
212.625000
  0
VERTEX
  8
0
 10
26.925000
 20
212.525000
  0
VERTEX
  8
0
 10
26.900000
 20
212.425000
  0
VERTEX
  8
0
 10
26.875000
 20
212.325000
  0
VERTEX
  8
0
 10
26.850000
 20
212.225000
  0
VERTEX
  8
0
 10
26.825000
 20
212.125000
  0
VERTEX
  8
0
 10
26.800000
 20
212.025000
  0
VERTEX
  8
0
 10
26.775000
 20
211.925000
  0
VERTEX
  8
0
 10
26.750000
 20
211.825000
  0
VERTEX
  8
0
 10
26.725000
 20
211.725000
  0
VERTEX
  8
0
 10
26.700000
 20
211.625000
  0
VERTEX
  8
0
 10
26.700000
 20
211.525000
  0
VERTEX
  8
0
 10
26.675000
 20
211.425000
  0
VERTEX
  8
0
 10
26.650000
 20
211.325000
  0
VERTEX
  8
0
 10
26.650000
 20
211.225000
  0
VERTEX
  8
0
 10
26.625000
 20
211.125000
  0
VERTEX
  8
0
 10
26.625000
 20
211.000000
  0
VERTEX
  8
0
 10
26.625000
 20
210.900000
  0
VERTEX
  8
0
 10
26.600000
 20
210.800000
  0
VERTEX
  8
0
 10
26.600000
 20
210.700000
  0
VERTEX
  8
0
 10
26.600000
 20
210.600000
  0
VERTEX
  8
0
 10
26.575000
 20
210.475000
  0
VERTEX
  8
0
 10
26.575000
 20
210.375000
  0
VERTEX
  8
0
 10
26.575000
 20
210.275000
  0
VERTEX
  8
0
 10
26.575000
 20
210.150000
  0
VERTEX
  8
0
 10
26.575000
 20
210.050000
  0
VERTEX
  8
0
 10
26.575000
 20
210.000000
  0
VERTEX
  8
0
 10
26.575000
 20
209.925000
  0
VERTEX
  8
0
 10
26.575000
 20
209.875000
  0
VERTEX
  8
0
 10
26.575000
 20
209.825000
  0
VERTEX
  8
0
 10
26.575000
 20
209.750000
  0
VERTEX
  8
0
 10
26.575000
 20
209.700000
  0
VERTEX
  8
0
 10
26.575000
 20
209.650000
  0
VERTEX
  8
0
 10
26.575000
 20
209.600000
  0
VERTEX
  8
0
 10
26.600000
 20
209.525000
  0
VERTEX
  8
0
 10
26.600000
 20
209.475000
  0
VERTEX
  8
0
 10
26.600000
 20
209.425000
  0
VERTEX
  8
0
 10
26.600000
 20
209.375000
  0
VERTEX
  8
0
 10
26.600000
 20
209.325000
  0
VERTEX
  8
0
 10
26.600000
 20
209.275000
  0
VERTEX
  8
0
 10
26.625000
 20
209.225000
  0
VERTEX
  8
0
 10
26.625000
 20
209.175000
  0
VERTEX
  8
0
 10
26.625000
 20
209.125000
  0
VERTEX
  8
0
 10
26.625000
 20
209.075000
  0
VERTEX
  8
0
 10
26.650000
 20
209.025000
  0
VERTEX
  8
0
 10
26.650000
 20
208.975000
  0
VERTEX
  8
0
 10
26.650000
 20
208.925000
  0
VERTEX
  8
0
 10
26.675000
 20
208.875000
  0
VERTEX
  8
0
 10
26.675000
 20
208.825000
  0
VERTEX
  8
0
 10
26.675000
 20
208.775000
  0
VERTEX
  8
0
 10
26.700000
 20
208.725000
  0
VERTEX
  8
0
 10
26.700000
 20
208.675000
  0
VERTEX
  8
0
 10
26.700000
 20
208.625000
  0
VERTEX
  8
0
 10
26.725000
 20
208.600000
  0
VERTEX
  8
0
 10
26.725000
 20
208.550000
  0
VERTEX
  8
0
 10
26.750000
 20
208.500000
  0
VERTEX
  8
0
 10
26.750000
 20
208.450000
  0
VERTEX
  8
0
 10
26.775000
 20
208.425000
  0
VERTEX
  8
0
 10
26.775000
 20
208.375000
  0
VERTEX
  8
0
 10
26.800000
 20
208.325000
  0
VERTEX
  8
0
 10
26.800000
 20
208.300000
  0
VERTEX
  8
0
 10
26.825000
 20
208.250000
  0
VERTEX
  8
0
 10
26.825000
 20
208.225000
  0
VERTEX
  8
0
 10
26.850000
 20
208.175000
  0
VERTEX
  8
0
 10
26.850000
 20
208.125000
  0
VERTEX
  8
0
 10
26.875000
 20
208.100000
  0
VERTEX
  8
0
 10
26.900000
 20
208.050000
  0
VERTEX
  8
0
 10
26.900000
 20
208.025000
  0
VERTEX
  8
0
 10
26.925000
 20
208.000000
  0
VERTEX
  8
0
 10
26.950000
 20
207.950000
  0
VERTEX
  8
0
 10
26.950000
 20
207.925000
  0
VERTEX
  8
0
 10
26.975000
 20
207.875000
  0
VERTEX
  8
0
 10
27.000000
 20
207.850000
  0
VERTEX
  8
0
 10
27.000000
 20
207.825000
  0
VERTEX
  8
0
 10
27.025000
 20
207.775000
  0
VERTEX
  8
0
 10
27.050000
 20
207.750000
  0
VERTEX
  8
0
 10
27.075000
 20
207.725000
  0
VERTEX
  8
0
 10
27.075000
 20
207.675000
  0
VERTEX
  8
0
 10
27.100000
 20
207.650000
  0
VERTEX
  8
0
 10
27.125000
 20
207.625000
  0
VERTEX
  8
0
 10
27.150000
 20
207.600000
  0
VERTEX
  8
0
 10
27.175000
 20
207.575000
  0
VERTEX
  8
0
 10
27.200000
 20
207.525000
  0
VERTEX
  8
0
 10
27.200000
 20
207.500000
  0
VERTEX
  8
0
 10
27.225000
 20
207.475000
  0
VERTEX
  8
0
 10
27.250000
 20
207.450000
  0
VERTEX
  8
0
 10
27.275000
 20
207.425000
  0
VERTEX
  8
0
 10
27.300000
 20
207.400000
  0
VERTEX
  8
0
 10
27.325000
 20
207.375000
  0
VERTEX
  8
0
 10
27.350000
 20
207.350000
  0
VERTEX
  8
0
 10
27.375000
 20
207.325000
  0
VERTEX
  8
0
 10
27.400000
 20
207.300000
  0
VERTEX
  8
0
 10
27.450000
 20
207.275000
  0
VERTEX
  8
0
 10
27.475000
 20
207.225000
  0
VERTEX
  8
0
 10
27.500000
 20
207.200000
  0
VERTEX
  8
0
 10
27.525000
 20
207.175000
  0
VERTEX
  8
0
 10
27.550000
 20
207.150000
  0
VERTEX
  8
0
 10
27.600000
 20
207.125000
  0
VERTEX
  8
0
 10
27.625000
 20
207.100000
  0
VERTEX
  8
0
 10
27.650000
 20
207.075000
  0
VERTEX
  8
0
 10
27.675000
 20
207.050000
  0
VERTEX
  8
0
 10
27.725000
 20
207.025000
  0
VERTEX
  8
0
 10
27.750000
 20
207.000000
  0
VERTEX
  8
0
 10
27.775000
 20
206.975000
  0
VERTEX
  8
0
 10
27.825000
 20
206.950000
  0
VERTEX
  8
0
 10
27.850000
 20
206.950000
  0
VERTEX
  8
0
 10
27.875000
 20
206.925000
  0
VERTEX
  8
0
 10
27.900000
 20
206.900000
  0
VERTEX
  8
0
 10
27.950000
 20
206.875000
  0
VERTEX
  8
0
 10
27.975000
 20
206.850000
  0
VERTEX
  8
0
 10
28.025000
 20
206.825000
  0
VERTEX
  8
0
 10
28.050000
 20
206.825000
  0
VERTEX
  8
0
 10
28.075000
 20
206.800000
  0
VERTEX
  8
0
 10
28.125000
 20
206.775000
  0
VERTEX
  8
0
 10
28.150000
 20
206.750000
  0
VERTEX
  8
0
 10
28.175000
 20
206.750000
  0
VERTEX
  8
0
 10
28.225000
 20
206.725000
  0
VERTEX
  8
0
 10
28.250000
 20
206.700000
  0
VERTEX
  8
0
 10
28.300000
 20
206.700000
  0
VERTEX
  8
0
 10
28.325000
 20
206.675000
  0
VERTEX
  8
0
 10
28.350000
 20
206.650000
  0
VERTEX
  8
0
 10
28.400000
 20
206.650000
  0
VERTEX
  8
0
 10
28.425000
 20
206.625000
  0
VERTEX
  8
0
 10
28.475000
 20
206.600000
  0
VERTEX
  8
0
 10
28.500000
 20
206.600000
  0
VERTEX
  8
0
 10
28.550000
 20
206.575000
  0
VERTEX
  8
0
 10
28.575000
 20
206.575000
  0
VERTEX
  8
0
 10
28.625000
 20
206.550000
  0
VERTEX
  8
0
 10
28.650000
 20
206.550000
  0
VERTEX
  8
0
 10
28.700000
 20
206.525000
  0
VERTEX
  8
0
 10
28.725000
 20
206.525000
  0
VERTEX
  8
0
 10
28.775000
 20
206.525000
  0
VERTEX
  8
0
 10
28.800000
 20
206.500000
  0
VERTEX
  8
0
 10
28.850000
 20
206.500000
  0
VERTEX
  8
0
 10
28.875000
 20
206.475000
  0
VERTEX
  8
0
 10
28.925000
 20
206.475000
  0
VERTEX
  8
0
 10
28.950000
 20
206.475000
  0
VERTEX
  8
0
 10
29.000000
 20
206.450000
  0
VERTEX
  8
0
 10
29.050000
 20
206.450000
  0
VERTEX
  8
0
 10
29.075000
 20
206.450000
  0
VERTEX
  8
0
 10
29.125000
 20
206.450000
  0
VERTEX
  8
0
 10
29.150000
 20
206.425000
  0
VERTEX
  8
0
 10
29.200000
 20
206.425000
  0
VERTEX
  8
0
 10
29.225000
 20
206.425000
  0
VERTEX
  8
0
 10
29.275000
 20
206.425000
  0
VERTEX
  8
0
 10
29.325000
 20
206.425000
  0
VERTEX
  8
0
 10
29.350000
 20
206.400000
  0
VERTEX
  8
0
 10
29.400000
 20
206.400000
  0
VERTEX
  8
0
 10
29.450000
 20
206.400000
  0
VERTEX
  8
0
 10
29.475000
 20
206.400000
  0
VERTEX
  8
0
 10
29.525000
 20
206.400000
  0
VERTEX
  8
0
 10
29.575000
 20
206.400000
  0
VERTEX
  8
0
 10
29.600000
 20
206.400000
  0
VERTEX
  8
0
 10
29.650000
 20
206.400000
  0
VERTEX
  8
0
 10
29.750000
 20
206.400000
  0
VERTEX
  8
0
 10
29.875000
 20
206.400000
  0
VERTEX
  8
0
 10
29.975000
 20
206.400000
  0
VERTEX
  8
0
 10
30.075000
 20
206.425000
  0
VERTEX
  8
0
 10
30.175000
 20
206.425000
  0
VERTEX
  8
0
 10
30.275000
 20
206.450000
  0
VERTEX
  8
0
 10
30.375000
 20
206.475000
  0
VERTEX
  8
0
 10
30.475000
 20
206.475000
  0
VERTEX
  8
0
 10
30.550000
 20
206.500000
  0
VERTEX
  8
0
 10
30.650000
 20
206.525000
  0
VERTEX
  8
0
 10
30.750000
 20
206.550000
  0
VERTEX
  8
0
 10
30.825000
 20
206.600000
  0
VERTEX
  8
0
 10
30.925000
 20
206.625000
  0
VERTEX
  8
0
 10
31.000000
 20
206.650000
  0
VERTEX
  8
0
 10
31.100000
 20
206.700000
  0
VERTEX
  8
0
 10
31.175000
 20
206.725000
  0
VERTEX
  8
0
 10
31.250000
 20
206.775000
  0
VERTEX
  8
0
 10
31.325000
 20
206.825000
  0
VERTEX
  8
0
 10
31.400000
 20
206.875000
  0
VERTEX
  8
0
 10
31.475000
 20
206.925000
  0
VERTEX
  8
0
 10
31.550000
 20
206.975000
  0
VERTEX
  8
0
 10
31.625000
 20
207.050000
  0
VERTEX
  8
0
 10
31.700000
 20
207.100000
  0
VERTEX
  8
0
 10
31.775000
 20
207.150000
  0
VERTEX
  8
0
 10
31.850000
 20
207.225000
  0
VERTEX
  8
0
 10
31.900000
 20
207.300000
  0
VERTEX
  8
0
 10
31.975000
 20
207.350000
  0
VERTEX
  8
0
 10
32.025000
 20
207.425000
  0
VERTEX
  8
0
 10
32.100000
 20
207.500000
  0
VERTEX
  8
0
 10
32.150000
 20
207.575000
  0
VERTEX
  8
0
 10
32.200000
 20
207.675000
  0
VERTEX
  8
0
 10
32.250000
 20
207.750000
  0
VERTEX
  8
0
 10
32.325000
 20
207.825000
  0
VERTEX
  8
0
 10
32.375000
 20
207.925000
  0
VERTEX
  8
0
 10
32.425000
 20
208.025000
  0
VERTEX
  8
0
 10
32.475000
 20
208.100000
  0
VERTEX
  8
0
 10
32.500000
 20
208.200000
  0
VERTEX
  8
0
 10
32.550000
 20
208.300000
  0
VERTEX
  8
0
 10
32.600000
 20
208.400000
  0
VERTEX
  8
0
 10
32.650000
 20
208.500000
  0
VERTEX
  8
0
 10
32.675000
 20
208.625000
  0
VERTEX
  8
0
 10
32.725000
 20
208.725000
  0
VERTEX
  8
0
 10
32.750000
 20
208.850000
  0
VERTEX
  8
0
 10
32.775000
 20
208.950000
  0
VERTEX
  8
0
 10
32.825000
 20
209.075000
  0
VERTEX
  8
0
 10
32.850000
 20
209.200000
  0
VERTEX
  8
0
 10
32.875000
 20
209.300000
  0
VERTEX
  8
0
 10
32.900000
 20
209.425000
  0
VERTEX
  8
0
 10
32.925000
 20
209.575000
  0
VERTEX
  8
0
 10
32.950000
 20
209.700000
  0
VERTEX
  8
0
 10
32.975000
 20
209.825000
  0
VERTEX
  8
0
 10
33.000000
 20
209.975000
  0
VERTEX
  8
0
 10
33.025000
 20
210.100000
  0
VERTEX
  8
0
 10
33.050000
 20
210.250000
  0
VERTEX
  8
0
 10
33.050000
 20
210.400000
  0
VERTEX
  8
0
 10
33.075000
 20
210.525000
  0
VERTEX
  8
0
 10
33.075000
 20
210.675000
  0
VERTEX
  8
0
 10
33.100000
 20
210.825000
  0
VERTEX
  8
0
 10
33.100000
 20
211.000000
  0
VERTEX
  8
0
 10
33.100000
 20
211.150000
  0
VERTEX
  8
0
 10
33.125000
 20
211.300000
  0
VERTEX
  8
0
 10
33.125000
 20
211.475000
  0
VERTEX
  8
0
 10
33.125000
 20
211.625000
  0
VERTEX
  8
0
 10
33.125000
 20
211.800000
  0
VERTEX
  8
0
 10
33.125000
 20
219.325000
  0
SEQEND
  8
0
  0
POLYLINE
  8
0
 66
     1
 70
     1
 40
0.200000
 41
0.200000
  0
VERTEX
  8
0
 10
52.800000
 20
240.350000
  0
VERTEX
  8
0
 10
52.900000
 20
240.275000
  0
VERTEX
  8
0
 10
53.000000
 20
240.225000
  0
VERTEX
  8
0
 10
53.100000
 20
240.150000
  0
VERTEX
  8
0
 10
53.200000
 20
240.100000
  0
VERTEX
  8
0
 10
53.300000
 20
240.025000
  0
VERTEX
  8
0
 10
53.400000
 20
239.975000
  0
VERTEX
  8
0
 10
53.500000
 20
239.900000
  0
VERTEX
  8
0
 10
53.575000
 20
239.850000
  0
VERTEX
  8
0
 10
53.675000
 20
239.775000
  0
VERTEX
  8
0
 10
53.775000
 20
239.725000
  0
VERTEX
  8
0
 10
53.875000
 20
239.650000
  0
VERTEX
  8
0
 10
53.975000
 20
239.600000
  0
VERTEX
  8
0
 10
54.075000
 20
239.525000
  0
VERTEX
  8
0
 10
54.150000
 20
239.475000
  0
VERTEX
  8
0
 10
54.250000
 20
239.400000
  0
VERTEX
  8
0
 10
54.350000
 20
239.325000
  0
VERTEX
  8
0
 10
54.450000
 20
239.275000
  0
VERTEX
  8
0
 10
54.525000
 20
239.200000
  0
VERTEX
  8
0
 10
54.625000
 20
239.150000
  0
VERTEX
  8
0
 10
54.725000
 20
239.075000
  0
VERTEX
  8
0
 10
54.825000
 20
239.025000
  0
VERTEX
  8
0
 10
54.900000
 20
238.950000
  0
VERTEX
  8
0
 10
55.000000
 20
238.900000
  0
VERTEX
  8
0
 10
55.100000
 20
238.825000
  0
VERTEX
  8
0
 10
55.175000
 20
238.775000
  0
VERTEX
  8
0
 10
55.275000
 20
238.700000
  0
VERTEX
  8
0
 10
55.350000
 20
238.650000
  0
VERTEX
  8
0
 10
55.450000
 20
238.575000
  0
VERTEX
  8
0
 10
55.550000
 20
238.525000
  0
VERTEX
  8
0
 10
55.625000
 20
238.450000
  0
VERTEX
  8
0
 10
55.725000
 20
238.400000
  0
VERTEX
  8
0
 10
55.800000
 20
238.325000
  0
VERTEX
  8
0
 10
55.900000
 20
238.250000
  0
VERTEX
  8
0
 10
55.975000
 20
238.200000
  0
VERTEX
  8
0
 10
56.075000
 20
238.125000
  0
VERTEX
  8
0
 10
56.150000
 20
238.075000
  0
VERTEX
  8
0
 10
56.250000
 20
238.000000
  0
VERTEX
  8
0
 10
56.325000
 20
237.950000
  0
VERTEX
  8
0
 10
56.425000
 20
237.875000
  0
VERTEX
  8
0
 10
56.500000
 20
237.825000
  0
VERTEX
  8
0
 10
56.575000
 20
237.750000
  0
VERTEX
  8
0
 10
56.675000
 20
237.700000
  0
VERTEX
  8
0
 10
56.750000
 20
237.625000
  0
VERTEX
  8
0
 10
56.825000
 20
237.575000
  0
VERTEX
  8
0
 10
56.925000
 20
237.500000
  0
VERTEX
  8
0
 10
57.000000
 20
237.450000
  0
VERTEX
  8
0
 10
57.075000
 20
237.375000
  0
VERTEX
  8
0
 10
57.175000
 20
237.300000
  0
VERTEX
  8
0
 10
57.250000
 20
237.250000
  0
VERTEX
  8
0
 10
57.325000
 20
237.175000
  0
VERTEX
  8
0
 10
57.425000
 20
237.125000
  0
VERTEX
  8
0
 10
57.500000
 20
237.050000
  0
VERTEX
  8
0
 10
57.575000
 20
237.000000
  0
VERTEX
  8
0
 10
57.650000
 20
236.925000
  0
VERTEX
  8
0
 10
57.750000
 20
236.875000
  0
VERTEX
  8
0
 10
57.825000
 20
236.800000
  0
VERTEX
  8
0
 10
57.900000
 20
236.750000
  0
VERTEX
  8
0
 10
57.975000
 20
236.675000
  0
VERTEX
  8
0
 10
58.050000
 20
236.625000
  0
VERTEX
  8
0
 10
58.125000
 20
236.550000
  0
VERTEX
  8
0
 10
58.200000
 20
236.500000
  0
VERTEX
  8
0
 10
58.300000
 20
236.425000
  0
VERTEX
  8
0
 10
58.375000
 20
236.375000
  0
VERTEX
  8
0
 10
58.450000
 20
236.300000
  0
VERTEX
  8
0
 10
58.525000
 20
236.225000
  0
VERTEX
  8
0
 10
58.600000
 20
236.175000
  0
VERTEX
  8
0
 10
58.675000
 20
236.100000
  0
VERTEX
  8
0
 10
58.750000
 20
236.050000
  0
VERTEX
  8
0
 10
58.825000
 20
235.975000
  0
VERTEX
  8
0
 10
58.900000
 20
235.925000
  0
VERTEX
  8
0
 10
58.975000
 20
235.850000
  0
VERTEX
  8
0
 10
59.050000
 20
235.800000
  0
VERTEX
  8
0
 10
59.125000
 20
235.725000
  0
VERTEX
  8
0
 10
59.200000
 20
235.675000
  0
VERTEX
  8
0
 10
59.275000
 20
235.600000
  0
VERTEX
  8
0
 10
59.350000
 20
235.550000
  0
VERTEX
  8
0
 10
59.400000
 20
235.475000
  0
VERTEX
  8
0
 10
59.475000
 20
235.425000
  0
VERTEX
  8
0
 10
59.550000
 20
235.350000
  0
VERTEX
  8
0
 10
59.625000
 20
235.275000
  0
VERTEX
  8
0
 10
59.700000
 20
235.225000
  0
VERTEX
  8
0
 10
59.775000
 20
235.150000
  0
VERTEX
  8
0
 10
59.850000
 20
235.100000
  0
VERTEX
  8
0
 10
59.900000
 20
235.025000
  0
VERTEX
  8
0
 10
59.975000
 20
234.975000
  0
VERTEX
  8
0
 10
60.050000
 20
234.900000
  0
VERTEX
  8
0
 10
60.125000
 20
234.850000
  0
VERTEX
  8
0
 10
60.175000
 20
234.775000
  0
VERTEX
  8
0
 10
60.250000
 20
234.725000
  0
VERTEX
  8
0
 10
60.325000
 20
234.650000
  0
VERTEX
  8
0
 10
60.375000
 20
234.600000
  0
VERTEX
  8
0
 10
60.450000
 20
234.525000
  0
VERTEX
  8
0
 10
60.525000
 20
234.475000
  0
VERTEX
  8
0
 10
60.575000
 20
234.400000
  0
VERTEX
  8
0
 10
60.650000
 20
234.350000
  0
VERTEX
  8
0
 10
60.725000
 20
234.275000
  0
VERTEX
  8
0
 10
60.775000
 20
234.200000
  0
VERTEX
  8
0
 10
60.850000
 20
234.150000
  0
VERTEX
  8
0
 10
60.900000
 20
234.075000
  0
VERTEX
  8
0
 10
60.975000
 20
234.025000
  0
VERTEX
  8
0
 10
61.050000
 20
233.950000
  0
VERTEX
  8
0
 10
61.100000
 20
233.900000
  0
VERTEX
  8
0
 10
61.175000
 20
233.825000
  0
VERTEX
  8
0
 10
61.225000
 20
233.775000
  0
VERTEX
  8
0
 10
61.300000
 20
233.700000
  0
VERTEX
  8
0
 10
61.350000
 20
233.650000
  0
VERTEX
  8
0
 10
61.425000
 20
233.575000
  0
VERTEX
  8
0
 10
61.475000
 20
233.525000
  0
VERTEX
  8
0
 10
61.525000
 20
233.450000
  0
VERTEX
  8
0
 10
61.600000
 20
233.400000
  0
VERTEX
  8
0
 10
61.650000
 20
233.325000
  0
VERTEX
  8
0
 10
61.725000
 20
233.250000
  0
VERTEX
  8
0
 10
61.775000
 20
233.200000
  0
VERTEX
  8
0
 10
61.825000
 20
233.125000
  0
VERTEX
  8
0
 10
61.900000
 20
233.075000
  0
VERTEX
  8
0
 10
61.950000
 20
233.000000
  0
VERTEX
  8
0
 10
62.000000
 20
232.950000
  0
VERTEX
  8
0
 10
62.075000
 20
232.875000
  0
VERTEX
  8
0
 10
62.125000
 20
232.825000
  0
VERTEX
  8
0
 10
62.175000
 20
232.750000
  0
VERTEX
  8
0
 10
62.250000
 20
232.700000
  0
VERTEX
  8
0
 10
62.300000
 20
232.625000
  0
VERTEX
  8
0
 10
62.350000
 20
232.575000
  0
VERTEX
  8
0
 10
62.400000
 20
232.500000
  0
VERTEX
  8
0
 10
62.450000
 20
232.450000
  0
VERTEX
  8
0
 10
62.525000
 20
232.375000
  0
VERTEX
  8
0
 10
62.575000
 20
232.325000
  0
VERTEX
  8
0
 10
62.625000
 20
232.250000
  0
VERTEX
  8
0
 10
59.550000
 20
229.150000
  0
VERTEX
  8
0
 10
59.475000
 20
229.225000
  0
VERTEX
  8
0
 10
59.400000
 20
229.300000
  0
VERTEX
  8
0
 10
59.325000
 20
229.375000
  0
VERTEX
  8
0
 10
59.250000
 20
229.450000
  0
VERTEX
  8
0
 10
59.200000
 20
229.500000
  0
VERTEX
  8
0
 10
59.125000
 20
229.575000
  0
VERTEX
  8
0
 10
59.050000
 20
229.650000
  0
VERTEX
  8
0
 10
58.975000
 20
229.725000
  0
VERTEX
  8
0
 10
58.900000
 20
229.800000
  0
VERTEX
  8
0
 10
58.825000
 20
229.875000
  0
VERTEX
  8
0
 10
58.750000
 20
229.950000
  0
VERTEX
  8
0
 10
58.675000
 20
230.000000
  0
VERTEX
  8
0
 10
58.600000
 20
230.075000
  0
VERTEX
  8
0
 10
58.525000
 20
230.150000
  0
VERTEX
  8
0
 10
58.475000
 20
230.225000
  0
VERTEX
  8
0
 10
58.400000
 20
230.300000
  0
VERTEX
  8
0
 10
58.325000
 20
230.350000
  0
VERTEX
  8
0
 10
58.250000
 20
230.425000
  0
VERTEX
  8
0
 10
58.175000
 20
230.500000
  0
VERTEX
  8
0
 10
58.100000
 20
230.575000
  0
VERTEX
  8
0
 10
58.025000
 20
230.650000
  0
VERTEX
  8
0
 10
57.950000
 20
230.700000
  0
VERTEX
  8
0
 10
57.875000
 20
230.775000
  0
VERTEX
  8
0
 10
57.800000
 20
230.850000
  0
VERTEX
  8
0
 10
57.725000
 20
230.900000
  0
VERTEX
  8
0
 10
57.650000
 20
230.975000
  0
VERTEX
  8
0
 10
57.575000
 20
231.050000
  0
VERTEX
  8
0
 10
57.500000
 20
231.125000
  0
VERTEX
  8
0
 10
57.425000
 20
231.175000
  0
VERTEX
  8
0
 10
57.375000
 20
231.250000
  0
VERTEX
  8
0
 10
57.300000
 20
231.325000
  0
VERTEX
  8
0
 10
57.225000
 20
231.375000
  0
VERTEX
  8
0
 10
57.150000
 20
231.450000
  0
VERTEX
  8
0
 10
57.075000
 20
231.525000
  0
VERTEX
  8
0
 10
57.000000
 20
231.575000
  0
VERTEX
  8
0
 10
56.925000
 20
231.650000
  0
VERTEX
  8
0
 10
56.850000
 20
231.725000
  0
VERTEX
  8
0
 10
56.775000
 20
231.775000
  0
VERTEX
  8
0
 10
56.700000
 20
231.850000
  0
VERTEX
  8
0
 10
56.625000
 20
231.925000
  0
VERTEX
  8
0
 10
56.550000
 20
231.975000
  0
VERTEX
  8
0
 10
56.475000
 20
232.050000
  0
VERTEX
  8
0
 10
56.400000
 20
232.125000
  0
VERTEX
  8
0
 10
56.325000
 20
232.175000
  0
VERTEX
  8
0
 10
56.250000
 20
232.250000
  0
VERTEX
  8
0
 10
56.175000
 20
232.300000
  0
VERTEX
  8
0
 10
56.100000
 20
232.375000
  0
VERTEX
  8
0
 10
56.025000
 20
232.450000
  0
VERTEX
  8
0
 10
55.950000
 20
232.500000
  0
VERTEX
  8
0
 10
55.875000
 20
232.575000
  0
VERTEX
  8
0
 10
55.800000
 20
232.625000
  0
VERTEX
  8
0
 10
55.725000
 20
232.700000
  0
VERTEX
  8
0
 10
55.650000
 20
232.750000
  0
VERTEX
  8
0
 10
55.575000
 20
232.825000
  0
VERTEX
  8
0
 10
55.500000
 20
232.875000
  0
VERTEX
  8
0
 10
55.425000
 20
232.950000
  0
VERTEX
  8
0
 10
55.350000
 20
233.000000
  0
VERTEX
  8
0
 10
55.275000
 20
233.075000
  0
VERTEX
  8
0
 10
55.200000
 20
233.125000
  0
VERTEX
  8
0
 10
55.125000
 20
233.200000
  0
VERTEX
  8
0
 10
55.050000
 20
233.250000
  0
VERTEX
  8
0
 10
54.975000
 20
233.325000
  0
VERTEX
  8
0
 10
54.900000
 20
233.375000
  0
VERTEX
  8
0
 10
54.825000
 20
233.450000
  0
VERTEX
  8
0
 10
54.750000
 20
233.500000
  0
VERTEX
  8
0
 10
54.675000
 20
233.575000
  0
VERTEX
  8
0
 10
54.600000
 20
233.625000
  0
VERTEX
  8
0
 10
54.525000
 20
233.700000
  0
VERTEX
  8
0
 10
54.450000
 20
233.750000
  0
VERTEX
  8
0
 10
54.375000
 20
233.825000
  0
VERTEX
  8
0
 10
54.300000
 20
233.875000
  0
VERTEX
  8
0
 10
54.225000
 20
233.925000
  0
VERTEX
  8
0
 10
54.150000
 20
234.000000
  0
VERTEX
  8
0
 10
54.075000
 20
234.050000
  0
VERTEX
  8
0
 10
54.000000
 20
234.125000
  0
VERTEX
  8
0
 10
53.925000
 20
234.175000
  0
VERTEX
  8
0
 10
53.850000
 20
234.225000
  0
VERTEX
  8
0
 10
53.775000
 20
234.300000
  0
VERTEX
  8
0
 10
53.700000
 20
234.350000
  0
VERTEX
  8
0
 10
53.625000
 20
234.400000
  0
VERTEX
  8
0
 10
53.550000
 20
234.475000
  0
VERTEX
  8
0
 10
53.450000
 20
234.525000
  0
VERTEX
  8
0
 10
53.375000
 20
234.600000
  0
VERTEX
  8
0
 10
53.300000
 20
234.650000
  0
VERTEX
  8
0
 10
53.225000
 20
234.700000
  0
VERTEX
  8
0
 10
53.150000
 20
234.775000
  0
VERTEX
  8
0
 10
53.075000
 20
234.825000
  0
VERTEX
  8
0
 10
53.000000
 20
234.875000
  0
VERTEX
  8
0
 10
52.925000
 20
234.925000
  0
VERTEX
  8
0
 10
52.850000
 20
235.000000
  0
VERTEX
  8
0
 10
52.775000
 20
235.050000
  0
VERTEX
  8
0
 10
52.700000
 20
235.100000
  0
VERTEX
  8
0
 10
52.625000
 20
235.175000
  0
VERTEX
  8
0
 10
52.550000
 20
235.225000
  0
VERTEX
  8
0
 10
52.475000
 20
235.275000
  0
VERTEX
  8
0
 10
52.400000
 20
235.325000
  0
VERTEX
  8
0
 10
52.300000
 20
235.400000
  0
VERTEX
  8
0
 10
52.225000
 20
235.450000
  0
VERTEX
  8
0
 10
52.150000
 20
235.500000
  0
VERTEX
  8
0
 10
52.075000
 20
235.550000
  0
VERTEX
  8
0
 10
52.000000
 20
235.625000
  0
VERTEX
  8
0
 10
51.925000
 20
235.675000
  0
VERTEX
  8
0
 10
51.850000
 20
235.725000
  0
VERTEX
  8
0
 10
51.775000
 20
235.775000
  0
VERTEX
  8
0
 10
51.700000
 20
235.825000
  0
VERTEX
  8
0
 10
51.625000
 20
235.900000
  0
VERTEX
  8
0
 10
51.550000
 20
235.950000
  0
VERTEX
  8
0
 10
51.450000
 20
236.000000
  0
VERTEX
  8
0
 10
51.375000
 20
236.050000
  0
VERTEX
  8
0
 10
51.300000
 20
236.100000
  0
VERTEX
  8
0
 10
51.225000
 20
236.150000
  0
VERTEX
  8
0
 10
51.150000
 20
236.225000
  0
VERTEX
  8
0
 10
51.075000
 20
236.275000
  0
VERTEX
  8
0
 10
51.000000
 20
236.325000
  0
VERTEX
  8
0
 10
50.925000
 20
236.375000
  0
VERTEX
  8
0
 10
50.850000
 20
236.425000
  0
VERTEX
  8
0
 10
50.750000
 20
236.475000
  0
VERTEX
  8
0
 10
50.675000
 20
236.525000
  0
VERTEX
  8
0
 10
50.600000
 20
236.575000
  0
VERTEX
  8
0
 10
50.525000
 20
236.625000
  0
VERTEX
  8
0
 10
50.450000
 20
236.700000
  0
VERTEX
  8
0
 10
50.375000
 20
236.750000
  0
VERTEX
  8
0
 10
50.300000
 20
236.800000
  0
VERTEX
  8
0
 10
50.225000
 20
236.850000
  0
VERTEX
  8
0
 10
50.125000
 20
236.900000
  0
VERTEX
  8
0
 10
50.050000
 20
236.950000
  0
VERTEX
  8
0
 10
49.975000
 20
237.000000
  0
VERTEX
  8
0
 10
49.900000
 20
237.050000
  0
VERTEX
  8
0
 10
52.800000
 20
240.350000
  0
SEQEND
  8
0
  0
ENDSEC
  0
EOF
