  0
SECTION
  2
HEADER
  9
$ACADVER
  1
AC1009
  9
$INSBASE
 10
0.000000
 20
0.000000
 30
0.000000
  9
$EXTMIN
 10
0.000000
 20
0.000000
  9
$EXTMAX
 10
190.000000
 20
257.000000
  9
$LIMMIN
 10
0.000000
 20
0.000000
  9
$LIMMAX
 10
190.000000
 20
257.000000
  9
$TEXTSIZE
 40
0.200000
  9
$TEXTSTYLE
  7
BIGFONT
  9
$CLAYER
  8
0
  9
$ANGBASE
 50
0.000000
  9
$ANGDIR
 70
     0
  0
ENDSEC
  0
SECTION
  2
TABLES
  0
TABLE
  2
LTYPE
 70
    11
  0
LTYPE
  2
BYBLOCK
 70
    64
  3
BYBLOCK
 72
    65
 73
     0
 40
0.000000
  0
LTYPE
  2
BYLAYER
 70
    64
  3
BYLAYER
 72
    65
 73
     0
 40
0.000000
  0
LTYPE
  2
CONTINUOUS
 70
    64
  3
é¿ê¸
 72
    65
 73
     0
 40
0.000000
  0
LTYPE
  2
DASHED
 70
    64
  3
__ __ __ __ __ __ __ __ __ __ __ __ __ __ __
 72
    65
 73
     2
 40
0.750000
 49
0.500000
 49
-0.250000
  0
LTYPE
  2
HIDDEN
 70
    64
  3
_ _ _ _ _ _ _ _ _ _ _ _ _ _ _ _ _ _ _ _ _ _ _
 72
    65
 73
     2
 40
0.375000
 49
0.250000
 49
-0.125000
  0
LTYPE
  2
CENTER
 70
    64
  3
____ _ ____ _ ____ _ ____ _ ____ _ ____ _ ____
 72
    65
 73
     4
 40
2.000000
 49
1.250000
 49
-0.250000
 49
0.250000
 49
-0.250000
  0
LTYPE
  2
PHANTOM
 70
    64
  3
_____ _ _ _____ _ _ _____ _ _ _____ _ _ ____
 72
    65
 73
     6
 40
2.500000
 49
1.250000
 49
-0.250000
 49
0.250000
 49
-0.250000
 49
0.250000
 49
-0.250000
  0
LTYPE
  2
DOT
 70
    64
  3
...............................................
 72
    65
 73
     2
 40
0.250000
 49
0.000000
 49
-0.250000
  0
LTYPE
  2
DASHDOT
 70
    64
  3
__ . __ . __ . __ . __ . __ . __ . __ . __ . __
 72
    65
 73
     4
 40
1.000000
 49
0.500000
 49
-0.250000
 49
0.000000
 49
-0.250000
  0
LTYPE
  2
BORDER
 70
    64
  3
__ __ . __ __ . __ __ . __ __ . __ __ . __ __
 72
    65
 73
     6
 40
1.750000
 49
0.500000
 49
-0.250000
 49
0.500000
 49
-0.250000
 49
0.000000
 49
-0.250000
  0
LTYPE
  2
DIVIDE
 70
    64
  3
__ . . __ . . __ . . __ . . __ . . __ . . __
 72
    65
 73
     6
 40
1.250000
 49
0.500000
 49
-0.250000
 49
0.000000
 49
-0.250000
 49
0.000000
 49
-0.250000
  0
ENDTAB
  0
TABLE
  2
LAYER
  5
a2
 70
     2
  0
LAYER
  5
a5
  2
0
 70
     0
 62
     7
  6
CONTINUOUS
  0
LAYER
  5
a8
  2
B
 70
     0
 62
     7
  6
CONTINUOUS
  0
LAYER
  5
ab
  2
C
 70
     0
 62
     7
  6
CONTINUOUS
  0
LAYER
  5
ae
  2
D
 70
     0
 62
     7
  6
CONTINUOUS
  0
LAYER
  5
b1
  2
E
 70
     0
 62
     7
  6
CONTINUOUS
  0
LAYER
  5
b4
  2
F
 70
     0
 62
     7
  6
CONTINUOUS
  0
LAYER
  5
b7
  2
G
 70
     0
 62
     7
  6
CONTINUOUS
  0
LAYER
  5
ba
  2
H
 70
     0
 62
     7
  6
CONTINUOUS
  0
LAYER
  5
bd
  2
I
 70
     0
 62
     7
  6
CONTINUOUS
  0
LAYER
  5
c0
  2
J
 70
     0
 62
     7
  6
CONTINUOUS
  0
LAYER
  5
c3
  2
K
 70
     0
 62
     7
  6
CONTINUOUS
  0
LAYER
  5
c6
  2
L
 70
     0
 62
     7
  6
CONTINUOUS
  0
LAYER
  5
c9
  2
M
 70
     0
 62
     7
  6
CONTINUOUS
  0
LAYER
  5
cc
  2
N
 70
     0
 62
     7
  6
CONTINUOUS
  0
ENDTAB
  0
TABLE
  2
STYLE
 70
     2
  0
STYLE
  2
STANDARD
 70
     0
 40
0.000000
 41
0.500000
 50
0.000000
 71
     0
 42
0.300000
  3
txt
  4

  0
STYLE
  2
BIGFONT
 70
    64
 40
0.000000
 41
1.000000
 50
0.000000
 71
     0
 42
0.200000
  3

  4
bigfont
  0
ENDTAB
  0
ENDSEC
  0
SECTION
  2
BLOCKS
  0
ENDSEC
  0
SECTION
  2
ENTITIES
  0
POLYLINE
  8
0
 66
     1
 70
     1
 40
0.200000
 41
0.200000
  0
VERTEX
  8
0
 10
22.050000
 20
185.075000
  0
VERTEX
  8
0
 10
22.800000
 20
186.250000
  0
VERTEX
  8
0
 10
23.525000
 20
187.500000
  0
VERTEX
  8
0
 10
24.250000
 20
188.750000
  0
VERTEX
  8
0
 10
24.950000
 20
190.075000
  0
VERTEX
  8
0
 10
25.650000
 20
191.425000
  0
VERTEX
  8
0
 10
26.325000
 20
192.850000
  0
VERTEX
  8
0
 10
27.000000
 20
194.275000
  0
VERTEX
  8
0
 10
27.675000
 20
195.775000
  0
VERTEX
  8
0
 10
28.325000
 20
197.325000
  0
VERTEX
  8
0
 10
28.975000
 20
198.900000
  0
VERTEX
  8
0
 10
29.600000
 20
200.525000
  0
VERTEX
  8
0
 10
30.225000
 20
202.175000
  0
VERTEX
  8
0
 10
30.825000
 20
203.875000
  0
VERTEX
  8
0
 10
31.425000
 20
205.650000
  0
VERTEX
  8
0
 10
32.000000
 20
207.425000
  0
VERTEX
  8
0
 10
32.575000
 20
209.275000
  0
VERTEX
  8
0
 10
32.000000
 20
209.200000
  0
VERTEX
  8
0
 10
31.450000
 20
209.125000
  0
VERTEX
  8
0
 10
30.875000
 20
209.050000
  0
VERTEX
  8
0
 10
30.325000
 20
208.975000
  0
VERTEX
  8
0
 10
29.750000
 20
208.900000
  0
VERTEX
  8
0
 10
29.200000
 20
208.825000
  0
VERTEX
  8
0
 10
28.650000
 20
208.750000
  0
VERTEX
  8
0
 10
28.100000
 20
208.700000
  0
VERTEX
  8
0
 10
27.525000
 20
208.625000
  0
VERTEX
  8
0
 10
26.975000
 20
208.575000
  0
VERTEX
  8
0
 10
26.425000
 20
208.500000
  0
VERTEX
  8
0
 10
25.875000
 20
208.450000
  0
VERTEX
  8
0
 10
25.325000
 20
208.400000
  0
VERTEX
  8
0
 10
24.800000
 20
208.325000
  0
VERTEX
  8
0
 10
24.250000
 20
208.275000
  0
VERTEX
  8
0
 10
23.700000
 20
208.225000
  0
VERTEX
  8
0
 10
23.275000
 20
212.775000
  0
VERTEX
  8
0
 10
23.750000
 20
212.775000
  0
VERTEX
  8
0
 10
24.250000
 20
212.775000
  0
VERTEX
  8
0
 10
24.775000
 20
212.800000
  0
VERTEX
  8
0
 10
25.325000
 20
212.825000
  0
VERTEX
  8
0
 10
25.875000
 20
212.825000
  0
VERTEX
  8
0
 10
26.475000
 20
212.850000
  0
VERTEX
  8
0
 10
27.075000
 20
212.900000
  0
VERTEX
  8
0
 10
27.725000
 20
212.925000
  0
VERTEX
  8
0
 10
28.375000
 20
212.975000
  0
VERTEX
  8
0
 10
29.050000
 20
213.025000
  0
VERTEX
  8
0
 10
29.750000
 20
213.075000
  0
VERTEX
  8
0
 10
30.500000
 20
213.125000
  0
VERTEX
  8
0
 10
31.250000
 20
213.175000
  0
VERTEX
  8
0
 10
32.000000
 20
213.250000
  0
VERTEX
  8
0
 10
32.800000
 20
213.325000
  0
VERTEX
  8
0
 10
33.625000
 20
213.400000
  0
VERTEX
  8
0
 10
33.850000
 20
214.200000
  0
VERTEX
  8
0
 10
34.075000
 20
215.000000
  0
VERTEX
  8
0
 10
34.300000
 20
215.800000
  0
VERTEX
  8
0
 10
34.500000
 20
216.625000
  0
VERTEX
  8
0
 10
34.725000
 20
217.425000
  0
VERTEX
  8
0
 10
34.925000
 20
218.225000
  0
VERTEX
  8
0
 10
35.125000
 20
219.050000
  0
VERTEX
  8
0
 10
35.325000
 20
219.850000
  0
VERTEX
  8
0
 10
35.525000
 20
220.675000
  0
VERTEX
  8
0
 10
35.700000
 20
221.475000
  0
VERTEX
  8
0
 10
35.875000
 20
222.300000
  0
VERTEX
  8
0
 10
36.075000
 20
223.125000
  0
VERTEX
  8
0
 10
36.250000
 20
223.950000
  0
VERTEX
  8
0
 10
36.400000
 20
224.775000
  0
VERTEX
  8
0
 10
36.575000
 20
225.600000
  0
VERTEX
  8
0
 10
36.725000
 20
226.425000
  0
VERTEX
  8
0
 10
41.050000
 20
224.975000
  0
VERTEX
  8
0
 10
41.350000
 20
224.850000
  0
VERTEX
  8
0
 10
41.600000
 20
224.725000
  0
VERTEX
  8
0
 10
41.800000
 20
224.600000
  0
VERTEX
  8
0
 10
41.975000
 20
224.475000
  0
VERTEX
  8
0
 10
42.100000
 20
224.350000
  0
VERTEX
  8
0
 10
42.200000
 20
224.225000
  0
VERTEX
  8
0
 10
42.250000
 20
224.100000
  0
VERTEX
  8
0
 10
42.250000
 20
224.000000
  0
VERTEX
  8
0
 10
42.225000
 20
223.875000
  0
VERTEX
  8
0
 10
42.150000
 20
223.775000
  0
VERTEX
  8
0
 10
42.025000
 20
223.650000
  0
VERTEX
  8
0
 10
41.875000
 20
223.550000
  0
VERTEX
  8
0
 10
41.675000
 20
223.450000
  0
VERTEX
  8
0
 10
41.450000
 20
223.325000
  0
VERTEX
  8
0
 10
41.175000
 20
223.225000
  0
VERTEX
  8
0
 10
40.850000
 20
223.125000
  0
VERTEX
  8
0
 10
40.700000
 20
222.575000
  0
VERTEX
  8
0
 10
40.550000
 20
222.025000
  0
VERTEX
  8
0
 10
40.375000
 20
221.475000
  0
VERTEX
  8
0
 10
40.225000
 20
220.900000
  0
VERTEX
  8
0
 10
40.075000
 20
220.350000
  0
VERTEX
  8
0
 10
39.925000
 20
219.775000
  0
VERTEX
  8
0
 10
39.775000
 20
219.200000
  0
VERTEX
  8
0
 10
39.625000
 20
218.625000
  0
VERTEX
  8
0
 10
39.450000
 20
218.025000
  0
VERTEX
  8
0
 10
39.300000
 20
217.450000
  0
VERTEX
  8
0
 10
39.150000
 20
216.850000
  0
VERTEX
  8
0
 10
39.000000
 20
216.250000
  0
VERTEX
  8
0
 10
38.850000
 20
215.650000
  0
VERTEX
  8
0
 10
38.675000
 20
215.025000
  0
VERTEX
  8
0
 10
38.525000
 20
214.425000
  0
VERTEX
  8
0
 10
38.375000
 20
213.800000
  0
VERTEX
  8
0
 10
38.675000
 20
213.850000
  0
VERTEX
  8
0
 10
39.000000
 20
213.900000
  0
VERTEX
  8
0
 10
39.300000
 20
213.950000
  0
VERTEX
  8
0
 10
39.625000
 20
213.975000
  0
VERTEX
  8
0
 10
39.950000
 20
214.025000
  0
VERTEX
  8
0
 10
40.275000
 20
214.050000
  0
VERTEX
  8
0
 10
40.575000
 20
214.075000
  0
VERTEX
  8
0
 10
40.900000
 20
214.125000
  0
VERTEX
  8
0
 10
41.225000
 20
214.150000
  0
VERTEX
  8
0
 10
41.550000
 20
214.175000
  0
VERTEX
  8
0
 10
41.875000
 20
214.175000
  0
VERTEX
  8
0
 10
42.225000
 20
214.200000
  0
VERTEX
  8
0
 10
42.550000
 20
214.200000
  0
VERTEX
  8
0
 10
42.875000
 20
214.225000
  0
VERTEX
  8
0
 10
43.225000
 20
214.225000
  0
VERTEX
  8
0
 10
43.550000
 20
214.225000
  0
VERTEX
  8
0
 10
43.900000
 20
214.225000
  0
VERTEX
  8
0
 10
44.250000
 20
214.200000
  0
VERTEX
  8
0
 10
44.575000
 20
214.175000
  0
VERTEX
  8
0
 10
44.900000
 20
214.125000
  0
VERTEX
  8
0
 10
45.225000
 20
214.075000
  0
VERTEX
  8
0
 10
45.525000
 20
214.025000
  0
VERTEX
  8
0
 10
45.800000
 20
213.950000
  0
VERTEX
  8
0
 10
46.075000
 20
213.875000
  0
VERTEX
  8
0
 10
46.350000
 20
213.775000
  0
VERTEX
  8
0
 10
46.600000
 20
213.650000
  0
VERTEX
  8
0
 10
46.850000
 20
213.550000
  0
VERTEX
  8
0
 10
47.075000
 20
213.425000
  0
VERTEX
  8
0
 10
47.300000
 20
213.275000
  0
VERTEX
  8
0
 10
47.500000
 20
213.125000
  0
VERTEX
  8
0
 10
47.700000
 20
212.950000
  0
VERTEX
  8
0
 10
47.875000
 20
212.775000
  0
VERTEX
  8
0
 10
48.175000
 20
212.450000
  0
VERTEX
  8
0
 10
48.450000
 20
212.050000
  0
VERTEX
  8
0
 10
48.725000
 20
211.625000
  0
VERTEX
  8
0
 10
48.950000
 20
211.150000
  0
VERTEX
  8
0
 10
49.175000
 20
210.625000
  0
VERTEX
  8
0
 10
49.400000
 20
210.050000
  0
VERTEX
  8
0
 10
49.575000
 20
209.425000
  0
VERTEX
  8
0
 10
49.750000
 20
208.750000
  0
VERTEX
  8
0
 10
49.900000
 20
208.025000
  0
VERTEX
  8
0
 10
50.025000
 20
207.250000
  0
VERTEX
  8
0
 10
50.125000
 20
206.450000
  0
VERTEX
  8
0
 10
50.225000
 20
205.575000
  0
VERTEX
  8
0
 10
50.275000
 20
204.650000
  0
VERTEX
  8
0
 10
50.325000
 20
203.700000
  0
VERTEX
  8
0
 10
50.375000
 20
202.675000
  0
VERTEX
  8
0
 10
50.375000
 20
201.625000
  0
VERTEX
  8
0
 10
50.350000
 20
200.150000
  0
VERTEX
  8
0
 10
50.325000
 20
198.750000
  0
VERTEX
  8
0
 10
50.250000
 20
197.425000
  0
VERTEX
  8
0
 10
50.150000
 20
196.150000
  0
VERTEX
  8
0
 10
50.025000
 20
194.950000
  0
VERTEX
  8
0
 10
49.875000
 20
193.825000
  0
VERTEX
  8
0
 10
49.700000
 20
192.750000
  0
VERTEX
  8
0
 10
49.500000
 20
191.750000
  0
VERTEX
  8
0
 10
49.250000
 20
190.800000
  0
VERTEX
  8
0
 10
49.000000
 20
189.925000
  0
VERTEX
  8
0
 10
48.700000
 20
189.125000
  0
VERTEX
  8
0
 10
48.400000
 20
188.400000
  0
VERTEX
  8
0
 10
48.050000
 20
187.725000
  0
VERTEX
  8
0
 10
47.675000
 20
187.125000
  0
VERTEX
  8
0
 10
47.275000
 20
186.575000
  0
VERTEX
  8
0
 10
46.850000
 20
186.100000
  0
VERTEX
  8
0
 10
46.600000
 20
185.850000
  0
VERTEX
  8
0
 10
46.325000
 20
185.625000
  0
VERTEX
  8
0
 10
46.050000
 20
185.400000
  0
VERTEX
  8
0
 10
45.775000
 20
185.200000
  0
VERTEX
  8
0
 10
45.500000
 20
185.025000
  0
VERTEX
  8
0
 10
45.200000
 20
184.850000
  0
VERTEX
  8
0
 10
44.925000
 20
184.700000
  0
VERTEX
  8
0
 10
44.625000
 20
184.550000
  0
VERTEX
  8
0
 10
44.325000
 20
184.450000
  0
VERTEX
  8
0
 10
44.025000
 20
184.325000
  0
VERTEX
  8
0
 10
43.700000
 20
184.250000
  0
VERTEX
  8
0
 10
43.400000
 20
184.175000
  0
VERTEX
  8
0
 10
43.075000
 20
184.125000
  0
VERTEX
  8
0
 10
42.750000
 20
184.075000
  0
VERTEX
  8
0
 10
42.425000
 20
184.050000
  0
VERTEX
  8
0
 10
42.100000
 20
184.050000
  0
VERTEX
  8
0
 10
41.600000
 20
184.075000
  0
VERTEX
  8
0
 10
41.125000
 20
184.125000
  0
VERTEX
  8
0
 10
40.625000
 20
184.200000
  0
VERTEX
  8
0
 10
40.125000
 20
184.325000
  0
VERTEX
  8
0
 10
39.650000
 20
184.500000
  0
VERTEX
  8
0
 10
39.150000
 20
184.675000
  0
VERTEX
  8
0
 10
38.650000
 20
184.925000
  0
VERTEX
  8
0
 10
38.175000
 20
185.175000
  0
VERTEX
  8
0
 10
37.675000
 20
185.475000
  0
VERTEX
  8
0
 10
37.175000
 20
185.825000
  0
VERTEX
  8
0
 10
36.675000
 20
186.200000
  0
VERTEX
  8
0
 10
36.200000
 20
186.600000
  0
VERTEX
  8
0
 10
35.700000
 20
187.050000
  0
VERTEX
  8
0
 10
35.200000
 20
187.525000
  0
VERTEX
  8
0
 10
34.725000
 20
188.050000
  0
VERTEX
  8
0
 10
34.225000
 20
188.600000
  0
VERTEX
  8
0
 10
36.925000
 20
192.300000
  0
VERTEX
  8
0
 10
37.325000
 20
191.900000
  0
VERTEX
  8
0
 10
37.725000
 20
191.525000
  0
VERTEX
  8
0
 10
38.100000
 20
191.175000
  0
VERTEX
  8
0
 10
38.475000
 20
190.850000
  0
VERTEX
  8
0
 10
38.825000
 20
190.550000
  0
VERTEX
  8
0
 10
39.175000
 20
190.300000
  0
VERTEX
  8
0
 10
39.500000
 20
190.050000
  0
VERTEX
  8
0
 10
39.825000
 20
189.825000
  0
VERTEX
  8
0
 10
40.125000
 20
189.625000
  0
VERTEX
  8
0
 10
40.400000
 20
189.475000
  0
VERTEX
  8
0
 10
40.675000
 20
189.325000
  0
VERTEX
  8
0
 10
40.950000
 20
189.200000
  0
VERTEX
  8
0
 10
41.200000
 20
189.125000
  0
VERTEX
  8
0
 10
41.425000
 20
189.050000
  0
VERTEX
  8
0
 10
41.650000
 20
189.025000
  0
VERTEX
  8
0
 10
41.875000
 20
189.000000
  0
VERTEX
  8
0
 10
42.000000
 20
189.000000
  0
VERTEX
  8
0
 10
42.125000
 20
189.025000
  0
VERTEX
  8
0
 10
42.250000
 20
189.025000
  0
VERTEX
  8
0
 10
42.375000
 20
189.050000
  0
VERTEX
  8
0
 10
42.500000
 20
189.075000
  0
VERTEX
  8
0
 10
42.625000
 20
189.125000
  0
VERTEX
  8
0
 10
42.750000
 20
189.150000
  0
VERTEX
  8
0
 10
42.875000
 20
189.200000
  0
VERTEX
  8
0
 10
42.975000
 20
189.250000
  0
VERTEX
  8
0
 10
43.100000
 20
189.325000
  0
VERTEX
  8
0
 10
43.200000
 20
189.400000
  0
VERTEX
  8
0
 10
43.325000
 20
189.475000
  0
VERTEX
  8
0
 10
43.425000
 20
189.550000
  0
VERTEX
  8
0
 10
43.550000
 20
189.625000
  0
VERTEX
  8
0
 10
43.650000
 20
189.725000
  0
VERTEX
  8
0
 10
43.750000
 20
189.825000
  0
VERTEX
  8
0
 10
44.025000
 20
190.150000
  0
VERTEX
  8
0
 10
44.275000
 20
190.525000
  0
VERTEX
  8
0
 10
44.525000
 20
190.975000
  0
VERTEX
  8
0
 10
44.750000
 20
191.475000
  0
VERTEX
  8
0
 10
44.950000
 20
192.050000
  0
VERTEX
  8
0
 10
45.150000
 20
192.675000
  0
VERTEX
  8
0
 10
45.300000
 20
193.375000
  0
VERTEX
  8
0
 10
45.450000
 20
194.125000
  0
VERTEX
  8
0
 10
45.600000
 20
194.950000
  0
VERTEX
  8
0
 10
45.700000
 20
195.825000
  0
VERTEX
  8
0
 10
45.800000
 20
196.775000
  0
VERTEX
  8
0
 10
45.875000
 20
197.775000
  0
VERTEX
  8
0
 10
45.950000
 20
198.850000
  0
VERTEX
  8
0
 10
46.000000
 20
200.000000
  0
VERTEX
  8
0
 10
46.025000
 20
201.200000
  0
VERTEX
  8
0
 10
46.025000
 20
202.450000
  0
VERTEX
  8
0
 10
46.025000
 20
203.150000
  0
VERTEX
  8
0
 10
46.000000
 20
203.825000
  0
VERTEX
  8
0
 10
45.975000
 20
204.450000
  0
VERTEX
  8
0
 10
45.950000
 20
205.050000
  0
VERTEX
  8
0
 10
45.900000
 20
205.625000
  0
VERTEX
  8
0
 10
45.850000
 20
206.150000
  0
VERTEX
  8
0
 10
45.775000
 20
206.650000
  0
VERTEX
  8
0
 10
45.700000
 20
207.100000
  0
VERTEX
  8
0
 10
45.625000
 20
207.525000
  0
VERTEX
  8
0
 10
45.525000
 20
207.900000
  0
VERTEX
  8
0
 10
45.425000
 20
208.250000
  0
VERTEX
  8
0
 10
45.325000
 20
208.575000
  0
VERTEX
  8
0
 10
45.200000
 20
208.850000
  0
VERTEX
  8
0
 10
45.075000
 20
209.100000
  0
VERTEX
  8
0
 10
44.925000
 20
209.300000
  0
VERTEX
  8
0
 10
44.775000
 20
209.475000
  0
VERTEX
  8
0
 10
44.700000
 20
209.550000
  0
VERTEX
  8
0
 10
44.600000
 20
209.625000
  0
VERTEX
  8
0
 10
44.500000
 20
209.675000
  0
VERTEX
  8
0
 10
44.400000
 20
209.750000
  0
VERTEX
  8
0
 10
44.275000
 20
209.800000
  0
VERTEX
  8
0
 10
44.150000
 20
209.850000
  0
VERTEX
  8
0
 10
44.000000
 20
209.900000
  0
VERTEX
  8
0
 10
43.850000
 20
209.925000
  0
VERTEX
  8
0
 10
43.700000
 20
209.975000
  0
VERTEX
  8
0
 10
43.525000
 20
210.000000
  0
VERTEX
  8
0
 10
43.350000
 20
210.025000
  0
VERTEX
  8
0
 10
43.150000
 20
210.050000
  0
VERTEX
  8
0
 10
42.950000
 20
210.075000
  0
VERTEX
  8
0
 10
42.750000
 20
210.100000
  0
VERTEX
  8
0
 10
42.525000
 20
210.100000
  0
VERTEX
  8
0
 10
42.300000
 20
210.100000
  0
VERTEX
  8
0
 10
42.050000
 20
210.100000
  0
VERTEX
  8
0
 10
41.800000
 20
210.100000
  0
VERTEX
  8
0
 10
41.550000
 20
210.075000
  0
VERTEX
  8
0
 10
41.275000
 20
210.075000
  0
VERTEX
  8
0
 10
41.000000
 20
210.050000
  0
VERTEX
  8
0
 10
40.700000
 20
210.050000
  0
VERTEX
  8
0
 10
40.375000
 20
210.025000
  0
VERTEX
  8
0
 10
40.075000
 20
210.000000
  0
VERTEX
  8
0
 10
39.750000
 20
209.950000
  0
VERTEX
  8
0
 10
39.400000
 20
209.925000
  0
VERTEX
  8
0
 10
39.050000
 20
209.900000
  0
VERTEX
  8
0
 10
38.675000
 20
209.850000
  0
VERTEX
  8
0
 10
38.300000
 20
209.825000
  0
VERTEX
  8
0
 10
37.925000
 20
209.775000
  0
VERTEX
  8
0
 10
37.525000
 20
209.725000
  0
VERTEX
  8
0
 10
37.125000
 20
209.675000
  0
VERTEX
  8
0
 10
36.575000
 20
207.775000
  0
VERTEX
  8
0
 10
36.025000
 20
205.925000
  0
VERTEX
  8
0
 10
35.450000
 20
204.100000
  0
VERTEX
  8
0
 10
34.850000
 20
202.300000
  0
VERTEX
  8
0
 10
34.250000
 20
200.525000
  0
VERTEX
  8
0
 10
33.650000
 20
198.800000
  0
VERTEX
  8
0
 10
33.025000
 20
197.125000
  0
VERTEX
  8
0
 10
32.375000
 20
195.450000
  0
VERTEX
  8
0
 10
31.725000
 20
193.850000
  0
VERTEX
  8
0
 10
31.050000
 20
192.250000
  0
VERTEX
  8
0
 10
30.375000
 20
190.700000
  0
VERTEX
  8
0
 10
29.700000
 20
189.175000
  0
VERTEX
  8
0
 10
29.000000
 20
187.675000
  0
VERTEX
  8
0
 10
28.275000
 20
186.225000
  0
VERTEX
  8
0
 10
27.550000
 20
184.800000
  0
VERTEX
  8
0
 10
26.800000
 20
183.425000
  0
VERTEX
  8
0
 10
22.050000
 20
185.075000
  0
SEQEND
  8
0
  0
POLYLINE
  8
0
 66
     1
 70
     1
 40
0.200000
 41
0.200000
  0
VERTEX
  8
0
 10
63.600000
 20
195.400000
  0
VERTEX
  8
0
 10
63.550000
 20
195.600000
  0
VERTEX
  8
0
 10
63.475000
 20
195.825000
  0
VERTEX
  8
0
 10
63.425000
 20
196.025000
  0
VERTEX
  8
0
 10
63.375000
 20
196.225000
  0
VERTEX
  8
0
 10
63.300000
 20
196.450000
  0
VERTEX
  8
0
 10
63.250000
 20
196.650000
  0
VERTEX
  8
0
 10
63.175000
 20
196.850000
  0
VERTEX
  8
0
 10
63.125000
 20
197.050000
  0
VERTEX
  8
0
 10
63.050000
 20
197.250000
  0
VERTEX
  8
0
 10
63.000000
 20
197.450000
  0
VERTEX
  8
0
 10
62.925000
 20
197.675000
  0
VERTEX
  8
0
 10
62.875000
 20
197.875000
  0
VERTEX
  8
0
 10
62.800000
 20
198.075000
  0
VERTEX
  8
0
 10
62.750000
 20
198.250000
  0
VERTEX
  8
0
 10
62.675000
 20
198.450000
  0
VERTEX
  8
0
 10
62.625000
 20
198.650000
  0
VERTEX
  8
0
 10
62.550000
 20
198.850000
  0
VERTEX
  8
0
 10
62.500000
 20
199.050000
  0
VERTEX
  8
0
 10
62.425000
 20
199.250000
  0
VERTEX
  8
0
 10
62.350000
 20
199.450000
  0
VERTEX
  8
0
 10
62.300000
 20
199.625000
  0
VERTEX
  8
0
 10
62.225000
 20
199.825000
  0
VERTEX
  8
0
 10
62.150000
 20
200.025000
  0
VERTEX
  8
0
 10
62.100000
 20
200.200000
  0
VERTEX
  8
0
 10
62.025000
 20
200.400000
  0
VERTEX
  8
0
 10
61.950000
 20
200.575000
  0
VERTEX
  8
0
 10
61.875000
 20
200.775000
  0
VERTEX
  8
0
 10
61.825000
 20
200.950000
  0
VERTEX
  8
0
 10
61.750000
 20
201.150000
  0
VERTEX
  8
0
 10
61.675000
 20
201.325000
  0
VERTEX
  8
0
 10
61.600000
 20
201.525000
  0
VERTEX
  8
0
 10
61.525000
 20
201.700000
  0
VERTEX
  8
0
 10
61.450000
 20
201.875000
  0
VERTEX
  8
0
 10
61.400000
 20
202.075000
  0
VERTEX
  8
0
 10
61.325000
 20
202.250000
  0
VERTEX
  8
0
 10
61.250000
 20
202.425000
  0
VERTEX
  8
0
 10
61.175000
 20
202.600000
  0
VERTEX
  8
0
 10
61.100000
 20
202.775000
  0
VERTEX
  8
0
 10
61.025000
 20
202.975000
  0
VERTEX
  8
0
 10
60.950000
 20
203.150000
  0
VERTEX
  8
0
 10
60.875000
 20
203.325000
  0
VERTEX
  8
0
 10
60.800000
 20
203.500000
  0
VERTEX
  8
0
 10
60.725000
 20
203.675000
  0
VERTEX
  8
0
 10
60.650000
 20
203.850000
  0
VERTEX
  8
0
 10
60.575000
 20
204.025000
  0
VERTEX
  8
0
 10
60.500000
 20
204.175000
  0
VERTEX
  8
0
 10
60.425000
 20
204.350000
  0
VERTEX
  8
0
 10
60.350000
 20
204.525000
  0
VERTEX
  8
0
 10
60.275000
 20
204.700000
  0
VERTEX
  8
0
 10
60.200000
 20
204.875000
  0
VERTEX
  8
0
 10
60.100000
 20
205.025000
  0
VERTEX
  8
0
 10
60.025000
 20
205.200000
  0
VERTEX
  8
0
 10
59.950000
 20
205.375000
  0
VERTEX
  8
0
 10
59.875000
 20
205.525000
  0
VERTEX
  8
0
 10
59.800000
 20
205.700000
  0
VERTEX
  8
0
 10
59.700000
 20
205.875000
  0
VERTEX
  8
0
 10
59.625000
 20
206.025000
  0
VERTEX
  8
0
 10
59.550000
 20
206.200000
  0
VERTEX
  8
0
 10
59.475000
 20
206.350000
  0
VERTEX
  8
0
 10
59.375000
 20
206.500000
  0
VERTEX
  8
0
 10
59.300000
 20
206.675000
  0
VERTEX
  8
0
 10
59.225000
 20
206.825000
  0
VERTEX
  8
0
 10
59.125000
 20
206.975000
  0
VERTEX
  8
0
 10
59.050000
 20
207.150000
  0
VERTEX
  8
0
 10
58.975000
 20
207.300000
  0
VERTEX
  8
0
 10
58.875000
 20
207.450000
  0
VERTEX
  8
0
 10
58.800000
 20
207.600000
  0
VERTEX
  8
0
 10
58.700000
 20
207.775000
  0
VERTEX
  8
0
 10
58.625000
 20
207.925000
  0
VERTEX
  8
0
 10
58.550000
 20
208.075000
  0
VERTEX
  8
0
 10
58.450000
 20
208.225000
  0
VERTEX
  8
0
 10
58.375000
 20
208.375000
  0
VERTEX
  8
0
 10
58.275000
 20
208.525000
  0
VERTEX
  8
0
 10
58.200000
 20
208.675000
  0
VERTEX
  8
0
 10
58.100000
 20
208.825000
  0
VERTEX
  8
0
 10
58.000000
 20
208.975000
  0
VERTEX
  8
0
 10
57.925000
 20
209.100000
  0
VERTEX
  8
0
 10
57.825000
 20
209.250000
  0
VERTEX
  8
0
 10
57.750000
 20
209.400000
  0
VERTEX
  8
0
 10
57.650000
 20
209.550000
  0
VERTEX
  8
0
 10
57.575000
 20
209.700000
  0
VERTEX
  8
0
 10
57.475000
 20
209.825000
  0
VERTEX
  8
0
 10
57.375000
 20
209.975000
  0
VERTEX
  8
0
 10
57.300000
 20
210.100000
  0
VERTEX
  8
0
 10
57.200000
 20
210.250000
  0
VERTEX
  8
0
 10
57.100000
 20
210.400000
  0
VERTEX
  8
0
 10
57.000000
 20
210.525000
  0
VERTEX
  8
0
 10
56.925000
 20
210.675000
  0
VERTEX
  8
0
 10
56.825000
 20
210.800000
  0
VERTEX
  8
0
 10
56.725000
 20
210.950000
  0
VERTEX
  8
0
 10
56.625000
 20
211.075000
  0
VERTEX
  8
0
 10
56.550000
 20
211.200000
  0
VERTEX
  8
0
 10
56.450000
 20
211.350000
  0
VERTEX
  8
0
 10
56.350000
 20
211.475000
  0
VERTEX
  8
0
 10
56.250000
 20
211.600000
  0
VERTEX
  8
0
 10
56.150000
 20
211.725000
  0
VERTEX
  8
0
 10
56.050000
 20
211.875000
  0
VERTEX
  8
0
 10
55.950000
 20
212.000000
  0
VERTEX
  8
0
 10
55.850000
 20
212.125000
  0
VERTEX
  8
0
 10
55.775000
 20
212.250000
  0
VERTEX
  8
0
 10
55.675000
 20
212.375000
  0
VERTEX
  8
0
 10
55.575000
 20
212.500000
  0
VERTEX
  8
0
 10
55.475000
 20
212.625000
  0
VERTEX
  8
0
 10
55.375000
 20
212.750000
  0
VERTEX
  8
0
 10
55.275000
 20
212.875000
  0
VERTEX
  8
0
 10
55.175000
 20
213.000000
  0
VERTEX
  8
0
 10
55.075000
 20
213.125000
  0
VERTEX
  8
0
 10
54.950000
 20
213.225000
  0
VERTEX
  8
0
 10
54.850000
 20
213.350000
  0
VERTEX
  8
0
 10
54.750000
 20
213.475000
  0
VERTEX
  8
0
 10
54.650000
 20
213.600000
  0
VERTEX
  8
0
 10
54.550000
 20
213.700000
  0
VERTEX
  8
0
 10
54.450000
 20
213.825000
  0
VERTEX
  8
0
 10
54.350000
 20
213.950000
  0
VERTEX
  8
0
 10
54.250000
 20
214.050000
  0
VERTEX
  8
0
 10
54.125000
 20
214.175000
  0
VERTEX
  8
0
 10
54.025000
 20
214.275000
  0
VERTEX
  8
0
 10
53.925000
 20
214.400000
  0
VERTEX
  8
0
 10
53.825000
 20
214.500000
  0
VERTEX
  8
0
 10
53.725000
 20
214.625000
  0
VERTEX
  8
0
 10
53.600000
 20
214.725000
  0
VERTEX
  8
0
 10
53.500000
 20
214.850000
  0
VERTEX
  8
0
 10
53.400000
 20
214.950000
  0
VERTEX
  8
0
 10
53.275000
 20
215.050000
  0
VERTEX
  8
0
 10
53.175000
 20
215.150000
  0
VERTEX
  8
0
 10
53.075000
 20
215.275000
  0
VERTEX
  8
0
 10
52.950000
 20
215.375000
  0
VERTEX
  8
0
 10
52.850000
 20
215.475000
  0
VERTEX
  8
0
 10
56.575000
 20
218.150000
  0
VERTEX
  8
0
 10
56.700000
 20
218.025000
  0
VERTEX
  8
0
 10
56.850000
 20
217.875000
  0
VERTEX
  8
0
 10
56.975000
 20
217.750000
  0
VERTEX
  8
0
 10
57.100000
 20
217.600000
  0
VERTEX
  8
0
 10
57.225000
 20
217.475000
  0
VERTEX
  8
0
 10
57.350000
 20
217.325000
  0
VERTEX
  8
0
 10
57.475000
 20
217.200000
  0
VERTEX
  8
0
 10
57.625000
 20
217.050000
  0
VERTEX
  8
0
 10
57.750000
 20
216.925000
  0
VERTEX
  8
0
 10
57.875000
 20
216.775000
  0
VERTEX
  8
0
 10
58.000000
 20
216.625000
  0
VERTEX
  8
0
 10
58.125000
 20
216.500000
  0
VERTEX
  8
0
 10
58.250000
 20
216.350000
  0
VERTEX
  8
0
 10
58.375000
 20
216.200000
  0
VERTEX
  8
0
 10
58.475000
 20
216.075000
  0
VERTEX
  8
0
 10
58.600000
 20
215.925000
  0
VERTEX
  8
0
 10
58.725000
 20
215.775000
  0
VERTEX
  8
0
 10
58.850000
 20
215.650000
  0
VERTEX
  8
0
 10
58.975000
 20
215.500000
  0
VERTEX
  8
0
 10
59.100000
 20
215.350000
  0
VERTEX
  8
0
 10
59.200000
 20
215.200000
  0
VERTEX
  8
0
 10
59.325000
 20
215.075000
  0
VERTEX
  8
0
 10
59.450000
 20
214.925000
  0
VERTEX
  8
0
 10
59.575000
 20
214.775000
  0
VERTEX
  8
0
 10
59.675000
 20
214.625000
  0
VERTEX
  8
0
 10
59.800000
 20
214.475000
  0
VERTEX
  8
0
 10
59.900000
 20
214.325000
  0
VERTEX
  8
0
 10
60.025000
 20
214.200000
  0
VERTEX
  8
0
 10
60.150000
 20
214.050000
  0
VERTEX
  8
0
 10
60.250000
 20
213.900000
  0
VERTEX
  8
0
 10
60.375000
 20
213.750000
  0
VERTEX
  8
0
 10
60.475000
 20
213.600000
  0
VERTEX
  8
0
 10
60.575000
 20
213.450000
  0
VERTEX
  8
0
 10
60.700000
 20
213.300000
  0
VERTEX
  8
0
 10
60.800000
 20
213.150000
  0
VERTEX
  8
0
 10
60.925000
 20
213.000000
  0
VERTEX
  8
0
 10
61.025000
 20
212.850000
  0
VERTEX
  8
0
 10
61.125000
 20
212.700000
  0
VERTEX
  8
0
 10
61.250000
 20
212.550000
  0
VERTEX
  8
0
 10
61.350000
 20
212.375000
  0
VERTEX
  8
0
 10
61.450000
 20
212.225000
  0
VERTEX
  8
0
 10
61.550000
 20
212.075000
  0
VERTEX
  8
0
 10
61.650000
 20
211.925000
  0
VERTEX
  8
0
 10
61.775000
 20
211.775000
  0
VERTEX
  8
0
 10
61.875000
 20
211.625000
  0
VERTEX
  8
0
 10
61.975000
 20
211.450000
  0
VERTEX
  8
0
 10
62.075000
 20
211.300000
  0
VERTEX
  8
0
 10
62.175000
 20
211.150000
  0
VERTEX
  8
0
 10
62.275000
 20
211.000000
  0
VERTEX
  8
0
 10
62.375000
 20
210.825000
  0
VERTEX
  8
0
 10
62.475000
 20
210.675000
  0
VERTEX
  8
0
 10
62.575000
 20
210.525000
  0
VERTEX
  8
0
 10
62.675000
 20
210.375000
  0
VERTEX
  8
0
 10
62.775000
 20
210.200000
  0
VERTEX
  8
0
 10
62.875000
 20
210.050000
  0
VERTEX
  8
0
 10
62.950000
 20
209.875000
  0
VERTEX
  8
0
 10
63.050000
 20
209.725000
  0
VERTEX
  8
0
 10
63.150000
 20
209.575000
  0
VERTEX
  8
0
 10
63.250000
 20
209.400000
  0
VERTEX
  8
0
 10
63.325000
 20
209.250000
  0
VERTEX
  8
0
 10
63.425000
 20
209.075000
  0
VERTEX
  8
0
 10
63.525000
 20
208.925000
  0
VERTEX
  8
0
 10
63.600000
 20
208.750000
  0
VERTEX
  8
0
 10
63.700000
 20
208.600000
  0
VERTEX
  8
0
 10
63.800000
 20
208.425000
  0
VERTEX
  8
0
 10
63.875000
 20
208.275000
  0
VERTEX
  8
0
 10
63.975000
 20
208.100000
  0
VERTEX
  8
0
 10
64.050000
 20
207.950000
  0
VERTEX
  8
0
 10
64.150000
 20
207.775000
  0
VERTEX
  8
0
 10
64.225000
 20
207.600000
  0
VERTEX
  8
0
 10
64.325000
 20
207.450000
  0
VERTEX
  8
0
 10
64.400000
 20
207.275000
  0
VERTEX
  8
0
 10
64.500000
 20
207.100000
  0
VERTEX
  8
0
 10
64.575000
 20
206.950000
  0
VERTEX
  8
0
 10
64.650000
 20
206.775000
  0
VERTEX
  8
0
 10
64.750000
 20
206.600000
  0
VERTEX
  8
0
 10
64.825000
 20
206.425000
  0
VERTEX
  8
0
 10
64.900000
 20
206.275000
  0
VERTEX
  8
0
 10
64.975000
 20
206.100000
  0
VERTEX
  8
0
 10
65.075000
 20
205.925000
  0
VERTEX
  8
0
 10
65.150000
 20
205.750000
  0
VERTEX
  8
0
 10
65.225000
 20
205.575000
  0
VERTEX
  8
0
 10
65.300000
 20
205.425000
  0
VERTEX
  8
0
 10
65.375000
 20
205.250000
  0
VERTEX
  8
0
 10
65.450000
 20
205.075000
  0
VERTEX
  8
0
 10
65.525000
 20
204.900000
  0
VERTEX
  8
0
 10
65.600000
 20
204.725000
  0
VERTEX
  8
0
 10
65.675000
 20
204.550000
  0
VERTEX
  8
0
 10
65.750000
 20
204.375000
  0
VERTEX
  8
0
 10
65.825000
 20
204.200000
  0
VERTEX
  8
0
 10
65.900000
 20
204.025000
  0
VERTEX
  8
0
 10
65.975000
 20
203.850000
  0
VERTEX
  8
0
 10
66.050000
 20
203.675000
  0
VERTEX
  8
0
 10
66.125000
 20
203.500000
  0
VERTEX
  8
0
 10
66.200000
 20
203.325000
  0
VERTEX
  8
0
 10
66.250000
 20
203.150000
  0
VERTEX
  8
0
 10
66.325000
 20
202.975000
  0
VERTEX
  8
0
 10
66.400000
 20
202.800000
  0
VERTEX
  8
0
 10
66.475000
 20
202.625000
  0
VERTEX
  8
0
 10
66.525000
 20
202.450000
  0
VERTEX
  8
0
 10
66.600000
 20
202.275000
  0
VERTEX
  8
0
 10
66.675000
 20
202.075000
  0
VERTEX
  8
0
 10
66.725000
 20
201.900000
  0
VERTEX
  8
0
 10
66.800000
 20
201.725000
  0
VERTEX
  8
0
 10
66.850000
 20
201.550000
  0
VERTEX
  8
0
 10
66.925000
 20
201.350000
  0
VERTEX
  8
0
 10
66.975000
 20
201.175000
  0
VERTEX
  8
0
 10
67.050000
 20
201.000000
  0
VERTEX
  8
0
 10
67.100000
 20
200.825000
  0
VERTEX
  8
0
 10
67.175000
 20
200.625000
  0
VERTEX
  8
0
 10
67.225000
 20
200.450000
  0
VERTEX
  8
0
 10
67.300000
 20
200.275000
  0
VERTEX
  8
0
 10
67.350000
 20
200.075000
  0
VERTEX
  8
0
 10
67.400000
 20
199.900000
  0
VERTEX
  8
0
 10
67.475000
 20
199.725000
  0
VERTEX
  8
0
 10
67.525000
 20
199.525000
  0
VERTEX
  8
0
 10
67.575000
 20
199.350000
  0
VERTEX
  8
0
 10
67.625000
 20
199.150000
  0
VERTEX
  8
0
 10
67.675000
 20
198.975000
  0
VERTEX
  8
0
 10
67.750000
 20
198.775000
  0
VERTEX
  8
0
 10
67.800000
 20
198.600000
  0
VERTEX
  8
0
 10
67.850000
 20
198.400000
  0
VERTEX
  8
0
 10
67.900000
 20
198.225000
  0
VERTEX
  8
0
 10
67.950000
 20
198.025000
  0
VERTEX
  8
0
 10
68.000000
 20
197.850000
  0
VERTEX
  8
0
 10
68.050000
 20
197.650000
  0
VERTEX
  8
0
 10
68.100000
 20
197.475000
  0
VERTEX
  8
0
 10
68.150000
 20
197.275000
  0
VERTEX
  8
0
 10
63.600000
 20
195.400000
  0
SEQEND
  8
0
  0
ENDSEC
  0
EOF
