  0
SECTION
  2
HEADER
  9
$ACADVER
  1
AC1009
  9
$INSBASE
 10
0.000000
 20
0.000000
 30
0.000000
  9
$EXTMIN
 10
0.000000
 20
0.000000
  9
$EXTMAX
 10
190.000000
 20
257.000000
  9
$LIMMIN
 10
0.000000
 20
0.000000
  9
$LIMMAX
 10
190.000000
 20
257.000000
  9
$TEXTSIZE
 40
0.200000
  9
$TEXTSTYLE
  7
BIGFONT
  9
$CLAYER
  8
0
  9
$ANGBASE
 50
0.000000
  9
$ANGDIR
 70
     0
  0
ENDSEC
  0
SECTION
  2
TABLES
  0
TABLE
  2
LTYPE
 70
    11
  0
LTYPE
  2
BYBLOCK
 70
    64
  3
BYBLOCK
 72
    65
 73
     0
 40
0.000000
  0
LTYPE
  2
BYLAYER
 70
    64
  3
BYLAYER
 72
    65
 73
     0
 40
0.000000
  0
LTYPE
  2
CONTINUOUS
 70
    64
  3
é¿ê¸
 72
    65
 73
     0
 40
0.000000
  0
LTYPE
  2
DASHED
 70
    64
  3
__ __ __ __ __ __ __ __ __ __ __ __ __ __ __
 72
    65
 73
     2
 40
0.750000
 49
0.500000
 49
-0.250000
  0
LTYPE
  2
HIDDEN
 70
    64
  3
_ _ _ _ _ _ _ _ _ _ _ _ _ _ _ _ _ _ _ _ _ _ _
 72
    65
 73
     2
 40
0.375000
 49
0.250000
 49
-0.125000
  0
LTYPE
  2
CENTER
 70
    64
  3
____ _ ____ _ ____ _ ____ _ ____ _ ____ _ ____
 72
    65
 73
     4
 40
2.000000
 49
1.250000
 49
-0.250000
 49
0.250000
 49
-0.250000
  0
LTYPE
  2
PHANTOM
 70
    64
  3
_____ _ _ _____ _ _ _____ _ _ _____ _ _ ____
 72
    65
 73
     6
 40
2.500000
 49
1.250000
 49
-0.250000
 49
0.250000
 49
-0.250000
 49
0.250000
 49
-0.250000
  0
LTYPE
  2
DOT
 70
    64
  3
...............................................
 72
    65
 73
     2
 40
0.250000
 49
0.000000
 49
-0.250000
  0
LTYPE
  2
DASHDOT
 70
    64
  3
__ . __ . __ . __ . __ . __ . __ . __ . __ . __
 72
    65
 73
     4
 40
1.000000
 49
0.500000
 49
-0.250000
 49
0.000000
 49
-0.250000
  0
LTYPE
  2
BORDER
 70
    64
  3
__ __ . __ __ . __ __ . __ __ . __ __ . __ __
 72
    65
 73
     6
 40
1.750000
 49
0.500000
 49
-0.250000
 49
0.500000
 49
-0.250000
 49
0.000000
 49
-0.250000
  0
LTYPE
  2
DIVIDE
 70
    64
  3
__ . . __ . . __ . . __ . . __ . . __ . . __
 72
    65
 73
     6
 40
1.250000
 49
0.500000
 49
-0.250000
 49
0.000000
 49
-0.250000
 49
0.000000
 49
-0.250000
  0
ENDTAB
  0
TABLE
  2
LAYER
  5
a2
 70
     2
  0
LAYER
  5
a5
  2
0
 70
     0
 62
     7
  6
CONTINUOUS
  0
LAYER
  5
a8
  2
B
 70
     0
 62
     7
  6
CONTINUOUS
  0
LAYER
  5
ab
  2
C
 70
     0
 62
     7
  6
CONTINUOUS
  0
LAYER
  5
ae
  2
D
 70
     0
 62
     7
  6
CONTINUOUS
  0
LAYER
  5
b1
  2
E
 70
     0
 62
     7
  6
CONTINUOUS
  0
LAYER
  5
b4
  2
F
 70
     0
 62
     7
  6
CONTINUOUS
  0
LAYER
  5
b7
  2
G
 70
     0
 62
     7
  6
CONTINUOUS
  0
LAYER
  5
ba
  2
H
 70
     0
 62
     7
  6
CONTINUOUS
  0
LAYER
  5
bd
  2
I
 70
     0
 62
     7
  6
CONTINUOUS
  0
LAYER
  5
c0
  2
J
 70
     0
 62
     7
  6
CONTINUOUS
  0
LAYER
  5
c3
  2
K
 70
     0
 62
     7
  6
CONTINUOUS
  0
LAYER
  5
c6
  2
L
 70
     0
 62
     7
  6
CONTINUOUS
  0
LAYER
  5
c9
  2
M
 70
     0
 62
     7
  6
CONTINUOUS
  0
LAYER
  5
cc
  2
N
 70
     0
 62
     7
  6
CONTINUOUS
  0
ENDTAB
  0
TABLE
  2
STYLE
 70
     2
  0
STYLE
  2
STANDARD
 70
     0
 40
0.000000
 41
0.500000
 50
0.000000
 71
     0
 42
0.300000
  3
txt
  4

  0
STYLE
  2
BIGFONT
 70
    64
 40
0.000000
 41
1.000000
 50
0.000000
 71
     0
 42
0.200000
  3

  4
bigfont
  0
ENDTAB
  0
ENDSEC
  0
SECTION
  2
BLOCKS
  0
ENDSEC
  0
SECTION
  2
ENTITIES
  0
POLYLINE
  8
0
 66
     1
 70
     1
 40
0.200000
 41
0.200000
  0
VERTEX
  8
0
 10
49.775000
 20
218.275000
  0
VERTEX
  8
0
 10
49.900000
 20
217.950000
  0
VERTEX
  8
0
 10
50.025000
 20
217.625000
  0
VERTEX
  8
0
 10
50.150000
 20
217.275000
  0
VERTEX
  8
0
 10
50.275000
 20
216.950000
  0
VERTEX
  8
0
 10
50.425000
 20
216.600000
  0
VERTEX
  8
0
 10
50.575000
 20
216.275000
  0
VERTEX
  8
0
 10
50.725000
 20
215.925000
  0
VERTEX
  8
0
 10
50.875000
 20
215.575000
  0
VERTEX
  8
0
 10
51.050000
 20
215.225000
  0
VERTEX
  8
0
 10
51.225000
 20
214.900000
  0
VERTEX
  8
0
 10
51.400000
 20
214.550000
  0
VERTEX
  8
0
 10
51.600000
 20
214.200000
  0
VERTEX
  8
0
 10
51.800000
 20
213.850000
  0
VERTEX
  8
0
 10
52.000000
 20
213.475000
  0
VERTEX
  8
0
 10
52.200000
 20
213.125000
  0
VERTEX
  8
0
 10
52.425000
 20
212.775000
  0
VERTEX
  8
0
 10
53.300000
 20
212.925000
  0
VERTEX
  8
0
 10
54.175000
 20
213.050000
  0
VERTEX
  8
0
 10
55.050000
 20
213.225000
  0
VERTEX
  8
0
 10
55.925000
 20
213.375000
  0
VERTEX
  8
0
 10
56.800000
 20
213.550000
  0
VERTEX
  8
0
 10
57.675000
 20
213.725000
  0
VERTEX
  8
0
 10
58.550000
 20
213.900000
  0
VERTEX
  8
0
 10
59.425000
 20
214.075000
  0
VERTEX
  8
0
 10
60.300000
 20
214.275000
  0
VERTEX
  8
0
 10
61.150000
 20
214.475000
  0
VERTEX
  8
0
 10
62.025000
 20
214.700000
  0
VERTEX
  8
0
 10
62.875000
 20
214.900000
  0
VERTEX
  8
0
 10
63.750000
 20
215.125000
  0
VERTEX
  8
0
 10
64.600000
 20
215.375000
  0
VERTEX
  8
0
 10
65.475000
 20
215.600000
  0
VERTEX
  8
0
 10
66.325000
 20
215.850000
  0
VERTEX
  8
0
 10
68.300000
 20
211.225000
  0
VERTEX
  8
0
 10
67.575000
 20
211.050000
  0
VERTEX
  8
0
 10
66.825000
 20
210.900000
  0
VERTEX
  8
0
 10
66.075000
 20
210.750000
  0
VERTEX
  8
0
 10
65.300000
 20
210.575000
  0
VERTEX
  8
0
 10
64.525000
 20
210.425000
  0
VERTEX
  8
0
 10
63.725000
 20
210.275000
  0
VERTEX
  8
0
 10
62.900000
 20
210.125000
  0
VERTEX
  8
0
 10
62.075000
 20
209.975000
  0
VERTEX
  8
0
 10
61.225000
 20
209.825000
  0
VERTEX
  8
0
 10
60.350000
 20
209.675000
  0
VERTEX
  8
0
 10
59.475000
 20
209.525000
  0
VERTEX
  8
0
 10
58.575000
 20
209.375000
  0
VERTEX
  8
0
 10
57.675000
 20
209.225000
  0
VERTEX
  8
0
 10
56.750000
 20
209.075000
  0
VERTEX
  8
0
 10
55.800000
 20
208.950000
  0
VERTEX
  8
0
 10
54.850000
 20
208.800000
  0
VERTEX
  8
0
 10
55.275000
 20
208.250000
  0
VERTEX
  8
0
 10
55.700000
 20
207.700000
  0
VERTEX
  8
0
 10
56.150000
 20
207.175000
  0
VERTEX
  8
0
 10
56.625000
 20
206.625000
  0
VERTEX
  8
0
 10
57.100000
 20
206.100000
  0
VERTEX
  8
0
 10
57.600000
 20
205.575000
  0
VERTEX
  8
0
 10
58.125000
 20
205.025000
  0
VERTEX
  8
0
 10
58.650000
 20
204.500000
  0
VERTEX
  8
0
 10
59.200000
 20
203.975000
  0
VERTEX
  8
0
 10
59.750000
 20
203.475000
  0
VERTEX
  8
0
 10
60.325000
 20
202.950000
  0
VERTEX
  8
0
 10
60.925000
 20
202.450000
  0
VERTEX
  8
0
 10
61.525000
 20
201.925000
  0
VERTEX
  8
0
 10
62.150000
 20
201.425000
  0
VERTEX
  8
0
 10
62.800000
 20
200.925000
  0
VERTEX
  8
0
 10
63.450000
 20
200.425000
  0
VERTEX
  8
0
 10
59.700000
 20
196.675000
  0
VERTEX
  8
0
 10
58.725000
 20
196.900000
  0
VERTEX
  8
0
 10
57.775000
 20
197.100000
  0
VERTEX
  8
0
 10
56.825000
 20
197.275000
  0
VERTEX
  8
0
 10
55.925000
 20
197.450000
  0
VERTEX
  8
0
 10
55.050000
 20
197.600000
  0
VERTEX
  8
0
 10
54.200000
 20
197.750000
  0
VERTEX
  8
0
 10
53.375000
 20
197.875000
  0
VERTEX
  8
0
 10
52.600000
 20
198.000000
  0
VERTEX
  8
0
 10
51.825000
 20
198.100000
  0
VERTEX
  8
0
 10
51.075000
 20
198.200000
  0
VERTEX
  8
0
 10
50.350000
 20
198.275000
  0
VERTEX
  8
0
 10
49.650000
 20
198.350000
  0
VERTEX
  8
0
 10
48.975000
 20
198.375000
  0
VERTEX
  8
0
 10
48.350000
 20
198.425000
  0
VERTEX
  8
0
 10
47.725000
 20
198.450000
  0
VERTEX
  8
0
 10
47.125000
 20
198.450000
  0
VERTEX
  8
0
 10
46.050000
 20
198.450000
  0
VERTEX
  8
0
 10
45.025000
 20
198.400000
  0
VERTEX
  8
0
 10
44.025000
 20
198.350000
  0
VERTEX
  8
0
 10
43.100000
 20
198.275000
  0
VERTEX
  8
0
 10
42.225000
 20
198.200000
  0
VERTEX
  8
0
 10
41.375000
 20
198.075000
  0
VERTEX
  8
0
 10
40.600000
 20
197.925000
  0
VERTEX
  8
0
 10
39.850000
 20
197.775000
  0
VERTEX
  8
0
 10
39.150000
 20
197.600000
  0
VERTEX
  8
0
 10
38.525000
 20
197.400000
  0
VERTEX
  8
0
 10
37.925000
 20
197.200000
  0
VERTEX
  8
0
 10
37.375000
 20
196.950000
  0
VERTEX
  8
0
 10
36.875000
 20
196.700000
  0
VERTEX
  8
0
 10
36.425000
 20
196.425000
  0
VERTEX
  8
0
 10
36.025000
 20
196.125000
  0
VERTEX
  8
0
 10
35.675000
 20
195.800000
  0
VERTEX
  8
0
 10
35.475000
 20
195.600000
  0
VERTEX
  8
0
 10
35.300000
 20
195.400000
  0
VERTEX
  8
0
 10
35.150000
 20
195.225000
  0
VERTEX
  8
0
 10
35.000000
 20
195.025000
  0
VERTEX
  8
0
 10
34.850000
 20
194.800000
  0
VERTEX
  8
0
 10
34.725000
 20
194.600000
  0
VERTEX
  8
0
 10
34.600000
 20
194.400000
  0
VERTEX
  8
0
 10
34.500000
 20
194.200000
  0
VERTEX
  8
0
 10
34.425000
 20
193.975000
  0
VERTEX
  8
0
 10
34.350000
 20
193.775000
  0
VERTEX
  8
0
 10
34.275000
 20
193.550000
  0
VERTEX
  8
0
 10
34.225000
 20
193.350000
  0
VERTEX
  8
0
 10
34.175000
 20
193.125000
  0
VERTEX
  8
0
 10
34.150000
 20
192.925000
  0
VERTEX
  8
0
 10
34.125000
 20
192.700000
  0
VERTEX
  8
0
 10
34.125000
 20
192.475000
  0
VERTEX
  8
0
 10
34.125000
 20
192.200000
  0
VERTEX
  8
0
 10
34.150000
 20
191.950000
  0
VERTEX
  8
0
 10
34.175000
 20
191.700000
  0
VERTEX
  8
0
 10
34.200000
 20
191.450000
  0
VERTEX
  8
0
 10
34.250000
 20
191.200000
  0
VERTEX
  8
0
 10
34.325000
 20
190.950000
  0
VERTEX
  8
0
 10
34.375000
 20
190.725000
  0
VERTEX
  8
0
 10
34.450000
 20
190.500000
  0
VERTEX
  8
0
 10
34.550000
 20
190.300000
  0
VERTEX
  8
0
 10
34.650000
 20
190.075000
  0
VERTEX
  8
0
 10
34.750000
 20
189.875000
  0
VERTEX
  8
0
 10
34.875000
 20
189.675000
  0
VERTEX
  8
0
 10
35.000000
 20
189.475000
  0
VERTEX
  8
0
 10
35.150000
 20
189.300000
  0
VERTEX
  8
0
 10
35.300000
 20
189.125000
  0
VERTEX
  8
0
 10
35.450000
 20
188.950000
  0
VERTEX
  8
0
 10
35.700000
 20
188.725000
  0
VERTEX
  8
0
 10
36.000000
 20
188.525000
  0
VERTEX
  8
0
 10
36.325000
 20
188.350000
  0
VERTEX
  8
0
 10
36.725000
 20
188.175000
  0
VERTEX
  8
0
 10
37.175000
 20
188.025000
  0
VERTEX
  8
0
 10
37.675000
 20
187.875000
  0
VERTEX
  8
0
 10
38.225000
 20
187.750000
  0
VERTEX
  8
0
 10
38.800000
 20
187.625000
  0
VERTEX
  8
0
 10
39.450000
 20
187.525000
  0
VERTEX
  8
0
 10
40.150000
 20
187.450000
  0
VERTEX
  8
0
 10
40.900000
 20
187.375000
  0
VERTEX
  8
0
 10
41.700000
 20
187.300000
  0
VERTEX
  8
0
 10
42.525000
 20
187.250000
  0
VERTEX
  8
0
 10
43.425000
 20
187.225000
  0
VERTEX
  8
0
 10
44.375000
 20
187.200000
  0
VERTEX
  8
0
 10
45.375000
 20
187.200000
  0
VERTEX
  8
0
 10
58.825000
 20
187.200000
  0
VERTEX
  8
0
 10
57.925000
 20
182.350000
  0
VERTEX
  8
0
 10
44.475000
 20
182.350000
  0
VERTEX
  8
0
 10
43.400000
 20
182.375000
  0
VERTEX
  8
0
 10
42.350000
 20
182.400000
  0
VERTEX
  8
0
 10
41.350000
 20
182.475000
  0
VERTEX
  8
0
 10
40.400000
 20
182.575000
  0
VERTEX
  8
0
 10
39.475000
 20
182.700000
  0
VERTEX
  8
0
 10
38.625000
 20
182.850000
  0
VERTEX
  8
0
 10
37.775000
 20
183.025000
  0
VERTEX
  8
0
 10
37.000000
 20
183.225000
  0
VERTEX
  8
0
 10
36.250000
 20
183.475000
  0
VERTEX
  8
0
 10
35.525000
 20
183.725000
  0
VERTEX
  8
0
 10
34.875000
 20
184.025000
  0
VERTEX
  8
0
 10
34.250000
 20
184.325000
  0
VERTEX
  8
0
 10
33.650000
 20
184.675000
  0
VERTEX
  8
0
 10
33.125000
 20
185.050000
  0
VERTEX
  8
0
 10
32.600000
 20
185.450000
  0
VERTEX
  8
0
 10
32.150000
 20
185.875000
  0
VERTEX
  8
0
 10
31.825000
 20
186.200000
  0
VERTEX
  8
0
 10
31.525000
 20
186.550000
  0
VERTEX
  8
0
 10
31.250000
 20
186.925000
  0
VERTEX
  8
0
 10
30.975000
 20
187.300000
  0
VERTEX
  8
0
 10
30.750000
 20
187.675000
  0
VERTEX
  8
0
 10
30.525000
 20
188.075000
  0
VERTEX
  8
0
 10
30.325000
 20
188.475000
  0
VERTEX
  8
0
 10
30.150000
 20
188.900000
  0
VERTEX
  8
0
 10
30.000000
 20
189.325000
  0
VERTEX
  8
0
 10
29.875000
 20
189.775000
  0
VERTEX
  8
0
 10
29.750000
 20
190.250000
  0
VERTEX
  8
0
 10
29.675000
 20
190.700000
  0
VERTEX
  8
0
 10
29.600000
 20
191.200000
  0
VERTEX
  8
0
 10
29.550000
 20
191.675000
  0
VERTEX
  8
0
 10
29.500000
 20
192.175000
  0
VERTEX
  8
0
 10
29.500000
 20
192.700000
  0
VERTEX
  8
0
 10
29.500000
 20
193.100000
  0
VERTEX
  8
0
 10
29.550000
 20
193.500000
  0
VERTEX
  8
0
 10
29.575000
 20
193.900000
  0
VERTEX
  8
0
 10
29.650000
 20
194.300000
  0
VERTEX
  8
0
 10
29.725000
 20
194.675000
  0
VERTEX
  8
0
 10
29.850000
 20
195.050000
  0
VERTEX
  8
0
 10
29.950000
 20
195.425000
  0
VERTEX
  8
0
 10
30.100000
 20
195.800000
  0
VERTEX
  8
0
 10
30.275000
 20
196.150000
  0
VERTEX
  8
0
 10
30.450000
 20
196.500000
  0
VERTEX
  8
0
 10
30.650000
 20
196.850000
  0
VERTEX
  8
0
 10
30.850000
 20
197.175000
  0
VERTEX
  8
0
 10
31.100000
 20
197.500000
  0
VERTEX
  8
0
 10
31.350000
 20
197.825000
  0
VERTEX
  8
0
 10
31.625000
 20
198.150000
  0
VERTEX
  8
0
 10
31.925000
 20
198.450000
  0
VERTEX
  8
0
 10
32.425000
 20
198.900000
  0
VERTEX
  8
0
 10
32.975000
 20
199.325000
  0
VERTEX
  8
0
 10
33.600000
 20
199.725000
  0
VERTEX
  8
0
 10
34.300000
 20
200.100000
  0
VERTEX
  8
0
 10
35.050000
 20
200.425000
  0
VERTEX
  8
0
 10
35.850000
 20
200.725000
  0
VERTEX
  8
0
 10
36.725000
 20
201.025000
  0
VERTEX
  8
0
 10
37.650000
 20
201.250000
  0
VERTEX
  8
0
 10
38.650000
 20
201.475000
  0
VERTEX
  8
0
 10
39.700000
 20
201.675000
  0
VERTEX
  8
0
 10
40.825000
 20
201.825000
  0
VERTEX
  8
0
 10
42.000000
 20
201.975000
  0
VERTEX
  8
0
 10
43.250000
 20
202.075000
  0
VERTEX
  8
0
 10
44.550000
 20
202.150000
  0
VERTEX
  8
0
 10
45.925000
 20
202.175000
  0
VERTEX
  8
0
 10
47.350000
 20
202.200000
  0
VERTEX
  8
0
 10
47.850000
 20
202.200000
  0
VERTEX
  8
0
 10
48.350000
 20
202.200000
  0
VERTEX
  8
0
 10
48.850000
 20
202.175000
  0
VERTEX
  8
0
 10
49.350000
 20
202.150000
  0
VERTEX
  8
0
 10
49.825000
 20
202.125000
  0
VERTEX
  8
0
 10
50.325000
 20
202.100000
  0
VERTEX
  8
0
 10
50.825000
 20
202.075000
  0
VERTEX
  8
0
 10
51.325000
 20
202.025000
  0
VERTEX
  8
0
 10
51.825000
 20
201.975000
  0
VERTEX
  8
0
 10
52.325000
 20
201.925000
  0
VERTEX
  8
0
 10
52.825000
 20
201.875000
  0
VERTEX
  8
0
 10
53.325000
 20
201.825000
  0
VERTEX
  8
0
 10
53.800000
 20
201.750000
  0
VERTEX
  8
0
 10
54.300000
 20
201.675000
  0
VERTEX
  8
0
 10
54.800000
 20
201.600000
  0
VERTEX
  8
0
 10
55.300000
 20
201.525000
  0
VERTEX
  8
0
 10
54.925000
 20
201.925000
  0
VERTEX
  8
0
 10
54.525000
 20
202.350000
  0
VERTEX
  8
0
 10
54.150000
 20
202.750000
  0
VERTEX
  8
0
 10
53.800000
 20
203.175000
  0
VERTEX
  8
0
 10
53.425000
 20
203.575000
  0
VERTEX
  8
0
 10
53.075000
 20
203.975000
  0
VERTEX
  8
0
 10
52.725000
 20
204.375000
  0
VERTEX
  8
0
 10
52.375000
 20
204.775000
  0
VERTEX
  8
0
 10
52.025000
 20
205.175000
  0
VERTEX
  8
0
 10
51.700000
 20
205.575000
  0
VERTEX
  8
0
 10
51.350000
 20
205.975000
  0
VERTEX
  8
0
 10
51.025000
 20
206.375000
  0
VERTEX
  8
0
 10
50.700000
 20
206.750000
  0
VERTEX
  8
0
 10
50.400000
 20
207.150000
  0
VERTEX
  8
0
 10
50.075000
 20
207.550000
  0
VERTEX
  8
0
 10
49.775000
 20
207.925000
  0
VERTEX
  8
0
 10
48.475000
 20
207.775000
  0
VERTEX
  8
0
 10
47.150000
 20
207.625000
  0
VERTEX
  8
0
 10
45.825000
 20
207.475000
  0
VERTEX
  8
0
 10
44.475000
 20
207.350000
  0
VERTEX
  8
0
 10
43.100000
 20
207.225000
  0
VERTEX
  8
0
 10
41.725000
 20
207.125000
  0
VERTEX
  8
0
 10
40.325000
 20
207.025000
  0
VERTEX
  8
0
 10
38.925000
 20
206.925000
  0
VERTEX
  8
0
 10
37.500000
 20
206.850000
  0
VERTEX
  8
0
 10
36.050000
 20
206.800000
  0
VERTEX
  8
0
 10
34.600000
 20
206.725000
  0
VERTEX
  8
0
 10
33.125000
 20
206.675000
  0
VERTEX
  8
0
 10
31.625000
 20
206.650000
  0
VERTEX
  8
0
 10
30.125000
 20
206.625000
  0
VERTEX
  8
0
 10
28.600000
 20
206.600000
  0
VERTEX
  8
0
 10
27.075000
 20
206.600000
  0
VERTEX
  8
0
 10
26.400000
 20
211.225000
  0
VERTEX
  8
0
 10
27.800000
 20
211.200000
  0
VERTEX
  8
0
 10
29.200000
 20
211.200000
  0
VERTEX
  8
0
 10
30.575000
 20
211.200000
  0
VERTEX
  8
0
 10
31.950000
 20
211.200000
  0
VERTEX
  8
0
 10
33.300000
 20
211.225000
  0
VERTEX
  8
0
 10
34.650000
 20
211.250000
  0
VERTEX
  8
0
 10
35.975000
 20
211.275000
  0
VERTEX
  8
0
 10
37.325000
 20
211.325000
  0
VERTEX
  8
0
 10
38.625000
 20
211.400000
  0
VERTEX
  8
0
 10
39.950000
 20
211.475000
  0
VERTEX
  8
0
 10
41.250000
 20
211.550000
  0
VERTEX
  8
0
 10
42.525000
 20
211.625000
  0
VERTEX
  8
0
 10
43.800000
 20
211.725000
  0
VERTEX
  8
0
 10
45.075000
 20
211.850000
  0
VERTEX
  8
0
 10
46.325000
 20
211.975000
  0
VERTEX
  8
0
 10
47.575000
 20
212.100000
  0
VERTEX
  8
0
 10
47.375000
 20
212.450000
  0
VERTEX
  8
0
 10
47.200000
 20
212.825000
  0
VERTEX
  8
0
 10
47.025000
 20
213.175000
  0
VERTEX
  8
0
 10
46.850000
 20
213.525000
  0
VERTEX
  8
0
 10
46.675000
 20
213.875000
  0
VERTEX
  8
0
 10
46.500000
 20
214.225000
  0
VERTEX
  8
0
 10
46.350000
 20
214.575000
  0
VERTEX
  8
0
 10
46.200000
 20
214.925000
  0
VERTEX
  8
0
 10
46.050000
 20
215.250000
  0
VERTEX
  8
0
 10
45.900000
 20
215.600000
  0
VERTEX
  8
0
 10
45.750000
 20
215.950000
  0
VERTEX
  8
0
 10
45.625000
 20
216.275000
  0
VERTEX
  8
0
 10
45.500000
 20
216.625000
  0
VERTEX
  8
0
 10
45.375000
 20
216.950000
  0
VERTEX
  8
0
 10
45.250000
 20
217.300000
  0
VERTEX
  8
0
 10
45.150000
 20
217.625000
  0
VERTEX
  8
0
 10
44.125000
 20
217.550000
  0
VERTEX
  8
0
 10
43.100000
 20
217.475000
  0
VERTEX
  8
0
 10
42.075000
 20
217.400000
  0
VERTEX
  8
0
 10
41.025000
 20
217.325000
  0
VERTEX
  8
0
 10
39.975000
 20
217.275000
  0
VERTEX
  8
0
 10
38.925000
 20
217.225000
  0
VERTEX
  8
0
 10
37.875000
 20
217.175000
  0
VERTEX
  8
0
 10
36.825000
 20
217.125000
  0
VERTEX
  8
0
 10
35.750000
 20
217.075000
  0
VERTEX
  8
0
 10
34.700000
 20
217.050000
  0
VERTEX
  8
0
 10
33.625000
 20
217.025000
  0
VERTEX
  8
0
 10
32.550000
 20
217.000000
  0
VERTEX
  8
0
 10
31.450000
 20
216.975000
  0
VERTEX
  8
0
 10
30.375000
 20
216.950000
  0
VERTEX
  8
0
 10
29.275000
 20
216.950000
  0
VERTEX
  8
0
 10
28.175000
 20
216.950000
  0
VERTEX
  8
0
 10
27.725000
 20
221.375000
  0
VERTEX
  8
0
 10
28.850000
 20
221.350000
  0
VERTEX
  8
0
 10
29.950000
 20
221.325000
  0
VERTEX
  8
0
 10
31.050000
 20
221.325000
  0
VERTEX
  8
0
 10
32.125000
 20
221.325000
  0
VERTEX
  8
0
 10
33.200000
 20
221.325000
  0
VERTEX
  8
0
 10
34.250000
 20
221.325000
  0
VERTEX
  8
0
 10
35.300000
 20
221.350000
  0
VERTEX
  8
0
 10
36.325000
 20
221.375000
  0
VERTEX
  8
0
 10
37.350000
 20
221.400000
  0
VERTEX
  8
0
 10
38.350000
 20
221.450000
  0
VERTEX
  8
0
 10
39.325000
 20
221.500000
  0
VERTEX
  8
0
 10
40.300000
 20
221.550000
  0
VERTEX
  8
0
 10
41.250000
 20
221.600000
  0
VERTEX
  8
0
 10
42.200000
 20
221.675000
  0
VERTEX
  8
0
 10
43.125000
 20
221.750000
  0
VERTEX
  8
0
 10
44.050000
 20
221.825000
  0
VERTEX
  8
0
 10
43.900000
 20
222.325000
  0
VERTEX
  8
0
 10
43.775000
 20
222.825000
  0
VERTEX
  8
0
 10
43.650000
 20
223.350000
  0
VERTEX
  8
0
 10
43.525000
 20
223.875000
  0
VERTEX
  8
0
 10
43.400000
 20
224.400000
  0
VERTEX
  8
0
 10
43.275000
 20
224.950000
  0
VERTEX
  8
0
 10
43.150000
 20
225.500000
  0
VERTEX
  8
0
 10
43.050000
 20
226.050000
  0
VERTEX
  8
0
 10
42.950000
 20
226.625000
  0
VERTEX
  8
0
 10
42.825000
 20
227.200000
  0
VERTEX
  8
0
 10
42.725000
 20
227.800000
  0
VERTEX
  8
0
 10
42.625000
 20
228.375000
  0
VERTEX
  8
0
 10
42.550000
 20
229.000000
  0
VERTEX
  8
0
 10
42.450000
 20
229.600000
  0
VERTEX
  8
0
 10
42.350000
 20
230.225000
  0
VERTEX
  8
0
 10
42.275000
 20
230.850000
  0
VERTEX
  8
0
 10
47.125000
 20
230.850000
  0
VERTEX
  8
0
 10
47.375000
 20
230.800000
  0
VERTEX
  8
0
 10
47.625000
 20
230.725000
  0
VERTEX
  8
0
 10
47.800000
 20
230.650000
  0
VERTEX
  8
0
 10
47.975000
 20
230.575000
  0
VERTEX
  8
0
 10
48.100000
 20
230.475000
  0
VERTEX
  8
0
 10
48.200000
 20
230.400000
  0
VERTEX
  8
0
 10
48.250000
 20
230.300000
  0
VERTEX
  8
0
 10
48.300000
 20
230.200000
  0
VERTEX
  8
0
 10
48.275000
 20
230.075000
  0
VERTEX
  8
0
 10
48.250000
 20
229.950000
  0
VERTEX
  8
0
 10
48.175000
 20
229.825000
  0
VERTEX
  8
0
 10
48.075000
 20
229.700000
  0
VERTEX
  8
0
 10
47.950000
 20
229.550000
  0
VERTEX
  8
0
 10
47.775000
 20
229.425000
  0
VERTEX
  8
0
 10
47.575000
 20
229.250000
  0
VERTEX
  8
0
 10
47.350000
 20
229.100000
  0
VERTEX
  8
0
 10
47.400000
 20
228.675000
  0
VERTEX
  8
0
 10
47.475000
 20
228.275000
  0
VERTEX
  8
0
 10
47.525000
 20
227.850000
  0
VERTEX
  8
0
 10
47.600000
 20
227.425000
  0
VERTEX
  8
0
 10
47.650000
 20
227.025000
  0
VERTEX
  8
0
 10
47.725000
 20
226.600000
  0
VERTEX
  8
0
 10
47.775000
 20
226.200000
  0
VERTEX
  8
0
 10
47.850000
 20
225.775000
  0
VERTEX
  8
0
 10
47.925000
 20
225.375000
  0
VERTEX
  8
0
 10
48.000000
 20
224.950000
  0
VERTEX
  8
0
 10
48.075000
 20
224.550000
  0
VERTEX
  8
0
 10
48.150000
 20
224.125000
  0
VERTEX
  8
0
 10
48.225000
 20
223.725000
  0
VERTEX
  8
0
 10
48.300000
 20
223.300000
  0
VERTEX
  8
0
 10
48.375000
 20
222.900000
  0
VERTEX
  8
0
 10
48.450000
 20
222.475000
  0
VERTEX
  8
0
 10
49.175000
 20
222.575000
  0
VERTEX
  8
0
 10
49.900000
 20
222.650000
  0
VERTEX
  8
0
 10
50.600000
 20
222.750000
  0
VERTEX
  8
0
 10
51.325000
 20
222.875000
  0
VERTEX
  8
0
 10
52.050000
 20
222.975000
  0
VERTEX
  8
0
 10
52.775000
 20
223.100000
  0
VERTEX
  8
0
 10
53.525000
 20
223.225000
  0
VERTEX
  8
0
 10
54.250000
 20
223.350000
  0
VERTEX
  8
0
 10
54.975000
 20
223.500000
  0
VERTEX
  8
0
 10
55.700000
 20
223.650000
  0
VERTEX
  8
0
 10
56.450000
 20
223.800000
  0
VERTEX
  8
0
 10
57.175000
 20
223.950000
  0
VERTEX
  8
0
 10
57.925000
 20
224.125000
  0
VERTEX
  8
0
 10
58.675000
 20
224.300000
  0
VERTEX
  8
0
 10
59.400000
 20
224.475000
  0
VERTEX
  8
0
 10
60.150000
 20
224.675000
  0
VERTEX
  8
0
 10
61.675000
 20
220.275000
  0
VERTEX
  8
0
 10
60.750000
 20
220.125000
  0
VERTEX
  8
0
 10
59.850000
 20
219.950000
  0
VERTEX
  8
0
 10
58.975000
 20
219.800000
  0
VERTEX
  8
0
 10
58.125000
 20
219.650000
  0
VERTEX
  8
0
 10
57.300000
 20
219.525000
  0
VERTEX
  8
0
 10
56.500000
 20
219.375000
  0
VERTEX
  8
0
 10
55.700000
 20
219.250000
  0
VERTEX
  8
0
 10
54.950000
 20
219.125000
  0
VERTEX
  8
0
 10
54.225000
 20
219.000000
  0
VERTEX
  8
0
 10
53.525000
 20
218.875000
  0
VERTEX
  8
0
 10
52.825000
 20
218.750000
  0
VERTEX
  8
0
 10
52.175000
 20
218.650000
  0
VERTEX
  8
0
 10
51.550000
 20
218.550000
  0
VERTEX
  8
0
 10
50.925000
 20
218.450000
  0
VERTEX
  8
0
 10
50.350000
 20
218.350000
  0
VERTEX
  8
0
 10
49.775000
 20
218.275000
  0
SEQEND
  8
0
  0
ENDSEC
  0
EOF
