  0
SECTION
  2
HEADER
  9
$ACADVER
  1
AC1009
  9
$INSBASE
 10
0.000000
 20
0.000000
 30
0.000000
  9
$EXTMIN
 10
0.000000
 20
0.000000
  9
$EXTMAX
 10
190.000000
 20
257.000000
  9
$LIMMIN
 10
0.000000
 20
0.000000
  9
$LIMMAX
 10
190.000000
 20
257.000000
  9
$TEXTSIZE
 40
0.200000
  9
$TEXTSTYLE
  7
BIGFONT
  9
$CLAYER
  8
0
  9
$ANGBASE
 50
0.000000
  9
$ANGDIR
 70
     0
  0
ENDSEC
  0
SECTION
  2
TABLES
  0
TABLE
  2
LTYPE
 70
    11
  0
LTYPE
  2
BYBLOCK
 70
    64
  3
BYBLOCK
 72
    65
 73
     0
 40
0.000000
  0
LTYPE
  2
BYLAYER
 70
    64
  3
BYLAYER
 72
    65
 73
     0
 40
0.000000
  0
LTYPE
  2
CONTINUOUS
 70
    64
  3
é¿ê¸
 72
    65
 73
     0
 40
0.000000
  0
LTYPE
  2
DASHED
 70
    64
  3
__ __ __ __ __ __ __ __ __ __ __ __ __ __ __
 72
    65
 73
     2
 40
0.750000
 49
0.500000
 49
-0.250000
  0
LTYPE
  2
HIDDEN
 70
    64
  3
_ _ _ _ _ _ _ _ _ _ _ _ _ _ _ _ _ _ _ _ _ _ _
 72
    65
 73
     2
 40
0.375000
 49
0.250000
 49
-0.125000
  0
LTYPE
  2
CENTER
 70
    64
  3
____ _ ____ _ ____ _ ____ _ ____ _ ____ _ ____
 72
    65
 73
     4
 40
2.000000
 49
1.250000
 49
-0.250000
 49
0.250000
 49
-0.250000
  0
LTYPE
  2
PHANTOM
 70
    64
  3
_____ _ _ _____ _ _ _____ _ _ _____ _ _ ____
 72
    65
 73
     6
 40
2.500000
 49
1.250000
 49
-0.250000
 49
0.250000
 49
-0.250000
 49
0.250000
 49
-0.250000
  0
LTYPE
  2
DOT
 70
    64
  3
...............................................
 72
    65
 73
     2
 40
0.250000
 49
0.000000
 49
-0.250000
  0
LTYPE
  2
DASHDOT
 70
    64
  3
__ . __ . __ . __ . __ . __ . __ . __ . __ . __
 72
    65
 73
     4
 40
1.000000
 49
0.500000
 49
-0.250000
 49
0.000000
 49
-0.250000
  0
LTYPE
  2
BORDER
 70
    64
  3
__ __ . __ __ . __ __ . __ __ . __ __ . __ __
 72
    65
 73
     6
 40
1.750000
 49
0.500000
 49
-0.250000
 49
0.500000
 49
-0.250000
 49
0.000000
 49
-0.250000
  0
LTYPE
  2
DIVIDE
 70
    64
  3
__ . . __ . . __ . . __ . . __ . . __ . . __
 72
    65
 73
     6
 40
1.250000
 49
0.500000
 49
-0.250000
 49
0.000000
 49
-0.250000
 49
0.000000
 49
-0.250000
  0
ENDTAB
  0
TABLE
  2
LAYER
  5
a2
 70
     2
  0
LAYER
  5
a5
  2
0
 70
     0
 62
     7
  6
CONTINUOUS
  0
LAYER
  5
a8
  2
B
 70
     0
 62
     7
  6
CONTINUOUS
  0
LAYER
  5
ab
  2
C
 70
     0
 62
     7
  6
CONTINUOUS
  0
LAYER
  5
ae
  2
D
 70
     0
 62
     7
  6
CONTINUOUS
  0
LAYER
  5
b1
  2
E
 70
     0
 62
     7
  6
CONTINUOUS
  0
LAYER
  5
b4
  2
F
 70
     0
 62
     7
  6
CONTINUOUS
  0
LAYER
  5
b7
  2
G
 70
     0
 62
     7
  6
CONTINUOUS
  0
LAYER
  5
ba
  2
H
 70
     0
 62
     7
  6
CONTINUOUS
  0
LAYER
  5
bd
  2
I
 70
     0
 62
     7
  6
CONTINUOUS
  0
LAYER
  5
c0
  2
J
 70
     0
 62
     7
  6
CONTINUOUS
  0
LAYER
  5
c3
  2
K
 70
     0
 62
     7
  6
CONTINUOUS
  0
LAYER
  5
c6
  2
L
 70
     0
 62
     7
  6
CONTINUOUS
  0
LAYER
  5
c9
  2
M
 70
     0
 62
     7
  6
CONTINUOUS
  0
LAYER
  5
cc
  2
N
 70
     0
 62
     7
  6
CONTINUOUS
  0
ENDTAB
  0
TABLE
  2
STYLE
 70
     2
  0
STYLE
  2
STANDARD
 70
     0
 40
0.000000
 41
0.500000
 50
0.000000
 71
     0
 42
0.300000
  3
txt
  4

  0
STYLE
  2
BIGFONT
 70
    64
 40
0.000000
 41
1.000000
 50
0.000000
 71
     0
 42
0.200000
  3

  4
bigfont
  0
ENDTAB
  0
ENDSEC
  0
SECTION
  2
BLOCKS
  0
ENDSEC
  0
SECTION
  2
ENTITIES
  0
POLYLINE
  8
0
 66
     1
 70
     1
 40
0.200000
 41
0.200000
  0
VERTEX
  8
0
 10
30.925000
 20
206.800000
  0
VERTEX
  8
0
 10
30.925000
 20
206.950000
  0
VERTEX
  8
0
 10
30.925000
 20
207.125000
  0
VERTEX
  8
0
 10
30.950000
 20
207.275000
  0
VERTEX
  8
0
 10
30.975000
 20
207.450000
  0
VERTEX
  8
0
 10
30.975000
 20
207.600000
  0
VERTEX
  8
0
 10
31.025000
 20
207.750000
  0
VERTEX
  8
0
 10
31.050000
 20
207.925000
  0
VERTEX
  8
0
 10
31.075000
 20
208.075000
  0
VERTEX
  8
0
 10
31.125000
 20
208.225000
  0
VERTEX
  8
0
 10
31.175000
 20
208.400000
  0
VERTEX
  8
0
 10
31.225000
 20
208.550000
  0
VERTEX
  8
0
 10
31.275000
 20
208.700000
  0
VERTEX
  8
0
 10
31.350000
 20
208.850000
  0
VERTEX
  8
0
 10
31.425000
 20
209.000000
  0
VERTEX
  8
0
 10
31.500000
 20
209.175000
  0
VERTEX
  8
0
 10
31.575000
 20
209.325000
  0
VERTEX
  8
0
 10
31.650000
 20
209.475000
  0
VERTEX
  8
0
 10
31.725000
 20
209.625000
  0
VERTEX
  8
0
 10
31.825000
 20
209.775000
  0
VERTEX
  8
0
 10
31.925000
 20
209.925000
  0
VERTEX
  8
0
 10
32.025000
 20
210.075000
  0
VERTEX
  8
0
 10
32.150000
 20
210.225000
  0
VERTEX
  8
0
 10
32.250000
 20
210.375000
  0
VERTEX
  8
0
 10
32.375000
 20
210.525000
  0
VERTEX
  8
0
 10
32.500000
 20
210.675000
  0
VERTEX
  8
0
 10
32.625000
 20
210.825000
  0
VERTEX
  8
0
 10
32.750000
 20
210.975000
  0
VERTEX
  8
0
 10
32.900000
 20
211.125000
  0
VERTEX
  8
0
 10
33.050000
 20
211.275000
  0
VERTEX
  8
0
 10
33.175000
 20
211.425000
  0
VERTEX
  8
0
 10
33.350000
 20
211.575000
  0
VERTEX
  8
0
 10
33.500000
 20
211.725000
  0
VERTEX
  8
0
 10
34.450000
 20
212.600000
  0
VERTEX
  8
0
 10
35.350000
 20
213.475000
  0
VERTEX
  8
0
 10
36.250000
 20
214.350000
  0
VERTEX
  8
0
 10
37.150000
 20
215.175000
  0
VERTEX
  8
0
 10
38.000000
 20
216.025000
  0
VERTEX
  8
0
 10
38.825000
 20
216.825000
  0
VERTEX
  8
0
 10
39.650000
 20
217.650000
  0
VERTEX
  8
0
 10
40.450000
 20
218.425000
  0
VERTEX
  8
0
 10
41.225000
 20
219.200000
  0
VERTEX
  8
0
 10
41.975000
 20
219.975000
  0
VERTEX
  8
0
 10
42.700000
 20
220.725000
  0
VERTEX
  8
0
 10
43.400000
 20
221.450000
  0
VERTEX
  8
0
 10
44.100000
 20
222.175000
  0
VERTEX
  8
0
 10
44.775000
 20
222.875000
  0
VERTEX
  8
0
 10
45.400000
 20
223.575000
  0
VERTEX
  8
0
 10
46.050000
 20
224.250000
  0
VERTEX
  8
0
 10
46.650000
 20
224.925000
  0
VERTEX
  8
0
 10
47.225000
 20
225.575000
  0
VERTEX
  8
0
 10
47.800000
 20
226.200000
  0
VERTEX
  8
0
 10
48.325000
 20
226.825000
  0
VERTEX
  8
0
 10
48.850000
 20
227.450000
  0
VERTEX
  8
0
 10
49.350000
 20
228.050000
  0
VERTEX
  8
0
 10
49.825000
 20
228.625000
  0
VERTEX
  8
0
 10
50.275000
 20
229.200000
  0
VERTEX
  8
0
 10
50.725000
 20
229.750000
  0
VERTEX
  8
0
 10
51.125000
 20
230.300000
  0
VERTEX
  8
0
 10
51.525000
 20
230.825000
  0
VERTEX
  8
0
 10
51.900000
 20
231.350000
  0
VERTEX
  8
0
 10
52.250000
 20
231.850000
  0
VERTEX
  8
0
 10
52.575000
 20
232.350000
  0
VERTEX
  8
0
 10
52.900000
 20
232.825000
  0
VERTEX
  8
0
 10
53.175000
 20
233.275000
  0
VERTEX
  8
0
 10
57.400000
 20
230.000000
  0
VERTEX
  8
0
 10
57.525000
 20
229.850000
  0
VERTEX
  8
0
 10
57.650000
 20
229.725000
  0
VERTEX
  8
0
 10
57.750000
 20
229.575000
  0
VERTEX
  8
0
 10
57.850000
 20
229.450000
  0
VERTEX
  8
0
 10
57.925000
 20
229.325000
  0
VERTEX
  8
0
 10
58.000000
 20
229.225000
  0
VERTEX
  8
0
 10
58.075000
 20
229.100000
  0
VERTEX
  8
0
 10
58.125000
 20
229.000000
  0
VERTEX
  8
0
 10
58.150000
 20
228.900000
  0
VERTEX
  8
0
 10
58.200000
 20
228.800000
  0
VERTEX
  8
0
 10
58.200000
 20
228.725000
  0
VERTEX
  8
0
 10
58.225000
 20
228.625000
  0
VERTEX
  8
0
 10
58.225000
 20
228.550000
  0
VERTEX
  8
0
 10
58.225000
 20
228.475000
  0
VERTEX
  8
0
 10
58.200000
 20
228.400000
  0
VERTEX
  8
0
 10
58.175000
 20
228.350000
  0
VERTEX
  8
0
 10
58.125000
 20
228.300000
  0
VERTEX
  8
0
 10
58.075000
 20
228.250000
  0
VERTEX
  8
0
 10
58.000000
 20
228.200000
  0
VERTEX
  8
0
 10
57.925000
 20
228.150000
  0
VERTEX
  8
0
 10
57.850000
 20
228.125000
  0
VERTEX
  8
0
 10
57.750000
 20
228.100000
  0
VERTEX
  8
0
 10
57.650000
 20
228.075000
  0
VERTEX
  8
0
 10
57.525000
 20
228.050000
  0
VERTEX
  8
0
 10
57.400000
 20
228.050000
  0
VERTEX
  8
0
 10
57.275000
 20
228.050000
  0
VERTEX
  8
0
 10
57.125000
 20
228.050000
  0
VERTEX
  8
0
 10
56.975000
 20
228.050000
  0
VERTEX
  8
0
 10
56.800000
 20
228.050000
  0
VERTEX
  8
0
 10
56.625000
 20
228.075000
  0
VERTEX
  8
0
 10
56.425000
 20
228.100000
  0
VERTEX
  8
0
 10
56.225000
 20
228.125000
  0
VERTEX
  8
0
 10
56.000000
 20
227.800000
  0
VERTEX
  8
0
 10
55.750000
 20
227.450000
  0
VERTEX
  8
0
 10
55.475000
 20
227.075000
  0
VERTEX
  8
0
 10
55.175000
 20
226.700000
  0
VERTEX
  8
0
 10
54.850000
 20
226.300000
  0
VERTEX
  8
0
 10
54.500000
 20
225.875000
  0
VERTEX
  8
0
 10
54.125000
 20
225.425000
  0
VERTEX
  8
0
 10
53.750000
 20
224.975000
  0
VERTEX
  8
0
 10
53.350000
 20
224.525000
  0
VERTEX
  8
0
 10
52.900000
 20
224.025000
  0
VERTEX
  8
0
 10
52.450000
 20
223.525000
  0
VERTEX
  8
0
 10
51.975000
 20
223.000000
  0
VERTEX
  8
0
 10
51.475000
 20
222.450000
  0
VERTEX
  8
0
 10
50.950000
 20
221.900000
  0
VERTEX
  8
0
 10
50.400000
 20
221.325000
  0
VERTEX
  8
0
 10
49.850000
 20
220.725000
  0
VERTEX
  8
0
 10
49.250000
 20
220.125000
  0
VERTEX
  8
0
 10
48.650000
 20
219.500000
  0
VERTEX
  8
0
 10
48.000000
 20
218.850000
  0
VERTEX
  8
0
 10
47.350000
 20
218.200000
  0
VERTEX
  8
0
 10
46.675000
 20
217.525000
  0
VERTEX
  8
0
 10
45.975000
 20
216.825000
  0
VERTEX
  8
0
 10
45.250000
 20
216.100000
  0
VERTEX
  8
0
 10
44.500000
 20
215.375000
  0
VERTEX
  8
0
 10
43.725000
 20
214.625000
  0
VERTEX
  8
0
 10
42.950000
 20
213.850000
  0
VERTEX
  8
0
 10
42.125000
 20
213.075000
  0
VERTEX
  8
0
 10
41.300000
 20
212.275000
  0
VERTEX
  8
0
 10
40.425000
 20
211.450000
  0
VERTEX
  8
0
 10
39.550000
 20
210.625000
  0
VERTEX
  8
0
 10
38.650000
 20
209.775000
  0
VERTEX
  8
0
 10
37.725000
 20
208.900000
  0
VERTEX
  8
0
 10
37.675000
 20
208.850000
  0
VERTEX
  8
0
 10
37.600000
 20
208.775000
  0
VERTEX
  8
0
 10
37.550000
 20
208.725000
  0
VERTEX
  8
0
 10
37.500000
 20
208.675000
  0
VERTEX
  8
0
 10
37.450000
 20
208.625000
  0
VERTEX
  8
0
 10
37.400000
 20
208.550000
  0
VERTEX
  8
0
 10
37.350000
 20
208.500000
  0
VERTEX
  8
0
 10
37.325000
 20
208.450000
  0
VERTEX
  8
0
 10
37.275000
 20
208.400000
  0
VERTEX
  8
0
 10
37.225000
 20
208.350000
  0
VERTEX
  8
0
 10
37.200000
 20
208.300000
  0
VERTEX
  8
0
 10
37.150000
 20
208.225000
  0
VERTEX
  8
0
 10
37.125000
 20
208.175000
  0
VERTEX
  8
0
 10
37.075000
 20
208.125000
  0
VERTEX
  8
0
 10
37.050000
 20
208.075000
  0
VERTEX
  8
0
 10
37.025000
 20
208.025000
  0
VERTEX
  8
0
 10
36.975000
 20
207.975000
  0
VERTEX
  8
0
 10
36.950000
 20
207.925000
  0
VERTEX
  8
0
 10
36.925000
 20
207.875000
  0
VERTEX
  8
0
 10
36.900000
 20
207.825000
  0
VERTEX
  8
0
 10
36.900000
 20
207.775000
  0
VERTEX
  8
0
 10
36.875000
 20
207.725000
  0
VERTEX
  8
0
 10
36.850000
 20
207.700000
  0
VERTEX
  8
0
 10
36.825000
 20
207.650000
  0
VERTEX
  8
0
 10
36.825000
 20
207.600000
  0
VERTEX
  8
0
 10
36.800000
 20
207.550000
  0
VERTEX
  8
0
 10
36.800000
 20
207.500000
  0
VERTEX
  8
0
 10
36.800000
 20
207.450000
  0
VERTEX
  8
0
 10
36.775000
 20
207.400000
  0
VERTEX
  8
0
 10
36.775000
 20
207.375000
  0
VERTEX
  8
0
 10
36.775000
 20
207.325000
  0
VERTEX
  8
0
 10
36.775000
 20
207.275000
  0
VERTEX
  8
0
 10
36.775000
 20
207.175000
  0
VERTEX
  8
0
 10
36.775000
 20
207.100000
  0
VERTEX
  8
0
 10
36.775000
 20
207.025000
  0
VERTEX
  8
0
 10
36.800000
 20
206.925000
  0
VERTEX
  8
0
 10
36.800000
 20
206.850000
  0
VERTEX
  8
0
 10
36.800000
 20
206.775000
  0
VERTEX
  8
0
 10
36.825000
 20
206.675000
  0
VERTEX
  8
0
 10
36.825000
 20
206.600000
  0
VERTEX
  8
0
 10
36.850000
 20
206.525000
  0
VERTEX
  8
0
 10
36.875000
 20
206.450000
  0
VERTEX
  8
0
 10
36.900000
 20
206.375000
  0
VERTEX
  8
0
 10
36.900000
 20
206.300000
  0
VERTEX
  8
0
 10
36.925000
 20
206.250000
  0
VERTEX
  8
0
 10
36.950000
 20
206.175000
  0
VERTEX
  8
0
 10
36.975000
 20
206.100000
  0
VERTEX
  8
0
 10
37.025000
 20
206.025000
  0
VERTEX
  8
0
 10
37.050000
 20
205.975000
  0
VERTEX
  8
0
 10
37.075000
 20
205.900000
  0
VERTEX
  8
0
 10
37.125000
 20
205.850000
  0
VERTEX
  8
0
 10
37.150000
 20
205.775000
  0
VERTEX
  8
0
 10
37.200000
 20
205.725000
  0
VERTEX
  8
0
 10
37.225000
 20
205.675000
  0
VERTEX
  8
0
 10
37.275000
 20
205.625000
  0
VERTEX
  8
0
 10
37.325000
 20
205.550000
  0
VERTEX
  8
0
 10
37.350000
 20
205.500000
  0
VERTEX
  8
0
 10
37.400000
 20
205.450000
  0
VERTEX
  8
0
 10
37.450000
 20
205.400000
  0
VERTEX
  8
0
 10
37.500000
 20
205.350000
  0
VERTEX
  8
0
 10
37.550000
 20
205.300000
  0
VERTEX
  8
0
 10
37.600000
 20
205.250000
  0
VERTEX
  8
0
 10
37.675000
 20
205.225000
  0
VERTEX
  8
0
 10
37.725000
 20
205.175000
  0
VERTEX
  8
0
 10
38.550000
 20
204.525000
  0
VERTEX
  8
0
 10
39.350000
 20
203.900000
  0
VERTEX
  8
0
 10
40.150000
 20
203.250000
  0
VERTEX
  8
0
 10
40.925000
 20
202.625000
  0
VERTEX
  8
0
 10
41.700000
 20
201.975000
  0
VERTEX
  8
0
 10
42.475000
 20
201.350000
  0
VERTEX
  8
0
 10
43.225000
 20
200.725000
  0
VERTEX
  8
0
 10
43.975000
 20
200.100000
  0
VERTEX
  8
0
 10
44.700000
 20
199.475000
  0
VERTEX
  8
0
 10
45.425000
 20
198.850000
  0
VERTEX
  8
0
 10
46.125000
 20
198.225000
  0
VERTEX
  8
0
 10
46.850000
 20
197.600000
  0
VERTEX
  8
0
 10
47.525000
 20
196.975000
  0
VERTEX
  8
0
 10
48.225000
 20
196.375000
  0
VERTEX
  8
0
 10
48.900000
 20
195.750000
  0
VERTEX
  8
0
 10
49.550000
 20
195.150000
  0
VERTEX
  8
0
 10
50.200000
 20
194.550000
  0
VERTEX
  8
0
 10
50.850000
 20
193.950000
  0
VERTEX
  8
0
 10
51.475000
 20
193.325000
  0
VERTEX
  8
0
 10
52.100000
 20
192.725000
  0
VERTEX
  8
0
 10
52.725000
 20
192.150000
  0
VERTEX
  8
0
 10
53.325000
 20
191.550000
  0
VERTEX
  8
0
 10
53.925000
 20
190.950000
  0
VERTEX
  8
0
 10
54.500000
 20
190.350000
  0
VERTEX
  8
0
 10
55.075000
 20
189.775000
  0
VERTEX
  8
0
 10
55.625000
 20
189.175000
  0
VERTEX
  8
0
 10
56.200000
 20
188.600000
  0
VERTEX
  8
0
 10
56.725000
 20
188.025000
  0
VERTEX
  8
0
 10
57.275000
 20
187.450000
  0
VERTEX
  8
0
 10
57.775000
 20
186.875000
  0
VERTEX
  8
0
 10
58.300000
 20
186.300000
  0
VERTEX
  8
0
 10
58.800000
 20
185.725000
  0
VERTEX
  8
0
 10
54.575000
 20
181.500000
  0
VERTEX
  8
0
 10
54.050000
 20
182.100000
  0
VERTEX
  8
0
 10
53.550000
 20
182.700000
  0
VERTEX
  8
0
 10
53.000000
 20
183.300000
  0
VERTEX
  8
0
 10
52.475000
 20
183.900000
  0
VERTEX
  8
0
 10
51.925000
 20
184.525000
  0
VERTEX
  8
0
 10
51.375000
 20
185.125000
  0
VERTEX
  8
0
 10
50.825000
 20
185.725000
  0
VERTEX
  8
0
 10
50.250000
 20
186.350000
  0
VERTEX
  8
0
 10
49.675000
 20
186.950000
  0
VERTEX
  8
0
 10
49.100000
 20
187.575000
  0
VERTEX
  8
0
 10
48.500000
 20
188.200000
  0
VERTEX
  8
0
 10
47.900000
 20
188.800000
  0
VERTEX
  8
0
 10
47.300000
 20
189.425000
  0
VERTEX
  8
0
 10
46.700000
 20
190.050000
  0
VERTEX
  8
0
 10
46.075000
 20
190.650000
  0
VERTEX
  8
0
 10
45.450000
 20
191.275000
  0
VERTEX
  8
0
 10
44.825000
 20
191.900000
  0
VERTEX
  8
0
 10
44.175000
 20
192.525000
  0
VERTEX
  8
0
 10
43.525000
 20
193.150000
  0
VERTEX
  8
0
 10
42.875000
 20
193.775000
  0
VERTEX
  8
0
 10
42.200000
 20
194.425000
  0
VERTEX
  8
0
 10
41.550000
 20
195.050000
  0
VERTEX
  8
0
 10
40.875000
 20
195.675000
  0
VERTEX
  8
0
 10
40.175000
 20
196.300000
  0
VERTEX
  8
0
 10
39.500000
 20
196.950000
  0
VERTEX
  8
0
 10
38.800000
 20
197.575000
  0
VERTEX
  8
0
 10
38.075000
 20
198.225000
  0
VERTEX
  8
0
 10
37.375000
 20
198.850000
  0
VERTEX
  8
0
 10
36.650000
 20
199.500000
  0
VERTEX
  8
0
 10
35.925000
 20
200.150000
  0
VERTEX
  8
0
 10
35.200000
 20
200.775000
  0
VERTEX
  8
0
 10
34.450000
 20
201.425000
  0
VERTEX
  8
0
 10
34.225000
 20
201.625000
  0
VERTEX
  8
0
 10
34.025000
 20
201.800000
  0
VERTEX
  8
0
 10
33.825000
 20
202.000000
  0
VERTEX
  8
0
 10
33.625000
 20
202.175000
  0
VERTEX
  8
0
 10
33.425000
 20
202.350000
  0
VERTEX
  8
0
 10
33.250000
 20
202.550000
  0
VERTEX
  8
0
 10
33.075000
 20
202.725000
  0
VERTEX
  8
0
 10
32.900000
 20
202.900000
  0
VERTEX
  8
0
 10
32.750000
 20
203.075000
  0
VERTEX
  8
0
 10
32.600000
 20
203.250000
  0
VERTEX
  8
0
 10
32.450000
 20
203.425000
  0
VERTEX
  8
0
 10
32.300000
 20
203.600000
  0
VERTEX
  8
0
 10
32.175000
 20
203.775000
  0
VERTEX
  8
0
 10
32.050000
 20
203.950000
  0
VERTEX
  8
0
 10
31.925000
 20
204.125000
  0
VERTEX
  8
0
 10
31.800000
 20
204.300000
  0
VERTEX
  8
0
 10
31.700000
 20
204.450000
  0
VERTEX
  8
0
 10
31.600000
 20
204.625000
  0
VERTEX
  8
0
 10
31.500000
 20
204.800000
  0
VERTEX
  8
0
 10
31.425000
 20
204.950000
  0
VERTEX
  8
0
 10
31.350000
 20
205.125000
  0
VERTEX
  8
0
 10
31.275000
 20
205.275000
  0
VERTEX
  8
0
 10
31.200000
 20
205.425000
  0
VERTEX
  8
0
 10
31.150000
 20
205.600000
  0
VERTEX
  8
0
 10
31.100000
 20
205.750000
  0
VERTEX
  8
0
 10
31.050000
 20
205.900000
  0
VERTEX
  8
0
 10
31.000000
 20
206.050000
  0
VERTEX
  8
0
 10
30.975000
 20
206.200000
  0
VERTEX
  8
0
 10
30.950000
 20
206.350000
  0
VERTEX
  8
0
 10
30.950000
 20
206.500000
  0
VERTEX
  8
0
 10
30.925000
 20
206.650000
  0
VERTEX
  8
0
 10
30.925000
 20
206.800000
  0
SEQEND
  8
0
  0
ENDSEC
  0
EOF
