  0
SECTION
  2
HEADER
  9
$ACADVER
  1
AC1009
  9
$INSBASE
 10
0.000000
 20
0.000000
 30
0.000000
  9
$EXTMIN
 10
0.000000
 20
0.000000
  9
$EXTMAX
 10
190.000000
 20
257.000000
  9
$LIMMIN
 10
0.000000
 20
0.000000
  9
$LIMMAX
 10
190.000000
 20
257.000000
  9
$TEXTSIZE
 40
0.200000
  9
$TEXTSTYLE
  7
BIGFONT
  9
$CLAYER
  8
0
  9
$ANGBASE
 50
0.000000
  9
$ANGDIR
 70
     0
  0
ENDSEC
  0
SECTION
  2
TABLES
  0
TABLE
  2
LTYPE
 70
    11
  0
LTYPE
  2
BYBLOCK
 70
    64
  3
BYBLOCK
 72
    65
 73
     0
 40
0.000000
  0
LTYPE
  2
BYLAYER
 70
    64
  3
BYLAYER
 72
    65
 73
     0
 40
0.000000
  0
LTYPE
  2
CONTINUOUS
 70
    64
  3
é¿ê¸
 72
    65
 73
     0
 40
0.000000
  0
LTYPE
  2
DASHED
 70
    64
  3
__ __ __ __ __ __ __ __ __ __ __ __ __ __ __
 72
    65
 73
     2
 40
0.750000
 49
0.500000
 49
-0.250000
  0
LTYPE
  2
HIDDEN
 70
    64
  3
_ _ _ _ _ _ _ _ _ _ _ _ _ _ _ _ _ _ _ _ _ _ _
 72
    65
 73
     2
 40
0.375000
 49
0.250000
 49
-0.125000
  0
LTYPE
  2
CENTER
 70
    64
  3
____ _ ____ _ ____ _ ____ _ ____ _ ____ _ ____
 72
    65
 73
     4
 40
2.000000
 49
1.250000
 49
-0.250000
 49
0.250000
 49
-0.250000
  0
LTYPE
  2
PHANTOM
 70
    64
  3
_____ _ _ _____ _ _ _____ _ _ _____ _ _ ____
 72
    65
 73
     6
 40
2.500000
 49
1.250000
 49
-0.250000
 49
0.250000
 49
-0.250000
 49
0.250000
 49
-0.250000
  0
LTYPE
  2
DOT
 70
    64
  3
...............................................
 72
    65
 73
     2
 40
0.250000
 49
0.000000
 49
-0.250000
  0
LTYPE
  2
DASHDOT
 70
    64
  3
__ . __ . __ . __ . __ . __ . __ . __ . __ . __
 72
    65
 73
     4
 40
1.000000
 49
0.500000
 49
-0.250000
 49
0.000000
 49
-0.250000
  0
LTYPE
  2
BORDER
 70
    64
  3
__ __ . __ __ . __ __ . __ __ . __ __ . __ __
 72
    65
 73
     6
 40
1.750000
 49
0.500000
 49
-0.250000
 49
0.500000
 49
-0.250000
 49
0.000000
 49
-0.250000
  0
LTYPE
  2
DIVIDE
 70
    64
  3
__ . . __ . . __ . . __ . . __ . . __ . . __
 72
    65
 73
     6
 40
1.250000
 49
0.500000
 49
-0.250000
 49
0.000000
 49
-0.250000
 49
0.000000
 49
-0.250000
  0
ENDTAB
  0
TABLE
  2
LAYER
  5
a2
 70
     2
  0
LAYER
  5
a5
  2
0
 70
     0
 62
     7
  6
CONTINUOUS
  0
LAYER
  5
a8
  2
B
 70
     0
 62
     7
  6
CONTINUOUS
  0
LAYER
  5
ab
  2
C
 70
     0
 62
     7
  6
CONTINUOUS
  0
LAYER
  5
ae
  2
D
 70
     0
 62
     7
  6
CONTINUOUS
  0
LAYER
  5
b1
  2
E
 70
     0
 62
     7
  6
CONTINUOUS
  0
LAYER
  5
b4
  2
F
 70
     0
 62
     7
  6
CONTINUOUS
  0
LAYER
  5
b7
  2
G
 70
     0
 62
     7
  6
CONTINUOUS
  0
LAYER
  5
ba
  2
H
 70
     0
 62
     7
  6
CONTINUOUS
  0
LAYER
  5
bd
  2
I
 70
     0
 62
     7
  6
CONTINUOUS
  0
LAYER
  5
c0
  2
J
 70
     0
 62
     7
  6
CONTINUOUS
  0
LAYER
  5
c3
  2
K
 70
     0
 62
     7
  6
CONTINUOUS
  0
LAYER
  5
c6
  2
L
 70
     0
 62
     7
  6
CONTINUOUS
  0
LAYER
  5
c9
  2
M
 70
     0
 62
     7
  6
CONTINUOUS
  0
LAYER
  5
cc
  2
N
 70
     0
 62
     7
  6
CONTINUOUS
  0
ENDTAB
  0
TABLE
  2
STYLE
 70
     2
  0
STYLE
  2
STANDARD
 70
     0
 40
0.000000
 41
0.500000
 50
0.000000
 71
     0
 42
0.300000
  3
txt
  4

  0
STYLE
  2
BIGFONT
 70
    64
 40
0.000000
 41
1.000000
 50
0.000000
 71
     0
 42
0.200000
  3

  4
bigfont
  0
ENDTAB
  0
ENDSEC
  0
SECTION
  2
BLOCKS
  0
ENDSEC
  0
SECTION
  2
ENTITIES
  0
POLYLINE
  8
0
 66
     1
 70
     1
 40
0.200000
 41
0.200000
  0
VERTEX
  8
0
 10
70.450000
 20
196.650000
  0
VERTEX
  8
0
 10
70.450000
 20
195.750000
  0
VERTEX
  8
0
 10
70.425000
 20
194.875000
  0
VERTEX
  8
0
 10
70.375000
 20
193.975000
  0
VERTEX
  8
0
 10
70.325000
 20
193.100000
  0
VERTEX
  8
0
 10
70.250000
 20
192.250000
  0
VERTEX
  8
0
 10
70.150000
 20
191.400000
  0
VERTEX
  8
0
 10
70.050000
 20
190.550000
  0
VERTEX
  8
0
 10
69.925000
 20
189.700000
  0
VERTEX
  8
0
 10
69.775000
 20
188.875000
  0
VERTEX
  8
0
 10
69.625000
 20
188.050000
  0
VERTEX
  8
0
 10
69.450000
 20
187.225000
  0
VERTEX
  8
0
 10
69.275000
 20
186.400000
  0
VERTEX
  8
0
 10
69.050000
 20
185.600000
  0
VERTEX
  8
0
 10
68.850000
 20
184.800000
  0
VERTEX
  8
0
 10
68.600000
 20
184.025000
  0
VERTEX
  8
0
 10
68.350000
 20
183.250000
  0
VERTEX
  8
0
 10
68.075000
 20
182.475000
  0
VERTEX
  8
0
 10
67.800000
 20
181.700000
  0
VERTEX
  8
0
 10
67.475000
 20
180.950000
  0
VERTEX
  8
0
 10
67.175000
 20
180.200000
  0
VERTEX
  8
0
 10
66.825000
 20
179.450000
  0
VERTEX
  8
0
 10
66.475000
 20
178.725000
  0
VERTEX
  8
0
 10
66.100000
 20
178.000000
  0
VERTEX
  8
0
 10
65.725000
 20
177.275000
  0
VERTEX
  8
0
 10
65.300000
 20
176.575000
  0
VERTEX
  8
0
 10
64.900000
 20
175.875000
  0
VERTEX
  8
0
 10
64.450000
 20
175.175000
  0
VERTEX
  8
0
 10
64.000000
 20
174.500000
  0
VERTEX
  8
0
 10
63.525000
 20
173.825000
  0
VERTEX
  8
0
 10
63.050000
 20
173.150000
  0
VERTEX
  8
0
 10
62.550000
 20
172.475000
  0
VERTEX
  8
0
 10
62.025000
 20
171.825000
  0
VERTEX
  8
0
 10
56.825000
 20
174.800000
  0
VERTEX
  8
0
 10
57.350000
 20
175.425000
  0
VERTEX
  8
0
 10
57.875000
 20
176.050000
  0
VERTEX
  8
0
 10
58.375000
 20
176.700000
  0
VERTEX
  8
0
 10
58.850000
 20
177.325000
  0
VERTEX
  8
0
 10
59.325000
 20
177.975000
  0
VERTEX
  8
0
 10
59.775000
 20
178.625000
  0
VERTEX
  8
0
 10
60.200000
 20
179.300000
  0
VERTEX
  8
0
 10
60.625000
 20
179.950000
  0
VERTEX
  8
0
 10
61.025000
 20
180.625000
  0
VERTEX
  8
0
 10
61.400000
 20
181.300000
  0
VERTEX
  8
0
 10
61.750000
 20
181.975000
  0
VERTEX
  8
0
 10
62.100000
 20
182.675000
  0
VERTEX
  8
0
 10
62.450000
 20
183.350000
  0
VERTEX
  8
0
 10
62.750000
 20
184.050000
  0
VERTEX
  8
0
 10
63.050000
 20
184.750000
  0
VERTEX
  8
0
 10
63.325000
 20
185.475000
  0
VERTEX
  8
0
 10
63.600000
 20
186.200000
  0
VERTEX
  8
0
 10
63.825000
 20
186.900000
  0
VERTEX
  8
0
 10
64.075000
 20
187.625000
  0
VERTEX
  8
0
 10
64.275000
 20
188.375000
  0
VERTEX
  8
0
 10
64.475000
 20
189.100000
  0
VERTEX
  8
0
 10
64.650000
 20
189.850000
  0
VERTEX
  8
0
 10
64.800000
 20
190.600000
  0
VERTEX
  8
0
 10
64.950000
 20
191.350000
  0
VERTEX
  8
0
 10
65.075000
 20
192.125000
  0
VERTEX
  8
0
 10
65.200000
 20
192.900000
  0
VERTEX
  8
0
 10
65.300000
 20
193.675000
  0
VERTEX
  8
0
 10
65.375000
 20
194.450000
  0
VERTEX
  8
0
 10
65.425000
 20
195.225000
  0
VERTEX
  8
0
 10
65.475000
 20
196.025000
  0
VERTEX
  8
0
 10
65.500000
 20
196.825000
  0
VERTEX
  8
0
 10
65.500000
 20
197.625000
  0
VERTEX
  8
0
 10
65.500000
 20
204.575000
  0
VERTEX
  8
0
 10
64.925000
 20
204.525000
  0
VERTEX
  8
0
 10
64.325000
 20
204.475000
  0
VERTEX
  8
0
 10
63.750000
 20
204.450000
  0
VERTEX
  8
0
 10
63.150000
 20
204.400000
  0
VERTEX
  8
0
 10
62.575000
 20
204.350000
  0
VERTEX
  8
0
 10
62.000000
 20
204.325000
  0
VERTEX
  8
0
 10
61.425000
 20
204.275000
  0
VERTEX
  8
0
 10
60.850000
 20
204.250000
  0
VERTEX
  8
0
 10
60.275000
 20
204.200000
  0
VERTEX
  8
0
 10
59.700000
 20
204.175000
  0
VERTEX
  8
0
 10
59.150000
 20
204.150000
  0
VERTEX
  8
0
 10
58.575000
 20
204.125000
  0
VERTEX
  8
0
 10
58.000000
 20
204.100000
  0
VERTEX
  8
0
 10
57.450000
 20
204.050000
  0
VERTEX
  8
0
 10
56.875000
 20
204.025000
  0
VERTEX
  8
0
 10
56.325000
 20
204.000000
  0
VERTEX
  8
0
 10
55.775000
 20
204.000000
  0
VERTEX
  8
0
 10
55.200000
 20
203.975000
  0
VERTEX
  8
0
 10
54.650000
 20
203.950000
  0
VERTEX
  8
0
 10
54.100000
 20
203.925000
  0
VERTEX
  8
0
 10
53.550000
 20
203.925000
  0
VERTEX
  8
0
 10
53.000000
 20
203.900000
  0
VERTEX
  8
0
 10
52.450000
 20
203.875000
  0
VERTEX
  8
0
 10
51.925000
 20
203.875000
  0
VERTEX
  8
0
 10
51.375000
 20
203.850000
  0
VERTEX
  8
0
 10
50.850000
 20
203.850000
  0
VERTEX
  8
0
 10
50.300000
 20
203.850000
  0
VERTEX
  8
0
 10
49.775000
 20
203.825000
  0
VERTEX
  8
0
 10
49.225000
 20
203.825000
  0
VERTEX
  8
0
 10
48.700000
 20
203.825000
  0
VERTEX
  8
0
 10
48.175000
 20
203.825000
  0
VERTEX
  8
0
 10
47.650000
 20
203.825000
  0
VERTEX
  8
0
 10
47.650000
 20
209.300000
  0
VERTEX
  8
0
 10
48.175000
 20
209.275000
  0
VERTEX
  8
0
 10
48.700000
 20
209.275000
  0
VERTEX
  8
0
 10
49.225000
 20
209.250000
  0
VERTEX
  8
0
 10
49.775000
 20
209.250000
  0
VERTEX
  8
0
 10
50.300000
 20
209.250000
  0
VERTEX
  8
0
 10
50.850000
 20
209.250000
  0
VERTEX
  8
0
 10
51.375000
 20
209.225000
  0
VERTEX
  8
0
 10
51.925000
 20
209.225000
  0
VERTEX
  8
0
 10
52.450000
 20
209.225000
  0
VERTEX
  8
0
 10
53.000000
 20
209.225000
  0
VERTEX
  8
0
 10
53.550000
 20
209.250000
  0
VERTEX
  8
0
 10
54.100000
 20
209.250000
  0
VERTEX
  8
0
 10
54.650000
 20
209.250000
  0
VERTEX
  8
0
 10
55.200000
 20
209.275000
  0
VERTEX
  8
0
 10
55.775000
 20
209.275000
  0
VERTEX
  8
0
 10
56.325000
 20
209.300000
  0
VERTEX
  8
0
 10
56.875000
 20
209.300000
  0
VERTEX
  8
0
 10
57.450000
 20
209.325000
  0
VERTEX
  8
0
 10
58.000000
 20
209.350000
  0
VERTEX
  8
0
 10
58.575000
 20
209.375000
  0
VERTEX
  8
0
 10
59.150000
 20
209.400000
  0
VERTEX
  8
0
 10
59.700000
 20
209.425000
  0
VERTEX
  8
0
 10
60.275000
 20
209.450000
  0
VERTEX
  8
0
 10
60.850000
 20
209.475000
  0
VERTEX
  8
0
 10
61.425000
 20
209.500000
  0
VERTEX
  8
0
 10
62.000000
 20
209.550000
  0
VERTEX
  8
0
 10
62.575000
 20
209.575000
  0
VERTEX
  8
0
 10
63.150000
 20
209.600000
  0
VERTEX
  8
0
 10
63.750000
 20
209.650000
  0
VERTEX
  8
0
 10
64.325000
 20
209.700000
  0
VERTEX
  8
0
 10
64.925000
 20
209.725000
  0
VERTEX
  8
0
 10
65.500000
 20
209.775000
  0
VERTEX
  8
0
 10
65.500000
 20
224.925000
  0
VERTEX
  8
0
 10
69.950000
 20
224.925000
  0
VERTEX
  8
0
 10
70.075000
 20
224.900000
  0
VERTEX
  8
0
 10
70.225000
 20
224.850000
  0
VERTEX
  8
0
 10
70.325000
 20
224.825000
  0
VERTEX
  8
0
 10
70.450000
 20
224.775000
  0
VERTEX
  8
0
 10
70.550000
 20
224.750000
  0
VERTEX
  8
0
 10
70.650000
 20
224.700000
  0
VERTEX
  8
0
 10
70.750000
 20
224.650000
  0
VERTEX
  8
0
 10
70.825000
 20
224.600000
  0
VERTEX
  8
0
 10
70.900000
 20
224.550000
  0
VERTEX
  8
0
 10
70.975000
 20
224.500000
  0
VERTEX
  8
0
 10
71.025000
 20
224.450000
  0
VERTEX
  8
0
 10
71.075000
 20
224.400000
  0
VERTEX
  8
0
 10
71.125000
 20
224.350000
  0
VERTEX
  8
0
 10
71.150000
 20
224.300000
  0
VERTEX
  8
0
 10
71.175000
 20
224.225000
  0
VERTEX
  8
0
 10
71.200000
 20
224.175000
  0
VERTEX
  8
0
 10
71.225000
 20
224.100000
  0
VERTEX
  8
0
 10
71.225000
 20
224.050000
  0
VERTEX
  8
0
 10
71.225000
 20
223.975000
  0
VERTEX
  8
0
 10
71.200000
 20
223.900000
  0
VERTEX
  8
0
 10
71.175000
 20
223.825000
  0
VERTEX
  8
0
 10
71.150000
 20
223.750000
  0
VERTEX
  8
0
 10
71.125000
 20
223.675000
  0
VERTEX
  8
0
 10
71.075000
 20
223.600000
  0
VERTEX
  8
0
 10
71.025000
 20
223.525000
  0
VERTEX
  8
0
 10
70.975000
 20
223.450000
  0
VERTEX
  8
0
 10
70.900000
 20
223.375000
  0
VERTEX
  8
0
 10
70.825000
 20
223.275000
  0
VERTEX
  8
0
 10
70.750000
 20
223.200000
  0
VERTEX
  8
0
 10
70.650000
 20
223.100000
  0
VERTEX
  8
0
 10
70.550000
 20
223.025000
  0
VERTEX
  8
0
 10
70.450000
 20
222.925000
  0
VERTEX
  8
0
 10
70.450000
 20
210.025000
  0
VERTEX
  8
0
 10
70.850000
 20
210.050000
  0
VERTEX
  8
0
 10
71.225000
 20
210.100000
  0
VERTEX
  8
0
 10
71.600000
 20
210.125000
  0
VERTEX
  8
0
 10
72.000000
 20
210.150000
  0
VERTEX
  8
0
 10
72.375000
 20
210.200000
  0
VERTEX
  8
0
 10
72.750000
 20
210.225000
  0
VERTEX
  8
0
 10
73.125000
 20
210.275000
  0
VERTEX
  8
0
 10
73.500000
 20
210.300000
  0
VERTEX
  8
0
 10
73.875000
 20
210.350000
  0
VERTEX
  8
0
 10
74.250000
 20
210.400000
  0
VERTEX
  8
0
 10
74.625000
 20
210.425000
  0
VERTEX
  8
0
 10
75.000000
 20
210.475000
  0
VERTEX
  8
0
 10
75.375000
 20
210.525000
  0
VERTEX
  8
0
 10
75.750000
 20
210.550000
  0
VERTEX
  8
0
 10
76.100000
 20
210.600000
  0
VERTEX
  8
0
 10
76.475000
 20
210.650000
  0
VERTEX
  8
0
 10
76.850000
 20
210.700000
  0
VERTEX
  8
0
 10
77.200000
 20
210.750000
  0
VERTEX
  8
0
 10
77.550000
 20
210.800000
  0
VERTEX
  8
0
 10
77.925000
 20
210.850000
  0
VERTEX
  8
0
 10
78.275000
 20
210.900000
  0
VERTEX
  8
0
 10
78.625000
 20
210.950000
  0
VERTEX
  8
0
 10
79.000000
 20
211.000000
  0
VERTEX
  8
0
 10
79.350000
 20
211.050000
  0
VERTEX
  8
0
 10
79.700000
 20
211.100000
  0
VERTEX
  8
0
 10
80.050000
 20
211.175000
  0
VERTEX
  8
0
 10
80.400000
 20
211.225000
  0
VERTEX
  8
0
 10
80.750000
 20
211.275000
  0
VERTEX
  8
0
 10
81.100000
 20
211.350000
  0
VERTEX
  8
0
 10
81.450000
 20
211.400000
  0
VERTEX
  8
0
 10
81.775000
 20
211.450000
  0
VERTEX
  8
0
 10
82.125000
 20
211.525000
  0
VERTEX
  8
0
 10
82.850000
 20
206.325000
  0
VERTEX
  8
0
 10
82.450000
 20
206.275000
  0
VERTEX
  8
0
 10
82.050000
 20
206.225000
  0
VERTEX
  8
0
 10
81.650000
 20
206.175000
  0
VERTEX
  8
0
 10
81.250000
 20
206.150000
  0
VERTEX
  8
0
 10
80.850000
 20
206.100000
  0
VERTEX
  8
0
 10
80.450000
 20
206.050000
  0
VERTEX
  8
0
 10
80.050000
 20
206.000000
  0
VERTEX
  8
0
 10
79.650000
 20
205.975000
  0
VERTEX
  8
0
 10
79.275000
 20
205.925000
  0
VERTEX
  8
0
 10
78.875000
 20
205.875000
  0
VERTEX
  8
0
 10
78.475000
 20
205.825000
  0
VERTEX
  8
0
 10
78.075000
 20
205.800000
  0
VERTEX
  8
0
 10
77.700000
 20
205.750000
  0
VERTEX
  8
0
 10
77.300000
 20
205.725000
  0
VERTEX
  8
0
 10
76.925000
 20
205.675000
  0
VERTEX
  8
0
 10
76.525000
 20
205.625000
  0
VERTEX
  8
0
 10
76.150000
 20
205.600000
  0
VERTEX
  8
0
 10
75.750000
 20
205.550000
  0
VERTEX
  8
0
 10
75.375000
 20
205.525000
  0
VERTEX
  8
0
 10
74.975000
 20
205.475000
  0
VERTEX
  8
0
 10
74.600000
 20
205.450000
  0
VERTEX
  8
0
 10
74.225000
 20
205.400000
  0
VERTEX
  8
0
 10
73.850000
 20
205.375000
  0
VERTEX
  8
0
 10
73.450000
 20
205.325000
  0
VERTEX
  8
0
 10
73.075000
 20
205.300000
  0
VERTEX
  8
0
 10
72.700000
 20
205.275000
  0
VERTEX
  8
0
 10
72.325000
 20
205.225000
  0
VERTEX
  8
0
 10
71.950000
 20
205.200000
  0
VERTEX
  8
0
 10
71.575000
 20
205.175000
  0
VERTEX
  8
0
 10
71.200000
 20
205.125000
  0
VERTEX
  8
0
 10
70.825000
 20
205.100000
  0
VERTEX
  8
0
 10
70.450000
 20
205.075000
  0
VERTEX
  8
0
 10
70.450000
 20
196.650000
  0
SEQEND
  8
0
  0
POLYLINE
  8
0
 66
     1
 70
     1
 40
0.200000
 41
0.200000
  0
VERTEX
  8
0
 10
33.500000
 20
197.375000
  0
VERTEX
  8
0
 10
33.500000
 20
197.825000
  0
VERTEX
  8
0
 10
33.500000
 20
198.275000
  0
VERTEX
  8
0
 10
33.500000
 20
198.725000
  0
VERTEX
  8
0
 10
33.500000
 20
199.150000
  0
VERTEX
  8
0
 10
33.525000
 20
199.600000
  0
VERTEX
  8
0
 10
33.525000
 20
200.050000
  0
VERTEX
  8
0
 10
33.525000
 20
200.475000
  0
VERTEX
  8
0
 10
33.550000
 20
200.925000
  0
VERTEX
  8
0
 10
33.550000
 20
201.350000
  0
VERTEX
  8
0
 10
33.550000
 20
201.775000
  0
VERTEX
  8
0
 10
33.575000
 20
202.225000
  0
VERTEX
  8
0
 10
33.575000
 20
202.650000
  0
VERTEX
  8
0
 10
33.600000
 20
203.075000
  0
VERTEX
  8
0
 10
33.625000
 20
203.500000
  0
VERTEX
  8
0
 10
33.625000
 20
203.925000
  0
VERTEX
  8
0
 10
33.650000
 20
204.350000
  0
VERTEX
  8
0
 10
33.675000
 20
204.750000
  0
VERTEX
  8
0
 10
33.700000
 20
205.175000
  0
VERTEX
  8
0
 10
33.725000
 20
205.600000
  0
VERTEX
  8
0
 10
33.750000
 20
206.000000
  0
VERTEX
  8
0
 10
33.775000
 20
206.425000
  0
VERTEX
  8
0
 10
33.800000
 20
206.825000
  0
VERTEX
  8
0
 10
33.825000
 20
207.250000
  0
VERTEX
  8
0
 10
33.850000
 20
207.650000
  0
VERTEX
  8
0
 10
33.875000
 20
208.050000
  0
VERTEX
  8
0
 10
33.900000
 20
208.450000
  0
VERTEX
  8
0
 10
33.950000
 20
208.850000
  0
VERTEX
  8
0
 10
33.975000
 20
209.250000
  0
VERTEX
  8
0
 10
34.000000
 20
209.650000
  0
VERTEX
  8
0
 10
34.050000
 20
210.050000
  0
VERTEX
  8
0
 10
34.075000
 20
210.450000
  0
VERTEX
  8
0
 10
34.125000
 20
210.825000
  0
VERTEX
  8
0
 10
34.150000
 20
211.225000
  0
VERTEX
  8
0
 10
34.200000
 20
211.625000
  0
VERTEX
  8
0
 10
34.250000
 20
212.000000
  0
VERTEX
  8
0
 10
34.275000
 20
212.400000
  0
VERTEX
  8
0
 10
34.325000
 20
212.775000
  0
VERTEX
  8
0
 10
34.375000
 20
213.150000
  0
VERTEX
  8
0
 10
34.425000
 20
213.525000
  0
VERTEX
  8
0
 10
34.475000
 20
213.900000
  0
VERTEX
  8
0
 10
34.525000
 20
214.275000
  0
VERTEX
  8
0
 10
34.575000
 20
214.650000
  0
VERTEX
  8
0
 10
34.625000
 20
215.025000
  0
VERTEX
  8
0
 10
34.675000
 20
215.400000
  0
VERTEX
  8
0
 10
34.725000
 20
215.775000
  0
VERTEX
  8
0
 10
34.775000
 20
216.150000
  0
VERTEX
  8
0
 10
34.825000
 20
216.500000
  0
VERTEX
  8
0
 10
34.900000
 20
216.875000
  0
VERTEX
  8
0
 10
34.950000
 20
217.225000
  0
VERTEX
  8
0
 10
35.000000
 20
217.575000
  0
VERTEX
  8
0
 10
35.075000
 20
217.950000
  0
VERTEX
  8
0
 10
35.125000
 20
218.300000
  0
VERTEX
  8
0
 10
35.200000
 20
218.650000
  0
VERTEX
  8
0
 10
35.250000
 20
219.000000
  0
VERTEX
  8
0
 10
35.325000
 20
219.350000
  0
VERTEX
  8
0
 10
35.400000
 20
219.700000
  0
VERTEX
  8
0
 10
35.475000
 20
220.050000
  0
VERTEX
  8
0
 10
35.525000
 20
220.400000
  0
VERTEX
  8
0
 10
35.600000
 20
220.750000
  0
VERTEX
  8
0
 10
35.675000
 20
221.075000
  0
VERTEX
  8
0
 10
35.750000
 20
221.425000
  0
VERTEX
  8
0
 10
35.825000
 20
221.750000
  0
VERTEX
  8
0
 10
35.900000
 20
222.100000
  0
VERTEX
  8
0
 10
35.975000
 20
222.425000
  0
VERTEX
  8
0
 10
40.700000
 20
221.200000
  0
VERTEX
  8
0
 10
40.800000
 20
221.175000
  0
VERTEX
  8
0
 10
40.900000
 20
221.150000
  0
VERTEX
  8
0
 10
41.000000
 20
221.125000
  0
VERTEX
  8
0
 10
41.075000
 20
221.100000
  0
VERTEX
  8
0
 10
41.175000
 20
221.075000
  0
VERTEX
  8
0
 10
41.250000
 20
221.050000
  0
VERTEX
  8
0
 10
41.325000
 20
221.025000
  0
VERTEX
  8
0
 10
41.400000
 20
221.000000
  0
VERTEX
  8
0
 10
41.475000
 20
220.975000
  0
VERTEX
  8
0
 10
41.550000
 20
220.950000
  0
VERTEX
  8
0
 10
41.625000
 20
220.925000
  0
VERTEX
  8
0
 10
41.700000
 20
220.900000
  0
VERTEX
  8
0
 10
41.750000
 20
220.875000
  0
VERTEX
  8
0
 10
41.825000
 20
220.825000
  0
VERTEX
  8
0
 10
41.875000
 20
220.800000
  0
VERTEX
  8
0
 10
41.925000
 20
220.775000
  0
VERTEX
  8
0
 10
41.975000
 20
220.750000
  0
VERTEX
  8
0
 10
42.025000
 20
220.725000
  0
VERTEX
  8
0
 10
42.075000
 20
220.700000
  0
VERTEX
  8
0
 10
42.100000
 20
220.650000
  0
VERTEX
  8
0
 10
42.150000
 20
220.625000
  0
VERTEX
  8
0
 10
42.175000
 20
220.600000
  0
VERTEX
  8
0
 10
42.225000
 20
220.575000
  0
VERTEX
  8
0
 10
42.250000
 20
220.525000
  0
VERTEX
  8
0
 10
42.275000
 20
220.500000
  0
VERTEX
  8
0
 10
42.300000
 20
220.475000
  0
VERTEX
  8
0
 10
42.325000
 20
220.425000
  0
VERTEX
  8
0
 10
42.325000
 20
220.400000
  0
VERTEX
  8
0
 10
42.350000
 20
220.375000
  0
VERTEX
  8
0
 10
42.350000
 20
220.325000
  0
VERTEX
  8
0
 10
42.375000
 20
220.300000
  0
VERTEX
  8
0
 10
42.375000
 20
220.275000
  0
VERTEX
  8
0
 10
42.375000
 20
220.225000
  0
VERTEX
  8
0
 10
42.375000
 20
220.200000
  0
VERTEX
  8
0
 10
42.375000
 20
220.150000
  0
VERTEX
  8
0
 10
42.375000
 20
220.125000
  0
VERTEX
  8
0
 10
42.350000
 20
220.075000
  0
VERTEX
  8
0
 10
42.350000
 20
220.050000
  0
VERTEX
  8
0
 10
42.325000
 20
220.025000
  0
VERTEX
  8
0
 10
42.300000
 20
219.975000
  0
VERTEX
  8
0
 10
42.275000
 20
219.950000
  0
VERTEX
  8
0
 10
42.250000
 20
219.900000
  0
VERTEX
  8
0
 10
42.225000
 20
219.850000
  0
VERTEX
  8
0
 10
42.200000
 20
219.825000
  0
VERTEX
  8
0
 10
42.175000
 20
219.775000
  0
VERTEX
  8
0
 10
42.125000
 20
219.750000
  0
VERTEX
  8
0
 10
42.100000
 20
219.700000
  0
VERTEX
  8
0
 10
42.050000
 20
219.675000
  0
VERTEX
  8
0
 10
42.000000
 20
219.625000
  0
VERTEX
  8
0
 10
41.950000
 20
219.575000
  0
VERTEX
  8
0
 10
41.900000
 20
219.550000
  0
VERTEX
  8
0
 10
41.850000
 20
219.500000
  0
VERTEX
  8
0
 10
41.775000
 20
219.450000
  0
VERTEX
  8
0
 10
41.725000
 20
219.425000
  0
VERTEX
  8
0
 10
41.650000
 20
219.375000
  0
VERTEX
  8
0
 10
41.600000
 20
219.325000
  0
VERTEX
  8
0
 10
41.525000
 20
219.275000
  0
VERTEX
  8
0
 10
41.450000
 20
219.250000
  0
VERTEX
  8
0
 10
41.375000
 20
219.200000
  0
VERTEX
  8
0
 10
41.300000
 20
219.150000
  0
VERTEX
  8
0
 10
41.225000
 20
219.100000
  0
VERTEX
  8
0
 10
41.125000
 20
219.075000
  0
VERTEX
  8
0
 10
41.050000
 20
219.025000
  0
VERTEX
  8
0
 10
40.950000
 20
218.975000
  0
VERTEX
  8
0
 10
40.875000
 20
218.650000
  0
VERTEX
  8
0
 10
40.800000
 20
218.300000
  0
VERTEX
  8
0
 10
40.750000
 20
217.975000
  0
VERTEX
  8
0
 10
40.675000
 20
217.650000
  0
VERTEX
  8
0
 10
40.600000
 20
217.300000
  0
VERTEX
  8
0
 10
40.550000
 20
216.975000
  0
VERTEX
  8
0
 10
40.475000
 20
216.625000
  0
VERTEX
  8
0
 10
40.425000
 20
216.300000
  0
VERTEX
  8
0
 10
40.350000
 20
215.975000
  0
VERTEX
  8
0
 10
40.300000
 20
215.625000
  0
VERTEX
  8
0
 10
40.250000
 20
215.300000
  0
VERTEX
  8
0
 10
40.175000
 20
214.950000
  0
VERTEX
  8
0
 10
40.125000
 20
214.625000
  0
VERTEX
  8
0
 10
40.075000
 20
214.300000
  0
VERTEX
  8
0
 10
40.025000
 20
213.950000
  0
VERTEX
  8
0
 10
39.975000
 20
213.625000
  0
VERTEX
  8
0
 10
39.925000
 20
213.275000
  0
VERTEX
  8
0
 10
39.850000
 20
212.950000
  0
VERTEX
  8
0
 10
39.800000
 20
212.600000
  0
VERTEX
  8
0
 10
39.775000
 20
212.275000
  0
VERTEX
  8
0
 10
39.725000
 20
211.925000
  0
VERTEX
  8
0
 10
39.675000
 20
211.600000
  0
VERTEX
  8
0
 10
39.625000
 20
211.275000
  0
VERTEX
  8
0
 10
39.575000
 20
210.925000
  0
VERTEX
  8
0
 10
39.525000
 20
210.600000
  0
VERTEX
  8
0
 10
39.500000
 20
210.250000
  0
VERTEX
  8
0
 10
39.450000
 20
209.925000
  0
VERTEX
  8
0
 10
39.400000
 20
209.575000
  0
VERTEX
  8
0
 10
39.375000
 20
209.250000
  0
VERTEX
  8
0
 10
39.325000
 20
208.900000
  0
VERTEX
  8
0
 10
39.300000
 20
208.575000
  0
VERTEX
  8
0
 10
39.275000
 20
208.225000
  0
VERTEX
  8
0
 10
39.225000
 20
207.900000
  0
VERTEX
  8
0
 10
39.200000
 20
207.550000
  0
VERTEX
  8
0
 10
39.150000
 20
207.225000
  0
VERTEX
  8
0
 10
39.125000
 20
206.875000
  0
VERTEX
  8
0
 10
39.100000
 20
206.550000
  0
VERTEX
  8
0
 10
39.075000
 20
206.200000
  0
VERTEX
  8
0
 10
39.050000
 20
205.875000
  0
VERTEX
  8
0
 10
39.025000
 20
205.525000
  0
VERTEX
  8
0
 10
39.000000
 20
205.200000
  0
VERTEX
  8
0
 10
38.975000
 20
204.850000
  0
VERTEX
  8
0
 10
38.950000
 20
204.500000
  0
VERTEX
  8
0
 10
38.925000
 20
204.175000
  0
VERTEX
  8
0
 10
38.900000
 20
203.825000
  0
VERTEX
  8
0
 10
38.875000
 20
203.500000
  0
VERTEX
  8
0
 10
38.850000
 20
203.150000
  0
VERTEX
  8
0
 10
38.850000
 20
202.825000
  0
VERTEX
  8
0
 10
38.825000
 20
202.475000
  0
VERTEX
  8
0
 10
38.800000
 20
202.150000
  0
VERTEX
  8
0
 10
38.800000
 20
201.800000
  0
VERTEX
  8
0
 10
38.775000
 20
201.450000
  0
VERTEX
  8
0
 10
38.775000
 20
201.125000
  0
VERTEX
  8
0
 10
38.750000
 20
200.775000
  0
VERTEX
  8
0
 10
38.750000
 20
200.450000
  0
VERTEX
  8
0
 10
38.725000
 20
200.100000
  0
VERTEX
  8
0
 10
38.725000
 20
199.750000
  0
VERTEX
  8
0
 10
38.725000
 20
199.425000
  0
VERTEX
  8
0
 10
38.725000
 20
199.075000
  0
VERTEX
  8
0
 10
38.700000
 20
198.750000
  0
VERTEX
  8
0
 10
38.700000
 20
198.400000
  0
VERTEX
  8
0
 10
38.700000
 20
198.050000
  0
VERTEX
  8
0
 10
38.700000
 20
197.725000
  0
VERTEX
  8
0
 10
38.700000
 20
197.375000
  0
VERTEX
  8
0
 10
38.700000
 20
197.100000
  0
VERTEX
  8
0
 10
38.700000
 20
196.825000
  0
VERTEX
  8
0
 10
38.700000
 20
196.525000
  0
VERTEX
  8
0
 10
38.700000
 20
196.250000
  0
VERTEX
  8
0
 10
38.700000
 20
195.975000
  0
VERTEX
  8
0
 10
38.725000
 20
195.700000
  0
VERTEX
  8
0
 10
38.725000
 20
195.400000
  0
VERTEX
  8
0
 10
38.725000
 20
195.125000
  0
VERTEX
  8
0
 10
38.750000
 20
194.850000
  0
VERTEX
  8
0
 10
38.750000
 20
194.550000
  0
VERTEX
  8
0
 10
38.750000
 20
194.275000
  0
VERTEX
  8
0
 10
38.775000
 20
194.000000
  0
VERTEX
  8
0
 10
38.775000
 20
193.700000
  0
VERTEX
  8
0
 10
38.800000
 20
193.425000
  0
VERTEX
  8
0
 10
38.800000
 20
193.150000
  0
VERTEX
  8
0
 10
38.825000
 20
192.850000
  0
VERTEX
  8
0
 10
38.850000
 20
192.575000
  0
VERTEX
  8
0
 10
38.850000
 20
192.275000
  0
VERTEX
  8
0
 10
38.875000
 20
192.000000
  0
VERTEX
  8
0
 10
38.900000
 20
191.700000
  0
VERTEX
  8
0
 10
38.925000
 20
191.400000
  0
VERTEX
  8
0
 10
38.950000
 20
191.125000
  0
VERTEX
  8
0
 10
38.950000
 20
190.825000
  0
VERTEX
  8
0
 10
38.975000
 20
190.550000
  0
VERTEX
  8
0
 10
39.000000
 20
190.250000
  0
VERTEX
  8
0
 10
39.025000
 20
189.950000
  0
VERTEX
  8
0
 10
39.050000
 20
189.675000
  0
VERTEX
  8
0
 10
39.075000
 20
189.375000
  0
VERTEX
  8
0
 10
39.125000
 20
189.075000
  0
VERTEX
  8
0
 10
39.150000
 20
188.800000
  0
VERTEX
  8
0
 10
39.175000
 20
188.500000
  0
VERTEX
  8
0
 10
39.200000
 20
188.200000
  0
VERTEX
  8
0
 10
39.225000
 20
187.900000
  0
VERTEX
  8
0
 10
39.275000
 20
187.625000
  0
VERTEX
  8
0
 10
39.300000
 20
187.325000
  0
VERTEX
  8
0
 10
39.325000
 20
187.025000
  0
VERTEX
  8
0
 10
39.375000
 20
186.725000
  0
VERTEX
  8
0
 10
39.400000
 20
186.425000
  0
VERTEX
  8
0
 10
39.450000
 20
186.125000
  0
VERTEX
  8
0
 10
39.475000
 20
185.825000
  0
VERTEX
  8
0
 10
39.525000
 20
185.525000
  0
VERTEX
  8
0
 10
39.575000
 20
185.225000
  0
VERTEX
  8
0
 10
39.600000
 20
184.925000
  0
VERTEX
  8
0
 10
39.650000
 20
184.625000
  0
VERTEX
  8
0
 10
39.700000
 20
184.325000
  0
VERTEX
  8
0
 10
39.725000
 20
184.025000
  0
VERTEX
  8
0
 10
39.775000
 20
183.725000
  0
VERTEX
  8
0
 10
39.825000
 20
183.425000
  0
VERTEX
  8
0
 10
39.875000
 20
183.125000
  0
VERTEX
  8
0
 10
39.925000
 20
182.825000
  0
VERTEX
  8
0
 10
39.975000
 20
182.525000
  0
VERTEX
  8
0
 10
40.025000
 20
182.225000
  0
VERTEX
  8
0
 10
40.075000
 20
181.900000
  0
VERTEX
  8
0
 10
40.125000
 20
181.600000
  0
VERTEX
  8
0
 10
40.175000
 20
181.300000
  0
VERTEX
  8
0
 10
40.225000
 20
181.000000
  0
VERTEX
  8
0
 10
40.300000
 20
180.675000
  0
VERTEX
  8
0
 10
40.350000
 20
180.375000
  0
VERTEX
  8
0
 10
40.400000
 20
180.075000
  0
VERTEX
  8
0
 10
40.450000
 20
179.775000
  0
VERTEX
  8
0
 10
40.525000
 20
179.450000
  0
VERTEX
  8
0
 10
40.575000
 20
179.150000
  0
VERTEX
  8
0
 10
40.650000
 20
178.825000
  0
VERTEX
  8
0
 10
40.700000
 20
178.525000
  0
VERTEX
  8
0
 10
35.225000
 20
177.550000
  0
VERTEX
  8
0
 10
35.175000
 20
177.825000
  0
VERTEX
  8
0
 10
35.125000
 20
178.100000
  0
VERTEX
  8
0
 10
35.075000
 20
178.400000
  0
VERTEX
  8
0
 10
35.025000
 20
178.675000
  0
VERTEX
  8
0
 10
34.975000
 20
178.950000
  0
VERTEX
  8
0
 10
34.925000
 20
179.250000
  0
VERTEX
  8
0
 10
34.875000
 20
179.525000
  0
VERTEX
  8
0
 10
34.825000
 20
179.800000
  0
VERTEX
  8
0
 10
34.775000
 20
180.100000
  0
VERTEX
  8
0
 10
34.725000
 20
180.375000
  0
VERTEX
  8
0
 10
34.675000
 20
180.675000
  0
VERTEX
  8
0
 10
34.650000
 20
180.975000
  0
VERTEX
  8
0
 10
34.600000
 20
181.250000
  0
VERTEX
  8
0
 10
34.550000
 20
181.550000
  0
VERTEX
  8
0
 10
34.500000
 20
181.850000
  0
VERTEX
  8
0
 10
34.475000
 20
182.125000
  0
VERTEX
  8
0
 10
34.425000
 20
182.425000
  0
VERTEX
  8
0
 10
34.400000
 20
182.725000
  0
VERTEX
  8
0
 10
34.350000
 20
183.025000
  0
VERTEX
  8
0
 10
34.325000
 20
183.325000
  0
VERTEX
  8
0
 10
34.275000
 20
183.625000
  0
VERTEX
  8
0
 10
34.250000
 20
183.925000
  0
VERTEX
  8
0
 10
34.200000
 20
184.225000
  0
VERTEX
  8
0
 10
34.175000
 20
184.525000
  0
VERTEX
  8
0
 10
34.150000
 20
184.825000
  0
VERTEX
  8
0
 10
34.100000
 20
185.125000
  0
VERTEX
  8
0
 10
34.075000
 20
185.425000
  0
VERTEX
  8
0
 10
34.050000
 20
185.725000
  0
VERTEX
  8
0
 10
34.025000
 20
186.050000
  0
VERTEX
  8
0
 10
33.975000
 20
186.350000
  0
VERTEX
  8
0
 10
33.950000
 20
186.650000
  0
VERTEX
  8
0
 10
33.925000
 20
186.975000
  0
VERTEX
  8
0
 10
33.900000
 20
187.275000
  0
VERTEX
  8
0
 10
33.875000
 20
187.575000
  0
VERTEX
  8
0
 10
33.850000
 20
187.900000
  0
VERTEX
  8
0
 10
33.825000
 20
188.200000
  0
VERTEX
  8
0
 10
33.800000
 20
188.525000
  0
VERTEX
  8
0
 10
33.775000
 20
188.850000
  0
VERTEX
  8
0
 10
33.775000
 20
189.150000
  0
VERTEX
  8
0
 10
33.750000
 20
189.475000
  0
VERTEX
  8
0
 10
33.725000
 20
189.800000
  0
VERTEX
  8
0
 10
33.700000
 20
190.100000
  0
VERTEX
  8
0
 10
33.675000
 20
190.425000
  0
VERTEX
  8
0
 10
33.675000
 20
190.750000
  0
VERTEX
  8
0
 10
33.650000
 20
191.075000
  0
VERTEX
  8
0
 10
33.625000
 20
191.400000
  0
VERTEX
  8
0
 10
33.625000
 20
191.725000
  0
VERTEX
  8
0
 10
33.600000
 20
192.050000
  0
VERTEX
  8
0
 10
33.600000
 20
192.375000
  0
VERTEX
  8
0
 10
33.575000
 20
192.700000
  0
VERTEX
  8
0
 10
33.575000
 20
193.025000
  0
VERTEX
  8
0
 10
33.550000
 20
193.350000
  0
VERTEX
  8
0
 10
33.550000
 20
193.675000
  0
VERTEX
  8
0
 10
33.550000
 20
194.025000
  0
VERTEX
  8
0
 10
33.525000
 20
194.350000
  0
VERTEX
  8
0
 10
33.525000
 20
194.675000
  0
VERTEX
  8
0
 10
33.525000
 20
195.000000
  0
VERTEX
  8
0
 10
33.525000
 20
195.350000
  0
VERTEX
  8
0
 10
33.500000
 20
195.675000
  0
VERTEX
  8
0
 10
33.500000
 20
196.025000
  0
VERTEX
  8
0
 10
33.500000
 20
196.350000
  0
VERTEX
  8
0
 10
33.500000
 20
196.700000
  0
VERTEX
  8
0
 10
33.500000
 20
197.025000
  0
VERTEX
  8
0
 10
33.500000
 20
197.375000
  0
SEQEND
  8
0
  0
ENDSEC
  0
EOF
