  0
SECTION
  2
HEADER
  9
$ACADVER
  1
AC1009
  9
$INSBASE
 10
0.000000
 20
0.000000
 30
0.000000
  9
$EXTMIN
 10
0.000000
 20
0.000000
  9
$EXTMAX
 10
190.000000
 20
257.000000
  9
$LIMMIN
 10
0.000000
 20
0.000000
  9
$LIMMAX
 10
190.000000
 20
257.000000
  9
$TEXTSIZE
 40
0.200000
  9
$TEXTSTYLE
  7
BIGFONT
  9
$CLAYER
  8
0
  9
$ANGBASE
 50
0.000000
  9
$ANGDIR
 70
     0
  0
ENDSEC
  0
SECTION
  2
TABLES
  0
TABLE
  2
LTYPE
 70
    11
  0
LTYPE
  2
BYBLOCK
 70
    64
  3
BYBLOCK
 72
    65
 73
     0
 40
0.000000
  0
LTYPE
  2
BYLAYER
 70
    64
  3
BYLAYER
 72
    65
 73
     0
 40
0.000000
  0
LTYPE
  2
CONTINUOUS
 70
    64
  3
é¿ê¸
 72
    65
 73
     0
 40
0.000000
  0
LTYPE
  2
DASHED
 70
    64
  3
__ __ __ __ __ __ __ __ __ __ __ __ __ __ __
 72
    65
 73
     2
 40
0.750000
 49
0.500000
 49
-0.250000
  0
LTYPE
  2
HIDDEN
 70
    64
  3
_ _ _ _ _ _ _ _ _ _ _ _ _ _ _ _ _ _ _ _ _ _ _
 72
    65
 73
     2
 40
0.375000
 49
0.250000
 49
-0.125000
  0
LTYPE
  2
CENTER
 70
    64
  3
____ _ ____ _ ____ _ ____ _ ____ _ ____ _ ____
 72
    65
 73
     4
 40
2.000000
 49
1.250000
 49
-0.250000
 49
0.250000
 49
-0.250000
  0
LTYPE
  2
PHANTOM
 70
    64
  3
_____ _ _ _____ _ _ _____ _ _ _____ _ _ ____
 72
    65
 73
     6
 40
2.500000
 49
1.250000
 49
-0.250000
 49
0.250000
 49
-0.250000
 49
0.250000
 49
-0.250000
  0
LTYPE
  2
DOT
 70
    64
  3
...............................................
 72
    65
 73
     2
 40
0.250000
 49
0.000000
 49
-0.250000
  0
LTYPE
  2
DASHDOT
 70
    64
  3
__ . __ . __ . __ . __ . __ . __ . __ . __ . __
 72
    65
 73
     4
 40
1.000000
 49
0.500000
 49
-0.250000
 49
0.000000
 49
-0.250000
  0
LTYPE
  2
BORDER
 70
    64
  3
__ __ . __ __ . __ __ . __ __ . __ __ . __ __
 72
    65
 73
     6
 40
1.750000
 49
0.500000
 49
-0.250000
 49
0.500000
 49
-0.250000
 49
0.000000
 49
-0.250000
  0
LTYPE
  2
DIVIDE
 70
    64
  3
__ . . __ . . __ . . __ . . __ . . __ . . __
 72
    65
 73
     6
 40
1.250000
 49
0.500000
 49
-0.250000
 49
0.000000
 49
-0.250000
 49
0.000000
 49
-0.250000
  0
ENDTAB
  0
TABLE
  2
LAYER
  5
a2
 70
     2
  0
LAYER
  5
a5
  2
0
 70
     0
 62
     7
  6
CONTINUOUS
  0
LAYER
  5
a8
  2
B
 70
     0
 62
     7
  6
CONTINUOUS
  0
LAYER
  5
ab
  2
C
 70
     0
 62
     7
  6
CONTINUOUS
  0
LAYER
  5
ae
  2
D
 70
     0
 62
     7
  6
CONTINUOUS
  0
LAYER
  5
b1
  2
E
 70
     0
 62
     7
  6
CONTINUOUS
  0
LAYER
  5
b4
  2
F
 70
     0
 62
     7
  6
CONTINUOUS
  0
LAYER
  5
b7
  2
G
 70
     0
 62
     7
  6
CONTINUOUS
  0
LAYER
  5
ba
  2
H
 70
     0
 62
     7
  6
CONTINUOUS
  0
LAYER
  5
bd
  2
I
 70
     0
 62
     7
  6
CONTINUOUS
  0
LAYER
  5
c0
  2
J
 70
     0
 62
     7
  6
CONTINUOUS
  0
LAYER
  5
c3
  2
K
 70
     0
 62
     7
  6
CONTINUOUS
  0
LAYER
  5
c6
  2
L
 70
     0
 62
     7
  6
CONTINUOUS
  0
LAYER
  5
c9
  2
M
 70
     0
 62
     7
  6
CONTINUOUS
  0
LAYER
  5
cc
  2
N
 70
     0
 62
     7
  6
CONTINUOUS
  0
ENDTAB
  0
TABLE
  2
STYLE
 70
     2
  0
STYLE
  2
STANDARD
 70
     0
 40
0.000000
 41
0.500000
 50
0.000000
 71
     0
 42
0.300000
  3
txt
  4

  0
STYLE
  2
BIGFONT
 70
    64
 40
0.000000
 41
1.000000
 50
0.000000
 71
     0
 42
0.200000
  3

  4
bigfont
  0
ENDTAB
  0
ENDSEC
  0
SECTION
  2
BLOCKS
  0
ENDSEC
  0
SECTION
  2
ENTITIES
  0
POLYLINE
  8
0
 66
     1
 70
     1
 40
0.200000
 41
0.200000
  0
VERTEX
  8
0
 10
41.800000
 20
178.225000
  0
VERTEX
  8
0
 10
41.550000
 20
178.225000
  0
VERTEX
  8
0
 10
41.300000
 20
178.225000
  0
VERTEX
  8
0
 10
41.050000
 20
178.225000
  0
VERTEX
  8
0
 10
40.800000
 20
178.225000
  0
VERTEX
  8
0
 10
40.550000
 20
178.250000
  0
VERTEX
  8
0
 10
40.325000
 20
178.250000
  0
VERTEX
  8
0
 10
40.075000
 20
178.275000
  0
VERTEX
  8
0
 10
39.850000
 20
178.275000
  0
VERTEX
  8
0
 10
39.600000
 20
178.275000
  0
VERTEX
  8
0
 10
39.375000
 20
178.300000
  0
VERTEX
  8
0
 10
39.150000
 20
178.325000
  0
VERTEX
  8
0
 10
38.925000
 20
178.325000
  0
VERTEX
  8
0
 10
38.700000
 20
178.350000
  0
VERTEX
  8
0
 10
38.475000
 20
178.375000
  0
VERTEX
  8
0
 10
38.250000
 20
178.400000
  0
VERTEX
  8
0
 10
38.050000
 20
178.425000
  0
VERTEX
  8
0
 10
37.825000
 20
178.450000
  0
VERTEX
  8
0
 10
37.625000
 20
178.475000
  0
VERTEX
  8
0
 10
37.400000
 20
178.500000
  0
VERTEX
  8
0
 10
37.200000
 20
178.525000
  0
VERTEX
  8
0
 10
37.000000
 20
178.575000
  0
VERTEX
  8
0
 10
36.800000
 20
178.600000
  0
VERTEX
  8
0
 10
36.600000
 20
178.625000
  0
VERTEX
  8
0
 10
36.400000
 20
178.675000
  0
VERTEX
  8
0
 10
36.200000
 20
178.700000
  0
VERTEX
  8
0
 10
36.025000
 20
178.750000
  0
VERTEX
  8
0
 10
35.825000
 20
178.775000
  0
VERTEX
  8
0
 10
35.650000
 20
178.825000
  0
VERTEX
  8
0
 10
35.450000
 20
178.875000
  0
VERTEX
  8
0
 10
35.275000
 20
178.925000
  0
VERTEX
  8
0
 10
35.100000
 20
178.975000
  0
VERTEX
  8
0
 10
34.925000
 20
179.000000
  0
VERTEX
  8
0
 10
34.750000
 20
179.050000
  0
VERTEX
  8
0
 10
34.575000
 20
179.125000
  0
VERTEX
  8
0
 10
34.400000
 20
179.175000
  0
VERTEX
  8
0
 10
34.225000
 20
179.225000
  0
VERTEX
  8
0
 10
34.075000
 20
179.275000
  0
VERTEX
  8
0
 10
33.900000
 20
179.325000
  0
VERTEX
  8
0
 10
33.750000
 20
179.400000
  0
VERTEX
  8
0
 10
33.575000
 20
179.450000
  0
VERTEX
  8
0
 10
33.425000
 20
179.525000
  0
VERTEX
  8
0
 10
33.275000
 20
179.575000
  0
VERTEX
  8
0
 10
33.125000
 20
179.650000
  0
VERTEX
  8
0
 10
32.975000
 20
179.725000
  0
VERTEX
  8
0
 10
32.825000
 20
179.775000
  0
VERTEX
  8
0
 10
32.700000
 20
179.850000
  0
VERTEX
  8
0
 10
32.550000
 20
179.925000
  0
VERTEX
  8
0
 10
32.400000
 20
180.000000
  0
VERTEX
  8
0
 10
32.275000
 20
180.075000
  0
VERTEX
  8
0
 10
32.150000
 20
180.150000
  0
VERTEX
  8
0
 10
32.000000
 20
180.225000
  0
VERTEX
  8
0
 10
31.875000
 20
180.300000
  0
VERTEX
  8
0
 10
31.750000
 20
180.375000
  0
VERTEX
  8
0
 10
31.625000
 20
180.475000
  0
VERTEX
  8
0
 10
31.500000
 20
180.550000
  0
VERTEX
  8
0
 10
31.400000
 20
180.625000
  0
VERTEX
  8
0
 10
31.275000
 20
180.725000
  0
VERTEX
  8
0
 10
31.150000
 20
180.800000
  0
VERTEX
  8
0
 10
31.050000
 20
180.900000
  0
VERTEX
  8
0
 10
30.950000
 20
181.000000
  0
VERTEX
  8
0
 10
30.825000
 20
181.075000
  0
VERTEX
  8
0
 10
30.725000
 20
181.175000
  0
VERTEX
  8
0
 10
30.625000
 20
181.275000
  0
VERTEX
  8
0
 10
30.525000
 20
181.375000
  0
VERTEX
  8
0
 10
30.425000
 20
181.475000
  0
VERTEX
  8
0
 10
30.325000
 20
181.575000
  0
VERTEX
  8
0
 10
30.250000
 20
181.675000
  0
VERTEX
  8
0
 10
30.150000
 20
181.775000
  0
VERTEX
  8
0
 10
30.050000
 20
181.875000
  0
VERTEX
  8
0
 10
29.975000
 20
181.975000
  0
VERTEX
  8
0
 10
29.875000
 20
182.100000
  0
VERTEX
  8
0
 10
29.800000
 20
182.200000
  0
VERTEX
  8
0
 10
29.700000
 20
182.300000
  0
VERTEX
  8
0
 10
29.625000
 20
182.400000
  0
VERTEX
  8
0
 10
29.550000
 20
182.525000
  0
VERTEX
  8
0
 10
29.475000
 20
182.625000
  0
VERTEX
  8
0
 10
29.400000
 20
182.750000
  0
VERTEX
  8
0
 10
29.300000
 20
182.850000
  0
VERTEX
  8
0
 10
29.225000
 20
182.975000
  0
VERTEX
  8
0
 10
29.150000
 20
183.075000
  0
VERTEX
  8
0
 10
29.100000
 20
183.200000
  0
VERTEX
  8
0
 10
29.025000
 20
183.300000
  0
VERTEX
  8
0
 10
28.950000
 20
183.425000
  0
VERTEX
  8
0
 10
28.875000
 20
183.550000
  0
VERTEX
  8
0
 10
28.825000
 20
183.675000
  0
VERTEX
  8
0
 10
28.750000
 20
183.800000
  0
VERTEX
  8
0
 10
28.675000
 20
183.900000
  0
VERTEX
  8
0
 10
28.625000
 20
184.025000
  0
VERTEX
  8
0
 10
28.575000
 20
184.150000
  0
VERTEX
  8
0
 10
28.500000
 20
184.275000
  0
VERTEX
  8
0
 10
28.450000
 20
184.400000
  0
VERTEX
  8
0
 10
28.400000
 20
184.525000
  0
VERTEX
  8
0
 10
28.350000
 20
184.650000
  0
VERTEX
  8
0
 10
28.275000
 20
184.775000
  0
VERTEX
  8
0
 10
28.225000
 20
184.925000
  0
VERTEX
  8
0
 10
28.175000
 20
185.050000
  0
VERTEX
  8
0
 10
28.125000
 20
185.175000
  0
VERTEX
  8
0
 10
28.100000
 20
185.300000
  0
VERTEX
  8
0
 10
28.050000
 20
185.450000
  0
VERTEX
  8
0
 10
28.000000
 20
185.575000
  0
VERTEX
  8
0
 10
27.950000
 20
185.725000
  0
VERTEX
  8
0
 10
27.925000
 20
185.850000
  0
VERTEX
  8
0
 10
27.875000
 20
186.000000
  0
VERTEX
  8
0
 10
27.850000
 20
186.125000
  0
VERTEX
  8
0
 10
27.800000
 20
186.275000
  0
VERTEX
  8
0
 10
27.775000
 20
186.400000
  0
VERTEX
  8
0
 10
27.750000
 20
186.550000
  0
VERTEX
  8
0
 10
27.700000
 20
186.700000
  0
VERTEX
  8
0
 10
27.675000
 20
186.825000
  0
VERTEX
  8
0
 10
27.650000
 20
186.975000
  0
VERTEX
  8
0
 10
27.625000
 20
187.125000
  0
VERTEX
  8
0
 10
27.600000
 20
187.275000
  0
VERTEX
  8
0
 10
27.575000
 20
187.425000
  0
VERTEX
  8
0
 10
27.550000
 20
187.575000
  0
VERTEX
  8
0
 10
27.525000
 20
187.725000
  0
VERTEX
  8
0
 10
27.500000
 20
187.875000
  0
VERTEX
  8
0
 10
27.500000
 20
188.025000
  0
VERTEX
  8
0
 10
27.475000
 20
188.175000
  0
VERTEX
  8
0
 10
27.450000
 20
188.325000
  0
VERTEX
  8
0
 10
27.450000
 20
188.475000
  0
VERTEX
  8
0
 10
27.450000
 20
188.625000
  0
VERTEX
  8
0
 10
27.425000
 20
188.800000
  0
VERTEX
  8
0
 10
27.425000
 20
188.950000
  0
VERTEX
  8
0
 10
27.400000
 20
189.100000
  0
VERTEX
  8
0
 10
27.400000
 20
189.275000
  0
VERTEX
  8
0
 10
27.400000
 20
189.425000
  0
VERTEX
  8
0
 10
27.400000
 20
189.600000
  0
VERTEX
  8
0
 10
27.400000
 20
189.750000
  0
VERTEX
  8
0
 10
27.400000
 20
189.850000
  0
VERTEX
  8
0
 10
27.400000
 20
189.925000
  0
VERTEX
  8
0
 10
27.400000
 20
190.025000
  0
VERTEX
  8
0
 10
27.400000
 20
190.125000
  0
VERTEX
  8
0
 10
27.400000
 20
190.200000
  0
VERTEX
  8
0
 10
27.400000
 20
190.300000
  0
VERTEX
  8
0
 10
27.425000
 20
190.400000
  0
VERTEX
  8
0
 10
27.425000
 20
190.500000
  0
VERTEX
  8
0
 10
27.425000
 20
190.575000
  0
VERTEX
  8
0
 10
27.425000
 20
190.675000
  0
VERTEX
  8
0
 10
27.425000
 20
190.775000
  0
VERTEX
  8
0
 10
27.425000
 20
190.875000
  0
VERTEX
  8
0
 10
27.450000
 20
190.975000
  0
VERTEX
  8
0
 10
27.450000
 20
191.075000
  0
VERTEX
  8
0
 10
27.450000
 20
191.150000
  0
VERTEX
  8
0
 10
27.475000
 20
191.250000
  0
VERTEX
  8
0
 10
27.475000
 20
191.350000
  0
VERTEX
  8
0
 10
27.475000
 20
191.450000
  0
VERTEX
  8
0
 10
27.500000
 20
191.550000
  0
VERTEX
  8
0
 10
27.500000
 20
191.650000
  0
VERTEX
  8
0
 10
27.525000
 20
191.750000
  0
VERTEX
  8
0
 10
27.525000
 20
191.850000
  0
VERTEX
  8
0
 10
27.525000
 20
191.950000
  0
VERTEX
  8
0
 10
27.550000
 20
192.050000
  0
VERTEX
  8
0
 10
27.550000
 20
192.175000
  0
VERTEX
  8
0
 10
27.575000
 20
192.275000
  0
VERTEX
  8
0
 10
27.575000
 20
192.375000
  0
VERTEX
  8
0
 10
27.600000
 20
192.475000
  0
VERTEX
  8
0
 10
27.625000
 20
192.575000
  0
VERTEX
  8
0
 10
27.625000
 20
192.675000
  0
VERTEX
  8
0
 10
27.650000
 20
192.800000
  0
VERTEX
  8
0
 10
27.675000
 20
192.900000
  0
VERTEX
  8
0
 10
27.675000
 20
193.000000
  0
VERTEX
  8
0
 10
27.700000
 20
193.100000
  0
VERTEX
  8
0
 10
27.725000
 20
193.225000
  0
VERTEX
  8
0
 10
27.725000
 20
193.325000
  0
VERTEX
  8
0
 10
27.750000
 20
193.425000
  0
VERTEX
  8
0
 10
27.775000
 20
193.550000
  0
VERTEX
  8
0
 10
27.800000
 20
193.650000
  0
VERTEX
  8
0
 10
27.800000
 20
193.775000
  0
VERTEX
  8
0
 10
27.825000
 20
193.875000
  0
VERTEX
  8
0
 10
27.850000
 20
193.975000
  0
VERTEX
  8
0
 10
27.875000
 20
194.100000
  0
VERTEX
  8
0
 10
27.900000
 20
194.200000
  0
VERTEX
  8
0
 10
27.925000
 20
194.325000
  0
VERTEX
  8
0
 10
27.950000
 20
194.425000
  0
VERTEX
  8
0
 10
27.975000
 20
194.550000
  0
VERTEX
  8
0
 10
28.000000
 20
194.650000
  0
VERTEX
  8
0
 10
28.025000
 20
194.775000
  0
VERTEX
  8
0
 10
28.050000
 20
194.900000
  0
VERTEX
  8
0
 10
28.075000
 20
195.000000
  0
VERTEX
  8
0
 10
28.100000
 20
195.125000
  0
VERTEX
  8
0
 10
28.125000
 20
195.250000
  0
VERTEX
  8
0
 10
28.150000
 20
195.350000
  0
VERTEX
  8
0
 10
28.175000
 20
195.475000
  0
VERTEX
  8
0
 10
28.200000
 20
195.600000
  0
VERTEX
  8
0
 10
28.225000
 20
195.700000
  0
VERTEX
  8
0
 10
28.250000
 20
195.825000
  0
VERTEX
  8
0
 10
28.300000
 20
195.950000
  0
VERTEX
  8
0
 10
28.325000
 20
196.075000
  0
VERTEX
  8
0
 10
28.350000
 20
196.175000
  0
VERTEX
  8
0
 10
28.375000
 20
196.300000
  0
VERTEX
  8
0
 10
28.425000
 20
196.425000
  0
VERTEX
  8
0
 10
28.450000
 20
196.550000
  0
VERTEX
  8
0
 10
34.450000
 20
195.775000
  0
VERTEX
  8
0
 10
34.400000
 20
195.650000
  0
VERTEX
  8
0
 10
34.375000
 20
195.525000
  0
VERTEX
  8
0
 10
34.325000
 20
195.375000
  0
VERTEX
  8
0
 10
34.300000
 20
195.250000
  0
VERTEX
  8
0
 10
34.250000
 20
195.125000
  0
VERTEX
  8
0
 10
34.225000
 20
195.000000
  0
VERTEX
  8
0
 10
34.175000
 20
194.875000
  0
VERTEX
  8
0
 10
34.150000
 20
194.750000
  0
VERTEX
  8
0
 10
34.125000
 20
194.650000
  0
VERTEX
  8
0
 10
34.075000
 20
194.525000
  0
VERTEX
  8
0
 10
34.050000
 20
194.400000
  0
VERTEX
  8
0
 10
34.025000
 20
194.275000
  0
VERTEX
  8
0
 10
33.975000
 20
194.175000
  0
VERTEX
  8
0
 10
33.950000
 20
194.050000
  0
VERTEX
  8
0
 10
33.925000
 20
193.950000
  0
VERTEX
  8
0
 10
33.900000
 20
193.825000
  0
VERTEX
  8
0
 10
33.850000
 20
193.725000
  0
VERTEX
  8
0
 10
33.825000
 20
193.600000
  0
VERTEX
  8
0
 10
33.800000
 20
193.500000
  0
VERTEX
  8
0
 10
33.775000
 20
193.375000
  0
VERTEX
  8
0
 10
33.750000
 20
193.275000
  0
VERTEX
  8
0
 10
33.725000
 20
193.175000
  0
VERTEX
  8
0
 10
33.700000
 20
193.075000
  0
VERTEX
  8
0
 10
33.675000
 20
192.950000
  0
VERTEX
  8
0
 10
33.650000
 20
192.850000
  0
VERTEX
  8
0
 10
33.625000
 20
192.750000
  0
VERTEX
  8
0
 10
33.600000
 20
192.650000
  0
VERTEX
  8
0
 10
33.575000
 20
192.550000
  0
VERTEX
  8
0
 10
33.550000
 20
192.450000
  0
VERTEX
  8
0
 10
33.525000
 20
192.350000
  0
VERTEX
  8
0
 10
33.500000
 20
192.275000
  0
VERTEX
  8
0
 10
33.475000
 20
192.175000
  0
VERTEX
  8
0
 10
33.450000
 20
192.075000
  0
VERTEX
  8
0
 10
33.450000
 20
191.975000
  0
VERTEX
  8
0
 10
33.425000
 20
191.900000
  0
VERTEX
  8
0
 10
33.400000
 20
191.800000
  0
VERTEX
  8
0
 10
33.375000
 20
191.725000
  0
VERTEX
  8
0
 10
33.375000
 20
191.625000
  0
VERTEX
  8
0
 10
33.350000
 20
191.550000
  0
VERTEX
  8
0
 10
33.325000
 20
191.450000
  0
VERTEX
  8
0
 10
33.325000
 20
191.375000
  0
VERTEX
  8
0
 10
33.300000
 20
191.300000
  0
VERTEX
  8
0
 10
33.300000
 20
191.200000
  0
VERTEX
  8
0
 10
33.275000
 20
191.125000
  0
VERTEX
  8
0
 10
33.275000
 20
191.050000
  0
VERTEX
  8
0
 10
33.250000
 20
190.975000
  0
VERTEX
  8
0
 10
33.250000
 20
190.900000
  0
VERTEX
  8
0
 10
33.225000
 20
190.825000
  0
VERTEX
  8
0
 10
33.225000
 20
190.750000
  0
VERTEX
  8
0
 10
33.225000
 20
190.675000
  0
VERTEX
  8
0
 10
33.200000
 20
190.600000
  0
VERTEX
  8
0
 10
33.200000
 20
190.525000
  0
VERTEX
  8
0
 10
33.200000
 20
190.450000
  0
VERTEX
  8
0
 10
33.175000
 20
190.375000
  0
VERTEX
  8
0
 10
33.175000
 20
190.325000
  0
VERTEX
  8
0
 10
33.175000
 20
190.250000
  0
VERTEX
  8
0
 10
33.175000
 20
190.175000
  0
VERTEX
  8
0
 10
33.150000
 20
190.125000
  0
VERTEX
  8
0
 10
33.150000
 20
190.050000
  0
VERTEX
  8
0
 10
33.150000
 20
190.000000
  0
VERTEX
  8
0
 10
33.150000
 20
189.925000
  0
VERTEX
  8
0
 10
33.150000
 20
189.875000
  0
VERTEX
  8
0
 10
33.150000
 20
189.800000
  0
VERTEX
  8
0
 10
33.150000
 20
189.750000
  0
VERTEX
  8
0
 10
33.150000
 20
189.675000
  0
VERTEX
  8
0
 10
33.150000
 20
189.600000
  0
VERTEX
  8
0
 10
33.150000
 20
189.525000
  0
VERTEX
  8
0
 10
33.150000
 20
189.450000
  0
VERTEX
  8
0
 10
33.150000
 20
189.375000
  0
VERTEX
  8
0
 10
33.175000
 20
189.325000
  0
VERTEX
  8
0
 10
33.175000
 20
189.250000
  0
VERTEX
  8
0
 10
33.175000
 20
189.175000
  0
VERTEX
  8
0
 10
33.175000
 20
189.100000
  0
VERTEX
  8
0
 10
33.200000
 20
189.025000
  0
VERTEX
  8
0
 10
33.200000
 20
188.950000
  0
VERTEX
  8
0
 10
33.200000
 20
188.900000
  0
VERTEX
  8
0
 10
33.225000
 20
188.825000
  0
VERTEX
  8
0
 10
33.225000
 20
188.750000
  0
VERTEX
  8
0
 10
33.225000
 20
188.700000
  0
VERTEX
  8
0
 10
33.250000
 20
188.625000
  0
VERTEX
  8
0
 10
33.250000
 20
188.550000
  0
VERTEX
  8
0
 10
33.275000
 20
188.475000
  0
VERTEX
  8
0
 10
33.300000
 20
188.425000
  0
VERTEX
  8
0
 10
33.300000
 20
188.350000
  0
VERTEX
  8
0
 10
33.325000
 20
188.300000
  0
VERTEX
  8
0
 10
33.325000
 20
188.225000
  0
VERTEX
  8
0
 10
33.350000
 20
188.150000
  0
VERTEX
  8
0
 10
33.375000
 20
188.100000
  0
VERTEX
  8
0
 10
33.400000
 20
188.025000
  0
VERTEX
  8
0
 10
33.400000
 20
187.975000
  0
VERTEX
  8
0
 10
33.425000
 20
187.900000
  0
VERTEX
  8
0
 10
33.450000
 20
187.850000
  0
VERTEX
  8
0
 10
33.475000
 20
187.775000
  0
VERTEX
  8
0
 10
33.500000
 20
187.725000
  0
VERTEX
  8
0
 10
33.525000
 20
187.650000
  0
VERTEX
  8
0
 10
33.550000
 20
187.600000
  0
VERTEX
  8
0
 10
33.575000
 20
187.525000
  0
VERTEX
  8
0
 10
33.600000
 20
187.475000
  0
VERTEX
  8
0
 10
33.625000
 20
187.400000
  0
VERTEX
  8
0
 10
33.650000
 20
187.350000
  0
VERTEX
  8
0
 10
33.675000
 20
187.300000
  0
VERTEX
  8
0
 10
33.700000
 20
187.225000
  0
VERTEX
  8
0
 10
33.725000
 20
187.175000
  0
VERTEX
  8
0
 10
33.775000
 20
187.125000
  0
VERTEX
  8
0
 10
33.800000
 20
187.050000
  0
VERTEX
  8
0
 10
33.825000
 20
187.000000
  0
VERTEX
  8
0
 10
33.850000
 20
186.950000
  0
VERTEX
  8
0
 10
33.900000
 20
186.875000
  0
VERTEX
  8
0
 10
33.925000
 20
186.825000
  0
VERTEX
  8
0
 10
33.975000
 20
186.775000
  0
VERTEX
  8
0
 10
34.000000
 20
186.725000
  0
VERTEX
  8
0
 10
34.025000
 20
186.650000
  0
VERTEX
  8
0
 10
34.075000
 20
186.600000
  0
VERTEX
  8
0
 10
34.100000
 20
186.550000
  0
VERTEX
  8
0
 10
34.150000
 20
186.500000
  0
VERTEX
  8
0
 10
34.200000
 20
186.450000
  0
VERTEX
  8
0
 10
34.225000
 20
186.400000
  0
VERTEX
  8
0
 10
34.275000
 20
186.325000
  0
VERTEX
  8
0
 10
34.325000
 20
186.275000
  0
VERTEX
  8
0
 10
34.350000
 20
186.225000
  0
VERTEX
  8
0
 10
34.400000
 20
186.175000
  0
VERTEX
  8
0
 10
34.450000
 20
186.125000
  0
VERTEX
  8
0
 10
34.500000
 20
186.075000
  0
VERTEX
  8
0
 10
34.525000
 20
186.025000
  0
VERTEX
  8
0
 10
34.575000
 20
185.975000
  0
VERTEX
  8
0
 10
34.625000
 20
185.925000
  0
VERTEX
  8
0
 10
34.675000
 20
185.875000
  0
VERTEX
  8
0
 10
34.725000
 20
185.825000
  0
VERTEX
  8
0
 10
34.775000
 20
185.775000
  0
VERTEX
  8
0
 10
34.850000
 20
185.700000
  0
VERTEX
  8
0
 10
34.900000
 20
185.650000
  0
VERTEX
  8
0
 10
34.975000
 20
185.600000
  0
VERTEX
  8
0
 10
35.025000
 20
185.550000
  0
VERTEX
  8
0
 10
35.100000
 20
185.500000
  0
VERTEX
  8
0
 10
35.175000
 20
185.450000
  0
VERTEX
  8
0
 10
35.250000
 20
185.400000
  0
VERTEX
  8
0
 10
35.325000
 20
185.350000
  0
VERTEX
  8
0
 10
35.400000
 20
185.300000
  0
VERTEX
  8
0
 10
35.475000
 20
185.250000
  0
VERTEX
  8
0
 10
35.550000
 20
185.200000
  0
VERTEX
  8
0
 10
35.625000
 20
185.150000
  0
VERTEX
  8
0
 10
35.700000
 20
185.100000
  0
VERTEX
  8
0
 10
35.800000
 20
185.075000
  0
VERTEX
  8
0
 10
35.875000
 20
185.025000
  0
VERTEX
  8
0
 10
35.950000
 20
184.975000
  0
VERTEX
  8
0
 10
36.050000
 20
184.950000
  0
VERTEX
  8
0
 10
36.150000
 20
184.900000
  0
VERTEX
  8
0
 10
36.225000
 20
184.850000
  0
VERTEX
  8
0
 10
36.325000
 20
184.825000
  0
VERTEX
  8
0
 10
36.425000
 20
184.775000
  0
VERTEX
  8
0
 10
36.525000
 20
184.750000
  0
VERTEX
  8
0
 10
36.625000
 20
184.700000
  0
VERTEX
  8
0
 10
36.725000
 20
184.675000
  0
VERTEX
  8
0
 10
36.825000
 20
184.650000
  0
VERTEX
  8
0
 10
36.925000
 20
184.600000
  0
VERTEX
  8
0
 10
37.025000
 20
184.575000
  0
VERTEX
  8
0
 10
37.150000
 20
184.550000
  0
VERTEX
  8
0
 10
37.250000
 20
184.500000
  0
VERTEX
  8
0
 10
37.375000
 20
184.475000
  0
VERTEX
  8
0
 10
37.475000
 20
184.450000
  0
VERTEX
  8
0
 10
37.600000
 20
184.425000
  0
VERTEX
  8
0
 10
37.700000
 20
184.400000
  0
VERTEX
  8
0
 10
37.825000
 20
184.375000
  0
VERTEX
  8
0
 10
37.950000
 20
184.350000
  0
VERTEX
  8
0
 10
38.075000
 20
184.325000
  0
VERTEX
  8
0
 10
38.200000
 20
184.300000
  0
VERTEX
  8
0
 10
38.325000
 20
184.275000
  0
VERTEX
  8
0
 10
38.450000
 20
184.250000
  0
VERTEX
  8
0
 10
38.575000
 20
184.225000
  0
VERTEX
  8
0
 10
38.700000
 20
184.225000
  0
VERTEX
  8
0
 10
38.850000
 20
184.200000
  0
VERTEX
  8
0
 10
38.975000
 20
184.175000
  0
VERTEX
  8
0
 10
39.125000
 20
184.150000
  0
VERTEX
  8
0
 10
39.250000
 20
184.150000
  0
VERTEX
  8
0
 10
39.400000
 20
184.125000
  0
VERTEX
  8
0
 10
39.550000
 20
184.125000
  0
VERTEX
  8
0
 10
39.675000
 20
184.100000
  0
VERTEX
  8
0
 10
39.825000
 20
184.075000
  0
VERTEX
  8
0
 10
39.975000
 20
184.075000
  0
VERTEX
  8
0
 10
40.125000
 20
184.075000
  0
VERTEX
  8
0
 10
40.275000
 20
184.050000
  0
VERTEX
  8
0
 10
40.425000
 20
184.050000
  0
VERTEX
  8
0
 10
40.575000
 20
184.025000
  0
VERTEX
  8
0
 10
40.750000
 20
184.025000
  0
VERTEX
  8
0
 10
40.900000
 20
184.025000
  0
VERTEX
  8
0
 10
41.050000
 20
184.025000
  0
VERTEX
  8
0
 10
41.225000
 20
184.000000
  0
VERTEX
  8
0
 10
41.375000
 20
184.000000
  0
VERTEX
  8
0
 10
41.550000
 20
184.000000
  0
VERTEX
  8
0
 10
41.700000
 20
184.000000
  0
VERTEX
  8
0
 10
41.875000
 20
184.000000
  0
VERTEX
  8
0
 10
42.050000
 20
184.000000
  0
VERTEX
  8
0
 10
70.600000
 20
184.000000
  0
VERTEX
  8
0
 10
70.600000
 20
178.225000
  0
VERTEX
  8
0
 10
41.800000
 20
178.225000
  0
SEQEND
  8
0
  0
POLYLINE
  8
0
 66
     1
 70
     1
 40
0.200000
 41
0.200000
  0
VERTEX
  8
0
 10
31.325000
 20
222.475000
  0
VERTEX
  8
0
 10
65.350000
 20
222.475000
  0
VERTEX
  8
0
 10
65.350000
 20
216.725000
  0
VERTEX
  8
0
 10
31.325000
 20
216.725000
  0
VERTEX
  8
0
 10
31.325000
 20
222.475000
  0
SEQEND
  8
0
  0
ENDSEC
  0
EOF
