  0
SECTION
  2
HEADER
  9
$ACADVER
  1
AC1009
  9
$INSBASE
 10
0.000000
 20
0.000000
 30
0.000000
  9
$EXTMIN
 10
0.000000
 20
0.000000
  9
$EXTMAX
 10
190.000000
 20
257.000000
  9
$LIMMIN
 10
0.000000
 20
0.000000
  9
$LIMMAX
 10
190.000000
 20
257.000000
  9
$TEXTSIZE
 40
0.200000
  9
$TEXTSTYLE
  7
BIGFONT
  9
$CLAYER
  8
0
  9
$ANGBASE
 50
0.000000
  9
$ANGDIR
 70
     0
  0
ENDSEC
  0
SECTION
  2
TABLES
  0
TABLE
  2
LTYPE
 70
    11
  0
LTYPE
  2
BYBLOCK
 70
    64
  3
BYBLOCK
 72
    65
 73
     0
 40
0.000000
  0
LTYPE
  2
BYLAYER
 70
    64
  3
BYLAYER
 72
    65
 73
     0
 40
0.000000
  0
LTYPE
  2
CONTINUOUS
 70
    64
  3
é¿ê¸
 72
    65
 73
     0
 40
0.000000
  0
LTYPE
  2
DASHED
 70
    64
  3
__ __ __ __ __ __ __ __ __ __ __ __ __ __ __
 72
    65
 73
     2
 40
0.750000
 49
0.500000
 49
-0.250000
  0
LTYPE
  2
HIDDEN
 70
    64
  3
_ _ _ _ _ _ _ _ _ _ _ _ _ _ _ _ _ _ _ _ _ _ _
 72
    65
 73
     2
 40
0.375000
 49
0.250000
 49
-0.125000
  0
LTYPE
  2
CENTER
 70
    64
  3
____ _ ____ _ ____ _ ____ _ ____ _ ____ _ ____
 72
    65
 73
     4
 40
2.000000
 49
1.250000
 49
-0.250000
 49
0.250000
 49
-0.250000
  0
LTYPE
  2
PHANTOM
 70
    64
  3
_____ _ _ _____ _ _ _____ _ _ _____ _ _ ____
 72
    65
 73
     6
 40
2.500000
 49
1.250000
 49
-0.250000
 49
0.250000
 49
-0.250000
 49
0.250000
 49
-0.250000
  0
LTYPE
  2
DOT
 70
    64
  3
...............................................
 72
    65
 73
     2
 40
0.250000
 49
0.000000
 49
-0.250000
  0
LTYPE
  2
DASHDOT
 70
    64
  3
__ . __ . __ . __ . __ . __ . __ . __ . __ . __
 72
    65
 73
     4
 40
1.000000
 49
0.500000
 49
-0.250000
 49
0.000000
 49
-0.250000
  0
LTYPE
  2
BORDER
 70
    64
  3
__ __ . __ __ . __ __ . __ __ . __ __ . __ __
 72
    65
 73
     6
 40
1.750000
 49
0.500000
 49
-0.250000
 49
0.500000
 49
-0.250000
 49
0.000000
 49
-0.250000
  0
LTYPE
  2
DIVIDE
 70
    64
  3
__ . . __ . . __ . . __ . . __ . . __ . . __
 72
    65
 73
     6
 40
1.250000
 49
0.500000
 49
-0.250000
 49
0.000000
 49
-0.250000
 49
0.000000
 49
-0.250000
  0
ENDTAB
  0
TABLE
  2
LAYER
  5
a2
 70
     2
  0
LAYER
  5
a5
  2
0
 70
     0
 62
     7
  6
CONTINUOUS
  0
LAYER
  5
a8
  2
B
 70
     0
 62
     7
  6
CONTINUOUS
  0
LAYER
  5
ab
  2
C
 70
     0
 62
     7
  6
CONTINUOUS
  0
LAYER
  5
ae
  2
D
 70
     0
 62
     7
  6
CONTINUOUS
  0
LAYER
  5
b1
  2
E
 70
     0
 62
     7
  6
CONTINUOUS
  0
LAYER
  5
b4
  2
F
 70
     0
 62
     7
  6
CONTINUOUS
  0
LAYER
  5
b7
  2
G
 70
     0
 62
     7
  6
CONTINUOUS
  0
LAYER
  5
ba
  2
H
 70
     0
 62
     7
  6
CONTINUOUS
  0
LAYER
  5
bd
  2
I
 70
     0
 62
     7
  6
CONTINUOUS
  0
LAYER
  5
c0
  2
J
 70
     0
 62
     7
  6
CONTINUOUS
  0
LAYER
  5
c3
  2
K
 70
     0
 62
     7
  6
CONTINUOUS
  0
LAYER
  5
c6
  2
L
 70
     0
 62
     7
  6
CONTINUOUS
  0
LAYER
  5
c9
  2
M
 70
     0
 62
     7
  6
CONTINUOUS
  0
LAYER
  5
cc
  2
N
 70
     0
 62
     7
  6
CONTINUOUS
  0
ENDTAB
  0
TABLE
  2
STYLE
 70
     2
  0
STYLE
  2
STANDARD
 70
     0
 40
0.000000
 41
0.500000
 50
0.000000
 71
     0
 42
0.300000
  3
txt
  4

  0
STYLE
  2
BIGFONT
 70
    64
 40
0.000000
 41
1.000000
 50
0.000000
 71
     0
 42
0.200000
  3

  4
bigfont
  0
ENDTAB
  0
ENDSEC
  0
SECTION
  2
BLOCKS
  0
ENDSEC
  0
SECTION
  2
ENTITIES
  0
POLYLINE
  8
0
 66
     1
 70
     1
 40
0.200000
 41
0.200000
  0
VERTEX
  8
0
 10
47.625000
 20
190.650000
  0
VERTEX
  8
0
 10
46.425000
 20
190.450000
  0
VERTEX
  8
0
 10
45.200000
 20
190.250000
  0
VERTEX
  8
0
 10
44.000000
 20
190.050000
  0
VERTEX
  8
0
 10
42.800000
 20
189.900000
  0
VERTEX
  8
0
 10
41.600000
 20
189.725000
  0
VERTEX
  8
0
 10
40.400000
 20
189.600000
  0
VERTEX
  8
0
 10
39.200000
 20
189.450000
  0
VERTEX
  8
0
 10
38.000000
 20
189.350000
  0
VERTEX
  8
0
 10
36.800000
 20
189.250000
  0
VERTEX
  8
0
 10
35.625000
 20
189.150000
  0
VERTEX
  8
0
 10
34.425000
 20
189.075000
  0
VERTEX
  8
0
 10
33.250000
 20
189.000000
  0
VERTEX
  8
0
 10
32.050000
 20
188.975000
  0
VERTEX
  8
0
 10
30.875000
 20
188.925000
  0
VERTEX
  8
0
 10
29.675000
 20
188.900000
  0
VERTEX
  8
0
 10
28.500000
 20
188.900000
  0
VERTEX
  8
0
 10
27.075000
 20
200.475000
  0
VERTEX
  8
0
 10
28.500000
 20
200.475000
  0
VERTEX
  8
0
 10
29.900000
 20
200.500000
  0
VERTEX
  8
0
 10
31.250000
 20
200.525000
  0
VERTEX
  8
0
 10
32.600000
 20
200.550000
  0
VERTEX
  8
0
 10
33.875000
 20
200.575000
  0
VERTEX
  8
0
 10
35.125000
 20
200.625000
  0
VERTEX
  8
0
 10
36.350000
 20
200.675000
  0
VERTEX
  8
0
 10
37.550000
 20
200.750000
  0
VERTEX
  8
0
 10
38.675000
 20
200.825000
  0
VERTEX
  8
0
 10
39.800000
 20
200.900000
  0
VERTEX
  8
0
 10
40.875000
 20
201.000000
  0
VERTEX
  8
0
 10
41.925000
 20
201.100000
  0
VERTEX
  8
0
 10
42.925000
 20
201.225000
  0
VERTEX
  8
0
 10
43.900000
 20
201.350000
  0
VERTEX
  8
0
 10
44.850000
 20
201.475000
  0
VERTEX
  8
0
 10
45.750000
 20
201.625000
  0
VERTEX
  8
0
 10
45.450000
 20
203.625000
  0
VERTEX
  8
0
 10
45.175000
 20
205.625000
  0
VERTEX
  8
0
 10
44.900000
 20
207.575000
  0
VERTEX
  8
0
 10
44.650000
 20
209.525000
  0
VERTEX
  8
0
 10
44.400000
 20
211.475000
  0
VERTEX
  8
0
 10
44.175000
 20
213.400000
  0
VERTEX
  8
0
 10
43.950000
 20
215.300000
  0
VERTEX
  8
0
 10
43.725000
 20
217.175000
  0
VERTEX
  8
0
 10
43.525000
 20
219.050000
  0
VERTEX
  8
0
 10
43.350000
 20
220.900000
  0
VERTEX
  8
0
 10
43.150000
 20
222.725000
  0
VERTEX
  8
0
 10
43.000000
 20
224.525000
  0
VERTEX
  8
0
 10
42.825000
 20
226.325000
  0
VERTEX
  8
0
 10
42.700000
 20
228.100000
  0
VERTEX
  8
0
 10
42.550000
 20
229.850000
  0
VERTEX
  8
0
 10
42.425000
 20
231.600000
  0
VERTEX
  8
0
 10
47.625000
 20
231.600000
  0
VERTEX
  8
0
 10
47.875000
 20
231.450000
  0
VERTEX
  8
0
 10
48.100000
 20
231.300000
  0
VERTEX
  8
0
 10
48.275000
 20
231.100000
  0
VERTEX
  8
0
 10
48.450000
 20
230.900000
  0
VERTEX
  8
0
 10
48.575000
 20
230.675000
  0
VERTEX
  8
0
 10
48.675000
 20
230.425000
  0
VERTEX
  8
0
 10
48.775000
 20
230.175000
  0
VERTEX
  8
0
 10
48.800000
 20
229.900000
  0
VERTEX
  8
0
 10
48.825000
 20
229.600000
  0
VERTEX
  8
0
 10
48.825000
 20
229.275000
  0
VERTEX
  8
0
 10
48.775000
 20
228.950000
  0
VERTEX
  8
0
 10
48.700000
 20
228.575000
  0
VERTEX
  8
0
 10
48.600000
 20
228.225000
  0
VERTEX
  8
0
 10
48.450000
 20
227.825000
  0
VERTEX
  8
0
 10
48.300000
 20
227.425000
  0
VERTEX
  8
0
 10
48.100000
 20
227.000000
  0
VERTEX
  8
0
 10
48.225000
 20
225.625000
  0
VERTEX
  8
0
 10
48.350000
 20
224.225000
  0
VERTEX
  8
0
 10
48.475000
 20
222.800000
  0
VERTEX
  8
0
 10
48.625000
 20
221.375000
  0
VERTEX
  8
0
 10
48.775000
 20
219.925000
  0
VERTEX
  8
0
 10
48.950000
 20
218.450000
  0
VERTEX
  8
0
 10
49.100000
 20
216.975000
  0
VERTEX
  8
0
 10
49.275000
 20
215.475000
  0
VERTEX
  8
0
 10
49.450000
 20
213.950000
  0
VERTEX
  8
0
 10
49.650000
 20
212.400000
  0
VERTEX
  8
0
 10
49.850000
 20
210.850000
  0
VERTEX
  8
0
 10
50.050000
 20
209.275000
  0
VERTEX
  8
0
 10
50.250000
 20
207.675000
  0
VERTEX
  8
0
 10
50.475000
 20
206.050000
  0
VERTEX
  8
0
 10
50.700000
 20
204.425000
  0
VERTEX
  8
0
 10
50.925000
 20
202.775000
  0
VERTEX
  8
0
 10
51.950000
 20
203.000000
  0
VERTEX
  8
0
 10
52.950000
 20
203.225000
  0
VERTEX
  8
0
 10
53.950000
 20
203.475000
  0
VERTEX
  8
0
 10
54.925000
 20
203.750000
  0
VERTEX
  8
0
 10
55.875000
 20
204.025000
  0
VERTEX
  8
0
 10
56.800000
 20
204.300000
  0
VERTEX
  8
0
 10
57.700000
 20
204.625000
  0
VERTEX
  8
0
 10
58.600000
 20
204.925000
  0
VERTEX
  8
0
 10
59.475000
 20
205.250000
  0
VERTEX
  8
0
 10
60.325000
 20
205.600000
  0
VERTEX
  8
0
 10
61.175000
 20
205.950000
  0
VERTEX
  8
0
 10
62.000000
 20
206.325000
  0
VERTEX
  8
0
 10
62.800000
 20
206.725000
  0
VERTEX
  8
0
 10
63.575000
 20
207.125000
  0
VERTEX
  8
0
 10
64.350000
 20
207.525000
  0
VERTEX
  8
0
 10
65.100000
 20
207.950000
  0
VERTEX
  8
0
 10
66.275000
 20
195.225000
  0
VERTEX
  8
0
 10
65.425000
 20
194.950000
  0
VERTEX
  8
0
 10
64.575000
 20
194.675000
  0
VERTEX
  8
0
 10
63.725000
 20
194.425000
  0
VERTEX
  8
0
 10
62.875000
 20
194.175000
  0
VERTEX
  8
0
 10
62.025000
 20
193.925000
  0
VERTEX
  8
0
 10
61.175000
 20
193.675000
  0
VERTEX
  8
0
 10
60.325000
 20
193.450000
  0
VERTEX
  8
0
 10
59.500000
 20
193.250000
  0
VERTEX
  8
0
 10
58.650000
 20
193.025000
  0
VERTEX
  8
0
 10
57.825000
 20
192.825000
  0
VERTEX
  8
0
 10
56.975000
 20
192.625000
  0
VERTEX
  8
0
 10
56.150000
 20
192.450000
  0
VERTEX
  8
0
 10
55.300000
 20
192.275000
  0
VERTEX
  8
0
 10
54.475000
 20
192.100000
  0
VERTEX
  8
0
 10
53.625000
 20
191.950000
  0
VERTEX
  8
0
 10
52.800000
 20
191.800000
  0
VERTEX
  8
0
 10
53.425000
 20
189.075000
  0
VERTEX
  8
0
 10
54.075000
 20
186.425000
  0
VERTEX
  8
0
 10
54.750000
 20
183.775000
  0
VERTEX
  8
0
 10
55.475000
 20
181.200000
  0
VERTEX
  8
0
 10
56.250000
 20
178.675000
  0
VERTEX
  8
0
 10
57.050000
 20
176.175000
  0
VERTEX
  8
0
 10
57.900000
 20
173.725000
  0
VERTEX
  8
0
 10
58.775000
 20
171.300000
  0
VERTEX
  8
0
 10
59.700000
 20
168.950000
  0
VERTEX
  8
0
 10
60.675000
 20
166.625000
  0
VERTEX
  8
0
 10
61.650000
 20
164.350000
  0
VERTEX
  8
0
 10
62.700000
 20
162.125000
  0
VERTEX
  8
0
 10
63.775000
 20
159.950000
  0
VERTEX
  8
0
 10
64.875000
 20
157.825000
  0
VERTEX
  8
0
 10
66.025000
 20
155.725000
  0
VERTEX
  8
0
 10
67.225000
 20
153.675000
  0
VERTEX
  8
0
 10
67.000000
 20
153.025000
  0
VERTEX
  8
0
 10
66.775000
 20
152.400000
  0
VERTEX
  8
0
 10
66.550000
 20
151.750000
  0
VERTEX
  8
0
 10
66.350000
 20
151.100000
  0
VERTEX
  8
0
 10
66.125000
 20
150.450000
  0
VERTEX
  8
0
 10
65.900000
 20
149.800000
  0
VERTEX
  8
0
 10
65.675000
 20
149.175000
  0
VERTEX
  8
0
 10
65.450000
 20
148.525000
  0
VERTEX
  8
0
 10
65.225000
 20
147.875000
  0
VERTEX
  8
0
 10
65.000000
 20
147.225000
  0
VERTEX
  8
0
 10
64.800000
 20
146.575000
  0
VERTEX
  8
0
 10
64.575000
 20
145.925000
  0
VERTEX
  8
0
 10
64.350000
 20
145.275000
  0
VERTEX
  8
0
 10
64.125000
 20
144.600000
  0
VERTEX
  8
0
 10
63.925000
 20
143.950000
  0
VERTEX
  8
0
 10
63.700000
 20
143.300000
  0
VERTEX
  8
0
 10
62.600000
 20
144.500000
  0
VERTEX
  8
0
 10
61.500000
 20
145.600000
  0
VERTEX
  8
0
 10
60.425000
 20
146.650000
  0
VERTEX
  8
0
 10
59.325000
 20
147.600000
  0
VERTEX
  8
0
 10
58.250000
 20
148.500000
  0
VERTEX
  8
0
 10
57.175000
 20
149.300000
  0
VERTEX
  8
0
 10
56.075000
 20
150.025000
  0
VERTEX
  8
0
 10
55.000000
 20
150.675000
  0
VERTEX
  8
0
 10
53.925000
 20
151.250000
  0
VERTEX
  8
0
 10
52.850000
 20
151.750000
  0
VERTEX
  8
0
 10
51.775000
 20
152.175000
  0
VERTEX
  8
0
 10
50.725000
 20
152.525000
  0
VERTEX
  8
0
 10
49.650000
 20
152.775000
  0
VERTEX
  8
0
 10
48.575000
 20
152.975000
  0
VERTEX
  8
0
 10
47.525000
 20
153.075000
  0
VERTEX
  8
0
 10
46.450000
 20
153.125000
  0
VERTEX
  8
0
 10
45.500000
 20
153.100000
  0
VERTEX
  8
0
 10
44.575000
 20
153.000000
  0
VERTEX
  8
0
 10
43.700000
 20
152.850000
  0
VERTEX
  8
0
 10
42.850000
 20
152.650000
  0
VERTEX
  8
0
 10
42.025000
 20
152.375000
  0
VERTEX
  8
0
 10
41.275000
 20
152.050000
  0
VERTEX
  8
0
 10
40.525000
 20
151.675000
  0
VERTEX
  8
0
 10
39.825000
 20
151.225000
  0
VERTEX
  8
0
 10
39.175000
 20
150.725000
  0
VERTEX
  8
0
 10
38.550000
 20
150.175000
  0
VERTEX
  8
0
 10
37.975000
 20
149.550000
  0
VERTEX
  8
0
 10
37.425000
 20
148.875000
  0
VERTEX
  8
0
 10
36.900000
 20
148.150000
  0
VERTEX
  8
0
 10
36.425000
 20
147.350000
  0
VERTEX
  8
0
 10
36.000000
 20
146.500000
  0
VERTEX
  8
0
 10
35.600000
 20
145.600000
  0
VERTEX
  8
0
 10
35.425000
 20
145.150000
  0
VERTEX
  8
0
 10
35.250000
 20
144.700000
  0
VERTEX
  8
0
 10
35.100000
 20
144.200000
  0
VERTEX
  8
0
 10
34.950000
 20
143.700000
  0
VERTEX
  8
0
 10
34.825000
 20
143.175000
  0
VERTEX
  8
0
 10
34.725000
 20
142.600000
  0
VERTEX
  8
0
 10
34.600000
 20
142.025000
  0
VERTEX
  8
0
 10
34.500000
 20
141.425000
  0
VERTEX
  8
0
 10
34.425000
 20
140.825000
  0
VERTEX
  8
0
 10
34.350000
 20
140.175000
  0
VERTEX
  8
0
 10
34.300000
 20
139.500000
  0
VERTEX
  8
0
 10
34.250000
 20
138.800000
  0
VERTEX
  8
0
 10
34.200000
 20
138.100000
  0
VERTEX
  8
0
 10
34.175000
 20
137.375000
  0
VERTEX
  8
0
 10
34.150000
 20
136.600000
  0
VERTEX
  8
0
 10
34.150000
 20
135.825000
  0
VERTEX
  8
0
 10
34.150000
 20
135.100000
  0
VERTEX
  8
0
 10
34.175000
 20
134.400000
  0
VERTEX
  8
0
 10
34.225000
 20
133.675000
  0
VERTEX
  8
0
 10
34.275000
 20
132.975000
  0
VERTEX
  8
0
 10
34.350000
 20
132.275000
  0
VERTEX
  8
0
 10
34.450000
 20
131.575000
  0
VERTEX
  8
0
 10
34.550000
 20
130.875000
  0
VERTEX
  8
0
 10
34.700000
 20
130.175000
  0
VERTEX
  8
0
 10
34.825000
 20
129.500000
  0
VERTEX
  8
0
 10
34.975000
 20
128.825000
  0
VERTEX
  8
0
 10
35.150000
 20
128.150000
  0
VERTEX
  8
0
 10
35.350000
 20
127.475000
  0
VERTEX
  8
0
 10
35.550000
 20
126.825000
  0
VERTEX
  8
0
 10
35.775000
 20
126.150000
  0
VERTEX
  8
0
 10
36.025000
 20
125.500000
  0
VERTEX
  8
0
 10
36.275000
 20
124.850000
  0
VERTEX
  8
0
 10
36.725000
 20
123.875000
  0
VERTEX
  8
0
 10
37.250000
 20
122.950000
  0
VERTEX
  8
0
 10
37.850000
 20
122.100000
  0
VERTEX
  8
0
 10
38.500000
 20
121.325000
  0
VERTEX
  8
0
 10
39.225000
 20
120.600000
  0
VERTEX
  8
0
 10
40.025000
 20
119.925000
  0
VERTEX
  8
0
 10
40.900000
 20
119.325000
  0
VERTEX
  8
0
 10
41.825000
 20
118.800000
  0
VERTEX
  8
0
 10
42.850000
 20
118.325000
  0
VERTEX
  8
0
 10
43.925000
 20
117.925000
  0
VERTEX
  8
0
 10
45.075000
 20
117.575000
  0
VERTEX
  8
0
 10
46.300000
 20
117.275000
  0
VERTEX
  8
0
 10
47.575000
 20
117.050000
  0
VERTEX
  8
0
 10
48.950000
 20
116.900000
  0
VERTEX
  8
0
 10
50.375000
 20
116.800000
  0
VERTEX
  8
0
 10
51.875000
 20
116.775000
  0
VERTEX
  8
0
 10
60.150000
 20
116.775000
  0
VERTEX
  8
0
 10
58.950000
 20
104.050000
  0
VERTEX
  8
0
 10
49.975000
 20
104.050000
  0
VERTEX
  8
0
 10
48.475000
 20
104.100000
  0
VERTEX
  8
0
 10
47.025000
 20
104.250000
  0
VERTEX
  8
0
 10
45.625000
 20
104.475000
  0
VERTEX
  8
0
 10
44.300000
 20
104.800000
  0
VERTEX
  8
0
 10
43.025000
 20
105.225000
  0
VERTEX
  8
0
 10
41.800000
 20
105.750000
  0
VERTEX
  8
0
 10
40.650000
 20
106.375000
  0
VERTEX
  8
0
 10
39.525000
 20
107.075000
  0
VERTEX
  8
0
 10
38.475000
 20
107.900000
  0
VERTEX
  8
0
 10
37.500000
 20
108.800000
  0
VERTEX
  8
0
 10
36.550000
 20
109.775000
  0
VERTEX
  8
0
 10
35.675000
 20
110.875000
  0
VERTEX
  8
0
 10
34.875000
 20
112.050000
  0
VERTEX
  8
0
 10
34.100000
 20
113.325000
  0
VERTEX
  8
0
 10
33.400000
 20
114.700000
  0
VERTEX
  8
0
 10
32.750000
 20
116.175000
  0
VERTEX
  8
0
 10
32.325000
 20
117.275000
  0
VERTEX
  8
0
 10
31.925000
 20
118.375000
  0
VERTEX
  8
0
 10
31.550000
 20
119.500000
  0
VERTEX
  8
0
 10
31.200000
 20
120.650000
  0
VERTEX
  8
0
 10
30.875000
 20
121.800000
  0
VERTEX
  8
0
 10
30.575000
 20
123.000000
  0
VERTEX
  8
0
 10
30.325000
 20
124.200000
  0
VERTEX
  8
0
 10
30.075000
 20
125.400000
  0
VERTEX
  8
0
 10
29.875000
 20
126.650000
  0
VERTEX
  8
0
 10
29.700000
 20
127.900000
  0
VERTEX
  8
0
 10
29.550000
 20
129.175000
  0
VERTEX
  8
0
 10
29.425000
 20
130.475000
  0
VERTEX
  8
0
 10
29.325000
 20
131.775000
  0
VERTEX
  8
0
 10
29.250000
 20
133.100000
  0
VERTEX
  8
0
 10
29.225000
 20
134.450000
  0
VERTEX
  8
0
 10
29.200000
 20
135.825000
  0
VERTEX
  8
0
 10
29.200000
 20
137.175000
  0
VERTEX
  8
0
 10
29.250000
 20
138.500000
  0
VERTEX
  8
0
 10
29.300000
 20
139.775000
  0
VERTEX
  8
0
 10
29.350000
 20
141.025000
  0
VERTEX
  8
0
 10
29.450000
 20
142.225000
  0
VERTEX
  8
0
 10
29.575000
 20
143.400000
  0
VERTEX
  8
0
 10
29.700000
 20
144.525000
  0
VERTEX
  8
0
 10
29.850000
 20
145.625000
  0
VERTEX
  8
0
 10
30.025000
 20
146.700000
  0
VERTEX
  8
0
 10
30.225000
 20
147.725000
  0
VERTEX
  8
0
 10
30.425000
 20
148.700000
  0
VERTEX
  8
0
 10
30.675000
 20
149.675000
  0
VERTEX
  8
0
 10
30.925000
 20
150.575000
  0
VERTEX
  8
0
 10
31.200000
 20
151.475000
  0
VERTEX
  8
0
 10
31.500000
 20
152.325000
  0
VERTEX
  8
0
 10
31.825000
 20
153.125000
  0
VERTEX
  8
0
 10
32.375000
 20
154.375000
  0
VERTEX
  8
0
 10
32.950000
 20
155.575000
  0
VERTEX
  8
0
 10
33.575000
 20
156.675000
  0
VERTEX
  8
0
 10
34.225000
 20
157.675000
  0
VERTEX
  8
0
 10
34.925000
 20
158.600000
  0
VERTEX
  8
0
 10
35.650000
 20
159.450000
  0
VERTEX
  8
0
 10
36.425000
 20
160.225000
  0
VERTEX
  8
0
 10
37.225000
 20
160.925000
  0
VERTEX
  8
0
 10
38.075000
 20
161.525000
  0
VERTEX
  8
0
 10
38.950000
 20
162.050000
  0
VERTEX
  8
0
 10
39.875000
 20
162.500000
  0
VERTEX
  8
0
 10
40.825000
 20
162.850000
  0
VERTEX
  8
0
 10
41.825000
 20
163.150000
  0
VERTEX
  8
0
 10
42.850000
 20
163.350000
  0
VERTEX
  8
0
 10
43.925000
 20
163.450000
  0
VERTEX
  8
0
 10
45.025000
 20
163.500000
  0
VERTEX
  8
0
 10
46.125000
 20
163.500000
  0
VERTEX
  8
0
 10
47.150000
 20
163.475000
  0
VERTEX
  8
0
 10
48.125000
 20
163.425000
  0
VERTEX
  8
0
 10
49.025000
 20
163.350000
  0
VERTEX
  8
0
 10
49.900000
 20
163.275000
  0
VERTEX
  8
0
 10
50.675000
 20
163.175000
  0
VERTEX
  8
0
 10
51.425000
 20
163.050000
  0
VERTEX
  8
0
 10
52.100000
 20
162.925000
  0
VERTEX
  8
0
 10
52.725000
 20
162.775000
  0
VERTEX
  8
0
 10
53.275000
 20
162.600000
  0
VERTEX
  8
0
 10
53.775000
 20
162.425000
  0
VERTEX
  8
0
 10
54.225000
 20
162.225000
  0
VERTEX
  8
0
 10
54.625000
 20
162.000000
  0
VERTEX
  8
0
 10
54.950000
 20
161.750000
  0
VERTEX
  8
0
 10
55.225000
 20
161.500000
  0
VERTEX
  8
0
 10
55.425000
 20
161.225000
  0
VERTEX
  8
0
 10
54.725000
 20
163.375000
  0
VERTEX
  8
0
 10
54.050000
 20
165.475000
  0
VERTEX
  8
0
 10
53.425000
 20
167.525000
  0
VERTEX
  8
0
 10
52.800000
 20
169.550000
  0
VERTEX
  8
0
 10
52.225000
 20
171.525000
  0
VERTEX
  8
0
 10
51.650000
 20
173.475000
  0
VERTEX
  8
0
 10
51.125000
 20
175.375000
  0
VERTEX
  8
0
 10
50.625000
 20
177.225000
  0
VERTEX
  8
0
 10
50.150000
 20
179.050000
  0
VERTEX
  8
0
 10
49.700000
 20
180.825000
  0
VERTEX
  8
0
 10
49.300000
 20
182.575000
  0
VERTEX
  8
0
 10
48.900000
 20
184.275000
  0
VERTEX
  8
0
 10
48.550000
 20
185.925000
  0
VERTEX
  8
0
 10
48.200000
 20
187.550000
  0
VERTEX
  8
0
 10
47.900000
 20
189.125000
  0
VERTEX
  8
0
 10
47.625000
 20
190.650000
  0
SEQEND
  8
0
  0
ENDSEC
  0
EOF
