  0
SECTION
  2
HEADER
  9
$ACADVER
  1
AC1009
  9
$INSBASE
 10
0.000000
 20
0.000000
 30
0.000000
  9
$EXTMIN
 10
0.000000
 20
0.000000
  9
$EXTMAX
 10
190.000000
 20
257.000000
  9
$LIMMIN
 10
0.000000
 20
0.000000
  9
$LIMMAX
 10
190.000000
 20
257.000000
  9
$TEXTSIZE
 40
0.200000
  9
$TEXTSTYLE
  7
BIGFONT
  9
$CLAYER
  8
0
  9
$ANGBASE
 50
0.000000
  9
$ANGDIR
 70
     0
  0
ENDSEC
  0
SECTION
  2
TABLES
  0
TABLE
  2
LTYPE
 70
    11
  0
LTYPE
  2
BYBLOCK
 70
    64
  3
BYBLOCK
 72
    65
 73
     0
 40
0.000000
  0
LTYPE
  2
BYLAYER
 70
    64
  3
BYLAYER
 72
    65
 73
     0
 40
0.000000
  0
LTYPE
  2
CONTINUOUS
 70
    64
  3
é¿ê¸
 72
    65
 73
     0
 40
0.000000
  0
LTYPE
  2
DASHED
 70
    64
  3
__ __ __ __ __ __ __ __ __ __ __ __ __ __ __
 72
    65
 73
     2
 40
0.750000
 49
0.500000
 49
-0.250000
  0
LTYPE
  2
HIDDEN
 70
    64
  3
_ _ _ _ _ _ _ _ _ _ _ _ _ _ _ _ _ _ _ _ _ _ _
 72
    65
 73
     2
 40
0.375000
 49
0.250000
 49
-0.125000
  0
LTYPE
  2
CENTER
 70
    64
  3
____ _ ____ _ ____ _ ____ _ ____ _ ____ _ ____
 72
    65
 73
     4
 40
2.000000
 49
1.250000
 49
-0.250000
 49
0.250000
 49
-0.250000
  0
LTYPE
  2
PHANTOM
 70
    64
  3
_____ _ _ _____ _ _ _____ _ _ _____ _ _ ____
 72
    65
 73
     6
 40
2.500000
 49
1.250000
 49
-0.250000
 49
0.250000
 49
-0.250000
 49
0.250000
 49
-0.250000
  0
LTYPE
  2
DOT
 70
    64
  3
...............................................
 72
    65
 73
     2
 40
0.250000
 49
0.000000
 49
-0.250000
  0
LTYPE
  2
DASHDOT
 70
    64
  3
__ . __ . __ . __ . __ . __ . __ . __ . __ . __
 72
    65
 73
     4
 40
1.000000
 49
0.500000
 49
-0.250000
 49
0.000000
 49
-0.250000
  0
LTYPE
  2
BORDER
 70
    64
  3
__ __ . __ __ . __ __ . __ __ . __ __ . __ __
 72
    65
 73
     6
 40
1.750000
 49
0.500000
 49
-0.250000
 49
0.500000
 49
-0.250000
 49
0.000000
 49
-0.250000
  0
LTYPE
  2
DIVIDE
 70
    64
  3
__ . . __ . . __ . . __ . . __ . . __ . . __
 72
    65
 73
     6
 40
1.250000
 49
0.500000
 49
-0.250000
 49
0.000000
 49
-0.250000
 49
0.000000
 49
-0.250000
  0
ENDTAB
  0
TABLE
  2
LAYER
  5
a2
 70
     2
  0
LAYER
  5
a5
  2
0
 70
     0
 62
     7
  6
CONTINUOUS
  0
LAYER
  5
a8
  2
B
 70
     0
 62
     7
  6
CONTINUOUS
  0
LAYER
  5
ab
  2
C
 70
     0
 62
     7
  6
CONTINUOUS
  0
LAYER
  5
ae
  2
D
 70
     0
 62
     7
  6
CONTINUOUS
  0
LAYER
  5
b1
  2
E
 70
     0
 62
     7
  6
CONTINUOUS
  0
LAYER
  5
b4
  2
F
 70
     0
 62
     7
  6
CONTINUOUS
  0
LAYER
  5
b7
  2
G
 70
     0
 62
     7
  6
CONTINUOUS
  0
LAYER
  5
ba
  2
H
 70
     0
 62
     7
  6
CONTINUOUS
  0
LAYER
  5
bd
  2
I
 70
     0
 62
     7
  6
CONTINUOUS
  0
LAYER
  5
c0
  2
J
 70
     0
 62
     7
  6
CONTINUOUS
  0
LAYER
  5
c3
  2
K
 70
     0
 62
     7
  6
CONTINUOUS
  0
LAYER
  5
c6
  2
L
 70
     0
 62
     7
  6
CONTINUOUS
  0
LAYER
  5
c9
  2
M
 70
     0
 62
     7
  6
CONTINUOUS
  0
LAYER
  5
cc
  2
N
 70
     0
 62
     7
  6
CONTINUOUS
  0
ENDTAB
  0
TABLE
  2
STYLE
 70
     2
  0
STYLE
  2
STANDARD
 70
     0
 40
0.000000
 41
0.500000
 50
0.000000
 71
     0
 42
0.300000
  3
txt
  4

  0
STYLE
  2
BIGFONT
 70
    64
 40
0.000000
 41
1.000000
 50
0.000000
 71
     0
 42
0.200000
  3

  4
bigfont
  0
ENDTAB
  0
ENDSEC
  0
SECTION
  2
BLOCKS
  0
ENDSEC
  0
SECTION
  2
ENTITIES
  0
POLYLINE
  8
0
 66
     1
 70
     1
 40
0.200000
 41
0.200000
  0
VERTEX
  8
0
 10
166.700000
 20
205.550000
  0
VERTEX
  8
0
 10
164.475000
 20
205.125000
  0
VERTEX
  8
0
 10
162.250000
 20
204.725000
  0
VERTEX
  8
0
 10
160.000000
 20
204.325000
  0
VERTEX
  8
0
 10
157.750000
 20
203.950000
  0
VERTEX
  8
0
 10
155.500000
 20
203.575000
  0
VERTEX
  8
0
 10
153.225000
 20
203.225000
  0
VERTEX
  8
0
 10
150.925000
 20
202.900000
  0
VERTEX
  8
0
 10
148.625000
 20
202.575000
  0
VERTEX
  8
0
 10
146.325000
 20
202.250000
  0
VERTEX
  8
0
 10
144.000000
 20
201.950000
  0
VERTEX
  8
0
 10
141.675000
 20
201.675000
  0
VERTEX
  8
0
 10
139.325000
 20
201.400000
  0
VERTEX
  8
0
 10
136.975000
 20
201.150000
  0
VERTEX
  8
0
 10
134.600000
 20
200.900000
  0
VERTEX
  8
0
 10
132.225000
 20
200.675000
  0
VERTEX
  8
0
 10
129.850000
 20
200.450000
  0
VERTEX
  8
0
 10
127.450000
 20
200.250000
  0
VERTEX
  8
0
 10
125.025000
 20
200.050000
  0
VERTEX
  8
0
 10
122.600000
 20
199.875000
  0
VERTEX
  8
0
 10
120.175000
 20
199.700000
  0
VERTEX
  8
0
 10
117.725000
 20
199.550000
  0
VERTEX
  8
0
 10
115.275000
 20
199.400000
  0
VERTEX
  8
0
 10
112.800000
 20
199.275000
  0
VERTEX
  8
0
 10
110.325000
 20
199.175000
  0
VERTEX
  8
0
 10
107.850000
 20
199.075000
  0
VERTEX
  8
0
 10
105.350000
 20
199.000000
  0
VERTEX
  8
0
 10
102.825000
 20
198.925000
  0
VERTEX
  8
0
 10
100.300000
 20
198.850000
  0
VERTEX
  8
0
 10
97.775000
 20
198.800000
  0
VERTEX
  8
0
 10
95.225000
 20
198.775000
  0
VERTEX
  8
0
 10
92.675000
 20
198.750000
  0
VERTEX
  8
0
 10
90.100000
 20
198.750000
  0
VERTEX
  8
0
 10
88.275000
 20
198.750000
  0
VERTEX
  8
0
 10
86.475000
 20
198.750000
  0
VERTEX
  8
0
 10
84.700000
 20
198.775000
  0
VERTEX
  8
0
 10
82.950000
 20
198.800000
  0
VERTEX
  8
0
 10
81.250000
 20
198.800000
  0
VERTEX
  8
0
 10
79.550000
 20
198.825000
  0
VERTEX
  8
0
 10
77.900000
 20
198.875000
  0
VERTEX
  8
0
 10
76.300000
 20
198.900000
  0
VERTEX
  8
0
 10
74.700000
 20
198.950000
  0
VERTEX
  8
0
 10
73.125000
 20
198.975000
  0
VERTEX
  8
0
 10
71.600000
 20
199.025000
  0
VERTEX
  8
0
 10
70.100000
 20
199.100000
  0
VERTEX
  8
0
 10
68.650000
 20
199.150000
  0
VERTEX
  8
0
 10
67.200000
 20
199.225000
  0
VERTEX
  8
0
 10
65.800000
 20
199.275000
  0
VERTEX
  8
0
 10
64.425000
 20
199.350000
  0
VERTEX
  8
0
 10
63.075000
 20
199.425000
  0
VERTEX
  8
0
 10
61.750000
 20
199.525000
  0
VERTEX
  8
0
 10
60.450000
 20
199.600000
  0
VERTEX
  8
0
 10
59.200000
 20
199.700000
  0
VERTEX
  8
0
 10
57.975000
 20
199.800000
  0
VERTEX
  8
0
 10
56.775000
 20
199.900000
  0
VERTEX
  8
0
 10
55.625000
 20
200.000000
  0
VERTEX
  8
0
 10
54.475000
 20
200.125000
  0
VERTEX
  8
0
 10
53.375000
 20
200.250000
  0
VERTEX
  8
0
 10
52.300000
 20
200.350000
  0
VERTEX
  8
0
 10
51.275000
 20
200.500000
  0
VERTEX
  8
0
 10
50.250000
 20
200.625000
  0
VERTEX
  8
0
 10
49.275000
 20
200.750000
  0
VERTEX
  8
0
 10
48.325000
 20
200.900000
  0
VERTEX
  8
0
 10
47.400000
 20
201.050000
  0
VERTEX
  8
0
 10
46.525000
 20
201.200000
  0
VERTEX
  8
0
 10
45.875000
 20
201.325000
  0
VERTEX
  8
0
 10
45.225000
 20
201.450000
  0
VERTEX
  8
0
 10
44.625000
 20
201.575000
  0
VERTEX
  8
0
 10
44.025000
 20
201.725000
  0
VERTEX
  8
0
 10
43.450000
 20
201.875000
  0
VERTEX
  8
0
 10
42.875000
 20
202.025000
  0
VERTEX
  8
0
 10
42.350000
 20
202.200000
  0
VERTEX
  8
0
 10
41.850000
 20
202.350000
  0
VERTEX
  8
0
 10
41.350000
 20
202.525000
  0
VERTEX
  8
0
 10
40.875000
 20
202.725000
  0
VERTEX
  8
0
 10
40.425000
 20
202.900000
  0
VERTEX
  8
0
 10
40.000000
 20
203.100000
  0
VERTEX
  8
0
 10
39.575000
 20
203.300000
  0
VERTEX
  8
0
 10
39.200000
 20
203.500000
  0
VERTEX
  8
0
 10
38.825000
 20
203.725000
  0
VERTEX
  8
0
 10
38.475000
 20
203.950000
  0
VERTEX
  8
0
 10
38.150000
 20
204.175000
  0
VERTEX
  8
0
 10
37.850000
 20
204.425000
  0
VERTEX
  8
0
 10
37.550000
 20
204.650000
  0
VERTEX
  8
0
 10
37.300000
 20
204.900000
  0
VERTEX
  8
0
 10
37.050000
 20
205.175000
  0
VERTEX
  8
0
 10
36.825000
 20
205.425000
  0
VERTEX
  8
0
 10
36.625000
 20
205.700000
  0
VERTEX
  8
0
 10
36.450000
 20
205.975000
  0
VERTEX
  8
0
 10
36.300000
 20
206.250000
  0
VERTEX
  8
0
 10
36.150000
 20
206.550000
  0
VERTEX
  8
0
 10
36.050000
 20
206.850000
  0
VERTEX
  8
0
 10
35.950000
 20
207.150000
  0
VERTEX
  8
0
 10
35.875000
 20
207.450000
  0
VERTEX
  8
0
 10
35.825000
 20
207.775000
  0
VERTEX
  8
0
 10
35.775000
 20
208.100000
  0
VERTEX
  8
0
 10
35.775000
 20
208.425000
  0
VERTEX
  8
0
 10
35.775000
 20
227.825000
  0
VERTEX
  8
0
 10
53.125000
 20
227.825000
  0
VERTEX
  8
0
 10
53.575000
 20
227.800000
  0
VERTEX
  8
0
 10
54.000000
 20
227.775000
  0
VERTEX
  8
0
 10
54.400000
 20
227.775000
  0
VERTEX
  8
0
 10
54.750000
 20
227.750000
  0
VERTEX
  8
0
 10
55.100000
 20
227.725000
  0
VERTEX
  8
0
 10
55.425000
 20
227.700000
  0
VERTEX
  8
0
 10
55.725000
 20
227.675000
  0
VERTEX
  8
0
 10
56.000000
 20
227.650000
  0
VERTEX
  8
0
 10
56.225000
 20
227.625000
  0
VERTEX
  8
0
 10
56.450000
 20
227.575000
  0
VERTEX
  8
0
 10
56.650000
 20
227.550000
  0
VERTEX
  8
0
 10
56.800000
 20
227.525000
  0
VERTEX
  8
0
 10
56.950000
 20
227.500000
  0
VERTEX
  8
0
 10
57.075000
 20
227.450000
  0
VERTEX
  8
0
 10
57.150000
 20
227.425000
  0
VERTEX
  8
0
 10
57.225000
 20
227.400000
  0
VERTEX
  8
0
 10
57.250000
 20
227.350000
  0
VERTEX
  8
0
 10
57.275000
 20
227.325000
  0
VERTEX
  8
0
 10
57.275000
 20
227.275000
  0
VERTEX
  8
0
 10
57.225000
 20
227.250000
  0
VERTEX
  8
0
 10
57.175000
 20
227.200000
  0
VERTEX
  8
0
 10
57.075000
 20
227.150000
  0
VERTEX
  8
0
 10
56.950000
 20
227.125000
  0
VERTEX
  8
0
 10
56.825000
 20
227.075000
  0
VERTEX
  8
0
 10
56.650000
 20
227.025000
  0
VERTEX
  8
0
 10
56.475000
 20
226.975000
  0
VERTEX
  8
0
 10
56.250000
 20
226.925000
  0
VERTEX
  8
0
 10
56.000000
 20
226.875000
  0
VERTEX
  8
0
 10
55.725000
 20
226.825000
  0
VERTEX
  8
0
 10
55.450000
 20
226.775000
  0
VERTEX
  8
0
 10
55.125000
 20
226.725000
  0
VERTEX
  8
0
 10
54.775000
 20
226.675000
  0
VERTEX
  8
0
 10
54.775000
 20
208.425000
  0
VERTEX
  8
0
 10
54.775000
 20
208.200000
  0
VERTEX
  8
0
 10
54.800000
 20
207.975000
  0
VERTEX
  8
0
 10
54.850000
 20
207.775000
  0
VERTEX
  8
0
 10
54.900000
 20
207.550000
  0
VERTEX
  8
0
 10
54.950000
 20
207.350000
  0
VERTEX
  8
0
 10
55.025000
 20
207.150000
  0
VERTEX
  8
0
 10
55.125000
 20
206.950000
  0
VERTEX
  8
0
 10
55.225000
 20
206.775000
  0
VERTEX
  8
0
 10
55.350000
 20
206.575000
  0
VERTEX
  8
0
 10
55.475000
 20
206.400000
  0
VERTEX
  8
0
 10
55.625000
 20
206.225000
  0
VERTEX
  8
0
 10
55.800000
 20
206.050000
  0
VERTEX
  8
0
 10
55.975000
 20
205.875000
  0
VERTEX
  8
0
 10
56.175000
 20
205.700000
  0
VERTEX
  8
0
 10
56.375000
 20
205.550000
  0
VERTEX
  8
0
 10
56.600000
 20
205.400000
  0
VERTEX
  8
0
 10
56.825000
 20
205.250000
  0
VERTEX
  8
0
 10
57.075000
 20
205.100000
  0
VERTEX
  8
0
 10
57.350000
 20
204.950000
  0
VERTEX
  8
0
 10
57.625000
 20
204.825000
  0
VERTEX
  8
0
 10
57.925000
 20
204.675000
  0
VERTEX
  8
0
 10
58.225000
 20
204.550000
  0
VERTEX
  8
0
 10
58.550000
 20
204.425000
  0
VERTEX
  8
0
 10
58.900000
 20
204.300000
  0
VERTEX
  8
0
 10
59.250000
 20
204.200000
  0
VERTEX
  8
0
 10
59.625000
 20
204.075000
  0
VERTEX
  8
0
 10
60.000000
 20
203.975000
  0
VERTEX
  8
0
 10
60.400000
 20
203.875000
  0
VERTEX
  8
0
 10
60.825000
 20
203.775000
  0
VERTEX
  8
0
 10
61.250000
 20
203.700000
  0
VERTEX
  8
0
 10
61.700000
 20
203.600000
  0
VERTEX
  8
0
 10
62.150000
 20
203.525000
  0
VERTEX
  8
0
 10
62.725000
 20
203.425000
  0
VERTEX
  8
0
 10
63.325000
 20
203.325000
  0
VERTEX
  8
0
 10
63.925000
 20
203.225000
  0
VERTEX
  8
0
 10
64.550000
 20
203.150000
  0
VERTEX
  8
0
 10
65.200000
 20
203.050000
  0
VERTEX
  8
0
 10
65.875000
 20
202.975000
  0
VERTEX
  8
0
 10
66.550000
 20
202.900000
  0
VERTEX
  8
0
 10
67.250000
 20
202.825000
  0
VERTEX
  8
0
 10
67.975000
 20
202.750000
  0
VERTEX
  8
0
 10
68.700000
 20
202.675000
  0
VERTEX
  8
0
 10
69.450000
 20
202.600000
  0
VERTEX
  8
0
 10
70.225000
 20
202.550000
  0
VERTEX
  8
0
 10
71.000000
 20
202.475000
  0
VERTEX
  8
0
 10
71.800000
 20
202.425000
  0
VERTEX
  8
0
 10
72.625000
 20
202.375000
  0
VERTEX
  8
0
 10
73.475000
 20
202.325000
  0
VERTEX
  8
0
 10
74.325000
 20
202.275000
  0
VERTEX
  8
0
 10
75.200000
 20
202.225000
  0
VERTEX
  8
0
 10
76.100000
 20
202.175000
  0
VERTEX
  8
0
 10
77.000000
 20
202.150000
  0
VERTEX
  8
0
 10
77.925000
 20
202.100000
  0
VERTEX
  8
0
 10
78.875000
 20
202.075000
  0
VERTEX
  8
0
 10
79.850000
 20
202.050000
  0
VERTEX
  8
0
 10
80.825000
 20
202.025000
  0
VERTEX
  8
0
 10
81.825000
 20
202.000000
  0
VERTEX
  8
0
 10
82.850000
 20
201.975000
  0
VERTEX
  8
0
 10
83.875000
 20
201.975000
  0
VERTEX
  8
0
 10
84.925000
 20
201.950000
  0
VERTEX
  8
0
 10
86.000000
 20
201.950000
  0
VERTEX
  8
0
 10
87.100000
 20
201.925000
  0
VERTEX
  8
0
 10
88.200000
 20
201.925000
  0
VERTEX
  8
0
 10
89.325000
 20
201.925000
  0
VERTEX
  8
0
 10
91.325000
 20
201.925000
  0
VERTEX
  8
0
 10
93.350000
 20
201.950000
  0
VERTEX
  8
0
 10
95.350000
 20
201.975000
  0
VERTEX
  8
0
 10
97.375000
 20
202.025000
  0
VERTEX
  8
0
 10
99.375000
 20
202.075000
  0
VERTEX
  8
0
 10
101.400000
 20
202.150000
  0
VERTEX
  8
0
 10
103.400000
 20
202.225000
  0
VERTEX
  8
0
 10
105.425000
 20
202.325000
  0
VERTEX
  8
0
 10
107.450000
 20
202.425000
  0
VERTEX
  8
0
 10
109.475000
 20
202.550000
  0
VERTEX
  8
0
 10
111.500000
 20
202.675000
  0
VERTEX
  8
0
 10
113.525000
 20
202.825000
  0
VERTEX
  8
0
 10
115.550000
 20
202.975000
  0
VERTEX
  8
0
 10
117.575000
 20
203.150000
  0
VERTEX
  8
0
 10
119.600000
 20
203.325000
  0
VERTEX
  8
0
 10
121.650000
 20
203.525000
  0
VERTEX
  8
0
 10
123.675000
 20
203.725000
  0
VERTEX
  8
0
 10
125.700000
 20
203.950000
  0
VERTEX
  8
0
 10
127.750000
 20
204.175000
  0
VERTEX
  8
0
 10
129.775000
 20
204.425000
  0
VERTEX
  8
0
 10
131.825000
 20
204.675000
  0
VERTEX
  8
0
 10
133.850000
 20
204.950000
  0
VERTEX
  8
0
 10
135.900000
 20
205.225000
  0
VERTEX
  8
0
 10
137.950000
 20
205.500000
  0
VERTEX
  8
0
 10
139.975000
 20
205.825000
  0
VERTEX
  8
0
 10
142.025000
 20
206.125000
  0
VERTEX
  8
0
 10
144.075000
 20
206.475000
  0
VERTEX
  8
0
 10
146.125000
 20
206.800000
  0
VERTEX
  8
0
 10
148.175000
 20
207.150000
  0
VERTEX
  8
0
 10
150.225000
 20
207.525000
  0
VERTEX
  8
0
 10
152.275000
 20
207.900000
  0
VERTEX
  8
0
 10
154.325000
 20
208.300000
  0
VERTEX
  8
0
 10
166.700000
 20
205.550000
  0
SEQEND
  8
0
  0
ENDSEC
  0
EOF
