  0
SECTION
  2
HEADER
  9
$ACADVER
  1
AC1009
  9
$INSBASE
 10
0.000000
 20
0.000000
 30
0.000000
  9
$EXTMIN
 10
0.000000
 20
0.000000
  9
$EXTMAX
 10
190.000000
 20
257.000000
  9
$LIMMIN
 10
0.000000
 20
0.000000
  9
$LIMMAX
 10
190.000000
 20
257.000000
  9
$TEXTSIZE
 40
0.200000
  9
$TEXTSTYLE
  7
BIGFONT
  9
$CLAYER
  8
0
  9
$ANGBASE
 50
0.000000
  9
$ANGDIR
 70
     0
  0
ENDSEC
  0
SECTION
  2
TABLES
  0
TABLE
  2
LTYPE
 70
    11
  0
LTYPE
  2
BYBLOCK
 70
    64
  3
BYBLOCK
 72
    65
 73
     0
 40
0.000000
  0
LTYPE
  2
BYLAYER
 70
    64
  3
BYLAYER
 72
    65
 73
     0
 40
0.000000
  0
LTYPE
  2
CONTINUOUS
 70
    64
  3
é¿ê¸
 72
    65
 73
     0
 40
0.000000
  0
LTYPE
  2
DASHED
 70
    64
  3
__ __ __ __ __ __ __ __ __ __ __ __ __ __ __
 72
    65
 73
     2
 40
0.750000
 49
0.500000
 49
-0.250000
  0
LTYPE
  2
HIDDEN
 70
    64
  3
_ _ _ _ _ _ _ _ _ _ _ _ _ _ _ _ _ _ _ _ _ _ _
 72
    65
 73
     2
 40
0.375000
 49
0.250000
 49
-0.125000
  0
LTYPE
  2
CENTER
 70
    64
  3
____ _ ____ _ ____ _ ____ _ ____ _ ____ _ ____
 72
    65
 73
     4
 40
2.000000
 49
1.250000
 49
-0.250000
 49
0.250000
 49
-0.250000
  0
LTYPE
  2
PHANTOM
 70
    64
  3
_____ _ _ _____ _ _ _____ _ _ _____ _ _ ____
 72
    65
 73
     6
 40
2.500000
 49
1.250000
 49
-0.250000
 49
0.250000
 49
-0.250000
 49
0.250000
 49
-0.250000
  0
LTYPE
  2
DOT
 70
    64
  3
...............................................
 72
    65
 73
     2
 40
0.250000
 49
0.000000
 49
-0.250000
  0
LTYPE
  2
DASHDOT
 70
    64
  3
__ . __ . __ . __ . __ . __ . __ . __ . __ . __
 72
    65
 73
     4
 40
1.000000
 49
0.500000
 49
-0.250000
 49
0.000000
 49
-0.250000
  0
LTYPE
  2
BORDER
 70
    64
  3
__ __ . __ __ . __ __ . __ __ . __ __ . __ __
 72
    65
 73
     6
 40
1.750000
 49
0.500000
 49
-0.250000
 49
0.500000
 49
-0.250000
 49
0.000000
 49
-0.250000
  0
LTYPE
  2
DIVIDE
 70
    64
  3
__ . . __ . . __ . . __ . . __ . . __ . . __
 72
    65
 73
     6
 40
1.250000
 49
0.500000
 49
-0.250000
 49
0.000000
 49
-0.250000
 49
0.000000
 49
-0.250000
  0
ENDTAB
  0
TABLE
  2
LAYER
  5
a2
 70
     2
  0
LAYER
  5
a5
  2
0
 70
     0
 62
     7
  6
CONTINUOUS
  0
LAYER
  5
a8
  2
B
 70
     0
 62
     7
  6
CONTINUOUS
  0
LAYER
  5
ab
  2
C
 70
     0
 62
     7
  6
CONTINUOUS
  0
LAYER
  5
ae
  2
D
 70
     0
 62
     7
  6
CONTINUOUS
  0
LAYER
  5
b1
  2
E
 70
     0
 62
     7
  6
CONTINUOUS
  0
LAYER
  5
b4
  2
F
 70
     0
 62
     7
  6
CONTINUOUS
  0
LAYER
  5
b7
  2
G
 70
     0
 62
     7
  6
CONTINUOUS
  0
LAYER
  5
ba
  2
H
 70
     0
 62
     7
  6
CONTINUOUS
  0
LAYER
  5
bd
  2
I
 70
     0
 62
     7
  6
CONTINUOUS
  0
LAYER
  5
c0
  2
J
 70
     0
 62
     7
  6
CONTINUOUS
  0
LAYER
  5
c3
  2
K
 70
     0
 62
     7
  6
CONTINUOUS
  0
LAYER
  5
c6
  2
L
 70
     0
 62
     7
  6
CONTINUOUS
  0
LAYER
  5
c9
  2
M
 70
     0
 62
     7
  6
CONTINUOUS
  0
LAYER
  5
cc
  2
N
 70
     0
 62
     7
  6
CONTINUOUS
  0
ENDTAB
  0
TABLE
  2
STYLE
 70
     2
  0
STYLE
  2
STANDARD
 70
     0
 40
0.000000
 41
0.500000
 50
0.000000
 71
     0
 42
0.300000
  3
txt
  4

  0
STYLE
  2
BIGFONT
 70
    64
 40
0.000000
 41
1.000000
 50
0.000000
 71
     0
 42
0.200000
  3

  4
bigfont
  0
ENDTAB
  0
ENDSEC
  0
SECTION
  2
BLOCKS
  0
ENDSEC
  0
SECTION
  2
ENTITIES
  0
POLYLINE
  8
0
 66
     1
 70
     1
 40
0.200000
 41
0.200000
  0
VERTEX
  8
0
 10
54.700000
 20
168.575000
  0
VERTEX
  8
0
 10
54.250000
 20
168.325000
  0
VERTEX
  8
0
 10
53.775000
 20
168.075000
  0
VERTEX
  8
0
 10
53.325000
 20
167.850000
  0
VERTEX
  8
0
 10
52.875000
 20
167.650000
  0
VERTEX
  8
0
 10
52.400000
 20
167.450000
  0
VERTEX
  8
0
 10
51.925000
 20
167.275000
  0
VERTEX
  8
0
 10
51.450000
 20
167.125000
  0
VERTEX
  8
0
 10
51.000000
 20
166.975000
  0
VERTEX
  8
0
 10
50.525000
 20
166.850000
  0
VERTEX
  8
0
 10
50.025000
 20
166.750000
  0
VERTEX
  8
0
 10
49.550000
 20
166.650000
  0
VERTEX
  8
0
 10
49.075000
 20
166.575000
  0
VERTEX
  8
0
 10
48.600000
 20
166.525000
  0
VERTEX
  8
0
 10
48.100000
 20
166.475000
  0
VERTEX
  8
0
 10
47.625000
 20
166.450000
  0
VERTEX
  8
0
 10
47.125000
 20
166.450000
  0
VERTEX
  8
0
 10
46.500000
 20
166.450000
  0
VERTEX
  8
0
 10
45.875000
 20
166.500000
  0
VERTEX
  8
0
 10
45.275000
 20
166.550000
  0
VERTEX
  8
0
 10
44.700000
 20
166.625000
  0
VERTEX
  8
0
 10
44.125000
 20
166.725000
  0
VERTEX
  8
0
 10
43.600000
 20
166.825000
  0
VERTEX
  8
0
 10
43.075000
 20
166.975000
  0
VERTEX
  8
0
 10
42.575000
 20
167.125000
  0
VERTEX
  8
0
 10
42.075000
 20
167.300000
  0
VERTEX
  8
0
 10
41.625000
 20
167.500000
  0
VERTEX
  8
0
 10
41.175000
 20
167.725000
  0
VERTEX
  8
0
 10
40.750000
 20
167.975000
  0
VERTEX
  8
0
 10
40.350000
 20
168.250000
  0
VERTEX
  8
0
 10
39.975000
 20
168.525000
  0
VERTEX
  8
0
 10
39.600000
 20
168.850000
  0
VERTEX
  8
0
 10
39.250000
 20
169.175000
  0
VERTEX
  8
0
 10
38.800000
 20
169.625000
  0
VERTEX
  8
0
 10
38.400000
 20
170.100000
  0
VERTEX
  8
0
 10
38.025000
 20
170.575000
  0
VERTEX
  8
0
 10
37.650000
 20
171.050000
  0
VERTEX
  8
0
 10
37.325000
 20
171.525000
  0
VERTEX
  8
0
 10
37.025000
 20
172.025000
  0
VERTEX
  8
0
 10
36.750000
 20
172.525000
  0
VERTEX
  8
0
 10
36.525000
 20
173.025000
  0
VERTEX
  8
0
 10
36.300000
 20
173.550000
  0
VERTEX
  8
0
 10
36.125000
 20
174.075000
  0
VERTEX
  8
0
 10
35.950000
 20
174.600000
  0
VERTEX
  8
0
 10
35.825000
 20
175.125000
  0
VERTEX
  8
0
 10
35.725000
 20
175.675000
  0
VERTEX
  8
0
 10
35.650000
 20
176.225000
  0
VERTEX
  8
0
 10
35.625000
 20
176.775000
  0
VERTEX
  8
0
 10
35.600000
 20
177.350000
  0
VERTEX
  8
0
 10
35.625000
 20
177.950000
  0
VERTEX
  8
0
 10
35.650000
 20
178.550000
  0
VERTEX
  8
0
 10
35.725000
 20
179.125000
  0
VERTEX
  8
0
 10
35.825000
 20
179.700000
  0
VERTEX
  8
0
 10
35.950000
 20
180.250000
  0
VERTEX
  8
0
 10
36.125000
 20
180.825000
  0
VERTEX
  8
0
 10
36.300000
 20
181.375000
  0
VERTEX
  8
0
 10
36.525000
 20
181.900000
  0
VERTEX
  8
0
 10
36.750000
 20
182.425000
  0
VERTEX
  8
0
 10
37.025000
 20
182.950000
  0
VERTEX
  8
0
 10
37.325000
 20
183.450000
  0
VERTEX
  8
0
 10
37.650000
 20
183.950000
  0
VERTEX
  8
0
 10
38.025000
 20
184.450000
  0
VERTEX
  8
0
 10
38.400000
 20
184.925000
  0
VERTEX
  8
0
 10
38.800000
 20
185.400000
  0
VERTEX
  8
0
 10
39.250000
 20
185.850000
  0
VERTEX
  8
0
 10
39.700000
 20
186.300000
  0
VERTEX
  8
0
 10
40.200000
 20
186.700000
  0
VERTEX
  8
0
 10
40.675000
 20
187.075000
  0
VERTEX
  8
0
 10
41.175000
 20
187.450000
  0
VERTEX
  8
0
 10
41.700000
 20
187.775000
  0
VERTEX
  8
0
 10
42.225000
 20
188.075000
  0
VERTEX
  8
0
 10
42.775000
 20
188.325000
  0
VERTEX
  8
0
 10
43.350000
 20
188.575000
  0
VERTEX
  8
0
 10
43.900000
 20
188.775000
  0
VERTEX
  8
0
 10
44.500000
 20
188.975000
  0
VERTEX
  8
0
 10
45.100000
 20
189.125000
  0
VERTEX
  8
0
 10
45.725000
 20
189.250000
  0
VERTEX
  8
0
 10
46.350000
 20
189.350000
  0
VERTEX
  8
0
 10
47.000000
 20
189.425000
  0
VERTEX
  8
0
 10
47.650000
 20
189.450000
  0
VERTEX
  8
0
 10
48.325000
 20
189.475000
  0
VERTEX
  8
0
 10
48.775000
 20
189.475000
  0
VERTEX
  8
0
 10
49.225000
 20
189.450000
  0
VERTEX
  8
0
 10
49.675000
 20
189.450000
  0
VERTEX
  8
0
 10
50.125000
 20
189.425000
  0
VERTEX
  8
0
 10
50.575000
 20
189.375000
  0
VERTEX
  8
0
 10
51.000000
 20
189.350000
  0
VERTEX
  8
0
 10
51.450000
 20
189.300000
  0
VERTEX
  8
0
 10
51.900000
 20
189.250000
  0
VERTEX
  8
0
 10
52.325000
 20
189.200000
  0
VERTEX
  8
0
 10
52.750000
 20
189.125000
  0
VERTEX
  8
0
 10
53.175000
 20
189.050000
  0
VERTEX
  8
0
 10
53.625000
 20
188.975000
  0
VERTEX
  8
0
 10
54.050000
 20
188.875000
  0
VERTEX
  8
0
 10
54.450000
 20
188.775000
  0
VERTEX
  8
0
 10
54.875000
 20
188.675000
  0
VERTEX
  8
0
 10
55.300000
 20
188.575000
  0
VERTEX
  8
0
 10
55.300000
 20
195.250000
  0
VERTEX
  8
0
 10
21.975000
 20
193.125000
  0
VERTEX
  8
0
 10
20.750000
 20
199.475000
  0
VERTEX
  8
0
 10
55.300000
 20
201.000000
  0
VERTEX
  8
0
 10
55.300000
 20
215.250000
  0
VERTEX
  8
0
 10
60.775000
 20
215.250000
  0
VERTEX
  8
0
 10
61.175000
 20
215.175000
  0
VERTEX
  8
0
 10
61.500000
 20
215.075000
  0
VERTEX
  8
0
 10
61.800000
 20
214.975000
  0
VERTEX
  8
0
 10
62.050000
 20
214.875000
  0
VERTEX
  8
0
 10
62.250000
 20
214.750000
  0
VERTEX
  8
0
 10
62.425000
 20
214.625000
  0
VERTEX
  8
0
 10
62.525000
 20
214.475000
  0
VERTEX
  8
0
 10
62.575000
 20
214.325000
  0
VERTEX
  8
0
 10
62.600000
 20
214.175000
  0
VERTEX
  8
0
 10
62.575000
 20
214.025000
  0
VERTEX
  8
0
 10
62.500000
 20
213.850000
  0
VERTEX
  8
0
 10
62.350000
 20
213.650000
  0
VERTEX
  8
0
 10
62.175000
 20
213.450000
  0
VERTEX
  8
0
 10
61.975000
 20
213.250000
  0
VERTEX
  8
0
 10
61.700000
 20
213.050000
  0
VERTEX
  8
0
 10
61.375000
 20
212.825000
  0
VERTEX
  8
0
 10
61.375000
 20
201.300000
  0
VERTEX
  8
0
 10
87.125000
 20
203.125000
  0
VERTEX
  8
0
 10
87.125000
 20
196.750000
  0
VERTEX
  8
0
 10
61.375000
 20
195.550000
  0
VERTEX
  8
0
 10
61.375000
 20
184.025000
  0
VERTEX
  8
0
 10
61.525000
 20
183.325000
  0
VERTEX
  8
0
 10
61.650000
 20
182.650000
  0
VERTEX
  8
0
 10
61.775000
 20
181.925000
  0
VERTEX
  8
0
 10
61.900000
 20
181.225000
  0
VERTEX
  8
0
 10
62.000000
 20
180.500000
  0
VERTEX
  8
0
 10
62.100000
 20
179.750000
  0
VERTEX
  8
0
 10
62.200000
 20
179.025000
  0
VERTEX
  8
0
 10
62.275000
 20
178.250000
  0
VERTEX
  8
0
 10
62.350000
 20
177.500000
  0
VERTEX
  8
0
 10
62.400000
 20
176.725000
  0
VERTEX
  8
0
 10
62.450000
 20
175.950000
  0
VERTEX
  8
0
 10
62.500000
 20
175.150000
  0
VERTEX
  8
0
 10
62.525000
 20
174.350000
  0
VERTEX
  8
0
 10
62.550000
 20
173.550000
  0
VERTEX
  8
0
 10
62.575000
 20
172.725000
  0
VERTEX
  8
0
 10
62.575000
 20
171.900000
  0
VERTEX
  8
0
 10
62.475000
 20
170.000000
  0
VERTEX
  8
0
 10
62.250000
 20
168.125000
  0
VERTEX
  8
0
 10
61.875000
 20
166.275000
  0
VERTEX
  8
0
 10
61.375000
 20
164.475000
  0
VERTEX
  8
0
 10
60.750000
 20
162.725000
  0
VERTEX
  8
0
 10
60.000000
 20
161.000000
  0
VERTEX
  8
0
 10
59.125000
 20
159.300000
  0
VERTEX
  8
0
 10
58.100000
 20
157.650000
  0
VERTEX
  8
0
 10
56.975000
 20
156.050000
  0
VERTEX
  8
0
 10
55.700000
 20
154.475000
  0
VERTEX
  8
0
 10
54.275000
 20
152.925000
  0
VERTEX
  8
0
 10
52.750000
 20
151.425000
  0
VERTEX
  8
0
 10
51.075000
 20
149.975000
  0
VERTEX
  8
0
 10
49.275000
 20
148.550000
  0
VERTEX
  8
0
 10
47.350000
 20
147.175000
  0
VERTEX
  8
0
 10
45.300000
 20
145.825000
  0
VERTEX
  8
0
 10
39.550000
 20
150.075000
  0
VERTEX
  8
0
 10
41.375000
 20
151.175000
  0
VERTEX
  8
0
 10
43.100000
 20
152.275000
  0
VERTEX
  8
0
 10
44.700000
 20
153.400000
  0
VERTEX
  8
0
 10
46.175000
 20
154.525000
  0
VERTEX
  8
0
 10
47.550000
 20
155.650000
  0
VERTEX
  8
0
 10
48.775000
 20
156.800000
  0
VERTEX
  8
0
 10
49.900000
 20
157.950000
  0
VERTEX
  8
0
 10
50.925000
 20
159.100000
  0
VERTEX
  8
0
 10
51.800000
 20
160.250000
  0
VERTEX
  8
0
 10
52.575000
 20
161.425000
  0
VERTEX
  8
0
 10
53.225000
 20
162.600000
  0
VERTEX
  8
0
 10
53.750000
 20
163.775000
  0
VERTEX
  8
0
 10
54.175000
 20
164.975000
  0
VERTEX
  8
0
 10
54.475000
 20
166.150000
  0
VERTEX
  8
0
 10
54.650000
 20
167.375000
  0
VERTEX
  8
0
 10
54.700000
 20
168.575000
  0
SEQEND
  8
0
  0
POLYLINE
  8
0
 66
     1
 70
     1
 40
0.200000
 41
0.200000
  0
VERTEX
  8
0
 10
48.950000
 20
184.325000
  0
VERTEX
  8
0
 10
48.850000
 20
184.325000
  0
VERTEX
  8
0
 10
48.750000
 20
184.325000
  0
VERTEX
  8
0
 10
48.650000
 20
184.325000
  0
VERTEX
  8
0
 10
48.550000
 20
184.325000
  0
VERTEX
  8
0
 10
48.425000
 20
184.300000
  0
VERTEX
  8
0
 10
48.325000
 20
184.300000
  0
VERTEX
  8
0
 10
48.225000
 20
184.300000
  0
VERTEX
  8
0
 10
48.125000
 20
184.300000
  0
VERTEX
  8
0
 10
48.025000
 20
184.275000
  0
VERTEX
  8
0
 10
47.925000
 20
184.275000
  0
VERTEX
  8
0
 10
47.850000
 20
184.275000
  0
VERTEX
  8
0
 10
47.750000
 20
184.250000
  0
VERTEX
  8
0
 10
47.650000
 20
184.250000
  0
VERTEX
  8
0
 10
47.550000
 20
184.225000
  0
VERTEX
  8
0
 10
47.450000
 20
184.200000
  0
VERTEX
  8
0
 10
47.350000
 20
184.200000
  0
VERTEX
  8
0
 10
47.250000
 20
184.175000
  0
VERTEX
  8
0
 10
47.175000
 20
184.150000
  0
VERTEX
  8
0
 10
47.075000
 20
184.150000
  0
VERTEX
  8
0
 10
46.975000
 20
184.125000
  0
VERTEX
  8
0
 10
46.900000
 20
184.100000
  0
VERTEX
  8
0
 10
46.800000
 20
184.075000
  0
VERTEX
  8
0
 10
46.700000
 20
184.050000
  0
VERTEX
  8
0
 10
46.625000
 20
184.025000
  0
VERTEX
  8
0
 10
46.525000
 20
184.000000
  0
VERTEX
  8
0
 10
46.425000
 20
183.975000
  0
VERTEX
  8
0
 10
46.350000
 20
183.950000
  0
VERTEX
  8
0
 10
46.250000
 20
183.925000
  0
VERTEX
  8
0
 10
46.175000
 20
183.900000
  0
VERTEX
  8
0
 10
46.075000
 20
183.850000
  0
VERTEX
  8
0
 10
46.000000
 20
183.825000
  0
VERTEX
  8
0
 10
45.925000
 20
183.800000
  0
VERTEX
  8
0
 10
45.825000
 20
183.775000
  0
VERTEX
  8
0
 10
45.750000
 20
183.725000
  0
VERTEX
  8
0
 10
45.650000
 20
183.700000
  0
VERTEX
  8
0
 10
45.575000
 20
183.650000
  0
VERTEX
  8
0
 10
45.500000
 20
183.625000
  0
VERTEX
  8
0
 10
45.400000
 20
183.575000
  0
VERTEX
  8
0
 10
45.325000
 20
183.550000
  0
VERTEX
  8
0
 10
45.250000
 20
183.500000
  0
VERTEX
  8
0
 10
45.175000
 20
183.450000
  0
VERTEX
  8
0
 10
45.075000
 20
183.425000
  0
VERTEX
  8
0
 10
45.000000
 20
183.375000
  0
VERTEX
  8
0
 10
44.925000
 20
183.325000
  0
VERTEX
  8
0
 10
44.850000
 20
183.275000
  0
VERTEX
  8
0
 10
44.775000
 20
183.225000
  0
VERTEX
  8
0
 10
44.700000
 20
183.175000
  0
VERTEX
  8
0
 10
44.625000
 20
183.125000
  0
VERTEX
  8
0
 10
44.550000
 20
183.075000
  0
VERTEX
  8
0
 10
44.475000
 20
183.025000
  0
VERTEX
  8
0
 10
44.400000
 20
182.975000
  0
VERTEX
  8
0
 10
44.325000
 20
182.925000
  0
VERTEX
  8
0
 10
44.250000
 20
182.875000
  0
VERTEX
  8
0
 10
44.175000
 20
182.825000
  0
VERTEX
  8
0
 10
44.100000
 20
182.750000
  0
VERTEX
  8
0
 10
44.025000
 20
182.700000
  0
VERTEX
  8
0
 10
43.950000
 20
182.650000
  0
VERTEX
  8
0
 10
43.875000
 20
182.575000
  0
VERTEX
  8
0
 10
43.825000
 20
182.525000
  0
VERTEX
  8
0
 10
43.750000
 20
182.450000
  0
VERTEX
  8
0
 10
43.675000
 20
182.400000
  0
VERTEX
  8
0
 10
43.600000
 20
182.325000
  0
VERTEX
  8
0
 10
43.550000
 20
182.275000
  0
VERTEX
  8
0
 10
43.475000
 20
182.200000
  0
VERTEX
  8
0
 10
43.425000
 20
182.150000
  0
VERTEX
  8
0
 10
43.375000
 20
182.075000
  0
VERTEX
  8
0
 10
43.300000
 20
182.025000
  0
VERTEX
  8
0
 10
43.250000
 20
181.975000
  0
VERTEX
  8
0
 10
43.200000
 20
181.900000
  0
VERTEX
  8
0
 10
43.150000
 20
181.850000
  0
VERTEX
  8
0
 10
43.100000
 20
181.800000
  0
VERTEX
  8
0
 10
43.050000
 20
181.725000
  0
VERTEX
  8
0
 10
43.000000
 20
181.675000
  0
VERTEX
  8
0
 10
42.950000
 20
181.600000
  0
VERTEX
  8
0
 10
42.900000
 20
181.550000
  0
VERTEX
  8
0
 10
42.875000
 20
181.475000
  0
VERTEX
  8
0
 10
42.825000
 20
181.425000
  0
VERTEX
  8
0
 10
42.775000
 20
181.350000
  0
VERTEX
  8
0
 10
42.725000
 20
181.275000
  0
VERTEX
  8
0
 10
42.700000
 20
181.225000
  0
VERTEX
  8
0
 10
42.650000
 20
181.150000
  0
VERTEX
  8
0
 10
42.600000
 20
181.075000
  0
VERTEX
  8
0
 10
42.575000
 20
181.025000
  0
VERTEX
  8
0
 10
42.525000
 20
180.950000
  0
VERTEX
  8
0
 10
42.500000
 20
180.875000
  0
VERTEX
  8
0
 10
42.450000
 20
180.825000
  0
VERTEX
  8
0
 10
42.425000
 20
180.750000
  0
VERTEX
  8
0
 10
42.375000
 20
180.675000
  0
VERTEX
  8
0
 10
42.350000
 20
180.600000
  0
VERTEX
  8
0
 10
42.300000
 20
180.525000
  0
VERTEX
  8
0
 10
42.275000
 20
180.450000
  0
VERTEX
  8
0
 10
42.250000
 20
180.375000
  0
VERTEX
  8
0
 10
42.225000
 20
180.300000
  0
VERTEX
  8
0
 10
42.175000
 20
180.225000
  0
VERTEX
  8
0
 10
42.150000
 20
180.150000
  0
VERTEX
  8
0
 10
42.125000
 20
180.075000
  0
VERTEX
  8
0
 10
42.100000
 20
180.000000
  0
VERTEX
  8
0
 10
42.075000
 20
179.925000
  0
VERTEX
  8
0
 10
42.050000
 20
179.850000
  0
VERTEX
  8
0
 10
42.025000
 20
179.775000
  0
VERTEX
  8
0
 10
42.000000
 20
179.700000
  0
VERTEX
  8
0
 10
41.975000
 20
179.625000
  0
VERTEX
  8
0
 10
41.950000
 20
179.550000
  0
VERTEX
  8
0
 10
41.925000
 20
179.450000
  0
VERTEX
  8
0
 10
41.900000
 20
179.375000
  0
VERTEX
  8
0
 10
41.900000
 20
179.300000
  0
VERTEX
  8
0
 10
41.875000
 20
179.225000
  0
VERTEX
  8
0
 10
41.850000
 20
179.125000
  0
VERTEX
  8
0
 10
41.825000
 20
179.050000
  0
VERTEX
  8
0
 10
41.825000
 20
178.975000
  0
VERTEX
  8
0
 10
41.800000
 20
178.875000
  0
VERTEX
  8
0
 10
41.800000
 20
178.800000
  0
VERTEX
  8
0
 10
41.775000
 20
178.700000
  0
VERTEX
  8
0
 10
41.750000
 20
178.625000
  0
VERTEX
  8
0
 10
41.750000
 20
178.525000
  0
VERTEX
  8
0
 10
41.750000
 20
178.450000
  0
VERTEX
  8
0
 10
41.725000
 20
178.350000
  0
VERTEX
  8
0
 10
41.725000
 20
178.275000
  0
VERTEX
  8
0
 10
41.700000
 20
178.175000
  0
VERTEX
  8
0
 10
41.700000
 20
178.100000
  0
VERTEX
  8
0
 10
41.700000
 20
178.000000
  0
VERTEX
  8
0
 10
41.700000
 20
177.900000
  0
VERTEX
  8
0
 10
41.675000
 20
177.825000
  0
VERTEX
  8
0
 10
41.675000
 20
177.725000
  0
VERTEX
  8
0
 10
41.675000
 20
177.625000
  0
VERTEX
  8
0
 10
41.675000
 20
177.550000
  0
VERTEX
  8
0
 10
41.675000
 20
177.450000
  0
VERTEX
  8
0
 10
41.675000
 20
177.350000
  0
VERTEX
  8
0
 10
41.675000
 20
177.275000
  0
VERTEX
  8
0
 10
41.675000
 20
177.175000
  0
VERTEX
  8
0
 10
41.675000
 20
177.100000
  0
VERTEX
  8
0
 10
41.675000
 20
177.025000
  0
VERTEX
  8
0
 10
41.675000
 20
176.925000
  0
VERTEX
  8
0
 10
41.700000
 20
176.850000
  0
VERTEX
  8
0
 10
41.700000
 20
176.775000
  0
VERTEX
  8
0
 10
41.700000
 20
176.675000
  0
VERTEX
  8
0
 10
41.700000
 20
176.600000
  0
VERTEX
  8
0
 10
41.700000
 20
176.525000
  0
VERTEX
  8
0
 10
41.725000
 20
176.450000
  0
VERTEX
  8
0
 10
41.725000
 20
176.375000
  0
VERTEX
  8
0
 10
41.725000
 20
176.300000
  0
VERTEX
  8
0
 10
41.750000
 20
176.225000
  0
VERTEX
  8
0
 10
41.750000
 20
176.125000
  0
VERTEX
  8
0
 10
41.775000
 20
176.050000
  0
VERTEX
  8
0
 10
41.775000
 20
175.975000
  0
VERTEX
  8
0
 10
41.800000
 20
175.900000
  0
VERTEX
  8
0
 10
41.800000
 20
175.825000
  0
VERTEX
  8
0
 10
41.825000
 20
175.750000
  0
VERTEX
  8
0
 10
41.825000
 20
175.700000
  0
VERTEX
  8
0
 10
41.850000
 20
175.625000
  0
VERTEX
  8
0
 10
41.875000
 20
175.550000
  0
VERTEX
  8
0
 10
41.875000
 20
175.475000
  0
VERTEX
  8
0
 10
41.900000
 20
175.400000
  0
VERTEX
  8
0
 10
41.925000
 20
175.325000
  0
VERTEX
  8
0
 10
41.950000
 20
175.275000
  0
VERTEX
  8
0
 10
41.950000
 20
175.200000
  0
VERTEX
  8
0
 10
41.975000
 20
175.125000
  0
VERTEX
  8
0
 10
42.000000
 20
175.050000
  0
VERTEX
  8
0
 10
42.025000
 20
175.000000
  0
VERTEX
  8
0
 10
42.050000
 20
174.925000
  0
VERTEX
  8
0
 10
42.075000
 20
174.850000
  0
VERTEX
  8
0
 10
42.100000
 20
174.800000
  0
VERTEX
  8
0
 10
42.125000
 20
174.725000
  0
VERTEX
  8
0
 10
42.150000
 20
174.675000
  0
VERTEX
  8
0
 10
42.175000
 20
174.600000
  0
VERTEX
  8
0
 10
42.200000
 20
174.550000
  0
VERTEX
  8
0
 10
42.225000
 20
174.475000
  0
VERTEX
  8
0
 10
42.250000
 20
174.425000
  0
VERTEX
  8
0
 10
42.300000
 20
174.350000
  0
VERTEX
  8
0
 10
42.325000
 20
174.300000
  0
VERTEX
  8
0
 10
42.350000
 20
174.225000
  0
VERTEX
  8
0
 10
42.375000
 20
174.175000
  0
VERTEX
  8
0
 10
42.425000
 20
174.125000
  0
VERTEX
  8
0
 10
42.450000
 20
174.050000
  0
VERTEX
  8
0
 10
42.475000
 20
174.000000
  0
VERTEX
  8
0
 10
42.525000
 20
173.950000
  0
VERTEX
  8
0
 10
42.550000
 20
173.875000
  0
VERTEX
  8
0
 10
42.600000
 20
173.825000
  0
VERTEX
  8
0
 10
42.625000
 20
173.775000
  0
VERTEX
  8
0
 10
42.675000
 20
173.725000
  0
VERTEX
  8
0
 10
42.700000
 20
173.650000
  0
VERTEX
  8
0
 10
42.750000
 20
173.600000
  0
VERTEX
  8
0
 10
42.775000
 20
173.550000
  0
VERTEX
  8
0
 10
42.825000
 20
173.500000
  0
VERTEX
  8
0
 10
42.875000
 20
173.450000
  0
VERTEX
  8
0
 10
42.900000
 20
173.400000
  0
VERTEX
  8
0
 10
42.950000
 20
173.350000
  0
VERTEX
  8
0
 10
43.000000
 20
173.300000
  0
VERTEX
  8
0
 10
43.050000
 20
173.250000
  0
VERTEX
  8
0
 10
43.075000
 20
173.200000
  0
VERTEX
  8
0
 10
43.125000
 20
173.150000
  0
VERTEX
  8
0
 10
43.175000
 20
173.100000
  0
VERTEX
  8
0
 10
43.225000
 20
173.050000
  0
VERTEX
  8
0
 10
43.275000
 20
173.000000
  0
VERTEX
  8
0
 10
43.325000
 20
172.975000
  0
VERTEX
  8
0
 10
43.375000
 20
172.925000
  0
VERTEX
  8
0
 10
43.425000
 20
172.875000
  0
VERTEX
  8
0
 10
43.475000
 20
172.825000
  0
VERTEX
  8
0
 10
43.525000
 20
172.800000
  0
VERTEX
  8
0
 10
43.575000
 20
172.750000
  0
VERTEX
  8
0
 10
43.650000
 20
172.700000
  0
VERTEX
  8
0
 10
43.700000
 20
172.675000
  0
VERTEX
  8
0
 10
43.750000
 20
172.625000
  0
VERTEX
  8
0
 10
43.825000
 20
172.600000
  0
VERTEX
  8
0
 10
43.875000
 20
172.550000
  0
VERTEX
  8
0
 10
43.925000
 20
172.525000
  0
VERTEX
  8
0
 10
44.000000
 20
172.475000
  0
VERTEX
  8
0
 10
44.050000
 20
172.450000
  0
VERTEX
  8
0
 10
44.125000
 20
172.400000
  0
VERTEX
  8
0
 10
44.175000
 20
172.375000
  0
VERTEX
  8
0
 10
44.250000
 20
172.350000
  0
VERTEX
  8
0
 10
44.300000
 20
172.300000
  0
VERTEX
  8
0
 10
44.375000
 20
172.275000
  0
VERTEX
  8
0
 10
44.450000
 20
172.250000
  0
VERTEX
  8
0
 10
44.500000
 20
172.225000
  0
VERTEX
  8
0
 10
44.575000
 20
172.175000
  0
VERTEX
  8
0
 10
44.650000
 20
172.150000
  0
VERTEX
  8
0
 10
44.700000
 20
172.125000
  0
VERTEX
  8
0
 10
44.775000
 20
172.100000
  0
VERTEX
  8
0
 10
44.850000
 20
172.075000
  0
VERTEX
  8
0
 10
44.925000
 20
172.050000
  0
VERTEX
  8
0
 10
45.000000
 20
172.025000
  0
VERTEX
  8
0
 10
45.075000
 20
172.000000
  0
VERTEX
  8
0
 10
45.150000
 20
171.975000
  0
VERTEX
  8
0
 10
45.225000
 20
171.950000
  0
VERTEX
  8
0
 10
45.300000
 20
171.925000
  0
VERTEX
  8
0
 10
45.375000
 20
171.900000
  0
VERTEX
  8
0
 10
45.450000
 20
171.875000
  0
VERTEX
  8
0
 10
45.550000
 20
171.875000
  0
VERTEX
  8
0
 10
45.625000
 20
171.850000
  0
VERTEX
  8
0
 10
45.700000
 20
171.825000
  0
VERTEX
  8
0
 10
45.775000
 20
171.800000
  0
VERTEX
  8
0
 10
45.875000
 20
171.800000
  0
VERTEX
  8
0
 10
45.950000
 20
171.775000
  0
VERTEX
  8
0
 10
46.025000
 20
171.750000
  0
VERTEX
  8
0
 10
46.125000
 20
171.750000
  0
VERTEX
  8
0
 10
46.200000
 20
171.725000
  0
VERTEX
  8
0
 10
46.300000
 20
171.725000
  0
VERTEX
  8
0
 10
46.375000
 20
171.700000
  0
VERTEX
  8
0
 10
46.475000
 20
171.700000
  0
VERTEX
  8
0
 10
46.575000
 20
171.675000
  0
VERTEX
  8
0
 10
46.650000
 20
171.675000
  0
VERTEX
  8
0
 10
46.750000
 20
171.650000
  0
VERTEX
  8
0
 10
46.850000
 20
171.650000
  0
VERTEX
  8
0
 10
46.925000
 20
171.650000
  0
VERTEX
  8
0
 10
47.025000
 20
171.625000
  0
VERTEX
  8
0
 10
47.125000
 20
171.625000
  0
VERTEX
  8
0
 10
47.225000
 20
171.625000
  0
VERTEX
  8
0
 10
47.325000
 20
171.625000
  0
VERTEX
  8
0
 10
47.425000
 20
171.625000
  0
VERTEX
  8
0
 10
47.525000
 20
171.600000
  0
VERTEX
  8
0
 10
47.625000
 20
171.600000
  0
VERTEX
  8
0
 10
47.725000
 20
171.600000
  0
VERTEX
  8
0
 10
47.825000
 20
171.600000
  0
VERTEX
  8
0
 10
47.925000
 20
171.600000
  0
VERTEX
  8
0
 10
48.025000
 20
171.600000
  0
VERTEX
  8
0
 10
48.125000
 20
171.600000
  0
VERTEX
  8
0
 10
48.225000
 20
171.600000
  0
VERTEX
  8
0
 10
48.325000
 20
171.600000
  0
VERTEX
  8
0
 10
48.450000
 20
171.600000
  0
VERTEX
  8
0
 10
48.550000
 20
171.625000
  0
VERTEX
  8
0
 10
48.650000
 20
171.625000
  0
VERTEX
  8
0
 10
48.750000
 20
171.625000
  0
VERTEX
  8
0
 10
48.850000
 20
171.625000
  0
VERTEX
  8
0
 10
48.950000
 20
171.650000
  0
VERTEX
  8
0
 10
49.050000
 20
171.650000
  0
VERTEX
  8
0
 10
49.125000
 20
171.650000
  0
VERTEX
  8
0
 10
49.225000
 20
171.675000
  0
VERTEX
  8
0
 10
49.325000
 20
171.675000
  0
VERTEX
  8
0
 10
49.425000
 20
171.700000
  0
VERTEX
  8
0
 10
49.525000
 20
171.725000
  0
VERTEX
  8
0
 10
49.625000
 20
171.725000
  0
VERTEX
  8
0
 10
49.725000
 20
171.750000
  0
VERTEX
  8
0
 10
49.800000
 20
171.775000
  0
VERTEX
  8
0
 10
49.900000
 20
171.775000
  0
VERTEX
  8
0
 10
50.000000
 20
171.800000
  0
VERTEX
  8
0
 10
50.075000
 20
171.825000
  0
VERTEX
  8
0
 10
50.175000
 20
171.850000
  0
VERTEX
  8
0
 10
50.275000
 20
171.875000
  0
VERTEX
  8
0
 10
50.350000
 20
171.900000
  0
VERTEX
  8
0
 10
50.450000
 20
171.925000
  0
VERTEX
  8
0
 10
50.550000
 20
171.950000
  0
VERTEX
  8
0
 10
50.625000
 20
171.975000
  0
VERTEX
  8
0
 10
50.725000
 20
172.000000
  0
VERTEX
  8
0
 10
50.800000
 20
172.025000
  0
VERTEX
  8
0
 10
50.900000
 20
172.075000
  0
VERTEX
  8
0
 10
50.975000
 20
172.100000
  0
VERTEX
  8
0
 10
51.075000
 20
172.125000
  0
VERTEX
  8
0
 10
51.150000
 20
172.150000
  0
VERTEX
  8
0
 10
51.225000
 20
172.200000
  0
VERTEX
  8
0
 10
51.325000
 20
172.225000
  0
VERTEX
  8
0
 10
51.400000
 20
172.275000
  0
VERTEX
  8
0
 10
51.475000
 20
172.300000
  0
VERTEX
  8
0
 10
51.575000
 20
172.350000
  0
VERTEX
  8
0
 10
51.650000
 20
172.375000
  0
VERTEX
  8
0
 10
51.725000
 20
172.425000
  0
VERTEX
  8
0
 10
51.800000
 20
172.475000
  0
VERTEX
  8
0
 10
51.900000
 20
172.500000
  0
VERTEX
  8
0
 10
51.975000
 20
172.550000
  0
VERTEX
  8
0
 10
52.050000
 20
172.600000
  0
VERTEX
  8
0
 10
52.125000
 20
172.650000
  0
VERTEX
  8
0
 10
52.200000
 20
172.700000
  0
VERTEX
  8
0
 10
52.275000
 20
172.750000
  0
VERTEX
  8
0
 10
52.350000
 20
172.800000
  0
VERTEX
  8
0
 10
52.425000
 20
172.850000
  0
VERTEX
  8
0
 10
52.500000
 20
172.900000
  0
VERTEX
  8
0
 10
52.575000
 20
172.950000
  0
VERTEX
  8
0
 10
52.650000
 20
173.000000
  0
VERTEX
  8
0
 10
52.725000
 20
173.050000
  0
VERTEX
  8
0
 10
52.800000
 20
173.100000
  0
VERTEX
  8
0
 10
52.875000
 20
173.175000
  0
VERTEX
  8
0
 10
52.950000
 20
173.225000
  0
VERTEX
  8
0
 10
53.025000
 20
173.275000
  0
VERTEX
  8
0
 10
53.100000
 20
173.350000
  0
VERTEX
  8
0
 10
53.150000
 20
173.400000
  0
VERTEX
  8
0
 10
53.225000
 20
173.475000
  0
VERTEX
  8
0
 10
53.300000
 20
173.525000
  0
VERTEX
  8
0
 10
53.375000
 20
173.600000
  0
VERTEX
  8
0
 10
53.425000
 20
173.650000
  0
VERTEX
  8
0
 10
53.500000
 20
173.725000
  0
VERTEX
  8
0
 10
53.550000
 20
173.775000
  0
VERTEX
  8
0
 10
53.600000
 20
173.850000
  0
VERTEX
  8
0
 10
53.675000
 20
173.900000
  0
VERTEX
  8
0
 10
53.725000
 20
173.950000
  0
VERTEX
  8
0
 10
53.775000
 20
174.000000
  0
VERTEX
  8
0
 10
53.825000
 20
174.075000
  0
VERTEX
  8
0
 10
53.875000
 20
174.125000
  0
VERTEX
  8
0
 10
53.925000
 20
174.200000
  0
VERTEX
  8
0
 10
53.975000
 20
174.250000
  0
VERTEX
  8
0
 10
54.025000
 20
174.300000
  0
VERTEX
  8
0
 10
54.075000
 20
174.375000
  0
VERTEX
  8
0
 10
54.100000
 20
174.425000
  0
VERTEX
  8
0
 10
54.150000
 20
174.500000
  0
VERTEX
  8
0
 10
54.200000
 20
174.550000
  0
VERTEX
  8
0
 10
54.250000
 20
174.625000
  0
VERTEX
  8
0
 10
54.300000
 20
174.675000
  0
VERTEX
  8
0
 10
54.325000
 20
174.750000
  0
VERTEX
  8
0
 10
54.375000
 20
174.825000
  0
VERTEX
  8
0
 10
54.400000
 20
174.875000
  0
VERTEX
  8
0
 10
54.450000
 20
174.950000
  0
VERTEX
  8
0
 10
54.475000
 20
175.000000
  0
VERTEX
  8
0
 10
54.525000
 20
175.075000
  0
VERTEX
  8
0
 10
54.550000
 20
175.150000
  0
VERTEX
  8
0
 10
54.600000
 20
175.200000
  0
VERTEX
  8
0
 10
54.625000
 20
175.275000
  0
VERTEX
  8
0
 10
54.675000
 20
175.350000
  0
VERTEX
  8
0
 10
54.700000
 20
175.425000
  0
VERTEX
  8
0
 10
54.725000
 20
175.475000
  0
VERTEX
  8
0
 10
54.750000
 20
175.550000
  0
VERTEX
  8
0
 10
54.800000
 20
175.625000
  0
VERTEX
  8
0
 10
54.825000
 20
175.700000
  0
VERTEX
  8
0
 10
54.850000
 20
175.775000
  0
VERTEX
  8
0
 10
54.875000
 20
175.825000
  0
VERTEX
  8
0
 10
54.900000
 20
175.900000
  0
VERTEX
  8
0
 10
54.925000
 20
175.975000
  0
VERTEX
  8
0
 10
54.950000
 20
176.050000
  0
VERTEX
  8
0
 10
54.975000
 20
176.125000
  0
VERTEX
  8
0
 10
55.000000
 20
176.200000
  0
VERTEX
  8
0
 10
55.025000
 20
176.275000
  0
VERTEX
  8
0
 10
55.050000
 20
176.350000
  0
VERTEX
  8
0
 10
55.075000
 20
176.425000
  0
VERTEX
  8
0
 10
55.075000
 20
176.500000
  0
VERTEX
  8
0
 10
55.100000
 20
176.575000
  0
VERTEX
  8
0
 10
55.125000
 20
176.650000
  0
VERTEX
  8
0
 10
55.150000
 20
176.725000
  0
VERTEX
  8
0
 10
55.150000
 20
176.800000
  0
VERTEX
  8
0
 10
55.175000
 20
176.875000
  0
VERTEX
  8
0
 10
55.200000
 20
176.975000
  0
VERTEX
  8
0
 10
55.200000
 20
177.050000
  0
VERTEX
  8
0
 10
55.225000
 20
177.125000
  0
VERTEX
  8
0
 10
55.225000
 20
177.200000
  0
VERTEX
  8
0
 10
55.225000
 20
177.275000
  0
VERTEX
  8
0
 10
55.250000
 20
177.350000
  0
VERTEX
  8
0
 10
55.250000
 20
177.450000
  0
VERTEX
  8
0
 10
55.275000
 20
177.525000
  0
VERTEX
  8
0
 10
55.275000
 20
177.600000
  0
VERTEX
  8
0
 10
55.275000
 20
177.675000
  0
VERTEX
  8
0
 10
55.275000
 20
177.775000
  0
VERTEX
  8
0
 10
55.300000
 20
177.850000
  0
VERTEX
  8
0
 10
55.300000
 20
177.925000
  0
VERTEX
  8
0
 10
55.300000
 20
178.025000
  0
VERTEX
  8
0
 10
55.300000
 20
178.100000
  0
VERTEX
  8
0
 10
55.300000
 20
178.200000
  0
VERTEX
  8
0
 10
55.300000
 20
178.275000
  0
VERTEX
  8
0
 10
55.300000
 20
178.350000
  0
VERTEX
  8
0
 10
55.300000
 20
178.450000
  0
VERTEX
  8
0
 10
55.300000
 20
178.525000
  0
VERTEX
  8
0
 10
55.300000
 20
178.600000
  0
VERTEX
  8
0
 10
55.300000
 20
178.700000
  0
VERTEX
  8
0
 10
55.275000
 20
178.775000
  0
VERTEX
  8
0
 10
55.275000
 20
178.850000
  0
VERTEX
  8
0
 10
55.275000
 20
178.925000
  0
VERTEX
  8
0
 10
55.275000
 20
179.025000
  0
VERTEX
  8
0
 10
55.250000
 20
179.100000
  0
VERTEX
  8
0
 10
55.250000
 20
179.175000
  0
VERTEX
  8
0
 10
55.225000
 20
179.250000
  0
VERTEX
  8
0
 10
55.225000
 20
179.325000
  0
VERTEX
  8
0
 10
55.225000
 20
179.425000
  0
VERTEX
  8
0
 10
55.200000
 20
179.500000
  0
VERTEX
  8
0
 10
55.200000
 20
179.575000
  0
VERTEX
  8
0
 10
55.175000
 20
179.650000
  0
VERTEX
  8
0
 10
55.150000
 20
179.725000
  0
VERTEX
  8
0
 10
55.150000
 20
179.800000
  0
VERTEX
  8
0
 10
55.125000
 20
179.875000
  0
VERTEX
  8
0
 10
55.100000
 20
179.950000
  0
VERTEX
  8
0
 10
55.075000
 20
180.025000
  0
VERTEX
  8
0
 10
55.075000
 20
180.100000
  0
VERTEX
  8
0
 10
55.050000
 20
180.175000
  0
VERTEX
  8
0
 10
55.025000
 20
180.250000
  0
VERTEX
  8
0
 10
55.000000
 20
180.325000
  0
VERTEX
  8
0
 10
54.975000
 20
180.400000
  0
VERTEX
  8
0
 10
54.950000
 20
180.475000
  0
VERTEX
  8
0
 10
54.925000
 20
180.550000
  0
VERTEX
  8
0
 10
54.900000
 20
180.625000
  0
VERTEX
  8
0
 10
54.875000
 20
180.700000
  0
VERTEX
  8
0
 10
54.850000
 20
180.750000
  0
VERTEX
  8
0
 10
54.825000
 20
180.825000
  0
VERTEX
  8
0
 10
54.800000
 20
180.900000
  0
VERTEX
  8
0
 10
54.750000
 20
180.975000
  0
VERTEX
  8
0
 10
54.725000
 20
181.050000
  0
VERTEX
  8
0
 10
54.700000
 20
181.100000
  0
VERTEX
  8
0
 10
54.675000
 20
181.175000
  0
VERTEX
  8
0
 10
54.625000
 20
181.250000
  0
VERTEX
  8
0
 10
54.600000
 20
181.325000
  0
VERTEX
  8
0
 10
54.550000
 20
181.375000
  0
VERTEX
  8
0
 10
54.525000
 20
181.450000
  0
VERTEX
  8
0
 10
54.475000
 20
181.525000
  0
VERTEX
  8
0
 10
54.450000
 20
181.575000
  0
VERTEX
  8
0
 10
54.400000
 20
181.650000
  0
VERTEX
  8
0
 10
54.375000
 20
181.700000
  0
VERTEX
  8
0
 10
54.325000
 20
181.775000
  0
VERTEX
  8
0
 10
54.300000
 20
181.850000
  0
VERTEX
  8
0
 10
54.250000
 20
181.900000
  0
VERTEX
  8
0
 10
54.200000
 20
181.975000
  0
VERTEX
  8
0
 10
54.150000
 20
182.025000
  0
VERTEX
  8
0
 10
54.100000
 20
182.100000
  0
VERTEX
  8
0
 10
54.075000
 20
182.150000
  0
VERTEX
  8
0
 10
54.025000
 20
182.225000
  0
VERTEX
  8
0
 10
53.975000
 20
182.275000
  0
VERTEX
  8
0
 10
53.925000
 20
182.325000
  0
VERTEX
  8
0
 10
53.875000
 20
182.400000
  0
VERTEX
  8
0
 10
53.825000
 20
182.450000
  0
VERTEX
  8
0
 10
53.775000
 20
182.525000
  0
VERTEX
  8
0
 10
53.725000
 20
182.575000
  0
VERTEX
  8
0
 10
53.675000
 20
182.625000
  0
VERTEX
  8
0
 10
53.600000
 20
182.675000
  0
VERTEX
  8
0
 10
53.550000
 20
182.750000
  0
VERTEX
  8
0
 10
53.500000
 20
182.800000
  0
VERTEX
  8
0
 10
53.450000
 20
182.850000
  0
VERTEX
  8
0
 10
53.400000
 20
182.900000
  0
VERTEX
  8
0
 10
53.350000
 20
182.950000
  0
VERTEX
  8
0
 10
53.300000
 20
182.975000
  0
VERTEX
  8
0
 10
53.250000
 20
183.025000
  0
VERTEX
  8
0
 10
53.200000
 20
183.075000
  0
VERTEX
  8
0
 10
53.150000
 20
183.125000
  0
VERTEX
  8
0
 10
53.100000
 20
183.150000
  0
VERTEX
  8
0
 10
53.050000
 20
183.200000
  0
VERTEX
  8
0
 10
52.975000
 20
183.250000
  0
VERTEX
  8
0
 10
52.925000
 20
183.275000
  0
VERTEX
  8
0
 10
52.875000
 20
183.325000
  0
VERTEX
  8
0
 10
52.825000
 20
183.350000
  0
VERTEX
  8
0
 10
52.750000
 20
183.400000
  0
VERTEX
  8
0
 10
52.700000
 20
183.425000
  0
VERTEX
  8
0
 10
52.650000
 20
183.475000
  0
VERTEX
  8
0
 10
52.575000
 20
183.500000
  0
VERTEX
  8
0
 10
52.525000
 20
183.550000
  0
VERTEX
  8
0
 10
52.450000
 20
183.575000
  0
VERTEX
  8
0
 10
52.400000
 20
183.600000
  0
VERTEX
  8
0
 10
52.325000
 20
183.650000
  0
VERTEX
  8
0
 10
52.275000
 20
183.675000
  0
VERTEX
  8
0
 10
52.200000
 20
183.700000
  0
VERTEX
  8
0
 10
52.125000
 20
183.725000
  0
VERTEX
  8
0
 10
52.075000
 20
183.750000
  0
VERTEX
  8
0
 10
52.000000
 20
183.800000
  0
VERTEX
  8
0
 10
51.950000
 20
183.825000
  0
VERTEX
  8
0
 10
51.875000
 20
183.850000
  0
VERTEX
  8
0
 10
51.800000
 20
183.875000
  0
VERTEX
  8
0
 10
51.725000
 20
183.900000
  0
VERTEX
  8
0
 10
51.650000
 20
183.925000
  0
VERTEX
  8
0
 10
51.600000
 20
183.950000
  0
VERTEX
  8
0
 10
51.525000
 20
183.975000
  0
VERTEX
  8
0
 10
51.450000
 20
184.000000
  0
VERTEX
  8
0
 10
51.375000
 20
184.025000
  0
VERTEX
  8
0
 10
51.300000
 20
184.025000
  0
VERTEX
  8
0
 10
51.225000
 20
184.050000
  0
VERTEX
  8
0
 10
51.150000
 20
184.075000
  0
VERTEX
  8
0
 10
51.075000
 20
184.100000
  0
VERTEX
  8
0
 10
51.000000
 20
184.125000
  0
VERTEX
  8
0
 10
50.925000
 20
184.125000
  0
VERTEX
  8
0
 10
50.850000
 20
184.150000
  0
VERTEX
  8
0
 10
50.775000
 20
184.175000
  0
VERTEX
  8
0
 10
50.675000
 20
184.175000
  0
VERTEX
  8
0
 10
50.600000
 20
184.200000
  0
VERTEX
  8
0
 10
50.525000
 20
184.200000
  0
VERTEX
  8
0
 10
50.450000
 20
184.225000
  0
VERTEX
  8
0
 10
50.350000
 20
184.225000
  0
VERTEX
  8
0
 10
50.275000
 20
184.250000
  0
VERTEX
  8
0
 10
50.200000
 20
184.250000
  0
VERTEX
  8
0
 10
50.100000
 20
184.275000
  0
VERTEX
  8
0
 10
50.025000
 20
184.275000
  0
VERTEX
  8
0
 10
49.950000
 20
184.275000
  0
VERTEX
  8
0
 10
49.850000
 20
184.300000
  0
VERTEX
  8
0
 10
49.775000
 20
184.300000
  0
VERTEX
  8
0
 10
49.675000
 20
184.300000
  0
VERTEX
  8
0
 10
49.600000
 20
184.300000
  0
VERTEX
  8
0
 10
49.500000
 20
184.300000
  0
VERTEX
  8
0
 10
49.400000
 20
184.325000
  0
VERTEX
  8
0
 10
49.325000
 20
184.325000
  0
VERTEX
  8
0
 10
49.225000
 20
184.325000
  0
VERTEX
  8
0
 10
49.125000
 20
184.325000
  0
VERTEX
  8
0
 10
49.050000
 20
184.325000
  0
VERTEX
  8
0
 10
48.950000
 20
184.325000
  0
SEQEND
  8
0
  0
ENDSEC
  0
EOF
