  0
SECTION
  2
HEADER
  9
$ACADVER
  1
AC1009
  9
$INSBASE
 10
0.000000
 20
0.000000
 30
0.000000
  9
$EXTMIN
 10
0.000000
 20
0.000000
  9
$EXTMAX
 10
190.000000
 20
257.000000
  9
$LIMMIN
 10
0.000000
 20
0.000000
  9
$LIMMAX
 10
190.000000
 20
257.000000
  9
$TEXTSIZE
 40
0.200000
  9
$TEXTSTYLE
  7
BIGFONT
  9
$CLAYER
  8
0
  9
$ANGBASE
 50
0.000000
  9
$ANGDIR
 70
     0
  0
ENDSEC
  0
SECTION
  2
TABLES
  0
TABLE
  2
LTYPE
 70
    11
  0
LTYPE
  2
BYBLOCK
 70
    64
  3
BYBLOCK
 72
    65
 73
     0
 40
0.000000
  0
LTYPE
  2
BYLAYER
 70
    64
  3
BYLAYER
 72
    65
 73
     0
 40
0.000000
  0
LTYPE
  2
CONTINUOUS
 70
    64
  3
é¿ê¸
 72
    65
 73
     0
 40
0.000000
  0
LTYPE
  2
DASHED
 70
    64
  3
__ __ __ __ __ __ __ __ __ __ __ __ __ __ __
 72
    65
 73
     2
 40
0.750000
 49
0.500000
 49
-0.250000
  0
LTYPE
  2
HIDDEN
 70
    64
  3
_ _ _ _ _ _ _ _ _ _ _ _ _ _ _ _ _ _ _ _ _ _ _
 72
    65
 73
     2
 40
0.375000
 49
0.250000
 49
-0.125000
  0
LTYPE
  2
CENTER
 70
    64
  3
____ _ ____ _ ____ _ ____ _ ____ _ ____ _ ____
 72
    65
 73
     4
 40
2.000000
 49
1.250000
 49
-0.250000
 49
0.250000
 49
-0.250000
  0
LTYPE
  2
PHANTOM
 70
    64
  3
_____ _ _ _____ _ _ _____ _ _ _____ _ _ ____
 72
    65
 73
     6
 40
2.500000
 49
1.250000
 49
-0.250000
 49
0.250000
 49
-0.250000
 49
0.250000
 49
-0.250000
  0
LTYPE
  2
DOT
 70
    64
  3
...............................................
 72
    65
 73
     2
 40
0.250000
 49
0.000000
 49
-0.250000
  0
LTYPE
  2
DASHDOT
 70
    64
  3
__ . __ . __ . __ . __ . __ . __ . __ . __ . __
 72
    65
 73
     4
 40
1.000000
 49
0.500000
 49
-0.250000
 49
0.000000
 49
-0.250000
  0
LTYPE
  2
BORDER
 70
    64
  3
__ __ . __ __ . __ __ . __ __ . __ __ . __ __
 72
    65
 73
     6
 40
1.750000
 49
0.500000
 49
-0.250000
 49
0.500000
 49
-0.250000
 49
0.000000
 49
-0.250000
  0
LTYPE
  2
DIVIDE
 70
    64
  3
__ . . __ . . __ . . __ . . __ . . __ . . __
 72
    65
 73
     6
 40
1.250000
 49
0.500000
 49
-0.250000
 49
0.000000
 49
-0.250000
 49
0.000000
 49
-0.250000
  0
ENDTAB
  0
TABLE
  2
LAYER
  5
a2
 70
     2
  0
LAYER
  5
a5
  2
0
 70
     0
 62
     7
  6
CONTINUOUS
  0
LAYER
  5
a8
  2
B
 70
     0
 62
     7
  6
CONTINUOUS
  0
LAYER
  5
ab
  2
C
 70
     0
 62
     7
  6
CONTINUOUS
  0
LAYER
  5
ae
  2
D
 70
     0
 62
     7
  6
CONTINUOUS
  0
LAYER
  5
b1
  2
E
 70
     0
 62
     7
  6
CONTINUOUS
  0
LAYER
  5
b4
  2
F
 70
     0
 62
     7
  6
CONTINUOUS
  0
LAYER
  5
b7
  2
G
 70
     0
 62
     7
  6
CONTINUOUS
  0
LAYER
  5
ba
  2
H
 70
     0
 62
     7
  6
CONTINUOUS
  0
LAYER
  5
bd
  2
I
 70
     0
 62
     7
  6
CONTINUOUS
  0
LAYER
  5
c0
  2
J
 70
     0
 62
     7
  6
CONTINUOUS
  0
LAYER
  5
c3
  2
K
 70
     0
 62
     7
  6
CONTINUOUS
  0
LAYER
  5
c6
  2
L
 70
     0
 62
     7
  6
CONTINUOUS
  0
LAYER
  5
c9
  2
M
 70
     0
 62
     7
  6
CONTINUOUS
  0
LAYER
  5
cc
  2
N
 70
     0
 62
     7
  6
CONTINUOUS
  0
ENDTAB
  0
TABLE
  2
STYLE
 70
     2
  0
STYLE
  2
STANDARD
 70
     0
 40
0.000000
 41
0.500000
 50
0.000000
 71
     0
 42
0.300000
  3
txt
  4

  0
STYLE
  2
BIGFONT
 70
    64
 40
0.000000
 41
1.000000
 50
0.000000
 71
     0
 42
0.200000
  3

  4
bigfont
  0
ENDTAB
  0
ENDSEC
  0
SECTION
  2
BLOCKS
  0
ENDSEC
  0
SECTION
  2
ENTITIES
  0
POLYLINE
  8
0
 66
     1
 70
     1
 40
0.200000
 41
0.200000
  0
VERTEX
  8
0
 10
73.200000
 20
196.925000
  0
VERTEX
  8
0
 10
73.175000
 20
195.900000
  0
VERTEX
  8
0
 10
73.075000
 20
194.950000
  0
VERTEX
  8
0
 10
72.900000
 20
194.050000
  0
VERTEX
  8
0
 10
72.700000
 20
193.225000
  0
VERTEX
  8
0
 10
72.400000
 20
192.450000
  0
VERTEX
  8
0
 10
72.050000
 20
191.750000
  0
VERTEX
  8
0
 10
71.625000
 20
191.125000
  0
VERTEX
  8
0
 10
71.150000
 20
190.575000
  0
VERTEX
  8
0
 10
70.600000
 20
190.075000
  0
VERTEX
  8
0
 10
70.000000
 20
189.650000
  0
VERTEX
  8
0
 10
69.325000
 20
189.275000
  0
VERTEX
  8
0
 10
68.600000
 20
188.975000
  0
VERTEX
  8
0
 10
67.800000
 20
188.750000
  0
VERTEX
  8
0
 10
66.925000
 20
188.575000
  0
VERTEX
  8
0
 10
66.000000
 20
188.475000
  0
VERTEX
  8
0
 10
65.000000
 20
188.450000
  0
VERTEX
  8
0
 10
55.000000
 20
188.450000
  0
VERTEX
  8
0
 10
53.800000
 20
195.125000
  0
VERTEX
  8
0
 10
64.100000
 20
195.125000
  0
VERTEX
  8
0
 10
64.475000
 20
195.125000
  0
VERTEX
  8
0
 10
64.800000
 20
195.175000
  0
VERTEX
  8
0
 10
65.125000
 20
195.225000
  0
VERTEX
  8
0
 10
65.425000
 20
195.325000
  0
VERTEX
  8
0
 10
65.700000
 20
195.425000
  0
VERTEX
  8
0
 10
65.950000
 20
195.550000
  0
VERTEX
  8
0
 10
66.175000
 20
195.700000
  0
VERTEX
  8
0
 10
66.375000
 20
195.875000
  0
VERTEX
  8
0
 10
66.550000
 20
196.075000
  0
VERTEX
  8
0
 10
66.700000
 20
196.300000
  0
VERTEX
  8
0
 10
66.825000
 20
196.550000
  0
VERTEX
  8
0
 10
66.925000
 20
196.825000
  0
VERTEX
  8
0
 10
67.025000
 20
197.125000
  0
VERTEX
  8
0
 10
67.075000
 20
197.450000
  0
VERTEX
  8
0
 10
67.125000
 20
197.775000
  0
VERTEX
  8
0
 10
67.125000
 20
198.150000
  0
VERTEX
  8
0
 10
67.125000
 20
207.850000
  0
VERTEX
  8
0
 10
44.400000
 20
206.325000
  0
VERTEX
  8
0
 10
44.400000
 20
184.200000
  0
VERTEX
  8
0
 10
44.425000
 20
183.550000
  0
VERTEX
  8
0
 10
44.500000
 20
182.925000
  0
VERTEX
  8
0
 10
44.600000
 20
182.350000
  0
VERTEX
  8
0
 10
44.750000
 20
181.825000
  0
VERTEX
  8
0
 10
44.975000
 20
181.325000
  0
VERTEX
  8
0
 10
45.200000
 20
180.875000
  0
VERTEX
  8
0
 10
45.500000
 20
180.475000
  0
VERTEX
  8
0
 10
45.850000
 20
180.125000
  0
VERTEX
  8
0
 10
46.225000
 20
179.800000
  0
VERTEX
  8
0
 10
46.650000
 20
179.525000
  0
VERTEX
  8
0
 10
47.125000
 20
179.275000
  0
VERTEX
  8
0
 10
47.650000
 20
179.100000
  0
VERTEX
  8
0
 10
48.200000
 20
178.950000
  0
VERTEX
  8
0
 10
48.800000
 20
178.825000
  0
VERTEX
  8
0
 10
49.450000
 20
178.775000
  0
VERTEX
  8
0
 10
50.150000
 20
178.750000
  0
VERTEX
  8
0
 10
79.875000
 20
178.750000
  0
VERTEX
  8
0
 10
78.650000
 20
172.075000
  0
VERTEX
  8
0
 10
49.850000
 20
172.075000
  0
VERTEX
  8
0
 10
48.450000
 20
172.125000
  0
VERTEX
  8
0
 10
47.150000
 20
172.250000
  0
VERTEX
  8
0
 10
45.925000
 20
172.475000
  0
VERTEX
  8
0
 10
44.800000
 20
172.800000
  0
VERTEX
  8
0
 10
43.775000
 20
173.200000
  0
VERTEX
  8
0
 10
42.825000
 20
173.700000
  0
VERTEX
  8
0
 10
41.975000
 20
174.275000
  0
VERTEX
  8
0
 10
41.200000
 20
174.950000
  0
VERTEX
  8
0
 10
40.525000
 20
175.725000
  0
VERTEX
  8
0
 10
39.950000
 20
176.575000
  0
VERTEX
  8
0
 10
39.450000
 20
177.525000
  0
VERTEX
  8
0
 10
39.050000
 20
178.550000
  0
VERTEX
  8
0
 10
38.725000
 20
179.675000
  0
VERTEX
  8
0
 10
38.500000
 20
180.900000
  0
VERTEX
  8
0
 10
38.375000
 20
182.200000
  0
VERTEX
  8
0
 10
38.325000
 20
183.600000
  0
VERTEX
  8
0
 10
38.325000
 20
205.725000
  0
VERTEX
  8
0
 10
23.175000
 20
204.500000
  0
VERTEX
  8
0
 10
22.275000
 20
210.875000
  0
VERTEX
  8
0
 10
38.325000
 20
211.775000
  0
VERTEX
  8
0
 10
38.325000
 20
227.250000
  0
VERTEX
  8
0
 10
43.800000
 20
227.250000
  0
VERTEX
  8
0
 10
44.150000
 20
227.175000
  0
VERTEX
  8
0
 10
44.475000
 20
227.075000
  0
VERTEX
  8
0
 10
44.725000
 20
226.975000
  0
VERTEX
  8
0
 10
44.975000
 20
226.875000
  0
VERTEX
  8
0
 10
45.150000
 20
226.750000
  0
VERTEX
  8
0
 10
45.300000
 20
226.625000
  0
VERTEX
  8
0
 10
45.400000
 20
226.475000
  0
VERTEX
  8
0
 10
45.450000
 20
226.325000
  0
VERTEX
  8
0
 10
45.475000
 20
226.175000
  0
VERTEX
  8
0
 10
45.450000
 20
226.025000
  0
VERTEX
  8
0
 10
45.375000
 20
225.850000
  0
VERTEX
  8
0
 10
45.275000
 20
225.650000
  0
VERTEX
  8
0
 10
45.125000
 20
225.450000
  0
VERTEX
  8
0
 10
44.925000
 20
225.250000
  0
VERTEX
  8
0
 10
44.675000
 20
225.050000
  0
VERTEX
  8
0
 10
44.400000
 20
224.825000
  0
VERTEX
  8
0
 10
44.400000
 20
212.100000
  0
VERTEX
  8
0
 10
67.125000
 20
213.600000
  0
VERTEX
  8
0
 10
67.125000
 20
231.500000
  0
VERTEX
  8
0
 10
72.600000
 20
231.500000
  0
VERTEX
  8
0
 10
72.950000
 20
231.425000
  0
VERTEX
  8
0
 10
73.275000
 20
231.325000
  0
VERTEX
  8
0
 10
73.525000
 20
231.225000
  0
VERTEX
  8
0
 10
73.775000
 20
231.100000
  0
VERTEX
  8
0
 10
73.950000
 20
231.000000
  0
VERTEX
  8
0
 10
74.100000
 20
230.850000
  0
VERTEX
  8
0
 10
74.200000
 20
230.725000
  0
VERTEX
  8
0
 10
74.250000
 20
230.575000
  0
VERTEX
  8
0
 10
74.275000
 20
230.425000
  0
VERTEX
  8
0
 10
74.250000
 20
230.250000
  0
VERTEX
  8
0
 10
74.175000
 20
230.075000
  0
VERTEX
  8
0
 10
74.075000
 20
229.900000
  0
VERTEX
  8
0
 10
73.900000
 20
229.700000
  0
VERTEX
  8
0
 10
73.725000
 20
229.500000
  0
VERTEX
  8
0
 10
73.475000
 20
229.300000
  0
VERTEX
  8
0
 10
73.200000
 20
229.075000
  0
VERTEX
  8
0
 10
73.200000
 20
213.900000
  0
VERTEX
  8
0
 10
89.575000
 20
214.825000
  0
VERTEX
  8
0
 10
90.175000
 20
208.450000
  0
VERTEX
  8
0
 10
73.200000
 20
208.150000
  0
VERTEX
  8
0
 10
73.200000
 20
196.925000
  0
SEQEND
  8
0
  0
ENDSEC
  0
EOF
