  0
SECTION
  2
HEADER
  9
$ACADVER
  1
AC1009
  9
$INSBASE
 10
0.000000
 20
0.000000
 30
0.000000
  9
$EXTMIN
 10
0.000000
 20
0.000000
  9
$EXTMAX
 10
190.000000
 20
257.000000
  9
$LIMMIN
 10
0.000000
 20
0.000000
  9
$LIMMAX
 10
190.000000
 20
257.000000
  9
$TEXTSIZE
 40
0.200000
  9
$TEXTSTYLE
  7
BIGFONT
  9
$CLAYER
  8
0
  9
$ANGBASE
 50
0.000000
  9
$ANGDIR
 70
     0
  0
ENDSEC
  0
SECTION
  2
TABLES
  0
TABLE
  2
LTYPE
 70
    11
  0
LTYPE
  2
BYBLOCK
 70
    64
  3
BYBLOCK
 72
    65
 73
     0
 40
0.000000
  0
LTYPE
  2
BYLAYER
 70
    64
  3
BYLAYER
 72
    65
 73
     0
 40
0.000000
  0
LTYPE
  2
CONTINUOUS
 70
    64
  3
é¿ê¸
 72
    65
 73
     0
 40
0.000000
  0
LTYPE
  2
DASHED
 70
    64
  3
__ __ __ __ __ __ __ __ __ __ __ __ __ __ __
 72
    65
 73
     2
 40
0.750000
 49
0.500000
 49
-0.250000
  0
LTYPE
  2
HIDDEN
 70
    64
  3
_ _ _ _ _ _ _ _ _ _ _ _ _ _ _ _ _ _ _ _ _ _ _
 72
    65
 73
     2
 40
0.375000
 49
0.250000
 49
-0.125000
  0
LTYPE
  2
CENTER
 70
    64
  3
____ _ ____ _ ____ _ ____ _ ____ _ ____ _ ____
 72
    65
 73
     4
 40
2.000000
 49
1.250000
 49
-0.250000
 49
0.250000
 49
-0.250000
  0
LTYPE
  2
PHANTOM
 70
    64
  3
_____ _ _ _____ _ _ _____ _ _ _____ _ _ ____
 72
    65
 73
     6
 40
2.500000
 49
1.250000
 49
-0.250000
 49
0.250000
 49
-0.250000
 49
0.250000
 49
-0.250000
  0
LTYPE
  2
DOT
 70
    64
  3
...............................................
 72
    65
 73
     2
 40
0.250000
 49
0.000000
 49
-0.250000
  0
LTYPE
  2
DASHDOT
 70
    64
  3
__ . __ . __ . __ . __ . __ . __ . __ . __ . __
 72
    65
 73
     4
 40
1.000000
 49
0.500000
 49
-0.250000
 49
0.000000
 49
-0.250000
  0
LTYPE
  2
BORDER
 70
    64
  3
__ __ . __ __ . __ __ . __ __ . __ __ . __ __
 72
    65
 73
     6
 40
1.750000
 49
0.500000
 49
-0.250000
 49
0.500000
 49
-0.250000
 49
0.000000
 49
-0.250000
  0
LTYPE
  2
DIVIDE
 70
    64
  3
__ . . __ . . __ . . __ . . __ . . __ . . __
 72
    65
 73
     6
 40
1.250000
 49
0.500000
 49
-0.250000
 49
0.000000
 49
-0.250000
 49
0.000000
 49
-0.250000
  0
ENDTAB
  0
TABLE
  2
LAYER
  5
a2
 70
     2
  0
LAYER
  5
a5
  2
0
 70
     0
 62
     7
  6
CONTINUOUS
  0
LAYER
  5
a8
  2
B
 70
     0
 62
     7
  6
CONTINUOUS
  0
LAYER
  5
ab
  2
C
 70
     0
 62
     7
  6
CONTINUOUS
  0
LAYER
  5
ae
  2
D
 70
     0
 62
     7
  6
CONTINUOUS
  0
LAYER
  5
b1
  2
E
 70
     0
 62
     7
  6
CONTINUOUS
  0
LAYER
  5
b4
  2
F
 70
     0
 62
     7
  6
CONTINUOUS
  0
LAYER
  5
b7
  2
G
 70
     0
 62
     7
  6
CONTINUOUS
  0
LAYER
  5
ba
  2
H
 70
     0
 62
     7
  6
CONTINUOUS
  0
LAYER
  5
bd
  2
I
 70
     0
 62
     7
  6
CONTINUOUS
  0
LAYER
  5
c0
  2
J
 70
     0
 62
     7
  6
CONTINUOUS
  0
LAYER
  5
c3
  2
K
 70
     0
 62
     7
  6
CONTINUOUS
  0
LAYER
  5
c6
  2
L
 70
     0
 62
     7
  6
CONTINUOUS
  0
LAYER
  5
c9
  2
M
 70
     0
 62
     7
  6
CONTINUOUS
  0
LAYER
  5
cc
  2
N
 70
     0
 62
     7
  6
CONTINUOUS
  0
ENDTAB
  0
TABLE
  2
STYLE
 70
     2
  0
STYLE
  2
STANDARD
 70
     0
 40
0.000000
 41
0.500000
 50
0.000000
 71
     0
 42
0.300000
  3
txt
  4

  0
STYLE
  2
BIGFONT
 70
    64
 40
0.000000
 41
1.000000
 50
0.000000
 71
     0
 42
0.200000
  3

  4
bigfont
  0
ENDTAB
  0
ENDSEC
  0
SECTION
  2
BLOCKS
  0
ENDSEC
  0
SECTION
  2
ENTITIES
  0
POLYLINE
  8
0
 66
     1
 70
     1
 40
0.200000
 41
0.200000
  0
VERTEX
  8
0
 10
62.125000
 20
216.100000
  0
VERTEX
  8
0
 10
60.775000
 20
215.875000
  0
VERTEX
  8
0
 10
59.425000
 20
215.625000
  0
VERTEX
  8
0
 10
58.075000
 20
215.425000
  0
VERTEX
  8
0
 10
56.700000
 20
215.200000
  0
VERTEX
  8
0
 10
55.325000
 20
215.000000
  0
VERTEX
  8
0
 10
53.950000
 20
214.800000
  0
VERTEX
  8
0
 10
52.575000
 20
214.600000
  0
VERTEX
  8
0
 10
51.200000
 20
214.425000
  0
VERTEX
  8
0
 10
49.800000
 20
214.250000
  0
VERTEX
  8
0
 10
48.425000
 20
214.075000
  0
VERTEX
  8
0
 10
47.025000
 20
213.925000
  0
VERTEX
  8
0
 10
45.600000
 20
213.775000
  0
VERTEX
  8
0
 10
44.200000
 20
213.625000
  0
VERTEX
  8
0
 10
42.800000
 20
213.475000
  0
VERTEX
  8
0
 10
41.375000
 20
213.350000
  0
VERTEX
  8
0
 10
39.950000
 20
213.225000
  0
VERTEX
  8
0
 10
38.675000
 20
219.900000
  0
VERTEX
  8
0
 10
41.350000
 20
220.025000
  0
VERTEX
  8
0
 10
43.900000
 20
220.150000
  0
VERTEX
  8
0
 10
46.300000
 20
220.300000
  0
VERTEX
  8
0
 10
48.600000
 20
220.450000
  0
VERTEX
  8
0
 10
50.775000
 20
220.600000
  0
VERTEX
  8
0
 10
52.800000
 20
220.775000
  0
VERTEX
  8
0
 10
54.725000
 20
220.975000
  0
VERTEX
  8
0
 10
56.500000
 20
221.150000
  0
VERTEX
  8
0
 10
58.175000
 20
221.350000
  0
VERTEX
  8
0
 10
59.700000
 20
221.575000
  0
VERTEX
  8
0
 10
61.100000
 20
221.800000
  0
VERTEX
  8
0
 10
62.400000
 20
222.025000
  0
VERTEX
  8
0
 10
63.550000
 20
222.275000
  0
VERTEX
  8
0
 10
64.575000
 20
222.525000
  0
VERTEX
  8
0
 10
65.475000
 20
222.775000
  0
VERTEX
  8
0
 10
66.250000
 20
223.050000
  0
VERTEX
  8
0
 10
69.425000
 20
224.325000
  0
VERTEX
  8
0
 10
75.125000
 20
218.300000
  0
VERTEX
  8
0
 10
75.350000
 20
218.100000
  0
VERTEX
  8
0
 10
75.525000
 20
217.925000
  0
VERTEX
  8
0
 10
75.675000
 20
217.750000
  0
VERTEX
  8
0
 10
75.775000
 20
217.575000
  0
VERTEX
  8
0
 10
75.825000
 20
217.400000
  0
VERTEX
  8
0
 10
75.850000
 20
217.250000
  0
VERTEX
  8
0
 10
75.825000
 20
217.100000
  0
VERTEX
  8
0
 10
75.775000
 20
216.950000
  0
VERTEX
  8
0
 10
75.675000
 20
216.825000
  0
VERTEX
  8
0
 10
75.525000
 20
216.700000
  0
VERTEX
  8
0
 10
75.350000
 20
216.575000
  0
VERTEX
  8
0
 10
75.125000
 20
216.475000
  0
VERTEX
  8
0
 10
74.875000
 20
216.350000
  0
VERTEX
  8
0
 10
74.575000
 20
216.275000
  0
VERTEX
  8
0
 10
74.225000
 20
216.175000
  0
VERTEX
  8
0
 10
73.850000
 20
216.100000
  0
VERTEX
  8
0
 10
48.200000
 20
196.125000
  0
VERTEX
  8
0
 10
50.650000
 20
196.450000
  0
VERTEX
  8
0
 10
53.150000
 20
196.750000
  0
VERTEX
  8
0
 10
55.650000
 20
197.050000
  0
VERTEX
  8
0
 10
58.175000
 20
197.350000
  0
VERTEX
  8
0
 10
60.725000
 20
197.650000
  0
VERTEX
  8
0
 10
63.275000
 20
197.950000
  0
VERTEX
  8
0
 10
65.850000
 20
198.225000
  0
VERTEX
  8
0
 10
68.475000
 20
198.500000
  0
VERTEX
  8
0
 10
71.100000
 20
198.775000
  0
VERTEX
  8
0
 10
73.725000
 20
199.050000
  0
VERTEX
  8
0
 10
76.400000
 20
199.300000
  0
VERTEX
  8
0
 10
79.075000
 20
199.575000
  0
VERTEX
  8
0
 10
81.800000
 20
199.825000
  0
VERTEX
  8
0
 10
84.525000
 20
200.075000
  0
VERTEX
  8
0
 10
87.250000
 20
200.325000
  0
VERTEX
  8
0
 10
90.025000
 20
200.550000
  0
VERTEX
  8
0
 10
90.025000
 20
193.900000
  0
VERTEX
  8
0
 10
77.975000
 20
192.950000
  0
VERTEX
  8
0
 10
76.450000
 20
192.800000
  0
VERTEX
  8
0
 10
74.975000
 20
192.625000
  0
VERTEX
  8
0
 10
73.525000
 20
192.375000
  0
VERTEX
  8
0
 10
72.125000
 20
192.075000
  0
VERTEX
  8
0
 10
70.750000
 20
191.750000
  0
VERTEX
  8
0
 10
69.425000
 20
191.350000
  0
VERTEX
  8
0
 10
68.150000
 20
190.900000
  0
VERTEX
  8
0
 10
66.900000
 20
190.425000
  0
VERTEX
  8
0
 10
65.675000
 20
189.875000
  0
VERTEX
  8
0
 10
64.525000
 20
189.300000
  0
VERTEX
  8
0
 10
63.375000
 20
188.650000
  0
VERTEX
  8
0
 10
62.300000
 20
187.975000
  0
VERTEX
  8
0
 10
61.250000
 20
187.225000
  0
VERTEX
  8
0
 10
60.225000
 20
186.450000
  0
VERTEX
  8
0
 10
59.250000
 20
185.600000
  0
VERTEX
  8
0
 10
58.325000
 20
184.725000
  0
VERTEX
  8
0
 10
57.875000
 20
184.250000
  0
VERTEX
  8
0
 10
57.425000
 20
183.750000
  0
VERTEX
  8
0
 10
57.025000
 20
183.225000
  0
VERTEX
  8
0
 10
56.675000
 20
182.700000
  0
VERTEX
  8
0
 10
56.325000
 20
182.150000
  0
VERTEX
  8
0
 10
56.025000
 20
181.600000
  0
VERTEX
  8
0
 10
55.725000
 20
181.025000
  0
VERTEX
  8
0
 10
55.475000
 20
180.425000
  0
VERTEX
  8
0
 10
55.250000
 20
179.825000
  0
VERTEX
  8
0
 10
55.050000
 20
179.200000
  0
VERTEX
  8
0
 10
54.900000
 20
178.575000
  0
VERTEX
  8
0
 10
54.775000
 20
177.925000
  0
VERTEX
  8
0
 10
54.650000
 20
177.275000
  0
VERTEX
  8
0
 10
54.575000
 20
176.600000
  0
VERTEX
  8
0
 10
54.550000
 20
175.900000
  0
VERTEX
  8
0
 10
54.525000
 20
175.200000
  0
VERTEX
  8
0
 10
54.525000
 20
174.650000
  0
VERTEX
  8
0
 10
54.575000
 20
174.125000
  0
VERTEX
  8
0
 10
54.625000
 20
173.600000
  0
VERTEX
  8
0
 10
54.700000
 20
173.075000
  0
VERTEX
  8
0
 10
54.800000
 20
172.600000
  0
VERTEX
  8
0
 10
54.925000
 20
172.100000
  0
VERTEX
  8
0
 10
55.075000
 20
171.625000
  0
VERTEX
  8
0
 10
55.250000
 20
171.175000
  0
VERTEX
  8
0
 10
55.425000
 20
170.725000
  0
VERTEX
  8
0
 10
55.650000
 20
170.275000
  0
VERTEX
  8
0
 10
55.875000
 20
169.850000
  0
VERTEX
  8
0
 10
56.125000
 20
169.450000
  0
VERTEX
  8
0
 10
56.400000
 20
169.050000
  0
VERTEX
  8
0
 10
56.700000
 20
168.650000
  0
VERTEX
  8
0
 10
57.025000
 20
168.275000
  0
VERTEX
  8
0
 10
57.375000
 20
167.925000
  0
VERTEX
  8
0
 10
58.000000
 20
167.350000
  0
VERTEX
  8
0
 10
58.725000
 20
166.800000
  0
VERTEX
  8
0
 10
59.525000
 20
166.300000
  0
VERTEX
  8
0
 10
60.400000
 20
165.825000
  0
VERTEX
  8
0
 10
61.375000
 20
165.375000
  0
VERTEX
  8
0
 10
62.425000
 20
164.975000
  0
VERTEX
  8
0
 10
63.550000
 20
164.600000
  0
VERTEX
  8
0
 10
64.750000
 20
164.275000
  0
VERTEX
  8
0
 10
66.025000
 20
163.975000
  0
VERTEX
  8
0
 10
67.400000
 20
163.700000
  0
VERTEX
  8
0
 10
68.850000
 20
163.475000
  0
VERTEX
  8
0
 10
70.400000
 20
163.275000
  0
VERTEX
  8
0
 10
72.000000
 20
163.125000
  0
VERTEX
  8
0
 10
73.700000
 20
163.000000
  0
VERTEX
  8
0
 10
75.500000
 20
162.900000
  0
VERTEX
  8
0
 10
77.350000
 20
162.850000
  0
VERTEX
  8
0
 10
74.500000
 20
154.600000
  0
VERTEX
  8
0
 10
72.525000
 20
154.775000
  0
VERTEX
  8
0
 10
70.625000
 20
155.000000
  0
VERTEX
  8
0
 10
68.775000
 20
155.250000
  0
VERTEX
  8
0
 10
67.025000
 20
155.550000
  0
VERTEX
  8
0
 10
65.350000
 20
155.900000
  0
VERTEX
  8
0
 10
63.750000
 20
156.275000
  0
VERTEX
  8
0
 10
62.250000
 20
156.700000
  0
VERTEX
  8
0
 10
60.800000
 20
157.150000
  0
VERTEX
  8
0
 10
59.425000
 20
157.650000
  0
VERTEX
  8
0
 10
58.125000
 20
158.175000
  0
VERTEX
  8
0
 10
56.925000
 20
158.750000
  0
VERTEX
  8
0
 10
55.775000
 20
159.375000
  0
VERTEX
  8
0
 10
54.725000
 20
160.025000
  0
VERTEX
  8
0
 10
53.750000
 20
160.725000
  0
VERTEX
  8
0
 10
52.825000
 20
161.450000
  0
VERTEX
  8
0
 10
52.000000
 20
162.225000
  0
VERTEX
  8
0
 10
51.425000
 20
162.825000
  0
VERTEX
  8
0
 10
50.875000
 20
163.450000
  0
VERTEX
  8
0
 10
50.375000
 20
164.075000
  0
VERTEX
  8
0
 10
49.925000
 20
164.725000
  0
VERTEX
  8
0
 10
49.500000
 20
165.375000
  0
VERTEX
  8
0
 10
49.100000
 20
166.050000
  0
VERTEX
  8
0
 10
48.750000
 20
166.750000
  0
VERTEX
  8
0
 10
48.425000
 20
167.450000
  0
VERTEX
  8
0
 10
48.150000
 20
168.175000
  0
VERTEX
  8
0
 10
47.925000
 20
168.900000
  0
VERTEX
  8
0
 10
47.700000
 20
169.650000
  0
VERTEX
  8
0
 10
47.550000
 20
170.425000
  0
VERTEX
  8
0
 10
47.425000
 20
171.200000
  0
VERTEX
  8
0
 10
47.325000
 20
172.000000
  0
VERTEX
  8
0
 10
47.275000
 20
172.800000
  0
VERTEX
  8
0
 10
47.250000
 20
173.625000
  0
VERTEX
  8
0
 10
47.275000
 20
174.600000
  0
VERTEX
  8
0
 10
47.325000
 20
175.550000
  0
VERTEX
  8
0
 10
47.425000
 20
176.475000
  0
VERTEX
  8
0
 10
47.550000
 20
177.375000
  0
VERTEX
  8
0
 10
47.700000
 20
178.275000
  0
VERTEX
  8
0
 10
47.925000
 20
179.125000
  0
VERTEX
  8
0
 10
48.150000
 20
179.950000
  0
VERTEX
  8
0
 10
48.425000
 20
180.750000
  0
VERTEX
  8
0
 10
48.750000
 20
181.525000
  0
VERTEX
  8
0
 10
49.100000
 20
182.275000
  0
VERTEX
  8
0
 10
49.500000
 20
183.025000
  0
VERTEX
  8
0
 10
49.925000
 20
183.725000
  0
VERTEX
  8
0
 10
50.375000
 20
184.400000
  0
VERTEX
  8
0
 10
50.875000
 20
185.050000
  0
VERTEX
  8
0
 10
51.425000
 20
185.700000
  0
VERTEX
  8
0
 10
52.000000
 20
186.300000
  0
VERTEX
  8
0
 10
52.325000
 20
186.625000
  0
VERTEX
  8
0
 10
52.650000
 20
186.925000
  0
VERTEX
  8
0
 10
53.000000
 20
187.250000
  0
VERTEX
  8
0
 10
53.350000
 20
187.575000
  0
VERTEX
  8
0
 10
53.700000
 20
187.900000
  0
VERTEX
  8
0
 10
54.075000
 20
188.200000
  0
VERTEX
  8
0
 10
54.450000
 20
188.525000
  0
VERTEX
  8
0
 10
54.850000
 20
188.825000
  0
VERTEX
  8
0
 10
55.250000
 20
189.150000
  0
VERTEX
  8
0
 10
55.650000
 20
189.475000
  0
VERTEX
  8
0
 10
56.075000
 20
189.775000
  0
VERTEX
  8
0
 10
56.500000
 20
190.100000
  0
VERTEX
  8
0
 10
56.950000
 20
190.425000
  0
VERTEX
  8
0
 10
57.400000
 20
190.750000
  0
VERTEX
  8
0
 10
57.850000
 20
191.050000
  0
VERTEX
  8
0
 10
58.325000
 20
191.375000
  0
VERTEX
  8
0
 10
56.200000
 20
191.100000
  0
VERTEX
  8
0
 10
54.100000
 20
190.825000
  0
VERTEX
  8
0
 10
52.025000
 20
190.525000
  0
VERTEX
  8
0
 10
49.950000
 20
190.250000
  0
VERTEX
  8
0
 10
47.925000
 20
189.950000
  0
VERTEX
  8
0
 10
45.900000
 20
189.675000
  0
VERTEX
  8
0
 10
43.900000
 20
189.375000
  0
VERTEX
  8
0
 10
41.925000
 20
189.075000
  0
VERTEX
  8
0
 10
39.975000
 20
188.775000
  0
VERTEX
  8
0
 10
38.050000
 20
188.475000
  0
VERTEX
  8
0
 10
36.150000
 20
188.175000
  0
VERTEX
  8
0
 10
34.275000
 20
187.875000
  0
VERTEX
  8
0
 10
32.400000
 20
187.550000
  0
VERTEX
  8
0
 10
30.575000
 20
187.250000
  0
VERTEX
  8
0
 10
28.750000
 20
186.950000
  0
VERTEX
  8
0
 10
26.950000
 20
186.625000
  0
VERTEX
  8
0
 10
25.375000
 20
193.600000
  0
VERTEX
  8
0
 10
38.375000
 20
195.500000
  0
VERTEX
  8
0
 10
39.475000
 20
196.275000
  0
VERTEX
  8
0
 10
40.625000
 20
197.125000
  0
VERTEX
  8
0
 10
41.825000
 20
198.050000
  0
VERTEX
  8
0
 10
43.075000
 20
199.050000
  0
VERTEX
  8
0
 10
44.375000
 20
200.100000
  0
VERTEX
  8
0
 10
45.725000
 20
201.200000
  0
VERTEX
  8
0
 10
47.125000
 20
202.400000
  0
VERTEX
  8
0
 10
48.600000
 20
203.650000
  0
VERTEX
  8
0
 10
50.100000
 20
204.975000
  0
VERTEX
  8
0
 10
51.675000
 20
206.375000
  0
VERTEX
  8
0
 10
53.275000
 20
207.825000
  0
VERTEX
  8
0
 10
54.950000
 20
209.350000
  0
VERTEX
  8
0
 10
56.650000
 20
210.925000
  0
VERTEX
  8
0
 10
58.425000
 20
212.575000
  0
VERTEX
  8
0
 10
60.250000
 20
214.300000
  0
VERTEX
  8
0
 10
62.125000
 20
216.100000
  0
SEQEND
  8
0
  0
ENDSEC
  0
EOF
