  0
SECTION
  2
HEADER
  9
$ACADVER
  1
AC1009
  9
$INSBASE
 10
0.000000
 20
0.000000
 30
0.000000
  9
$EXTMIN
 10
0.000000
 20
0.000000
  9
$EXTMAX
 10
190.000000
 20
257.000000
  9
$LIMMIN
 10
0.000000
 20
0.000000
  9
$LIMMAX
 10
190.000000
 20
257.000000
  9
$TEXTSIZE
 40
0.200000
  9
$TEXTSTYLE
  7
BIGFONT
  9
$CLAYER
  8
0
  9
$ANGBASE
 50
0.000000
  9
$ANGDIR
 70
     0
  0
ENDSEC
  0
SECTION
  2
TABLES
  0
TABLE
  2
LTYPE
 70
    11
  0
LTYPE
  2
BYBLOCK
 70
    64
  3
BYBLOCK
 72
    65
 73
     0
 40
0.000000
  0
LTYPE
  2
BYLAYER
 70
    64
  3
BYLAYER
 72
    65
 73
     0
 40
0.000000
  0
LTYPE
  2
CONTINUOUS
 70
    64
  3
é¿ê¸
 72
    65
 73
     0
 40
0.000000
  0
LTYPE
  2
DASHED
 70
    64
  3
__ __ __ __ __ __ __ __ __ __ __ __ __ __ __
 72
    65
 73
     2
 40
0.750000
 49
0.500000
 49
-0.250000
  0
LTYPE
  2
HIDDEN
 70
    64
  3
_ _ _ _ _ _ _ _ _ _ _ _ _ _ _ _ _ _ _ _ _ _ _
 72
    65
 73
     2
 40
0.375000
 49
0.250000
 49
-0.125000
  0
LTYPE
  2
CENTER
 70
    64
  3
____ _ ____ _ ____ _ ____ _ ____ _ ____ _ ____
 72
    65
 73
     4
 40
2.000000
 49
1.250000
 49
-0.250000
 49
0.250000
 49
-0.250000
  0
LTYPE
  2
PHANTOM
 70
    64
  3
_____ _ _ _____ _ _ _____ _ _ _____ _ _ ____
 72
    65
 73
     6
 40
2.500000
 49
1.250000
 49
-0.250000
 49
0.250000
 49
-0.250000
 49
0.250000
 49
-0.250000
  0
LTYPE
  2
DOT
 70
    64
  3
...............................................
 72
    65
 73
     2
 40
0.250000
 49
0.000000
 49
-0.250000
  0
LTYPE
  2
DASHDOT
 70
    64
  3
__ . __ . __ . __ . __ . __ . __ . __ . __ . __
 72
    65
 73
     4
 40
1.000000
 49
0.500000
 49
-0.250000
 49
0.000000
 49
-0.250000
  0
LTYPE
  2
BORDER
 70
    64
  3
__ __ . __ __ . __ __ . __ __ . __ __ . __ __
 72
    65
 73
     6
 40
1.750000
 49
0.500000
 49
-0.250000
 49
0.500000
 49
-0.250000
 49
0.000000
 49
-0.250000
  0
LTYPE
  2
DIVIDE
 70
    64
  3
__ . . __ . . __ . . __ . . __ . . __ . . __
 72
    65
 73
     6
 40
1.250000
 49
0.500000
 49
-0.250000
 49
0.000000
 49
-0.250000
 49
0.000000
 49
-0.250000
  0
ENDTAB
  0
TABLE
  2
LAYER
  5
a2
 70
     2
  0
LAYER
  5
a5
  2
0
 70
     0
 62
     7
  6
CONTINUOUS
  0
LAYER
  5
a8
  2
B
 70
     0
 62
     7
  6
CONTINUOUS
  0
LAYER
  5
ab
  2
C
 70
     0
 62
     7
  6
CONTINUOUS
  0
LAYER
  5
ae
  2
D
 70
     0
 62
     7
  6
CONTINUOUS
  0
LAYER
  5
b1
  2
E
 70
     0
 62
     7
  6
CONTINUOUS
  0
LAYER
  5
b4
  2
F
 70
     0
 62
     7
  6
CONTINUOUS
  0
LAYER
  5
b7
  2
G
 70
     0
 62
     7
  6
CONTINUOUS
  0
LAYER
  5
ba
  2
H
 70
     0
 62
     7
  6
CONTINUOUS
  0
LAYER
  5
bd
  2
I
 70
     0
 62
     7
  6
CONTINUOUS
  0
LAYER
  5
c0
  2
J
 70
     0
 62
     7
  6
CONTINUOUS
  0
LAYER
  5
c3
  2
K
 70
     0
 62
     7
  6
CONTINUOUS
  0
LAYER
  5
c6
  2
L
 70
     0
 62
     7
  6
CONTINUOUS
  0
LAYER
  5
c9
  2
M
 70
     0
 62
     7
  6
CONTINUOUS
  0
LAYER
  5
cc
  2
N
 70
     0
 62
     7
  6
CONTINUOUS
  0
ENDTAB
  0
TABLE
  2
STYLE
 70
     2
  0
STYLE
  2
STANDARD
 70
     0
 40
0.000000
 41
0.500000
 50
0.000000
 71
     0
 42
0.300000
  3
txt
  4

  0
STYLE
  2
BIGFONT
 70
    64
 40
0.000000
 41
1.000000
 50
0.000000
 71
     0
 42
0.200000
  3

  4
bigfont
  0
ENDTAB
  0
ENDSEC
  0
SECTION
  2
BLOCKS
  0
ENDSEC
  0
SECTION
  2
ENTITIES
  0
POLYLINE
  8
0
 66
     1
 70
     1
 40
0.200000
 41
0.200000
  0
VERTEX
  8
0
 10
14.625000
 20
231.700000
  0
VERTEX
  8
0
 10
19.175000
 20
230.175000
  0
VERTEX
  8
0
 10
42.050000
 20
230.175000
  0
VERTEX
  8
0
 10
42.050000
 20
226.175000
  0
VERTEX
  8
0
 10
39.575000
 20
226.175000
  0
VERTEX
  8
0
 10
39.700000
 20
222.050000
  0
VERTEX
  8
0
 10
43.700000
 20
222.050000
  0
VERTEX
  8
0
 10
43.700000
 20
218.600000
  0
VERTEX
  8
0
 10
39.700000
 20
218.600000
  0
VERTEX
  8
0
 10
39.700000
 20
215.575000
  0
VERTEX
  8
0
 10
43.700000
 20
215.575000
  0
VERTEX
  8
0
 10
43.700000
 20
212.125000
  0
VERTEX
  8
0
 10
39.700000
 20
212.125000
  0
VERTEX
  8
0
 10
39.700000
 20
210.750000
  0
VERTEX
  8
0
 10
42.600000
 20
210.750000
  0
VERTEX
  8
0
 10
42.600000
 20
207.300000
  0
VERTEX
  8
0
 10
39.850000
 20
207.300000
  0
VERTEX
  8
0
 10
39.975000
 20
205.100000
  0
VERTEX
  8
0
 10
43.700000
 20
205.100000
  0
VERTEX
  8
0
 10
43.700000
 20
201.650000
  0
VERTEX
  8
0
 10
40.125000
 20
201.650000
  0
VERTEX
  8
0
 10
40.125000
 20
198.075000
  0
VERTEX
  8
0
 10
34.600000
 20
198.075000
  0
VERTEX
  8
0
 10
34.750000
 20
201.225000
  0
VERTEX
  8
0
 10
30.200000
 20
200.950000
  0
VERTEX
  8
0
 10
29.625000
 20
200.875000
  0
VERTEX
  8
0
 10
29.050000
 20
200.800000
  0
VERTEX
  8
0
 10
28.425000
 20
200.700000
  0
VERTEX
  8
0
 10
27.775000
 20
200.600000
  0
VERTEX
  8
0
 10
27.100000
 20
200.500000
  0
VERTEX
  8
0
 10
26.425000
 20
200.375000
  0
VERTEX
  8
0
 10
25.700000
 20
200.250000
  0
VERTEX
  8
0
 10
24.950000
 20
200.125000
  0
VERTEX
  8
0
 10
24.950000
 20
205.100000
  0
VERTEX
  8
0
 10
28.000000
 20
205.100000
  0
VERTEX
  8
0
 10
28.275000
 20
206.200000
  0
VERTEX
  8
0
 10
26.600000
 20
206.050000
  0
VERTEX
  8
0
 10
26.750000
 20
210.475000
  0
VERTEX
  8
0
 10
34.475000
 20
210.600000
  0
VERTEX
  8
0
 10
34.475000
 20
211.975000
  0
VERTEX
  8
0
 10
22.625000
 20
211.425000
  0
VERTEX
  8
0
 10
19.575000
 20
211.150000
  0
VERTEX
  8
0
 10
19.175000
 20
210.600000
  0
VERTEX
  8
0
 10
19.575000
 20
210.600000
  0
VERTEX
  8
0
 10
19.975000
 20
210.600000
  0
VERTEX
  8
0
 10
20.350000
 20
210.625000
  0
VERTEX
  8
0
 10
20.725000
 20
210.625000
  0
VERTEX
  8
0
 10
21.075000
 20
210.650000
  0
VERTEX
  8
0
 10
21.425000
 20
210.675000
  0
VERTEX
  8
0
 10
21.750000
 20
210.725000
  0
VERTEX
  8
0
 10
22.075000
 20
210.750000
  0
VERTEX
  8
0
 10
22.500000
 20
210.775000
  0
VERTEX
  8
0
 10
22.900000
 20
210.800000
  0
VERTEX
  8
0
 10
23.250000
 20
210.800000
  0
VERTEX
  8
0
 10
23.575000
 20
210.800000
  0
VERTEX
  8
0
 10
23.875000
 20
210.800000
  0
VERTEX
  8
0
 10
24.125000
 20
210.800000
  0
VERTEX
  8
0
 10
24.350000
 20
210.775000
  0
VERTEX
  8
0
 10
24.550000
 20
210.750000
  0
VERTEX
  8
0
 10
24.800000
 20
210.675000
  0
VERTEX
  8
0
 10
25.025000
 20
210.550000
  0
VERTEX
  8
0
 10
25.225000
 20
210.450000
  0
VERTEX
  8
0
 10
25.375000
 20
210.300000
  0
VERTEX
  8
0
 10
25.500000
 20
210.125000
  0
VERTEX
  8
0
 10
25.575000
 20
209.950000
  0
VERTEX
  8
0
 10
25.625000
 20
209.725000
  0
VERTEX
  8
0
 10
25.650000
 20
209.500000
  0
VERTEX
  8
0
 10
25.650000
 20
209.025000
  0
VERTEX
  8
0
 10
25.575000
 20
208.500000
  0
VERTEX
  8
0
 10
25.425000
 20
207.950000
  0
VERTEX
  8
0
 10
25.200000
 20
207.325000
  0
VERTEX
  8
0
 10
24.900000
 20
206.675000
  0
VERTEX
  8
0
 10
24.525000
 20
205.950000
  0
VERTEX
  8
0
 10
24.100000
 20
205.200000
  0
VERTEX
  8
0
 10
23.575000
 20
204.400000
  0
VERTEX
  8
0
 10
24.675000
 20
203.850000
  0
VERTEX
  8
0
 10
22.200000
 20
200.125000
  0
VERTEX
  8
0
 10
20.950000
 20
200.950000
  0
VERTEX
  8
0
 10
18.625000
 20
197.925000
  0
VERTEX
  8
0
 10
14.200000
 20
199.575000
  0
VERTEX
  8
0
 10
16.550000
 20
202.625000
  0
VERTEX
  8
0
 10
13.925000
 20
203.450000
  0
VERTEX
  8
0
 10
13.250000
 20
202.750000
  0
VERTEX
  8
0
 10
10.075000
 20
204.275000
  0
VERTEX
  8
0
 10
14.075000
 20
210.475000
  0
VERTEX
  8
0
 10
10.350000
 20
209.925000
  0
VERTEX
  8
0
 10
10.225000
 20
215.150000
  0
VERTEX
  8
0
 10
15.025000
 20
215.300000
  0
VERTEX
  8
0
 10
15.325000
 20
217.075000
  0
VERTEX
  8
0
 10
10.225000
 20
216.400000
  0
VERTEX
  8
0
 10
10.225000
 20
221.500000
  0
VERTEX
  8
0
 10
13.925000
 20
221.625000
  0
VERTEX
  8
0
 10
10.075000
 20
223.975000
  0
VERTEX
  8
0
 10
14.625000
 20
231.700000
  0
SEQEND
  8
0
  0
POLYLINE
  8
0
 66
     1
 70
     1
 40
0.200000
 41
0.200000
  0
VERTEX
  8
0
 10
15.725000
 20
221.625000
  0
VERTEX
  8
0
 10
16.000000
 20
223.150000
  0
VERTEX
  8
0
 10
14.900000
 20
221.625000
  0
VERTEX
  8
0
 10
15.725000
 20
221.625000
  0
SEQEND
  8
0
  0
POLYLINE
  8
0
 66
     1
 70
     1
 40
0.200000
 41
0.200000
  0
VERTEX
  8
0
 10
19.175000
 20
206.050000
  0
VERTEX
  8
0
 10
20.000000
 20
207.300000
  0
VERTEX
  8
0
 10
16.975000
 20
206.875000
  0
VERTEX
  8
0
 10
19.175000
 20
206.050000
  0
SEQEND
  8
0
  0
POLYLINE
  8
0
 66
     1
 70
     1
 40
0.200000
 41
0.200000
  0
VERTEX
  8
0
 10
21.800000
 20
215.575000
  0
VERTEX
  8
0
 10
21.925000
 20
217.900000
  0
VERTEX
  8
0
 10
20.400000
 20
217.625000
  0
VERTEX
  8
0
 10
20.275000
 20
215.575000
  0
VERTEX
  8
0
 10
21.800000
 20
215.575000
  0
SEQEND
  8
0
  0
POLYLINE
  8
0
 66
     1
 70
     1
 40
0.200000
 41
0.200000
  0
VERTEX
  8
0
 10
22.200000
 20
222.050000
  0
VERTEX
  8
0
 10
22.475000
 20
225.475000
  0
VERTEX
  8
0
 10
21.100000
 20
225.350000
  0
VERTEX
  8
0
 10
20.825000
 20
222.050000
  0
VERTEX
  8
0
 10
22.200000
 20
222.050000
  0
SEQEND
  8
0
  0
POLYLINE
  8
0
 66
     1
 70
     1
 40
0.200000
 41
0.200000
  0
VERTEX
  8
0
 10
28.125000
 20
215.575000
  0
VERTEX
  8
0
 10
28.125000
 20
218.175000
  0
VERTEX
  8
0
 10
26.600000
 20
218.175000
  0
VERTEX
  8
0
 10
26.475000
 20
215.425000
  0
VERTEX
  8
0
 10
28.125000
 20
215.575000
  0
SEQEND
  8
0
  0
POLYLINE
  8
0
 66
     1
 70
     1
 40
0.200000
 41
0.200000
  0
VERTEX
  8
0
 10
28.275000
 20
222.050000
  0
VERTEX
  8
0
 10
28.400000
 20
225.900000
  0
VERTEX
  8
0
 10
27.025000
 20
225.775000
  0
VERTEX
  8
0
 10
26.875000
 20
222.050000
  0
VERTEX
  8
0
 10
28.275000
 20
222.050000
  0
SEQEND
  8
0
  0
POLYLINE
  8
0
 66
     1
 70
     1
 40
0.200000
 41
0.200000
  0
VERTEX
  8
0
 10
34.475000
 20
205.100000
  0
VERTEX
  8
0
 10
34.475000
 20
207.025000
  0
VERTEX
  8
0
 10
32.950000
 20
206.875000
  0
VERTEX
  8
0
 10
32.800000
 20
205.100000
  0
VERTEX
  8
0
 10
34.475000
 20
205.100000
  0
SEQEND
  8
0
  0
POLYLINE
  8
0
 66
     1
 70
     1
 40
0.200000
 41
0.200000
  0
VERTEX
  8
0
 10
32.950000
 20
222.050000
  0
VERTEX
  8
0
 10
34.200000
 20
222.050000
  0
VERTEX
  8
0
 10
34.050000
 20
226.175000
  0
VERTEX
  8
0
 10
32.800000
 20
226.175000
  0
VERTEX
  8
0
 10
32.950000
 20
222.050000
  0
SEQEND
  8
0
  0
POLYLINE
  8
0
 66
     1
 70
     1
 40
0.200000
 41
0.200000
  0
VERTEX
  8
0
 10
33.100000
 20
215.575000
  0
VERTEX
  8
0
 10
34.475000
 20
215.575000
  0
VERTEX
  8
0
 10
34.475000
 20
218.600000
  0
VERTEX
  8
0
 10
33.100000
 20
218.600000
  0
VERTEX
  8
0
 10
33.100000
 20
215.575000
  0
SEQEND
  8
0
  0
POLYLINE
  8
0
 66
     1
 70
     1
 40
0.200000
 41
0.200000
  0
VERTEX
  8
0
 10
51.975000
 20
228.525000
  0
VERTEX
  8
0
 10
53.625000
 20
231.700000
  0
VERTEX
  8
0
 10
57.900000
 20
230.850000
  0
VERTEX
  8
0
 10
56.925000
 20
228.525000
  0
VERTEX
  8
0
 10
57.150000
 20
228.525000
  0
VERTEX
  8
0
 10
57.350000
 20
228.525000
  0
VERTEX
  8
0
 10
57.550000
 20
228.525000
  0
VERTEX
  8
0
 10
57.750000
 20
228.525000
  0
VERTEX
  8
0
 10
57.925000
 20
228.500000
  0
VERTEX
  8
0
 10
58.100000
 20
228.500000
  0
VERTEX
  8
0
 10
58.250000
 20
228.500000
  0
VERTEX
  8
0
 10
58.400000
 20
228.475000
  0
VERTEX
  8
0
 10
58.550000
 20
228.475000
  0
VERTEX
  8
0
 10
58.675000
 20
228.475000
  0
VERTEX
  8
0
 10
58.800000
 20
228.450000
  0
VERTEX
  8
0
 10
58.925000
 20
228.450000
  0
VERTEX
  8
0
 10
59.025000
 20
228.425000
  0
VERTEX
  8
0
 10
59.125000
 20
228.400000
  0
VERTEX
  8
0
 10
59.200000
 20
228.400000
  0
VERTEX
  8
0
 10
59.275000
 20
228.375000
  0
VERTEX
  8
0
 10
59.450000
 20
228.350000
  0
VERTEX
  8
0
 10
59.600000
 20
228.300000
  0
VERTEX
  8
0
 10
59.750000
 20
228.250000
  0
VERTEX
  8
0
 10
59.900000
 20
228.200000
  0
VERTEX
  8
0
 10
60.050000
 20
228.150000
  0
VERTEX
  8
0
 10
60.200000
 20
228.075000
  0
VERTEX
  8
0
 10
60.325000
 20
228.000000
  0
VERTEX
  8
0
 10
60.475000
 20
227.925000
  0
VERTEX
  8
0
 10
60.600000
 20
227.850000
  0
VERTEX
  8
0
 10
60.725000
 20
227.775000
  0
VERTEX
  8
0
 10
60.825000
 20
227.675000
  0
VERTEX
  8
0
 10
60.950000
 20
227.575000
  0
VERTEX
  8
0
 10
61.050000
 20
227.475000
  0
VERTEX
  8
0
 10
61.150000
 20
227.375000
  0
VERTEX
  8
0
 10
61.250000
 20
227.275000
  0
VERTEX
  8
0
 10
61.325000
 20
227.150000
  0
VERTEX
  8
0
 10
61.400000
 20
227.025000
  0
VERTEX
  8
0
 10
61.475000
 20
226.875000
  0
VERTEX
  8
0
 10
61.550000
 20
226.675000
  0
VERTEX
  8
0
 10
61.625000
 20
226.500000
  0
VERTEX
  8
0
 10
61.675000
 20
226.275000
  0
VERTEX
  8
0
 10
61.725000
 20
226.025000
  0
VERTEX
  8
0
 10
61.750000
 20
225.775000
  0
VERTEX
  8
0
 10
61.775000
 20
225.475000
  0
VERTEX
  8
0
 10
61.800000
 20
225.175000
  0
VERTEX
  8
0
 10
61.825000
 20
224.850000
  0
VERTEX
  8
0
 10
61.825000
 20
224.500000
  0
VERTEX
  8
0
 10
61.825000
 20
224.125000
  0
VERTEX
  8
0
 10
61.825000
 20
223.750000
  0
VERTEX
  8
0
 10
61.800000
 20
223.325000
  0
VERTEX
  8
0
 10
61.775000
 20
222.900000
  0
VERTEX
  8
0
 10
61.750000
 20
222.450000
  0
VERTEX
  8
0
 10
57.075000
 20
222.325000
  0
VERTEX
  8
0
 10
57.200000
 20
225.075000
  0
VERTEX
  8
0
 10
55.400000
 20
225.075000
  0
VERTEX
  8
0
 10
52.525000
 20
218.325000
  0
VERTEX
  8
0
 10
53.750000
 20
218.325000
  0
VERTEX
  8
0
 10
54.575000
 20
221.775000
  0
VERTEX
  8
0
 10
59.000000
 20
221.500000
  0
VERTEX
  8
0
 10
57.900000
 20
218.325000
  0
VERTEX
  8
0
 10
60.775000
 20
218.325000
  0
VERTEX
  8
0
 10
60.650000
 20
214.875000
  0
VERTEX
  8
0
 10
57.750000
 20
214.875000
  0
VERTEX
  8
0
 10
57.625000
 20
213.350000
  0
VERTEX
  8
0
 10
60.225000
 20
213.500000
  0
VERTEX
  8
0
 10
60.100000
 20
210.600000
  0
VERTEX
  8
0
 10
57.350000
 20
210.475000
  0
VERTEX
  8
0
 10
57.350000
 20
209.225000
  0
VERTEX
  8
0
 10
60.100000
 20
209.225000
  0
VERTEX
  8
0
 10
60.100000
 20
206.325000
  0
VERTEX
  8
0
 10
57.350000
 20
206.200000
  0
VERTEX
  8
0
 10
57.350000
 20
204.550000
  0
VERTEX
  8
0
 10
60.375000
 20
204.675000
  0
VERTEX
  8
0
 10
61.050000
 20
207.850000
  0
VERTEX
  8
0
 10
64.375000
 20
207.425000
  0
VERTEX
  8
0
 10
63.825000
 20
199.450000
  0
VERTEX
  8
0
 10
59.675000
 20
199.850000
  0
VERTEX
  8
0
 10
59.950000
 20
201.225000
  0
VERTEX
  8
0
 10
52.525000
 20
200.400000
  0
VERTEX
  8
0
 10
46.600000
 20
199.450000
  0
VERTEX
  8
0
 10
46.725000
 20
206.325000
  0
VERTEX
  8
0
 10
47.275000
 20
213.075000
  0
VERTEX
  8
0
 10
45.625000
 20
214.475000
  0
VERTEX
  8
0
 10
49.075000
 20
222.050000
  0
VERTEX
  8
0
 10
45.500000
 20
221.775000
  0
VERTEX
  8
0
 10
46.050000
 20
228.250000
  0
VERTEX
  8
0
 10
51.975000
 20
228.525000
  0
SEQEND
  8
0
  0
POLYLINE
  8
0
 66
     1
 70
     1
 40
0.200000
 41
0.200000
  0
VERTEX
  8
0
 10
50.450000
 20
225.075000
  0
VERTEX
  8
0
 10
49.750000
 20
225.075000
  0
VERTEX
  8
0
 10
49.625000
 20
223.425000
  0
VERTEX
  8
0
 10
50.450000
 20
225.075000
  0
SEQEND
  8
0
  0
POLYLINE
  8
0
 66
     1
 70
     1
 40
0.200000
 41
0.200000
  0
VERTEX
  8
0
 10
53.200000
 20
204.400000
  0
VERTEX
  8
0
 10
53.200000
 20
205.775000
  0
VERTEX
  8
0
 10
51.550000
 20
205.650000
  0
VERTEX
  8
0
 10
51.550000
 20
204.125000
  0
VERTEX
  8
0
 10
53.200000
 20
204.400000
  0
SEQEND
  8
0
  0
POLYLINE
  8
0
 66
     1
 70
     1
 40
0.200000
 41
0.200000
  0
VERTEX
  8
0
 10
53.350000
 20
208.950000
  0
VERTEX
  8
0
 10
53.475000
 20
210.200000
  0
VERTEX
  8
0
 10
51.550000
 20
210.050000
  0
VERTEX
  8
0
 10
51.550000
 20
208.825000
  0
VERTEX
  8
0
 10
53.350000
 20
208.950000
  0
SEQEND
  8
0
  0
POLYLINE
  8
0
 66
     1
 70
     1
 40
0.200000
 41
0.200000
  0
VERTEX
  8
0
 10
53.625000
 20
213.350000
  0
VERTEX
  8
0
 10
53.750000
 20
214.875000
  0
VERTEX
  8
0
 10
51.975000
 20
214.875000
  0
VERTEX
  8
0
 10
51.825000
 20
213.225000
  0
VERTEX
  8
0
 10
53.625000
 20
213.350000
  0
SEQEND
  8
0
  0
POLYLINE
  8
0
 66
     1
 70
     1
 40
0.200000
 41
0.200000
  0
VERTEX
  8
0
 10
62.575000
 20
228.525000
  0
VERTEX
  8
0
 10
67.250000
 20
228.650000
  0
VERTEX
  8
0
 10
67.525000
 20
231.400000
  0
VERTEX
  8
0
 10
72.900000
 20
231.275000
  0
VERTEX
  8
0
 10
72.075000
 20
228.650000
  0
VERTEX
  8
0
 10
72.300000
 20
228.650000
  0
VERTEX
  8
0
 10
72.500000
 20
228.650000
  0
VERTEX
  8
0
 10
72.725000
 20
228.650000
  0
VERTEX
  8
0
 10
72.925000
 20
228.625000
  0
VERTEX
  8
0
 10
73.100000
 20
228.625000
  0
VERTEX
  8
0
 10
73.300000
 20
228.625000
  0
VERTEX
  8
0
 10
73.475000
 20
228.600000
  0
VERTEX
  8
0
 10
73.625000
 20
228.575000
  0
VERTEX
  8
0
 10
73.800000
 20
228.575000
  0
VERTEX
  8
0
 10
73.950000
 20
228.550000
  0
VERTEX
  8
0
 10
74.100000
 20
228.525000
  0
VERTEX
  8
0
 10
74.225000
 20
228.500000
  0
VERTEX
  8
0
 10
74.350000
 20
228.475000
  0
VERTEX
  8
0
 10
74.475000
 20
228.450000
  0
VERTEX
  8
0
 10
74.600000
 20
228.400000
  0
VERTEX
  8
0
 10
74.700000
 20
228.375000
  0
VERTEX
  8
0
 10
74.875000
 20
228.325000
  0
VERTEX
  8
0
 10
75.075000
 20
228.250000
  0
VERTEX
  8
0
 10
75.225000
 20
228.200000
  0
VERTEX
  8
0
 10
75.400000
 20
228.125000
  0
VERTEX
  8
0
 10
75.575000
 20
228.050000
  0
VERTEX
  8
0
 10
75.725000
 20
227.975000
  0
VERTEX
  8
0
 10
75.875000
 20
227.875000
  0
VERTEX
  8
0
 10
76.000000
 20
227.800000
  0
VERTEX
  8
0
 10
76.150000
 20
227.700000
  0
VERTEX
  8
0
 10
76.275000
 20
227.600000
  0
VERTEX
  8
0
 10
76.400000
 20
227.500000
  0
VERTEX
  8
0
 10
76.500000
 20
227.375000
  0
VERTEX
  8
0
 10
76.625000
 20
227.250000
  0
VERTEX
  8
0
 10
76.725000
 20
227.125000
  0
VERTEX
  8
0
 10
76.800000
 20
227.000000
  0
VERTEX
  8
0
 10
76.900000
 20
226.875000
  0
VERTEX
  8
0
 10
77.000000
 20
226.725000
  0
VERTEX
  8
0
 10
77.100000
 20
226.550000
  0
VERTEX
  8
0
 10
77.175000
 20
226.375000
  0
VERTEX
  8
0
 10
77.275000
 20
226.175000
  0
VERTEX
  8
0
 10
77.350000
 20
225.975000
  0
VERTEX
  8
0
 10
77.425000
 20
225.775000
  0
VERTEX
  8
0
 10
77.500000
 20
225.550000
  0
VERTEX
  8
0
 10
77.550000
 20
225.325000
  0
VERTEX
  8
0
 10
77.625000
 20
225.075000
  0
VERTEX
  8
0
 10
77.675000
 20
224.825000
  0
VERTEX
  8
0
 10
77.725000
 20
224.575000
  0
VERTEX
  8
0
 10
77.750000
 20
224.300000
  0
VERTEX
  8
0
 10
77.800000
 20
224.025000
  0
VERTEX
  8
0
 10
77.825000
 20
223.750000
  0
VERTEX
  8
0
 10
77.850000
 20
223.450000
  0
VERTEX
  8
0
 10
77.875000
 20
223.150000
  0
VERTEX
  8
0
 10
77.900000
 20
222.925000
  0
VERTEX
  8
0
 10
77.900000
 20
222.700000
  0
VERTEX
  8
0
 10
77.925000
 20
222.425000
  0
VERTEX
  8
0
 10
77.925000
 20
222.150000
  0
VERTEX
  8
0
 10
77.925000
 20
221.850000
  0
VERTEX
  8
0
 10
77.950000
 20
221.525000
  0
VERTEX
  8
0
 10
77.950000
 20
221.175000
  0
VERTEX
  8
0
 10
77.975000
 20
220.800000
  0
VERTEX
  8
0
 10
77.975000
 20
220.425000
  0
VERTEX
  8
0
 10
77.975000
 20
220.000000
  0
VERTEX
  8
0
 10
77.975000
 20
219.575000
  0
VERTEX
  8
0
 10
78.000000
 20
219.125000
  0
VERTEX
  8
0
 10
78.000000
 20
218.625000
  0
VERTEX
  8
0
 10
78.000000
 20
218.150000
  0
VERTEX
  8
0
 10
78.000000
 20
217.625000
  0
VERTEX
  8
0
 10
78.000000
 20
217.075000
  0
VERTEX
  8
0
 10
66.300000
 20
216.400000
  0
VERTEX
  8
0
 10
66.300000
 20
215.850000
  0
VERTEX
  8
0
 10
78.975000
 20
215.975000
  0
VERTEX
  8
0
 10
78.975000
 20
212.950000
  0
VERTEX
  8
0
 10
78.500000
 20
212.950000
  0
VERTEX
  8
0
 10
78.025000
 20
212.950000
  0
VERTEX
  8
0
 10
77.575000
 20
212.950000
  0
VERTEX
  8
0
 10
77.125000
 20
212.950000
  0
VERTEX
  8
0
 10
76.675000
 20
212.925000
  0
VERTEX
  8
0
 10
76.250000
 20
212.925000
  0
VERTEX
  8
0
 10
75.825000
 20
212.925000
  0
VERTEX
  8
0
 10
75.425000
 20
212.900000
  0
VERTEX
  8
0
 10
75.025000
 20
212.900000
  0
VERTEX
  8
0
 10
74.650000
 20
212.900000
  0
VERTEX
  8
0
 10
74.250000
 20
212.875000
  0
VERTEX
  8
0
 10
73.900000
 20
212.875000
  0
VERTEX
  8
0
 10
73.525000
 20
212.850000
  0
VERTEX
  8
0
 10
73.175000
 20
212.825000
  0
VERTEX
  8
0
 10
72.825000
 20
212.825000
  0
VERTEX
  8
0
 10
72.500000
 20
212.800000
  0
VERTEX
  8
0
 10
72.250000
 20
212.775000
  0
VERTEX
  8
0
 10
71.975000
 20
212.775000
  0
VERTEX
  8
0
 10
71.700000
 20
212.750000
  0
VERTEX
  8
0
 10
71.375000
 20
212.725000
  0
VERTEX
  8
0
 10
71.050000
 20
212.700000
  0
VERTEX
  8
0
 10
70.725000
 20
212.675000
  0
VERTEX
  8
0
 10
70.350000
 20
212.625000
  0
VERTEX
  8
0
 10
69.975000
 20
212.600000
  0
VERTEX
  8
0
 10
69.575000
 20
212.575000
  0
VERTEX
  8
0
 10
69.175000
 20
212.525000
  0
VERTEX
  8
0
 10
68.750000
 20
212.475000
  0
VERTEX
  8
0
 10
68.300000
 20
212.450000
  0
VERTEX
  8
0
 10
67.825000
 20
212.400000
  0
VERTEX
  8
0
 10
67.325000
 20
212.350000
  0
VERTEX
  8
0
 10
66.825000
 20
212.300000
  0
VERTEX
  8
0
 10
66.300000
 20
212.250000
  0
VERTEX
  8
0
 10
66.300000
 20
211.850000
  0
VERTEX
  8
0
 10
67.200000
 20
211.900000
  0
VERTEX
  8
0
 10
68.075000
 20
211.950000
  0
VERTEX
  8
0
 10
68.900000
 20
211.975000
  0
VERTEX
  8
0
 10
69.700000
 20
212.025000
  0
VERTEX
  8
0
 10
70.425000
 20
212.050000
  0
VERTEX
  8
0
 10
71.150000
 20
212.075000
  0
VERTEX
  8
0
 10
71.800000
 20
212.075000
  0
VERTEX
  8
0
 10
72.425000
 20
212.100000
  0
VERTEX
  8
0
 10
73.000000
 20
212.100000
  0
VERTEX
  8
0
 10
73.550000
 20
212.100000
  0
VERTEX
  8
0
 10
74.050000
 20
212.100000
  0
VERTEX
  8
0
 10
74.525000
 20
212.075000
  0
VERTEX
  8
0
 10
74.925000
 20
212.050000
  0
VERTEX
  8
0
 10
75.325000
 20
212.050000
  0
VERTEX
  8
0
 10
75.650000
 20
212.000000
  0
VERTEX
  8
0
 10
75.950000
 20
211.975000
  0
VERTEX
  8
0
 10
76.175000
 20
211.950000
  0
VERTEX
  8
0
 10
76.400000
 20
211.900000
  0
VERTEX
  8
0
 10
76.625000
 20
211.825000
  0
VERTEX
  8
0
 10
76.825000
 20
211.775000
  0
VERTEX
  8
0
 10
77.025000
 20
211.700000
  0
VERTEX
  8
0
 10
77.200000
 20
211.625000
  0
VERTEX
  8
0
 10
77.375000
 20
211.525000
  0
VERTEX
  8
0
 10
77.525000
 20
211.425000
  0
VERTEX
  8
0
 10
77.675000
 20
211.325000
  0
VERTEX
  8
0
 10
77.825000
 20
211.200000
  0
VERTEX
  8
0
 10
77.950000
 20
211.075000
  0
VERTEX
  8
0
 10
78.050000
 20
210.950000
  0
VERTEX
  8
0
 10
78.175000
 20
210.800000
  0
VERTEX
  8
0
 10
78.275000
 20
210.650000
  0
VERTEX
  8
0
 10
78.350000
 20
210.500000
  0
VERTEX
  8
0
 10
78.425000
 20
210.325000
  0
VERTEX
  8
0
 10
78.450000
 20
210.225000
  0
VERTEX
  8
0
 10
78.500000
 20
210.125000
  0
VERTEX
  8
0
 10
78.525000
 20
210.000000
  0
VERTEX
  8
0
 10
78.550000
 20
209.850000
  0
VERTEX
  8
0
 10
78.600000
 20
209.675000
  0
VERTEX
  8
0
 10
78.625000
 20
209.475000
  0
VERTEX
  8
0
 10
78.675000
 20
209.275000
  0
VERTEX
  8
0
 10
78.700000
 20
209.050000
  0
VERTEX
  8
0
 10
78.725000
 20
208.800000
  0
VERTEX
  8
0
 10
78.775000
 20
208.550000
  0
VERTEX
  8
0
 10
78.800000
 20
208.275000
  0
VERTEX
  8
0
 10
78.850000
 20
207.975000
  0
VERTEX
  8
0
 10
78.875000
 20
207.650000
  0
VERTEX
  8
0
 10
78.900000
 20
207.325000
  0
VERTEX
  8
0
 10
78.950000
 20
206.975000
  0
VERTEX
  8
0
 10
78.975000
 20
206.600000
  0
VERTEX
  8
0
 10
79.000000
 20
206.200000
  0
VERTEX
  8
0
 10
79.025000
 20
205.825000
  0
VERTEX
  8
0
 10
79.050000
 20
205.475000
  0
VERTEX
  8
0
 10
79.075000
 20
205.125000
  0
VERTEX
  8
0
 10
79.100000
 20
204.775000
  0
VERTEX
  8
0
 10
79.125000
 20
204.450000
  0
VERTEX
  8
0
 10
79.125000
 20
204.150000
  0
VERTEX
  8
0
 10
79.150000
 20
203.850000
  0
VERTEX
  8
0
 10
79.150000
 20
203.575000
  0
VERTEX
  8
0
 10
79.150000
 20
203.300000
  0
VERTEX
  8
0
 10
79.150000
 20
203.025000
  0
VERTEX
  8
0
 10
79.150000
 20
202.775000
  0
VERTEX
  8
0
 10
79.150000
 20
202.550000
  0
VERTEX
  8
0
 10
79.125000
 20
202.325000
  0
VERTEX
  8
0
 10
79.125000
 20
202.125000
  0
VERTEX
  8
0
 10
79.100000
 20
201.925000
  0
VERTEX
  8
0
 10
79.075000
 20
201.750000
  0
VERTEX
  8
0
 10
79.075000
 20
201.550000
  0
VERTEX
  8
0
 10
79.050000
 20
201.375000
  0
VERTEX
  8
0
 10
79.025000
 20
201.225000
  0
VERTEX
  8
0
 10
78.975000
 20
201.050000
  0
VERTEX
  8
0
 10
78.950000
 20
200.875000
  0
VERTEX
  8
0
 10
78.925000
 20
200.725000
  0
VERTEX
  8
0
 10
78.875000
 20
200.575000
  0
VERTEX
  8
0
 10
78.825000
 20
200.425000
  0
VERTEX
  8
0
 10
78.775000
 20
200.300000
  0
VERTEX
  8
0
 10
78.725000
 20
200.150000
  0
VERTEX
  8
0
 10
78.675000
 20
200.025000
  0
VERTEX
  8
0
 10
78.625000
 20
199.900000
  0
VERTEX
  8
0
 10
78.550000
 20
199.800000
  0
VERTEX
  8
0
 10
78.500000
 20
199.675000
  0
VERTEX
  8
0
 10
78.425000
 20
199.575000
  0
VERTEX
  8
0
 10
78.325000
 20
199.450000
  0
VERTEX
  8
0
 10
78.225000
 20
199.325000
  0
VERTEX
  8
0
 10
78.125000
 20
199.200000
  0
VERTEX
  8
0
 10
78.000000
 20
199.075000
  0
VERTEX
  8
0
 10
77.900000
 20
198.975000
  0
VERTEX
  8
0
 10
77.775000
 20
198.875000
  0
VERTEX
  8
0
 10
77.625000
 20
198.775000
  0
VERTEX
  8
0
 10
77.475000
 20
198.700000
  0
VERTEX
  8
0
 10
77.325000
 20
198.600000
  0
VERTEX
  8
0
 10
77.175000
 20
198.525000
  0
VERTEX
  8
0
 10
77.000000
 20
198.450000
  0
VERTEX
  8
0
 10
76.850000
 20
198.400000
  0
VERTEX
  8
0
 10
76.650000
 20
198.350000
  0
VERTEX
  8
0
 10
76.475000
 20
198.275000
  0
VERTEX
  8
0
 10
76.275000
 20
198.250000
  0
VERTEX
  8
0
 10
76.075000
 20
198.200000
  0
VERTEX
  8
0
 10
75.875000
 20
198.175000
  0
VERTEX
  8
0
 10
75.700000
 20
198.150000
  0
VERTEX
  8
0
 10
75.500000
 20
198.125000
  0
VERTEX
  8
0
 10
75.300000
 20
198.100000
  0
VERTEX
  8
0
 10
75.075000
 20
198.075000
  0
VERTEX
  8
0
 10
74.875000
 20
198.075000
  0
VERTEX
  8
0
 10
74.650000
 20
198.075000
  0
VERTEX
  8
0
 10
74.425000
 20
198.075000
  0
VERTEX
  8
0
 10
74.200000
 20
198.075000
  0
VERTEX
  8
0
 10
73.975000
 20
198.075000
  0
VERTEX
  8
0
 10
73.725000
 20
198.075000
  0
VERTEX
  8
0
 10
73.500000
 20
198.100000
  0
VERTEX
  8
0
 10
73.250000
 20
198.125000
  0
VERTEX
  8
0
 10
73.000000
 20
198.150000
  0
VERTEX
  8
0
 10
72.750000
 20
198.175000
  0
VERTEX
  8
0
 10
72.500000
 20
198.200000
  0
VERTEX
  8
0
 10
71.125000
 20
202.625000
  0
VERTEX
  8
0
 10
74.575000
 20
202.625000
  0
VERTEX
  8
0
 10
74.575000
 20
204.950000
  0
VERTEX
  8
0
 10
74.450000
 20
204.800000
  0
VERTEX
  8
0
 10
74.325000
 20
204.650000
  0
VERTEX
  8
0
 10
74.200000
 20
204.525000
  0
VERTEX
  8
0
 10
74.075000
 20
204.425000
  0
VERTEX
  8
0
 10
73.950000
 20
204.300000
  0
VERTEX
  8
0
 10
73.825000
 20
204.225000
  0
VERTEX
  8
0
 10
73.700000
 20
204.125000
  0
VERTEX
  8
0
 10
73.575000
 20
204.050000
  0
VERTEX
  8
0
 10
73.425000
 20
204.000000
  0
VERTEX
  8
0
 10
73.300000
 20
203.925000
  0
VERTEX
  8
0
 10
73.175000
 20
203.900000
  0
VERTEX
  8
0
 10
73.050000
 20
203.875000
  0
VERTEX
  8
0
 10
72.900000
 20
203.850000
  0
VERTEX
  8
0
 10
72.775000
 20
203.825000
  0
VERTEX
  8
0
 10
72.625000
 20
203.825000
  0
VERTEX
  8
0
 10
72.500000
 20
203.850000
  0
VERTEX
  8
0
 10
72.350000
 20
203.875000
  0
VERTEX
  8
0
 10
72.225000
 20
203.900000
  0
VERTEX
  8
0
 10
72.100000
 20
203.950000
  0
VERTEX
  8
0
 10
71.975000
 20
203.975000
  0
VERTEX
  8
0
 10
71.875000
 20
204.025000
  0
VERTEX
  8
0
 10
71.750000
 20
204.100000
  0
VERTEX
  8
0
 10
71.650000
 20
204.150000
  0
VERTEX
  8
0
 10
71.550000
 20
204.225000
  0
VERTEX
  8
0
 10
71.475000
 20
204.300000
  0
VERTEX
  8
0
 10
71.375000
 20
204.400000
  0
VERTEX
  8
0
 10
71.300000
 20
204.500000
  0
VERTEX
  8
0
 10
71.225000
 20
204.600000
  0
VERTEX
  8
0
 10
71.150000
 20
204.725000
  0
VERTEX
  8
0
 10
71.100000
 20
204.825000
  0
VERTEX
  8
0
 10
71.025000
 20
204.975000
  0
VERTEX
  8
0
 10
70.975000
 20
205.100000
  0
VERTEX
  8
0
 10
70.925000
 20
205.250000
  0
VERTEX
  8
0
 10
70.850000
 20
205.400000
  0
VERTEX
  8
0
 10
70.825000
 20
205.550000
  0
VERTEX
  8
0
 10
70.775000
 20
205.675000
  0
VERTEX
  8
0
 10
70.750000
 20
205.825000
  0
VERTEX
  8
0
 10
70.725000
 20
205.950000
  0
VERTEX
  8
0
 10
70.725000
 20
206.075000
  0
VERTEX
  8
0
 10
70.725000
 20
206.200000
  0
VERTEX
  8
0
 10
70.725000
 20
206.325000
  0
VERTEX
  8
0
 10
70.725000
 20
206.425000
  0
VERTEX
  8
0
 10
70.750000
 20
206.550000
  0
VERTEX
  8
0
 10
70.775000
 20
206.650000
  0
VERTEX
  8
0
 10
70.825000
 20
206.750000
  0
VERTEX
  8
0
 10
70.850000
 20
206.850000
  0
VERTEX
  8
0
 10
70.925000
 20
206.950000
  0
VERTEX
  8
0
 10
70.975000
 20
207.025000
  0
VERTEX
  8
0
 10
71.075000
 20
207.150000
  0
VERTEX
  8
0
 10
71.175000
 20
207.275000
  0
VERTEX
  8
0
 10
71.275000
 20
207.375000
  0
VERTEX
  8
0
 10
71.400000
 20
207.475000
  0
VERTEX
  8
0
 10
71.525000
 20
207.575000
  0
VERTEX
  8
0
 10
71.650000
 20
207.650000
  0
VERTEX
  8
0
 10
71.800000
 20
207.725000
  0
VERTEX
  8
0
 10
71.950000
 20
207.775000
  0
VERTEX
  8
0
 10
72.100000
 20
207.825000
  0
VERTEX
  8
0
 10
72.275000
 20
207.850000
  0
VERTEX
  8
0
 10
72.450000
 20
207.875000
  0
VERTEX
  8
0
 10
72.625000
 20
207.900000
  0
VERTEX
  8
0
 10
72.825000
 20
207.900000
  0
VERTEX
  8
0
 10
73.025000
 20
207.900000
  0
VERTEX
  8
0
 10
73.225000
 20
207.875000
  0
VERTEX
  8
0
 10
73.450000
 20
207.850000
  0
VERTEX
  8
0
 10
73.525000
 20
207.825000
  0
VERTEX
  8
0
 10
73.625000
 20
207.800000
  0
VERTEX
  8
0
 10
73.700000
 20
207.775000
  0
VERTEX
  8
0
 10
73.775000
 20
207.750000
  0
VERTEX
  8
0
 10
73.850000
 20
207.725000
  0
VERTEX
  8
0
 10
73.925000
 20
207.675000
  0
VERTEX
  8
0
 10
73.975000
 20
207.650000
  0
VERTEX
  8
0
 10
74.050000
 20
207.600000
  0
VERTEX
  8
0
 10
74.100000
 20
207.550000
  0
VERTEX
  8
0
 10
74.175000
 20
207.500000
  0
VERTEX
  8
0
 10
74.225000
 20
207.450000
  0
VERTEX
  8
0
 10
74.275000
 20
207.400000
  0
VERTEX
  8
0
 10
74.300000
 20
207.350000
  0
VERTEX
  8
0
 10
74.350000
 20
207.275000
  0
VERTEX
  8
0
 10
74.400000
 20
207.225000
  0
VERTEX
  8
0
 10
74.425000
 20
207.150000
  0
VERTEX
  8
0
 10
74.300000
 20
208.825000
  0
VERTEX
  8
0
 10
61.325000
 20
208.125000
  0
VERTEX
  8
0
 10
62.575000
 20
228.525000
  0
SEQEND
  8
0
  0
POLYLINE
  8
0
 66
     1
 70
     1
 40
0.200000
 41
0.200000
  0
VERTEX
  8
0
 10
67.525000
 20
207.575000
  0
VERTEX
  8
0
 10
67.675000
 20
200.675000
  0
VERTEX
  8
0
 10
64.500000
 20
200.400000
  0
VERTEX
  8
0
 10
64.925000
 20
207.300000
  0
VERTEX
  8
0
 10
67.525000
 20
207.575000
  0
SEQEND
  8
0
  0
POLYLINE
  8
0
 66
     1
 70
     1
 40
0.200000
 41
0.200000
  0
VERTEX
  8
0
 10
72.625000
 20
219.975000
  0
VERTEX
  8
0
 10
72.625000
 20
221.500000
  0
VERTEX
  8
0
 10
66.700000
 20
221.500000
  0
VERTEX
  8
0
 10
66.575000
 20
219.850000
  0
VERTEX
  8
0
 10
72.625000
 20
219.975000
  0
SEQEND
  8
0
  0
POLYLINE
  8
0
 66
     1
 70
     1
 40
0.200000
 41
0.200000
  0
VERTEX
  8
0
 10
72.625000
 20
224.375000
  0
VERTEX
  8
0
 10
72.625000
 20
225.900000
  0
VERTEX
  8
0
 10
66.850000
 20
225.475000
  0
VERTEX
  8
0
 10
66.850000
 20
224.375000
  0
VERTEX
  8
0
 10
72.625000
 20
224.375000
  0
SEQEND
  8
0
  0
POLYLINE
  8
0
 66
     1
 70
     1
 40
0.200000
 41
0.200000
  0
VERTEX
  8
0
 10
67.950000
 20
207.575000
  0
VERTEX
  8
0
 10
70.300000
 20
208.000000
  0
VERTEX
  8
0
 10
70.850000
 20
201.775000
  0
VERTEX
  8
0
 10
67.950000
 20
201.375000
  0
VERTEX
  8
0
 10
67.950000
 20
207.575000
  0
SEQEND
  8
0
  0
POLYLINE
  8
0
 66
     1
 70
     1
 40
0.200000
 41
0.200000
  0
VERTEX
  8
0
 10
94.950000
 20
229.350000
  0
VERTEX
  8
0
 10
95.225000
 20
231.975000
  0
VERTEX
  8
0
 10
101.300000
 20
232.100000
  0
VERTEX
  8
0
 10
101.025000
 20
229.475000
  0
VERTEX
  8
0
 10
114.250000
 20
229.350000
  0
VERTEX
  8
0
 10
114.375000
 20
225.475000
  0
VERTEX
  8
0
 10
114.050000
 20
225.500000
  0
VERTEX
  8
0
 10
113.700000
 20
225.500000
  0
VERTEX
  8
0
 10
113.375000
 20
225.525000
  0
VERTEX
  8
0
 10
113.050000
 20
225.525000
  0
VERTEX
  8
0
 10
112.725000
 20
225.550000
  0
VERTEX
  8
0
 10
112.400000
 20
225.550000
  0
VERTEX
  8
0
 10
112.075000
 20
225.575000
  0
VERTEX
  8
0
 10
111.750000
 20
225.575000
  0
VERTEX
  8
0
 10
111.450000
 20
225.575000
  0
VERTEX
  8
0
 10
111.125000
 20
225.600000
  0
VERTEX
  8
0
 10
110.825000
 20
225.600000
  0
VERTEX
  8
0
 10
110.500000
 20
225.625000
  0
VERTEX
  8
0
 10
110.200000
 20
225.625000
  0
VERTEX
  8
0
 10
109.900000
 20
225.625000
  0
VERTEX
  8
0
 10
109.575000
 20
225.650000
  0
VERTEX
  8
0
 10
109.275000
 20
225.650000
  0
VERTEX
  8
0
 10
108.975000
 20
225.650000
  0
VERTEX
  8
0
 10
108.675000
 20
225.675000
  0
VERTEX
  8
0
 10
108.400000
 20
225.675000
  0
VERTEX
  8
0
 10
108.100000
 20
225.675000
  0
VERTEX
  8
0
 10
107.800000
 20
225.675000
  0
VERTEX
  8
0
 10
107.525000
 20
225.700000
  0
VERTEX
  8
0
 10
107.225000
 20
225.700000
  0
VERTEX
  8
0
 10
106.950000
 20
225.700000
  0
VERTEX
  8
0
 10
106.650000
 20
225.700000
  0
VERTEX
  8
0
 10
106.375000
 20
225.700000
  0
VERTEX
  8
0
 10
106.100000
 20
225.725000
  0
VERTEX
  8
0
 10
105.825000
 20
225.725000
  0
VERTEX
  8
0
 10
105.550000
 20
225.725000
  0
VERTEX
  8
0
 10
105.275000
 20
225.725000
  0
VERTEX
  8
0
 10
105.000000
 20
225.725000
  0
VERTEX
  8
0
 10
104.750000
 20
225.725000
  0
VERTEX
  8
0
 10
104.475000
 20
225.725000
  0
VERTEX
  8
0
 10
104.200000
 20
225.725000
  0
VERTEX
  8
0
 10
103.950000
 20
225.725000
  0
VERTEX
  8
0
 10
103.700000
 20
225.725000
  0
VERTEX
  8
0
 10
103.425000
 20
225.725000
  0
VERTEX
  8
0
 10
103.175000
 20
225.725000
  0
VERTEX
  8
0
 10
102.925000
 20
225.725000
  0
VERTEX
  8
0
 10
102.675000
 20
225.725000
  0
VERTEX
  8
0
 10
102.425000
 20
225.725000
  0
VERTEX
  8
0
 10
102.175000
 20
225.725000
  0
VERTEX
  8
0
 10
101.925000
 20
225.725000
  0
VERTEX
  8
0
 10
101.700000
 20
225.725000
  0
VERTEX
  8
0
 10
101.450000
 20
225.725000
  0
VERTEX
  8
0
 10
101.225000
 20
225.725000
  0
VERTEX
  8
0
 10
100.975000
 20
225.725000
  0
VERTEX
  8
0
 10
100.750000
 20
225.725000
  0
VERTEX
  8
0
 10
100.525000
 20
225.725000
  0
VERTEX
  8
0
 10
100.275000
 20
225.700000
  0
VERTEX
  8
0
 10
100.050000
 20
225.700000
  0
VERTEX
  8
0
 10
99.825000
 20
225.700000
  0
VERTEX
  8
0
 10
99.600000
 20
225.700000
  0
VERTEX
  8
0
 10
99.400000
 20
225.700000
  0
VERTEX
  8
0
 10
99.175000
 20
225.675000
  0
VERTEX
  8
0
 10
98.950000
 20
225.675000
  0
VERTEX
  8
0
 10
98.750000
 20
225.675000
  0
VERTEX
  8
0
 10
98.525000
 20
225.675000
  0
VERTEX
  8
0
 10
98.325000
 20
225.650000
  0
VERTEX
  8
0
 10
98.100000
 20
225.650000
  0
VERTEX
  8
0
 10
97.900000
 20
225.650000
  0
VERTEX
  8
0
 10
97.700000
 20
225.650000
  0
VERTEX
  8
0
 10
97.500000
 20
225.625000
  0
VERTEX
  8
0
 10
97.300000
 20
225.625000
  0
VERTEX
  8
0
 10
97.075000
 20
225.625000
  0
VERTEX
  8
0
 10
96.850000
 20
225.600000
  0
VERTEX
  8
0
 10
96.625000
 20
225.600000
  0
VERTEX
  8
0
 10
96.425000
 20
225.600000
  0
VERTEX
  8
0
 10
96.200000
 20
225.575000
  0
VERTEX
  8
0
 10
96.000000
 20
225.575000
  0
VERTEX
  8
0
 10
95.775000
 20
225.575000
  0
VERTEX
  8
0
 10
95.575000
 20
225.550000
  0
VERTEX
  8
0
 10
95.350000
 20
225.550000
  0
VERTEX
  8
0
 10
95.150000
 20
225.550000
  0
VERTEX
  8
0
 10
94.950000
 20
225.525000
  0
VERTEX
  8
0
 10
94.750000
 20
225.525000
  0
VERTEX
  8
0
 10
94.550000
 20
225.500000
  0
VERTEX
  8
0
 10
94.350000
 20
225.500000
  0
VERTEX
  8
0
 10
94.150000
 20
225.500000
  0
VERTEX
  8
0
 10
93.950000
 20
225.475000
  0
VERTEX
  8
0
 10
93.775000
 20
225.475000
  0
VERTEX
  8
0
 10
93.575000
 20
225.450000
  0
VERTEX
  8
0
 10
93.375000
 20
225.450000
  0
VERTEX
  8
0
 10
93.200000
 20
225.450000
  0
VERTEX
  8
0
 10
93.000000
 20
225.425000
  0
VERTEX
  8
0
 10
92.825000
 20
225.425000
  0
VERTEX
  8
0
 10
92.650000
 20
225.400000
  0
VERTEX
  8
0
 10
92.475000
 20
225.400000
  0
VERTEX
  8
0
 10
92.300000
 20
225.400000
  0
VERTEX
  8
0
 10
92.125000
 20
225.375000
  0
VERTEX
  8
0
 10
91.950000
 20
225.375000
  0
VERTEX
  8
0
 10
91.775000
 20
225.350000
  0
VERTEX
  8
0
 10
91.600000
 20
225.350000
  0
VERTEX
  8
0
 10
91.425000
 20
225.325000
  0
VERTEX
  8
0
 10
91.250000
 20
225.325000
  0
VERTEX
  8
0
 10
91.100000
 20
225.300000
  0
VERTEX
  8
0
 10
90.925000
 20
225.300000
  0
VERTEX
  8
0
 10
90.775000
 20
225.300000
  0
VERTEX
  8
0
 10
90.625000
 20
225.275000
  0
VERTEX
  8
0
 10
90.450000
 20
225.275000
  0
VERTEX
  8
0
 10
90.300000
 20
225.250000
  0
VERTEX
  8
0
 10
90.150000
 20
225.250000
  0
VERTEX
  8
0
 10
90.000000
 20
225.225000
  0
VERTEX
  8
0
 10
89.850000
 20
225.225000
  0
VERTEX
  8
0
 10
89.700000
 20
225.200000
  0
VERTEX
  8
0
 10
89.550000
 20
225.200000
  0
VERTEX
  8
0
 10
89.400000
 20
225.175000
  0
VERTEX
  8
0
 10
89.275000
 20
225.175000
  0
VERTEX
  8
0
 10
89.125000
 20
225.150000
  0
VERTEX
  8
0
 10
89.000000
 20
225.150000
  0
VERTEX
  8
0
 10
88.850000
 20
225.150000
  0
VERTEX
  8
0
 10
88.725000
 20
225.125000
  0
VERTEX
  8
0
 10
88.575000
 20
225.125000
  0
VERTEX
  8
0
 10
88.450000
 20
225.100000
  0
VERTEX
  8
0
 10
88.325000
 20
225.100000
  0
VERTEX
  8
0
 10
88.200000
 20
225.075000
  0
VERTEX
  8
0
 10
88.075000
 20
225.075000
  0
VERTEX
  8
0
 10
87.950000
 20
225.050000
  0
VERTEX
  8
0
 10
87.825000
 20
225.050000
  0
VERTEX
  8
0
 10
87.700000
 20
225.025000
  0
VERTEX
  8
0
 10
87.600000
 20
225.025000
  0
VERTEX
  8
0
 10
87.475000
 20
225.000000
  0
VERTEX
  8
0
 10
87.375000
 20
225.000000
  0
VERTEX
  8
0
 10
87.250000
 20
224.975000
  0
VERTEX
  8
0
 10
87.150000
 20
224.975000
  0
VERTEX
  8
0
 10
87.025000
 20
224.950000
  0
VERTEX
  8
0
 10
86.925000
 20
224.950000
  0
VERTEX
  8
0
 10
86.825000
 20
224.925000
  0
VERTEX
  8
0
 10
81.050000
 20
224.250000
  0
VERTEX
  8
0
 10
81.050000
 20
228.800000
  0
VERTEX
  8
0
 10
94.950000
 20
229.350000
  0
SEQEND
  8
0
  0
POLYLINE
  8
0
 66
     1
 70
     1
 40
0.200000
 41
0.200000
  0
VERTEX
  8
0
 10
82.425000
 20
213.625000
  0
VERTEX
  8
0
 10
98.400000
 20
214.600000
  0
VERTEX
  8
0
 10
105.700000
 20
214.750000
  0
VERTEX
  8
0
 10
106.250000
 20
214.750000
  0
VERTEX
  8
0
 10
106.775000
 20
214.775000
  0
VERTEX
  8
0
 10
107.275000
 20
214.750000
  0
VERTEX
  8
0
 10
107.750000
 20
214.750000
  0
VERTEX
  8
0
 10
108.200000
 20
214.725000
  0
VERTEX
  8
0
 10
108.650000
 20
214.700000
  0
VERTEX
  8
0
 10
109.050000
 20
214.675000
  0
VERTEX
  8
0
 10
109.450000
 20
214.625000
  0
VERTEX
  8
0
 10
109.825000
 20
214.575000
  0
VERTEX
  8
0
 10
110.200000
 20
214.525000
  0
VERTEX
  8
0
 10
110.525000
 20
214.475000
  0
VERTEX
  8
0
 10
110.850000
 20
214.400000
  0
VERTEX
  8
0
 10
111.125000
 20
214.325000
  0
VERTEX
  8
0
 10
111.400000
 20
214.250000
  0
VERTEX
  8
0
 10
111.675000
 20
214.150000
  0
VERTEX
  8
0
 10
111.900000
 20
214.050000
  0
VERTEX
  8
0
 10
112.050000
 20
213.975000
  0
VERTEX
  8
0
 10
112.175000
 20
213.900000
  0
VERTEX
  8
0
 10
112.300000
 20
213.825000
  0
VERTEX
  8
0
 10
112.425000
 20
213.725000
  0
VERTEX
  8
0
 10
112.550000
 20
213.625000
  0
VERTEX
  8
0
 10
112.650000
 20
213.525000
  0
VERTEX
  8
0
 10
112.775000
 20
213.425000
  0
VERTEX
  8
0
 10
112.875000
 20
213.325000
  0
VERTEX
  8
0
 10
112.975000
 20
213.200000
  0
VERTEX
  8
0
 10
113.075000
 20
213.075000
  0
VERTEX
  8
0
 10
113.175000
 20
212.950000
  0
VERTEX
  8
0
 10
113.250000
 20
212.825000
  0
VERTEX
  8
0
 10
113.325000
 20
212.700000
  0
VERTEX
  8
0
 10
113.400000
 20
212.550000
  0
VERTEX
  8
0
 10
113.475000
 20
212.400000
  0
VERTEX
  8
0
 10
113.550000
 20
212.250000
  0
VERTEX
  8
0
 10
113.600000
 20
212.100000
  0
VERTEX
  8
0
 10
113.650000
 20
211.950000
  0
VERTEX
  8
0
 10
113.700000
 20
211.800000
  0
VERTEX
  8
0
 10
113.750000
 20
211.625000
  0
VERTEX
  8
0
 10
113.775000
 20
211.425000
  0
VERTEX
  8
0
 10
113.825000
 20
211.225000
  0
VERTEX
  8
0
 10
113.875000
 20
211.025000
  0
VERTEX
  8
0
 10
113.900000
 20
210.800000
  0
VERTEX
  8
0
 10
113.925000
 20
210.575000
  0
VERTEX
  8
0
 10
113.975000
 20
210.350000
  0
VERTEX
  8
0
 10
114.000000
 20
210.100000
  0
VERTEX
  8
0
 10
114.025000
 20
209.825000
  0
VERTEX
  8
0
 10
114.050000
 20
209.550000
  0
VERTEX
  8
0
 10
114.075000
 20
209.275000
  0
VERTEX
  8
0
 10
114.075000
 20
208.975000
  0
VERTEX
  8
0
 10
114.100000
 20
208.675000
  0
VERTEX
  8
0
 10
114.150000
 20
207.750000
  0
VERTEX
  8
0
 10
114.175000
 20
206.875000
  0
VERTEX
  8
0
 10
114.200000
 20
206.050000
  0
VERTEX
  8
0
 10
114.225000
 20
205.275000
  0
VERTEX
  8
0
 10
114.225000
 20
204.550000
  0
VERTEX
  8
0
 10
114.225000
 20
203.875000
  0
VERTEX
  8
0
 10
114.200000
 20
203.225000
  0
VERTEX
  8
0
 10
114.175000
 20
202.650000
  0
VERTEX
  8
0
 10
114.125000
 20
202.125000
  0
VERTEX
  8
0
 10
114.075000
 20
201.625000
  0
VERTEX
  8
0
 10
114.025000
 20
201.200000
  0
VERTEX
  8
0
 10
113.950000
 20
200.800000
  0
VERTEX
  8
0
 10
113.875000
 20
200.450000
  0
VERTEX
  8
0
 10
113.775000
 20
200.175000
  0
VERTEX
  8
0
 10
113.675000
 20
199.925000
  0
VERTEX
  8
0
 10
113.550000
 20
199.725000
  0
VERTEX
  8
0
 10
113.450000
 20
199.600000
  0
VERTEX
  8
0
 10
113.325000
 20
199.450000
  0
VERTEX
  8
0
 10
113.175000
 20
199.325000
  0
VERTEX
  8
0
 10
113.025000
 20
199.225000
  0
VERTEX
  8
0
 10
112.850000
 20
199.100000
  0
VERTEX
  8
0
 10
112.675000
 20
199.000000
  0
VERTEX
  8
0
 10
112.475000
 20
198.900000
  0
VERTEX
  8
0
 10
112.275000
 20
198.825000
  0
VERTEX
  8
0
 10
112.050000
 20
198.750000
  0
VERTEX
  8
0
 10
111.825000
 20
198.675000
  0
VERTEX
  8
0
 10
111.575000
 20
198.600000
  0
VERTEX
  8
0
 10
111.300000
 20
198.525000
  0
VERTEX
  8
0
 10
111.025000
 20
198.475000
  0
VERTEX
  8
0
 10
110.750000
 20
198.425000
  0
VERTEX
  8
0
 10
110.450000
 20
198.375000
  0
VERTEX
  8
0
 10
110.125000
 20
198.350000
  0
VERTEX
  8
0
 10
109.900000
 20
198.325000
  0
VERTEX
  8
0
 10
109.675000
 20
198.325000
  0
VERTEX
  8
0
 10
109.425000
 20
198.300000
  0
VERTEX
  8
0
 10
109.200000
 20
198.275000
  0
VERTEX
  8
0
 10
108.975000
 20
198.275000
  0
VERTEX
  8
0
 10
108.725000
 20
198.250000
  0
VERTEX
  8
0
 10
108.475000
 20
198.250000
  0
VERTEX
  8
0
 10
108.225000
 20
198.225000
  0
VERTEX
  8
0
 10
107.975000
 20
198.225000
  0
VERTEX
  8
0
 10
107.725000
 20
198.225000
  0
VERTEX
  8
0
 10
107.475000
 20
198.225000
  0
VERTEX
  8
0
 10
107.200000
 20
198.200000
  0
VERTEX
  8
0
 10
106.950000
 20
198.200000
  0
VERTEX
  8
0
 10
106.675000
 20
198.200000
  0
VERTEX
  8
0
 10
106.400000
 20
198.200000
  0
VERTEX
  8
0
 10
106.125000
 20
198.200000
  0
VERTEX
  8
0
 10
105.025000
 20
200.950000
  0
VERTEX
  8
0
 10
89.575000
 20
200.000000
  0
VERTEX
  8
0
 10
90.125000
 20
209.225000
  0
VERTEX
  8
0
 10
95.925000
 20
209.650000
  0
VERTEX
  8
0
 10
100.600000
 20
210.050000
  0
VERTEX
  8
0
 10
100.900000
 20
210.075000
  0
VERTEX
  8
0
 10
101.200000
 20
210.100000
  0
VERTEX
  8
0
 10
101.475000
 20
210.075000
  0
VERTEX
  8
0
 10
101.750000
 20
210.075000
  0
VERTEX
  8
0
 10
102.000000
 20
210.025000
  0
VERTEX
  8
0
 10
102.250000
 20
209.975000
  0
VERTEX
  8
0
 10
102.475000
 20
209.900000
  0
VERTEX
  8
0
 10
102.700000
 20
209.825000
  0
VERTEX
  8
0
 10
102.900000
 20
209.725000
  0
VERTEX
  8
0
 10
103.100000
 20
209.600000
  0
VERTEX
  8
0
 10
103.300000
 20
209.450000
  0
VERTEX
  8
0
 10
103.475000
 20
209.300000
  0
VERTEX
  8
0
 10
103.625000
 20
209.150000
  0
VERTEX
  8
0
 10
103.775000
 20
208.950000
  0
VERTEX
  8
0
 10
103.925000
 20
208.775000
  0
VERTEX
  8
0
 10
104.050000
 20
208.550000
  0
VERTEX
  8
0
 10
104.175000
 20
208.325000
  0
VERTEX
  8
0
 10
104.275000
 20
208.100000
  0
VERTEX
  8
0
 10
104.375000
 20
207.850000
  0
VERTEX
  8
0
 10
104.475000
 20
207.600000
  0
VERTEX
  8
0
 10
104.575000
 20
207.350000
  0
VERTEX
  8
0
 10
104.650000
 20
207.050000
  0
VERTEX
  8
0
 10
104.725000
 20
206.775000
  0
VERTEX
  8
0
 10
104.775000
 20
206.475000
  0
VERTEX
  8
0
 10
104.850000
 20
206.150000
  0
VERTEX
  8
0
 10
104.900000
 20
205.825000
  0
VERTEX
  8
0
 10
104.925000
 20
205.475000
  0
VERTEX
  8
0
 10
104.975000
 20
205.125000
  0
VERTEX
  8
0
 10
105.000000
 20
204.750000
  0
VERTEX
  8
0
 10
105.000000
 20
204.375000
  0
VERTEX
  8
0
 10
105.025000
 20
203.975000
  0
VERTEX
  8
0
 10
105.025000
 20
203.575000
  0
VERTEX
  8
0
 10
108.050000
 20
203.725000
  0
VERTEX
  8
0
 10
107.775000
 20
211.300000
  0
VERTEX
  8
0
 10
87.650000
 20
209.925000
  0
VERTEX
  8
0
 10
86.975000
 20
198.475000
  0
VERTEX
  8
0
 10
81.050000
 20
198.750000
  0
VERTEX
  8
0
 10
81.050000
 20
198.900000
  0
VERTEX
  8
0
 10
82.425000
 20
213.625000
  0
SEQEND
  8
0
  0
POLYLINE
  8
0
 66
     1
 70
     1
 40
0.200000
 41
0.200000
  0
VERTEX
  8
0
 10
87.925000
 20
223.275000
  0
VERTEX
  8
0
 10
102.800000
 20
224.100000
  0
VERTEX
  8
0
 10
102.900000
 20
224.100000
  0
VERTEX
  8
0
 10
103.000000
 20
224.100000
  0
VERTEX
  8
0
 10
103.100000
 20
224.100000
  0
VERTEX
  8
0
 10
103.200000
 20
224.100000
  0
VERTEX
  8
0
 10
103.275000
 20
224.100000
  0
VERTEX
  8
0
 10
103.375000
 20
224.100000
  0
VERTEX
  8
0
 10
103.475000
 20
224.100000
  0
VERTEX
  8
0
 10
103.575000
 20
224.100000
  0
VERTEX
  8
0
 10
103.650000
 20
224.100000
  0
VERTEX
  8
0
 10
103.750000
 20
224.100000
  0
VERTEX
  8
0
 10
103.850000
 20
224.100000
  0
VERTEX
  8
0
 10
103.925000
 20
224.100000
  0
VERTEX
  8
0
 10
104.025000
 20
224.075000
  0
VERTEX
  8
0
 10
104.100000
 20
224.075000
  0
VERTEX
  8
0
 10
104.175000
 20
224.075000
  0
VERTEX
  8
0
 10
104.275000
 20
224.050000
  0
VERTEX
  8
0
 10
104.350000
 20
224.050000
  0
VERTEX
  8
0
 10
104.450000
 20
224.025000
  0
VERTEX
  8
0
 10
104.525000
 20
224.025000
  0
VERTEX
  8
0
 10
104.600000
 20
224.000000
  0
VERTEX
  8
0
 10
104.675000
 20
224.000000
  0
VERTEX
  8
0
 10
104.750000
 20
223.975000
  0
VERTEX
  8
0
 10
104.850000
 20
223.950000
  0
VERTEX
  8
0
 10
104.925000
 20
223.950000
  0
VERTEX
  8
0
 10
105.000000
 20
223.925000
  0
VERTEX
  8
0
 10
105.075000
 20
223.900000
  0
VERTEX
  8
0
 10
105.150000
 20
223.875000
  0
VERTEX
  8
0
 10
105.225000
 20
223.850000
  0
VERTEX
  8
0
 10
105.300000
 20
223.825000
  0
VERTEX
  8
0
 10
105.350000
 20
223.800000
  0
VERTEX
  8
0
 10
105.425000
 20
223.800000
  0
VERTEX
  8
0
 10
105.500000
 20
223.750000
  0
VERTEX
  8
0
 10
105.575000
 20
223.725000
  0
VERTEX
  8
0
 10
105.625000
 20
223.700000
  0
VERTEX
  8
0
 10
105.700000
 20
223.675000
  0
VERTEX
  8
0
 10
105.775000
 20
223.650000
  0
VERTEX
  8
0
 10
105.825000
 20
223.625000
  0
VERTEX
  8
0
 10
105.900000
 20
223.600000
  0
VERTEX
  8
0
 10
105.950000
 20
223.550000
  0
VERTEX
  8
0
 10
106.025000
 20
223.525000
  0
VERTEX
  8
0
 10
106.075000
 20
223.500000
  0
VERTEX
  8
0
 10
106.150000
 20
223.450000
  0
VERTEX
  8
0
 10
106.200000
 20
223.425000
  0
VERTEX
  8
0
 10
106.250000
 20
223.375000
  0
VERTEX
  8
0
 10
106.325000
 20
223.350000
  0
VERTEX
  8
0
 10
106.375000
 20
223.300000
  0
VERTEX
  8
0
 10
106.425000
 20
223.275000
  0
VERTEX
  8
0
 10
106.475000
 20
223.225000
  0
VERTEX
  8
0
 10
106.550000
 20
223.175000
  0
VERTEX
  8
0
 10
106.600000
 20
223.150000
  0
VERTEX
  8
0
 10
106.650000
 20
223.100000
  0
VERTEX
  8
0
 10
106.700000
 20
223.050000
  0
VERTEX
  8
0
 10
106.750000
 20
223.000000
  0
VERTEX
  8
0
 10
106.800000
 20
222.975000
  0
VERTEX
  8
0
 10
106.850000
 20
222.925000
  0
VERTEX
  8
0
 10
106.875000
 20
222.875000
  0
VERTEX
  8
0
 10
106.925000
 20
222.825000
  0
VERTEX
  8
0
 10
106.975000
 20
222.775000
  0
VERTEX
  8
0
 10
107.025000
 20
222.725000
  0
VERTEX
  8
0
 10
107.075000
 20
222.675000
  0
VERTEX
  8
0
 10
107.100000
 20
222.625000
  0
VERTEX
  8
0
 10
107.150000
 20
222.550000
  0
VERTEX
  8
0
 10
107.175000
 20
222.500000
  0
VERTEX
  8
0
 10
107.225000
 20
222.450000
  0
VERTEX
  8
0
 10
107.250000
 20
222.400000
  0
VERTEX
  8
0
 10
107.300000
 20
222.350000
  0
VERTEX
  8
0
 10
107.325000
 20
222.300000
  0
VERTEX
  8
0
 10
107.350000
 20
222.225000
  0
VERTEX
  8
0
 10
107.400000
 20
222.175000
  0
VERTEX
  8
0
 10
107.425000
 20
222.125000
  0
VERTEX
  8
0
 10
107.450000
 20
222.075000
  0
VERTEX
  8
0
 10
107.475000
 20
222.000000
  0
VERTEX
  8
0
 10
107.500000
 20
221.950000
  0
VERTEX
  8
0
 10
107.550000
 20
221.875000
  0
VERTEX
  8
0
 10
107.575000
 20
221.825000
  0
VERTEX
  8
0
 10
107.600000
 20
221.750000
  0
VERTEX
  8
0
 10
107.625000
 20
221.700000
  0
VERTEX
  8
0
 10
107.650000
 20
221.625000
  0
VERTEX
  8
0
 10
107.675000
 20
221.550000
  0
VERTEX
  8
0
 10
107.700000
 20
221.500000
  0
VERTEX
  8
0
 10
107.725000
 20
221.425000
  0
VERTEX
  8
0
 10
107.750000
 20
221.350000
  0
VERTEX
  8
0
 10
107.775000
 20
221.275000
  0
VERTEX
  8
0
 10
107.800000
 20
221.200000
  0
VERTEX
  8
0
 10
107.825000
 20
221.125000
  0
VERTEX
  8
0
 10
107.850000
 20
221.050000
  0
VERTEX
  8
0
 10
107.875000
 20
220.975000
  0
VERTEX
  8
0
 10
107.900000
 20
220.900000
  0
VERTEX
  8
0
 10
107.925000
 20
220.825000
  0
VERTEX
  8
0
 10
107.925000
 20
220.750000
  0
VERTEX
  8
0
 10
107.950000
 20
220.675000
  0
VERTEX
  8
0
 10
107.975000
 20
220.600000
  0
VERTEX
  8
0
 10
108.000000
 20
220.500000
  0
VERTEX
  8
0
 10
108.000000
 20
220.425000
  0
VERTEX
  8
0
 10
108.025000
 20
220.350000
  0
VERTEX
  8
0
 10
108.050000
 20
220.250000
  0
VERTEX
  8
0
 10
108.075000
 20
220.175000
  0
VERTEX
  8
0
 10
108.075000
 20
220.075000
  0
VERTEX
  8
0
 10
108.100000
 20
220.000000
  0
VERTEX
  8
0
 10
108.100000
 20
219.900000
  0
VERTEX
  8
0
 10
108.125000
 20
219.800000
  0
VERTEX
  8
0
 10
108.150000
 20
219.725000
  0
VERTEX
  8
0
 10
108.150000
 20
219.625000
  0
VERTEX
  8
0
 10
108.175000
 20
219.525000
  0
VERTEX
  8
0
 10
108.175000
 20
219.425000
  0
VERTEX
  8
0
 10
108.200000
 20
219.350000
  0
VERTEX
  8
0
 10
108.200000
 20
219.250000
  0
VERTEX
  8
0
 10
108.225000
 20
219.150000
  0
VERTEX
  8
0
 10
108.225000
 20
219.050000
  0
VERTEX
  8
0
 10
108.225000
 20
218.950000
  0
VERTEX
  8
0
 10
108.250000
 20
218.850000
  0
VERTEX
  8
0
 10
108.250000
 20
218.750000
  0
VERTEX
  8
0
 10
108.275000
 20
218.625000
  0
VERTEX
  8
0
 10
108.275000
 20
218.525000
  0
VERTEX
  8
0
 10
108.275000
 20
218.425000
  0
VERTEX
  8
0
 10
108.275000
 20
218.325000
  0
VERTEX
  8
0
 10
108.300000
 20
218.200000
  0
VERTEX
  8
0
 10
108.300000
 20
218.100000
  0
VERTEX
  8
0
 10
108.300000
 20
218.000000
  0
VERTEX
  8
0
 10
108.300000
 20
217.875000
  0
VERTEX
  8
0
 10
108.300000
 20
217.775000
  0
VERTEX
  8
0
 10
108.325000
 20
217.650000
  0
VERTEX
  8
0
 10
108.325000
 20
217.550000
  0
VERTEX
  8
0
 10
108.325000
 20
217.425000
  0
VERTEX
  8
0
 10
108.325000
 20
217.300000
  0
VERTEX
  8
0
 10
108.325000
 20
217.200000
  0
VERTEX
  8
0
 10
108.325000
 20
217.075000
  0
VERTEX
  8
0
 10
108.325000
 20
216.950000
  0
VERTEX
  8
0
 10
108.325000
 20
215.575000
  0
VERTEX
  8
0
 10
108.050000
 20
215.575000
  0
VERTEX
  8
0
 10
107.750000
 20
215.600000
  0
VERTEX
  8
0
 10
107.475000
 20
215.600000
  0
VERTEX
  8
0
 10
107.200000
 20
215.600000
  0
VERTEX
  8
0
 10
106.900000
 20
215.625000
  0
VERTEX
  8
0
 10
106.625000
 20
215.625000
  0
VERTEX
  8
0
 10
106.350000
 20
215.625000
  0
VERTEX
  8
0
 10
106.075000
 20
215.625000
  0
VERTEX
  8
0
 10
105.825000
 20
215.650000
  0
VERTEX
  8
0
 10
105.550000
 20
215.650000
  0
VERTEX
  8
0
 10
105.275000
 20
215.650000
  0
VERTEX
  8
0
 10
105.025000
 20
215.650000
  0
VERTEX
  8
0
 10
104.750000
 20
215.650000
  0
VERTEX
  8
0
 10
104.500000
 20
215.675000
  0
VERTEX
  8
0
 10
104.250000
 20
215.675000
  0
VERTEX
  8
0
 10
103.975000
 20
215.675000
  0
VERTEX
  8
0
 10
103.725000
 20
215.675000
  0
VERTEX
  8
0
 10
103.475000
 20
215.675000
  0
VERTEX
  8
0
 10
103.225000
 20
215.675000
  0
VERTEX
  8
0
 10
102.975000
 20
215.700000
  0
VERTEX
  8
0
 10
102.750000
 20
215.700000
  0
VERTEX
  8
0
 10
102.500000
 20
215.700000
  0
VERTEX
  8
0
 10
102.250000
 20
215.700000
  0
VERTEX
  8
0
 10
102.025000
 20
215.700000
  0
VERTEX
  8
0
 10
101.775000
 20
215.700000
  0
VERTEX
  8
0
 10
101.550000
 20
215.700000
  0
VERTEX
  8
0
 10
101.325000
 20
215.700000
  0
VERTEX
  8
0
 10
101.100000
 20
215.700000
  0
VERTEX
  8
0
 10
100.875000
 20
215.700000
  0
VERTEX
  8
0
 10
100.650000
 20
215.700000
  0
VERTEX
  8
0
 10
100.425000
 20
215.700000
  0
VERTEX
  8
0
 10
100.200000
 20
215.700000
  0
VERTEX
  8
0
 10
99.975000
 20
215.700000
  0
VERTEX
  8
0
 10
99.750000
 20
215.700000
  0
VERTEX
  8
0
 10
99.550000
 20
215.700000
  0
VERTEX
  8
0
 10
99.325000
 20
215.700000
  0
VERTEX
  8
0
 10
99.125000
 20
215.700000
  0
VERTEX
  8
0
 10
98.925000
 20
215.700000
  0
VERTEX
  8
0
 10
98.700000
 20
215.700000
  0
VERTEX
  8
0
 10
98.500000
 20
215.700000
  0
VERTEX
  8
0
 10
98.300000
 20
215.700000
  0
VERTEX
  8
0
 10
98.100000
 20
215.700000
  0
VERTEX
  8
0
 10
97.900000
 20
215.700000
  0
VERTEX
  8
0
 10
97.725000
 20
215.700000
  0
VERTEX
  8
0
 10
97.525000
 20
215.675000
  0
VERTEX
  8
0
 10
97.325000
 20
215.675000
  0
VERTEX
  8
0
 10
97.150000
 20
215.675000
  0
VERTEX
  8
0
 10
96.950000
 20
215.675000
  0
VERTEX
  8
0
 10
96.775000
 20
215.675000
  0
VERTEX
  8
0
 10
96.600000
 20
215.675000
  0
VERTEX
  8
0
 10
96.400000
 20
215.650000
  0
VERTEX
  8
0
 10
96.225000
 20
215.650000
  0
VERTEX
  8
0
 10
96.050000
 20
215.650000
  0
VERTEX
  8
0
 10
95.875000
 20
215.650000
  0
VERTEX
  8
0
 10
95.725000
 20
215.650000
  0
VERTEX
  8
0
 10
95.550000
 20
215.625000
  0
VERTEX
  8
0
 10
95.375000
 20
215.625000
  0
VERTEX
  8
0
 10
95.225000
 20
215.625000
  0
VERTEX
  8
0
 10
95.050000
 20
215.625000
  0
VERTEX
  8
0
 10
94.900000
 20
215.600000
  0
VERTEX
  8
0
 10
94.725000
 20
215.600000
  0
VERTEX
  8
0
 10
94.575000
 20
215.600000
  0
VERTEX
  8
0
 10
94.425000
 20
215.575000
  0
VERTEX
  8
0
 10
94.275000
 20
215.575000
  0
VERTEX
  8
0
 10
94.200000
 20
215.575000
  0
VERTEX
  8
0
 10
94.100000
 20
215.575000
  0
VERTEX
  8
0
 10
94.025000
 20
215.550000
  0
VERTEX
  8
0
 10
93.950000
 20
215.550000
  0
VERTEX
  8
0
 10
93.850000
 20
215.550000
  0
VERTEX
  8
0
 10
93.775000
 20
215.550000
  0
VERTEX
  8
0
 10
93.675000
 20
215.550000
  0
VERTEX
  8
0
 10
93.600000
 20
215.525000
  0
VERTEX
  8
0
 10
93.500000
 20
215.525000
  0
VERTEX
  8
0
 10
93.425000
 20
215.525000
  0
VERTEX
  8
0
 10
93.325000
 20
215.525000
  0
VERTEX
  8
0
 10
93.225000
 20
215.500000
  0
VERTEX
  8
0
 10
93.150000
 20
215.500000
  0
VERTEX
  8
0
 10
93.050000
 20
215.500000
  0
VERTEX
  8
0
 10
92.950000
 20
215.500000
  0
VERTEX
  8
0
 10
92.850000
 20
215.475000
  0
VERTEX
  8
0
 10
92.775000
 20
215.475000
  0
VERTEX
  8
0
 10
92.675000
 20
215.475000
  0
VERTEX
  8
0
 10
92.575000
 20
215.475000
  0
VERTEX
  8
0
 10
92.475000
 20
215.450000
  0
VERTEX
  8
0
 10
92.375000
 20
215.450000
  0
VERTEX
  8
0
 10
92.275000
 20
215.450000
  0
VERTEX
  8
0
 10
92.175000
 20
215.425000
  0
VERTEX
  8
0
 10
92.075000
 20
215.425000
  0
VERTEX
  8
0
 10
91.975000
 20
215.425000
  0
VERTEX
  8
0
 10
91.875000
 20
215.425000
  0
VERTEX
  8
0
 10
91.775000
 20
215.400000
  0
VERTEX
  8
0
 10
91.650000
 20
215.400000
  0
VERTEX
  8
0
 10
91.550000
 20
215.400000
  0
VERTEX
  8
0
 10
91.450000
 20
215.375000
  0
VERTEX
  8
0
 10
91.350000
 20
215.375000
  0
VERTEX
  8
0
 10
91.250000
 20
215.375000
  0
VERTEX
  8
0
 10
91.125000
 20
215.350000
  0
VERTEX
  8
0
 10
91.025000
 20
215.350000
  0
VERTEX
  8
0
 10
90.900000
 20
215.350000
  0
VERTEX
  8
0
 10
90.800000
 20
215.325000
  0
VERTEX
  8
0
 10
90.700000
 20
215.325000
  0
VERTEX
  8
0
 10
90.575000
 20
215.300000
  0
VERTEX
  8
0
 10
90.475000
 20
215.300000
  0
VERTEX
  8
0
 10
90.350000
 20
215.300000
  0
VERTEX
  8
0
 10
90.225000
 20
215.275000
  0
VERTEX
  8
0
 10
90.125000
 20
215.275000
  0
VERTEX
  8
0
 10
90.000000
 20
215.275000
  0
VERTEX
  8
0
 10
89.875000
 20
215.250000
  0
VERTEX
  8
0
 10
89.775000
 20
215.250000
  0
VERTEX
  8
0
 10
89.650000
 20
215.225000
  0
VERTEX
  8
0
 10
89.525000
 20
215.225000
  0
VERTEX
  8
0
 10
89.400000
 20
215.225000
  0
VERTEX
  8
0
 10
89.300000
 20
215.200000
  0
VERTEX
  8
0
 10
89.175000
 20
215.200000
  0
VERTEX
  8
0
 10
89.050000
 20
215.175000
  0
VERTEX
  8
0
 10
88.925000
 20
215.175000
  0
VERTEX
  8
0
 10
88.800000
 20
215.150000
  0
VERTEX
  8
0
 10
88.675000
 20
215.150000
  0
VERTEX
  8
0
 10
88.550000
 20
215.125000
  0
VERTEX
  8
0
 10
88.425000
 20
215.125000
  0
VERTEX
  8
0
 10
88.300000
 20
215.100000
  0
VERTEX
  8
0
 10
88.150000
 20
215.100000
  0
VERTEX
  8
0
 10
88.025000
 20
215.100000
  0
VERTEX
  8
0
 10
87.900000
 20
215.075000
  0
VERTEX
  8
0
 10
87.775000
 20
215.075000
  0
VERTEX
  8
0
 10
87.650000
 20
215.050000
  0
VERTEX
  8
0
 10
87.500000
 20
215.050000
  0
VERTEX
  8
0
 10
87.375000
 20
215.025000
  0
VERTEX
  8
0
 10
87.925000
 20
223.275000
  0
SEQEND
  8
0
  0
POLYLINE
  8
0
 66
     1
 70
     1
 40
0.200000
 41
0.200000
  0
VERTEX
  8
0
 10
102.125000
 20
218.600000
  0
VERTEX
  8
0
 10
101.975000
 20
220.800000
  0
VERTEX
  8
0
 10
93.575000
 20
220.675000
  0
VERTEX
  8
0
 10
93.450000
 20
218.450000
  0
VERTEX
  8
0
 10
102.125000
 20
218.600000
  0
SEQEND
  8
0
  0
POLYLINE
  8
0
 66
     1
 70
     1
 40
0.200000
 41
0.200000
  0
VERTEX
  8
0
 10
100.050000
 20
204.550000
  0
VERTEX
  8
0
 10
99.925000
 20
206.600000
  0
VERTEX
  8
0
 10
94.825000
 20
206.325000
  0
VERTEX
  8
0
 10
94.550000
 20
204.000000
  0
VERTEX
  8
0
 10
100.050000
 20
204.550000
  0
SEQEND
  8
0
  0
POLYLINE
  8
0
 66
     1
 70
     1
 40
0.200000
 41
0.200000
  0
VERTEX
  8
0
 10
129.950000
 20
229.350000
  0
VERTEX
  8
0
 10
130.100000
 20
231.700000
  0
VERTEX
  8
0
 10
136.425000
 20
231.700000
  0
VERTEX
  8
0
 10
136.300000
 20
229.350000
  0
VERTEX
  8
0
 10
149.925000
 20
229.200000
  0
VERTEX
  8
0
 10
149.800000
 20
224.925000
  0
VERTEX
  8
0
 10
144.975000
 20
225.200000
  0
VERTEX
  8
0
 10
135.875000
 20
224.925000
  0
VERTEX
  8
0
 10
135.875000
 20
224.250000
  0
VERTEX
  8
0
 10
139.200000
 20
224.250000
  0
VERTEX
  8
0
 10
139.950000
 20
224.225000
  0
VERTEX
  8
0
 10
140.650000
 20
224.200000
  0
VERTEX
  8
0
 10
141.275000
 20
224.125000
  0
VERTEX
  8
0
 10
141.850000
 20
224.050000
  0
VERTEX
  8
0
 10
142.350000
 20
223.925000
  0
VERTEX
  8
0
 10
142.775000
 20
223.775000
  0
VERTEX
  8
0
 10
143.150000
 20
223.625000
  0
VERTEX
  8
0
 10
143.450000
 20
223.425000
  0
VERTEX
  8
0
 10
143.850000
 20
223.100000
  0
VERTEX
  8
0
 10
144.175000
 20
222.725000
  0
VERTEX
  8
0
 10
144.475000
 20
222.350000
  0
VERTEX
  8
0
 10
144.725000
 20
221.900000
  0
VERTEX
  8
0
 10
144.925000
 20
221.450000
  0
VERTEX
  8
0
 10
145.075000
 20
220.950000
  0
VERTEX
  8
0
 10
145.200000
 20
220.425000
  0
VERTEX
  8
0
 10
145.250000
 20
219.850000
  0
VERTEX
  8
0
 10
145.525000
 20
211.300000
  0
VERTEX
  8
0
 10
143.325000
 20
211.300000
  0
VERTEX
  8
0
 10
143.325000
 20
209.775000
  0
VERTEX
  8
0
 10
149.800000
 20
209.925000
  0
VERTEX
  8
0
 10
149.650000
 20
205.225000
  0
VERTEX
  8
0
 10
143.450000
 20
205.500000
  0
VERTEX
  8
0
 10
143.475000
 20
204.600000
  0
VERTEX
  8
0
 10
143.500000
 20
203.800000
  0
VERTEX
  8
0
 10
143.475000
 20
203.075000
  0
VERTEX
  8
0
 10
143.450000
 20
202.400000
  0
VERTEX
  8
0
 10
143.400000
 20
201.825000
  0
VERTEX
  8
0
 10
143.350000
 20
201.325000
  0
VERTEX
  8
0
 10
143.275000
 20
200.900000
  0
VERTEX
  8
0
 10
143.175000
 20
200.550000
  0
VERTEX
  8
0
 10
143.025000
 20
200.150000
  0
VERTEX
  8
0
 10
142.825000
 20
199.800000
  0
VERTEX
  8
0
 10
142.575000
 20
199.475000
  0
VERTEX
  8
0
 10
142.300000
 20
199.175000
  0
VERTEX
  8
0
 10
141.950000
 20
198.900000
  0
VERTEX
  8
0
 10
141.575000
 20
198.675000
  0
VERTEX
  8
0
 10
141.175000
 20
198.500000
  0
VERTEX
  8
0
 10
140.700000
 20
198.350000
  0
VERTEX
  8
0
 10
140.050000
 20
198.200000
  0
VERTEX
  8
0
 10
139.325000
 20
198.075000
  0
VERTEX
  8
0
 10
138.525000
 20
197.975000
  0
VERTEX
  8
0
 10
137.675000
 20
197.925000
  0
VERTEX
  8
0
 10
136.750000
 20
197.925000
  0
VERTEX
  8
0
 10
135.750000
 20
197.925000
  0
VERTEX
  8
0
 10
134.675000
 20
198.000000
  0
VERTEX
  8
0
 10
133.550000
 20
198.075000
  0
VERTEX
  8
0
 10
132.300000
 20
202.900000
  0
VERTEX
  8
0
 10
137.525000
 20
203.025000
  0
VERTEX
  8
0
 10
137.525000
 20
205.375000
  0
VERTEX
  8
0
 10
128.450000
 20
204.825000
  0
VERTEX
  8
0
 10
128.925000
 20
204.500000
  0
VERTEX
  8
0
 10
129.325000
 20
204.150000
  0
VERTEX
  8
0
 10
129.675000
 20
203.750000
  0
VERTEX
  8
0
 10
129.925000
 20
203.350000
  0
VERTEX
  8
0
 10
130.125000
 20
202.900000
  0
VERTEX
  8
0
 10
130.225000
 20
202.425000
  0
VERTEX
  8
0
 10
130.275000
 20
201.925000
  0
VERTEX
  8
0
 10
130.225000
 20
201.375000
  0
VERTEX
  8
0
 10
130.175000
 20
201.075000
  0
VERTEX
  8
0
 10
130.125000
 20
200.775000
  0
VERTEX
  8
0
 10
130.025000
 20
200.500000
  0
VERTEX
  8
0
 10
129.900000
 20
200.225000
  0
VERTEX
  8
0
 10
129.750000
 20
199.975000
  0
VERTEX
  8
0
 10
129.550000
 20
199.750000
  0
VERTEX
  8
0
 10
129.350000
 20
199.525000
  0
VERTEX
  8
0
 10
129.125000
 20
199.300000
  0
VERTEX
  8
0
 10
128.875000
 20
199.100000
  0
VERTEX
  8
0
 10
128.600000
 20
198.950000
  0
VERTEX
  8
0
 10
128.300000
 20
198.800000
  0
VERTEX
  8
0
 10
128.000000
 20
198.675000
  0
VERTEX
  8
0
 10
127.650000
 20
198.600000
  0
VERTEX
  8
0
 10
127.300000
 20
198.525000
  0
VERTEX
  8
0
 10
126.900000
 20
198.500000
  0
VERTEX
  8
0
 10
126.500000
 20
198.475000
  0
VERTEX
  8
0
 10
125.900000
 20
198.550000
  0
VERTEX
  8
0
 10
125.375000
 20
198.650000
  0
VERTEX
  8
0
 10
124.900000
 20
198.825000
  0
VERTEX
  8
0
 10
124.475000
 20
199.050000
  0
VERTEX
  8
0
 10
124.100000
 20
199.350000
  0
VERTEX
  8
0
 10
123.800000
 20
199.700000
  0
VERTEX
  8
0
 10
123.550000
 20
200.100000
  0
VERTEX
  8
0
 10
123.350000
 20
200.550000
  0
VERTEX
  8
0
 10
123.250000
 20
200.975000
  0
VERTEX
  8
0
 10
123.225000
 20
201.400000
  0
VERTEX
  8
0
 10
123.275000
 20
201.875000
  0
VERTEX
  8
0
 10
123.375000
 20
202.325000
  0
VERTEX
  8
0
 10
123.575000
 20
202.825000
  0
VERTEX
  8
0
 10
123.825000
 20
203.325000
  0
VERTEX
  8
0
 10
124.175000
 20
203.850000
  0
VERTEX
  8
0
 10
124.575000
 20
204.400000
  0
VERTEX
  8
0
 10
116.175000
 20
203.450000
  0
VERTEX
  8
0
 10
116.325000
 20
208.675000
  0
VERTEX
  8
0
 10
137.525000
 20
209.650000
  0
VERTEX
  8
0
 10
137.525000
 20
211.300000
  0
VERTEX
  8
0
 10
136.025000
 20
211.300000
  0
VERTEX
  8
0
 10
123.475000
 20
210.475000
  0
VERTEX
  8
0
 10
120.025000
 20
210.325000
  0
VERTEX
  8
0
 10
120.100000
 20
211.675000
  0
VERTEX
  8
0
 10
120.150000
 20
213.000000
  0
VERTEX
  8
0
 10
120.225000
 20
214.300000
  0
VERTEX
  8
0
 10
120.275000
 20
215.525000
  0
VERTEX
  8
0
 10
120.325000
 20
216.750000
  0
VERTEX
  8
0
 10
120.375000
 20
217.900000
  0
VERTEX
  8
0
 10
120.400000
 20
219.025000
  0
VERTEX
  8
0
 10
120.450000
 20
220.125000
  0
VERTEX
  8
0
 10
120.450000
 20
220.600000
  0
VERTEX
  8
0
 10
120.475000
 20
221.050000
  0
VERTEX
  8
0
 10
120.500000
 20
221.500000
  0
VERTEX
  8
0
 10
120.550000
 20
221.950000
  0
VERTEX
  8
0
 10
120.600000
 20
222.375000
  0
VERTEX
  8
0
 10
120.675000
 20
222.775000
  0
VERTEX
  8
0
 10
120.750000
 20
223.175000
  0
VERTEX
  8
0
 10
120.850000
 20
223.550000
  0
VERTEX
  8
0
 10
129.825000
 20
223.825000
  0
VERTEX
  8
0
 10
129.825000
 20
224.800000
  0
VERTEX
  8
0
 10
129.125000
 20
224.800000
  0
VERTEX
  8
0
 10
116.325000
 20
223.550000
  0
VERTEX
  8
0
 10
116.325000
 20
229.075000
  0
VERTEX
  8
0
 10
129.950000
 20
229.350000
  0
SEQEND
  8
0
  0
POLYLINE
  8
0
 66
     1
 70
     1
 40
0.200000
 41
0.200000
  0
VERTEX
  8
0
 10
129.550000
 20
214.600000
  0
VERTEX
  8
0
 10
129.550000
 20
216.125000
  0
VERTEX
  8
0
 10
126.375000
 20
215.850000
  0
VERTEX
  8
0
 10
126.375000
 20
214.325000
  0
VERTEX
  8
0
 10
129.550000
 20
214.600000
  0
SEQEND
  8
0
  0
POLYLINE
  8
0
 66
     1
 70
     1
 40
0.200000
 41
0.200000
  0
VERTEX
  8
0
 10
129.550000
 20
219.150000
  0
VERTEX
  8
0
 10
129.550000
 20
220.400000
  0
VERTEX
  8
0
 10
126.650000
 20
220.125000
  0
VERTEX
  8
0
 10
126.500000
 20
218.875000
  0
VERTEX
  8
0
 10
129.550000
 20
219.150000
  0
SEQEND
  8
0
  0
POLYLINE
  8
0
 66
     1
 70
     1
 40
0.200000
 41
0.200000
  0
VERTEX
  8
0
 10
139.200000
 20
215.025000
  0
VERTEX
  8
0
 10
139.325000
 20
216.400000
  0
VERTEX
  8
0
 10
135.875000
 20
216.125000
  0
VERTEX
  8
0
 10
135.875000
 20
214.750000
  0
VERTEX
  8
0
 10
139.200000
 20
215.025000
  0
SEQEND
  8
0
  0
POLYLINE
  8
0
 66
     1
 70
     1
 40
0.200000
 41
0.200000
  0
VERTEX
  8
0
 10
139.200000
 20
219.550000
  0
VERTEX
  8
0
 10
139.200000
 20
220.950000
  0
VERTEX
  8
0
 10
135.875000
 20
220.800000
  0
VERTEX
  8
0
 10
135.875000
 20
219.275000
  0
VERTEX
  8
0
 10
139.200000
 20
219.550000
  0
SEQEND
  8
0
  0
ENDSEC
  0
EOF
